<svg width="572" height="171" viewBox="0 0 572 171" fill="none" xmlns="http://www.w3.org/2000/svg">
<path d="M81.458 0C36.526 0 0 36.533 0 81.467C0 109.931 14.572 134.956 36.702 149.543V101.864H28.4705V134.446C24.5369 129.641 20.4124 123.649 16.9835 117.815C10.8069 107.01 7.5519 95.176 7.5519 81.466C7.5519 40.301 40.6419 6.861 81.4619 6.861C122.279 6.861 155.376 40.301 155.376 81.466C155.376 95.176 151.945 107.005 145.759 117.992C142.501 123.649 138.214 129.641 134.281 134.446V101.864H126.216V149.553C148.341 134.966 162.918 109.932 162.918 81.468C162.918 36.527 126.389 0.000999928 81.4603 0.000999928L81.458 0ZM331.308 4.2971L320.509 6.5201V9.4314L325.308 10.4638V62.7628L320.332 63.7859V67.2274H337.651V63.6278L333.54 62.7628V35.1478C335.936 33.0905 338.347 31.3808 341.605 31.3808C346.405 31.3808 346.404 36.3554 346.404 39.789V62.94L342.293 63.7957V67.2372H359.445V63.6376L354.98 62.7726V35.8456C354.98 29.669 351.551 25.2146 344.684 25.2146C340.065 25.2146 336.623 27.7813 333.541 30.1816V4.2966H331.309L331.308 4.2971ZM405.222 4.2971C402.307 4.2971 399.734 6.6941 399.734 9.7846C399.729 12.861 402.308 15.2631 405.399 15.2631C408.314 15.2631 410.878 12.8611 410.878 9.7846C410.878 6.6939 408.309 4.2971 405.223 4.2971H405.222ZM215.222 7.7107C211.446 7.7107 207.842 8.22226 204.07 8.22226H193.616V11.8312L199.448 12.8543V62.7623L193.616 63.7854V67.2175H203.549C205.611 67.2175 214.867 67.3849 216.758 67.3849C221.567 67.3898 229.629 67.5649 234.253 59.6834C235.457 57.4499 236.322 54.7045 236.141 51.4519C236.141 47.3326 234.762 43.5628 231.853 40.4669C229.11 37.5572 226.022 36.5254 222.598 35.8349C226.879 33.9491 232.885 30.0055 232.885 21.7719C232.885 18.5145 231.519 14.9167 229.285 12.3499C224.999 7.70666 218.474 7.70856 215.222 7.70856L215.222 7.7107ZM213.678 11.487C216.759 11.487 222.933 12.8678 222.933 22.807C222.933 33.96 216.25 34.303 212.302 34.303H208.023V12.52C210.081 11.839 211.278 11.4876 213.678 11.4876L213.678 11.487ZM81.458 17.6631L56.586 37.0381L61.0506 42.8794L81.4576 27.0954L101.874 42.8794L106.32 37.0381L81.4576 17.6631H81.458ZM260.668 24.3507C248.662 24.3507 243.693 36.6977 243.693 46.8317C243.693 60.1997 250.893 68.0847 260.156 68.0847C269.247 68.0847 277.475 60.3671 277.475 45.7897C277.475 27.0937 265.639 24.3497 260.668 24.3497V24.3507ZM300.282 24.5181C287.929 24.5181 284.675 37.7291 284.675 47.3251C284.675 59.6781 289.991 68.0851 300.106 68.0851C307.992 68.0944 311.429 64.8235 314.858 58.1421L311.091 56.5888C309.377 59.3318 306.971 62.0673 303.362 62.0673C294.961 62.0673 293.59 52.4714 293.252 45.6043H315.026C314.859 35.4943 312.965 24.5183 300.284 24.5183L300.282 24.5181ZM482.892 24.5274C474.658 24.5274 468.15 30.1906 468.15 38.7674C468.15 45.9679 472.42 48.8844 475.172 50.5984C470.705 53.3414 467.294 56.2516 467.294 59.509C467.294 62.4282 469.355 64.1395 472.093 64.9965C469.179 67.0585 465.583 69.6208 465.583 73.9161C465.583 80.2594 473.464 82.6591 480.67 82.6591C493.866 82.6591 501.254 76.1425 501.254 68.2611C501.254 60.713 496.78 58.1451 489.414 57.9741L478.439 57.6207C477.753 57.6207 475.518 57.1136 475.518 55.7326C475.518 54.704 477.063 53.3379 478.615 52.133C480.158 52.4759 482.039 52.8213 483.582 52.8213C489.583 52.8213 497.813 48.5354 497.813 38.9253C497.813 35.506 496.616 33.2697 494.735 30.5171L501.589 30.7031V25.5594L491.814 25.8942C488.904 25.8942 485.98 24.5269 482.894 24.5269L482.892 24.5274ZM522.85 24.5274C510.502 24.5274 507.252 37.7334 507.252 47.3344C507.252 59.6874 512.563 68.0854 522.683 68.0854C530.565 68.0854 533.997 64.819 537.425 58.1424L533.658 56.5891C531.948 59.3369 529.543 62.0766 525.938 62.0766C517.528 62.0766 516.166 52.4707 515.818 45.6226H537.601C537.429 35.5126 535.541 24.5276 522.85 24.5276V24.5274ZM432.301 24.8623L421.67 27.6154V31.0475L426.646 31.559V62.774L421.67 63.7971V67.2292H439.333V63.6296L435.045 62.7739V34.8149C437.279 32.7576 439.847 30.8805 442.932 30.8805C447.738 30.8805 447.741 35.8503 447.741 37.9029V62.9419L443.277 63.7976V67.2297H460.596V63.6301L456.131 62.7744V35.8474C456.131 29.1565 452.71 25.0394 445.686 25.0394C441.224 25.0394 437.792 27.4533 434.701 30.025V24.8628L432.301 24.8623ZM555.941 24.8716L545.486 27.6062V30.3593L550.462 31.2243V62.7743L545.486 63.7974V67.2295H564.516V63.6206L558.517 62.7649V40.3029C558.517 38.9219 560.399 34.6421 563.827 33.0943L568.283 35.5033C569.654 34.2985 571.557 32.922 571.557 30.3506C571.557 26.9313 569.324 25.3836 566.571 25.3836C562.976 25.3836 561.092 28.1351 558.34 32.7688V24.8721H555.94L555.941 24.8716ZM376.411 24.8809L365.957 27.6155V30.3593L370.924 31.2243V62.7743L365.957 63.7974V67.2389H384.987V63.63L378.988 62.765V40.312C378.988 38.9262 381.046 34.6421 384.475 33.0944L388.94 35.4941C390.14 34.2893 392.19 32.9269 392.018 30.3504C392.018 26.9264 389.791 25.3834 387.219 25.3834C383.623 25.3834 381.563 28.1397 378.82 32.7686V24.8814H376.411L376.411 24.8809ZM408.137 25.2157L397.338 27.9503V30.8616L401.793 31.9033V62.7743L397.338 63.7974V67.2295H415.01V63.6299L410.201 62.7742V25.2162H408.136L408.137 25.2157ZM482.723 28.3037C488.209 28.3037 488.731 34.4732 488.731 39.1117C488.731 43.3977 488.034 48.7104 483.058 48.7104C477.748 48.7104 477.058 43.0567 477.058 38.4234C477.058 34.1326 477.404 28.3034 482.723 28.3034L482.723 28.3037ZM260.833 28.4711C267 28.4711 268.209 38.5841 268.209 45.6131C268.209 51.1039 267.531 63.7971 260.154 63.7971C255.354 63.7971 252.778 57.1052 252.778 46.9811C252.778 42.1903 253.113 28.4721 260.833 28.4721V28.4711ZM300.447 28.6385C305.595 28.6385 306.122 36.3495 306.288 41.5025H293.248C293.763 36.3498 294.961 28.6385 300.447 28.6385H300.447ZM523.017 28.6385C528.165 28.6385 528.677 36.3685 528.849 41.5025H515.809C516.333 36.3688 517.522 28.6385 523.017 28.6385H523.017ZM208.017 38.4139H211.784C217.618 38.4139 226.368 39.285 226.368 50.9329C226.363 55.3951 224.819 59.6835 221.048 61.7409C218.819 63.1077 215.905 63.7965 213.495 63.7965C211.267 63.7965 209.56 63.4624 208.017 62.4385V38.4135L208.017 38.4139ZM77.337 48.8679V162.748C78.7133 162.748 80.0764 162.925 81.4575 162.925C82.8243 162.925 84.2059 162.748 85.4012 162.748V48.8679H77.3369H77.337ZM61.051 48.8772V160.337C63.9607 161.199 66.3723 161.711 69.1153 162.049V48.8686H61.051V48.8772ZM93.624 48.8772V162.237C96.367 161.723 99.2882 161.04 101.688 160.349V48.8891H93.624V48.8772ZM476.884 65.6932C485.632 66.2076 489.228 66.7136 492.138 67.2279C493.852 67.566 495.059 68.4198 495.059 71.339C495.059 75.1107 489.568 78.0266 482.54 78.0266C477.396 78.0266 473.62 75.9664 473.62 72.1948C473.62 68.947 475.337 67.2364 476.885 65.6934L476.884 65.6932ZM352.744 91.7552L341.945 94.1549V97.0662L346.744 97.5871V150.4L341.768 151.433V154.865H359.44V151.256L354.976 150.233V91.7579H352.743L352.744 91.7552ZM376.927 91.7552L366.119 94.1549V97.0662L370.918 97.9312V150.411L365.951 151.434V154.866H383.437V151.276L379.15 150.244V122.796C381.554 120.738 383.961 118.852 387.214 118.852C392.186 118.852 392.013 123.827 392.013 127.26V150.578L387.902 151.434V154.866H405.054V151.276L400.589 150.243V123.316C400.589 117.135 397.165 112.852 390.469 112.852C385.841 112.852 382.231 115.248 379.15 117.819V91.7574H376.926L376.927 91.7552ZM457.68 91.7552C454.77 91.7552 452.025 94.3244 452.025 97.4103C452.025 100.325 454.594 102.898 457.68 102.898C460.59 102.898 463 100.324 463 97.2331C463 94.3234 460.766 91.7547 457.68 91.7547V91.7552ZM193.94 95.6989V99.4659L199.437 100.322V150.4L193.95 151.432V154.864H213.492V151.255L208.525 150.232V100.322L213.668 99.2898V95.6995H193.94L193.94 95.6989ZM44.75 101.866V154.165C47.3168 155.546 50.0713 156.75 52.8048 157.773V101.865H44.75V101.866ZM109.916 101.866V157.951C112.654 156.75 115.414 155.546 118.157 154.165V101.867H109.916V101.866ZM281.066 112.153C274.637 112.153 269.259 115.607 267.217 121.193H267.207C266.63 122.765 266.314 124.511 266.314 126.402C266.314 133.603 270.598 136.333 273.336 138.047C268.888 140.795 265.626 143.877 265.626 147.134C265.626 149.882 267.511 151.608 270.425 152.622C267.339 154.512 263.747 157.251 263.747 161.541C263.747 167.894 271.633 170.284 278.834 170.284C292.044 170.284 299.418 163.772 299.418 155.709C299.418 148.342 294.959 145.928 287.587 145.589L276.602 145.078C275.911 145.078 273.691 144.743 273.691 143.357C273.691 142.162 275.236 140.795 276.955 139.581C278.498 140.1 280.221 140.278 281.755 140.278C287.76 140.278 295.986 136.164 295.986 126.391C295.986 124.387 295.534 122.773 294.749 121.192C294.253 120.187 293.636 119.217 292.898 118.151L299.93 118.327V113.175L289.987 113.519C287.063 113.528 284.153 112.151 281.067 112.151L281.066 112.153ZM321.015 112.153C308.667 112.153 305.417 125.368 305.417 134.969C305.417 147.322 310.724 155.711 320.839 155.711C328.73 155.711 332.166 152.458 335.6 145.777L331.824 144.224C330.109 146.962 327.704 149.711 324.104 149.711C315.698 149.711 314.322 140.106 313.984 133.248H335.758C335.596 123.133 333.697 112.153 321.016 112.153L321.015 112.153ZM427.165 112.153C414.821 112.153 411.558 125.368 411.558 134.969C411.558 147.322 416.878 155.711 426.998 155.711C434.879 155.711 438.316 152.458 441.75 145.777L437.974 144.224C436.259 146.962 433.849 149.711 430.254 149.711C421.853 149.711 420.472 140.106 420.134 133.248H441.908C441.746 123.133 439.852 112.153 427.166 112.153L427.165 112.153ZM484.769 112.329L473.961 115.064V117.975L478.928 118.84V150.39L473.961 151.423V154.855H491.271V151.255L487.346 150.232V122.607C489.403 120.721 491.62 118.673 495.391 118.673C499.677 118.673 500.712 122.614 500.712 125.872V150.39L495.912 151.422V154.854H513.054V151.255L508.934 150.231V122.783C511.339 120.55 513.579 118.672 517.007 118.672C521.636 118.672 521.974 123.471 521.974 125.704V150.389L517.519 151.431V154.863H535.349V151.254L530.54 150.231V123.127H530.548C530.548 116.274 526.264 112.84 519.74 112.84C514.94 112.84 511.343 115.247 508.085 118.505C506.38 114.9 502.601 113.008 498.486 113.008C494.372 113.008 490.423 114.893 486.99 117.975V112.329H484.767L484.769 112.329ZM230.639 112.338L220.008 115.073V118.514L224.984 119.193V150.417L220.008 151.44V154.873H237.671V151.264L233.206 150.241V122.291C233.649 121.91 234.084 121.545 234.536 121.202C236.57 119.655 238.742 118.514 241.271 118.514C243.68 118.514 244.88 119.721 245.475 121.212C246.075 122.698 246.079 124.427 246.079 125.537V150.576L241.605 151.441V154.873H258.942V151.264L254.478 150.241V123.305C254.478 122.576 254.434 121.87 254.348 121.203C253.671 115.883 250.272 112.506 244.014 112.506C239.566 112.506 236.124 115.082 233.039 117.482V112.338H230.639L230.639 112.338ZM460.429 112.841L449.612 115.584V118.337L454.077 119.351V150.389L449.612 151.431V154.863H467.107V151.254L462.475 150.231V112.84H460.429L460.429 112.841ZM280.889 115.761C284.313 115.761 285.863 118.217 286.544 121.203H286.554C286.973 123.012 287.066 124.994 287.066 126.737C287.066 130.847 286.378 136.336 281.225 136.336C275.91 136.336 275.402 130.506 275.402 126.049C275.402 124.529 275.442 122.789 275.718 121.194H275.728C276.238 118.265 277.566 115.762 280.891 115.762L280.889 115.761ZM321.191 116.273C326.334 116.273 326.856 123.989 327.023 129.137H313.983C314.497 123.989 315.696 116.273 321.191 116.273H321.191ZM427.341 116.273C432.494 116.273 433.001 123.989 433.182 129.137H420.142C420.657 123.989 421.86 116.273 427.341 116.273H427.341ZM275.061 153.32C283.809 153.834 287.419 154.174 290.333 154.855C292.047 155.193 293.412 156.051 293.412 158.966C293.412 162.742 287.926 165.653 280.893 165.653C275.754 165.653 271.973 163.431 271.973 159.822C271.973 156.579 273.528 154.682 275.061 153.32L275.061 153.32Z" fill="white"/>
</svg>
