<svg width="548" height="100" viewBox="0 0 548 100" fill="none" xmlns="http://www.w3.org/2000/svg">
<path d="M212.479 5.62486C206.517 8.71269 201.595 11.3725 201.534 11.5559C201.472 11.7699 207.923 24.5798 208.351 25.0079C208.382 25.0384 210.339 24.0601 212.662 22.8372C214.986 21.6143 219.908 19.0462 223.576 17.1507C227.245 15.2552 230.302 13.5431 230.394 13.3291C230.516 12.9623 223.882 -0.000488281 223.546 -0.000488281C223.424 0.0300843 218.44 2.53703 212.479 5.62486Z" fill="white"/>
<path d="M112.813 6.573C111.712 8.07105 105.812 16.2339 99.6971 24.6719L88.5687 40.0499L85.9394 36.4424C84.4719 34.4857 78.5714 26.3534 72.7932 18.4046L62.2763 3.97433H0L0.0611451 11.5258L0.152863 19.1077L5.59478 19.1995L11.0061 19.2606V81.3229L5.59478 81.384L0.152863 81.4757L0.0611451 89.0577L0 96.6091H39.4386L39.3774 89.0271L39.2857 81.4757L33.8744 81.384L28.4325 81.3229V61.2367C28.4325 41.762 28.463 41.2117 28.9828 41.9149C29.2885 42.3123 32.4986 46.7147 36.1367 51.6675C54.8471 77.3484 62.1846 87.4374 65.3641 91.8092C68.2073 95.7531 68.9411 96.5786 69.2468 96.2423C69.5831 95.8754 85.0528 74.6275 102.204 50.9032C105.75 46.0116 108.808 41.8231 109.052 41.5786C109.389 41.2117 109.45 44.3607 109.45 61.2367V81.3229H98.4436V96.6091H169.678L169.616 89.0271L169.525 81.4757L164.113 81.384L158.671 81.3229V19.2606L164.113 19.1995L169.525 19.1077L169.616 11.5563L169.678 3.97433L142.254 3.91319L114.83 3.82147L112.813 6.573Z" fill="white"/>
<path d="M364.425 18.9549L369.867 19.016C372.832 19.0772 375.247 19.1995 375.217 19.3217C375.156 19.4746 375.125 33.538 375.125 50.5975V81.6286H364.425V96.6091H437.799V81.6286L432.388 81.5674L426.946 81.4757L426.793 3.97433H364.425V18.9549Z" fill="white"/>
<path d="M299.152 23.6019C289.216 24.5802 276.59 28.6464 270.17 32.9265C262.557 38.0016 257.023 46.623 255.464 55.9171C253.08 69.9805 259.53 84.3801 271.362 91.473C277.599 95.2028 289.063 98.6269 298.908 99.697C303.952 100.217 314.653 99.911 319.483 99.0855C324.589 98.1989 329.48 96.8843 334.464 95.0194C344.155 91.4118 349.597 87.7737 353.938 81.9955C355.62 79.7637 358.922 73.7103 358.922 72.8543C358.922 72.518 356.476 72.4568 345.409 72.4568L331.865 72.4874L330.581 75.1778C329.817 76.7981 328.655 78.5713 327.768 79.5497C323.488 84.2273 316.487 86.4896 310.342 85.175C305.634 84.1661 302.454 81.9955 300.864 78.6019C300.131 77.0121 300.07 76.5536 299.978 71.9065L299.856 66.9538H359.931L359.747 61.6647C359.625 57.8126 359.411 55.7948 358.983 54.1133C356.201 43.7492 349.658 35.9532 339.508 31.0616C331.101 26.9649 322.173 24.4274 313.093 23.5408C309.394 23.1739 303.035 23.2045 299.152 23.6019ZM310.495 38.3684C311.962 38.9799 313.552 40.5391 314.347 42.1289C314.989 43.4741 315.05 43.9326 315.05 49.2217V54.8776L307.468 54.9693L299.886 55.0305L300.07 42.8932L300.987 41.3951C301.965 39.8359 304.411 38.0627 306.001 37.8181C307.132 37.6041 309.364 37.9099 310.495 38.3684Z" fill="white"/>
<path d="M486.409 23.5713C478.766 24.3661 469.167 26.9648 462.441 30.0526C452.841 34.5162 445.931 42.8625 443.058 53.4712C442.354 56.1004 442.263 56.9565 442.263 61.7564C442.263 66.5562 442.354 67.4123 443.088 70.0721C445.84 80.3139 452.138 88.4462 460.729 92.7875C464.52 94.7136 471.979 97.1594 477.88 98.4128C488.03 100.583 500.687 100.522 510.867 98.26C518.205 96.6396 528.08 92.7875 532.727 89.7608C535.906 87.6819 539.208 84.5941 541.44 81.5979C543.152 79.305 545.506 74.9026 545.904 73.2822L546.087 72.4567H519.183L517.96 74.9637C513.588 83.9826 503.102 87.8959 493.839 84.0132C491.209 82.9431 489.283 81.2005 488.03 78.8464C487.204 77.2566 487.174 76.9815 487.082 72.0899L486.96 66.9537H546.851L547.065 65.7919C547.585 62.6735 546.943 56.4673 545.72 52.4623C542.969 43.5963 536.61 36.106 528.11 31.7341C515.453 25.1916 500.075 22.1955 486.409 23.5713ZM497.721 38.4295C499.097 38.9798 500.656 40.4779 501.482 42.0371C502.093 43.1377 502.154 43.8103 502.246 49.1299L502.368 55.0304H487.021V49.2522C487.021 43.5351 487.021 43.474 487.877 41.8536C489.711 38.3378 493.93 36.8703 497.721 38.4295Z" fill="white"/>
<path d="M179.461 42.19H190.467L190.406 61.787L190.314 81.384L184.903 81.3229L179.461 81.2923V96.6091H250.695L250.634 89.0577L250.542 81.4757H239.689V26.9037H179.461V42.19Z" fill="white"/>
</svg>
