<svg width="600" height="103" viewBox="0 0 600 103" fill="none" xmlns="http://www.w3.org/2000/svg">
<path d="M188.4 68.6C188.4 49.5 173 44.7 159.2 41.5C145.3 38.2 141.6 36.5 141.6 31C141.6 27.1 144.7 23.1 154.1 23.1C162.1 23.1 168.3 26.4 173.9 32.1L186.5 19.8C178.3 11.1 168.3 6 154.7 6C137.5 6 123.5 15.8 123.5 31.7C123.5 49 134.7 54.2 150.8 57.9C167.3 61.7 170.3 64.2 170.3 69.8C170.3 76.5 165.4 79.3 155.1 79.3C146.7 79.3 138.9 76.4 132.8 69.2L120.2 80.5C126.8 90.3 139.6 96.5 154.2 96.5C177.9 96.6 188.4 85.3 188.4 68.6ZM270.2 35.2C270.2 16.5 256.6 7.29999 240.1 7.29999H201.9V95.2H219.4V64H238.6C256.7 64.1 270.2 55.5 270.2 35.2ZM252.2 35.6C252.2 43.3 247.8 47 239.7 47H219.3V24.4H239.4C247.2 24.4 252.2 27.9 252.2 35.6ZM349.2 95.2L316 7.29999H299L265.5 95.2H284.2L291.1 75.6H323.1L330 95.2H349.2ZM317.1 58.9H297.1L302.7 43C304.4 37.9 306.2 32.6 307.1 29.3C308 32.6 309.7 37.8 311.5 43L317.1 58.9ZM422.9 25.4C417.4 14 407.4 5.89999 390.9 5.89999C368 5.89999 352.1 24.5 352.1 51.2C352.1 79 367.5 96.5 390.3 96.5C406.2 96.5 416.6 89.1 422.6 76.7L407.9 67.9C403.3 75.7 398.7 79.1 390.8 79.1C377.7 79.1 370.1 67 370.1 51.2C370.1 34.9 377.6 23.3 390.7 23.3C398.6 23.3 403.6 26.8 406.7 32.8L422.9 25.4ZM496.7 95.2V78H451.6V56.8H476.7V39.7H451.6V24.5H494.8V7.29999H434.1V95.2H496.7ZM573.1 68.6C573.1 49.5 557.7 44.7 543.9 41.5C530 38.2 526.3 36.5 526.3 31C526.3 27.1 529.4 23.1 538.8 23.1C546.8 23.1 553 26.4 558.7 32.1L571.3 19.8C563.1 11.1 553.1 6 539.5 6C522.3 6 508.3 15.8 508.3 31.7C508.3 49 519.5 54.2 535.6 57.9C552.1 61.7 555.1 64.2 555.1 69.8C555.1 76.5 550.2 79.3 539.9 79.3C531.5 79.3 523.7 76.4 517.6 69.2L505 80.5C511.6 90.3 524.4 96.5 539 96.5C562.6 96.6 573.1 85.3 573.1 68.6ZM600 84.7C600 79.7 595.8 75.4 590.8 75.4C585.8 75.4 581.6 79.7 581.6 84.7C581.6 89.7 585.8 93.9 590.8 93.9C595.8 93.9 600 89.7 600 84.7ZM0 25.6V76.9L44.2 102.6L88.4 76.9V25.6L44.2 0L0 25.6Z" fill="white"/>
</svg>
