<svg width="354" height="373" viewBox="0 0 354 373" fill="none" xmlns="http://www.w3.org/2000/svg">
<path fill-rule="evenodd" clip-rule="evenodd" d="M266.751 42.6452C267.039 40.9472 261.427 37.1772 260.362 35.8246C229.492 4.3788 193.039 -6.36533 151.003 3.59218C143.518 3.51488 136.223 5.9465 130.282 10.4991C110.364 18.1883 93.973 32.94 84.2354 51.9407C78.8475 58.063 74.563 65.074 71.5727 72.6616C56.4734 126.133 70.671 169.877 114.165 203.893C125.222 211.712 137.756 217.196 151.003 220.01C165.9 223.603 181.387 224.026 196.459 221.249C211.531 218.473 225.851 212.56 238.49 203.893C251.772 195.049 263.043 183.509 271.571 170.022C280.1 156.536 285.694 141.405 287.99 125.615C289.17 93.037 284.911 73.381 266.751 42.6452ZM226.979 116.405C225.08 127.056 223.926 137.827 223.525 148.638C215.02 152.027 206.126 154.347 197.049 155.545C194.325 163.727 192.775 172.253 192.444 180.87C184.693 181.627 176.869 180.845 169.421 178.568C140.009 174.98 128.881 158.864 136.037 130.219C130.646 119.456 125.274 108.712 119.921 97.987C116.717 72.7575 127.078 55.8739 151.003 47.3361C151.503 46.484 152.168 45.7399 152.958 45.147C153.749 44.5541 154.649 44.1243 155.607 43.8826C171.184 41.0663 187.249 43.0745 201.653 49.6384C208.638 54.5466 214.294 61.1137 218.112 68.7493C221.929 76.3849 223.79 84.8496 223.525 93.3824C228.8 97.8359 233.109 103.32 236.188 109.499C234.075 112.858 230.795 115.318 226.979 116.405Z" fill="white"/>
<path d="M26.1888 266.746L0 316.562H13.9578L19.1092 306.777H47.0823L52.2625 316.562H66.1915L39.9163 266.746H26.1888ZM25.0376 295.208L33.1533 279.61L41.2114 295.208H25.0376Z" fill="white"/>
<path d="M151.319 266.746H138.973V304.849H106.856V266.746H94.5095V316.562H141.678C141.795 316.85 141.882 317.149 141.937 317.454C142.105 318.896 142.163 320.349 142.11 321.8V324.678H154.485V304.849H151.319V266.746Z" fill="white"/>
<path d="M222.952 300.388L201.713 266.746H185.568V316.562H197.914V283.524L219.325 316.562H226.578L248.047 283.438V316.562H260.393V266.746H244.19L222.952 300.388Z" fill="white"/>
<path d="M350.814 304.849V266.804H300.682V284.387C300.629 288.24 300.331 292.085 299.789 295.899C299.408 298.96 298.85 301.996 298.12 304.993H293.803V324.822H306.437V316.562H341.576V324.678H353.98V304.849H350.814ZM338.468 278.545V304.849H311.013C312.382 298.115 313.058 291.259 313.028 284.387V278.632L338.468 278.545Z" fill="white"/>
<path d="M100.266 369.4H96.6971V352.564L85.7611 369.4H83.6027L72.638 352.564V369.4H69.0694V349.255H74.8252L84.7539 364.997L94.625 349.255H100.381L100.266 369.4Z" fill="white"/>
<path d="M133.938 369.4H114.599V349.255H133.938V352.564H118.225V357.572H133.42V360.881H118.225V366.148H133.938V369.4Z" fill="white"/>
<path d="M171.839 372.998H168.27V369.401H151.003V372.998H147.261V366.12H148.931C149.904 362.863 150.37 359.475 150.312 356.076V349.227H170.63V366.12H171.983L171.839 372.998ZM166.831 366.12V352.536H153.737V356.076C153.781 359.454 153.423 362.826 152.672 366.12H166.831Z" fill="white"/>
<path d="M209.597 359.357C209.687 361.477 209.542 363.6 209.165 365.688C208.754 366.723 208.051 367.617 207.142 368.261C206.232 368.905 205.156 369.27 204.043 369.314C201.793 369.631 199.521 369.757 197.251 369.688C191.495 369.688 187.811 368.998 186.43 367.616C185.049 366.235 184.876 363.818 184.876 359.357C184.788 357.237 184.933 355.114 185.308 353.025C185.734 351.993 186.445 351.101 187.356 350.455C188.267 349.808 189.343 349.432 190.459 349.371C192.705 349.023 194.979 348.888 197.251 348.968C203.007 348.968 206.662 349.658 208.043 351.068C209.424 352.479 209.597 354.896 209.597 359.357ZM206.028 359.357C206.147 357.537 205.922 355.712 205.366 353.975C205.139 353.484 204.779 353.068 204.326 352.772C203.873 352.477 203.346 352.315 202.805 352.306C202.316 352.306 200.445 352.306 197.222 352.306C193.999 352.306 192.157 352.306 191.639 352.306C191.098 352.315 190.571 352.477 190.118 352.772C189.665 353.068 189.305 353.484 189.078 353.975C188.233 357.455 188.233 361.086 189.078 364.566C189.309 365.051 189.671 365.462 190.124 365.752C190.577 366.042 191.101 366.199 191.639 366.206C192.128 366.206 193.97 366.206 197.222 366.206C200.474 366.206 202.316 366.206 202.776 366.206C203.319 366.205 203.85 366.05 204.308 365.76C204.766 365.469 205.133 365.056 205.366 364.566C205.891 362.882 206.115 361.119 206.028 359.357Z" fill="white"/>
<path d="M248.364 369.4H242.378L229.485 360.421H227.096V369.4H223.441V349.255H227.096V357.14H229.485L241.313 349.255H247.5L233.341 358.752L248.364 369.4Z" fill="white"/>
<path d="M282.609 361.946C282.798 363.965 282.312 365.989 281.227 367.702C280.233 368.827 278.839 369.519 277.342 369.63C275.343 369.814 273.334 369.881 271.327 369.831C268.991 369.917 266.653 369.723 264.363 369.256C263.605 369.072 262.9 368.717 262.301 368.219C261.703 367.72 261.226 367.09 260.909 366.378C260.127 364.174 259.795 361.835 259.931 359.5C259.806 357.158 260.128 354.814 260.88 352.593C261.198 351.881 261.674 351.251 262.273 350.752C262.871 350.253 263.576 349.899 264.334 349.715C266.63 349.221 268.98 349.018 271.327 349.111C273.334 349.063 275.343 349.13 277.342 349.312C278.829 349.431 280.211 350.122 281.198 351.24C282.308 352.943 282.806 354.973 282.609 356.996H278.982C279.113 355.739 278.775 354.479 278.033 353.456C277.31 352.802 276.358 352.46 275.385 352.507C274.034 352.595 272.678 352.595 271.327 352.507C269.607 352.457 267.885 352.534 266.176 352.737C265.685 352.824 265.226 353.037 264.843 353.355C264.459 353.672 264.165 354.084 263.989 354.55C263.375 357.899 263.375 361.331 263.989 364.68C264.169 365.14 264.465 365.546 264.848 365.859C265.231 366.171 265.689 366.38 266.176 366.464C267.887 366.638 269.608 366.705 271.327 366.666C273.491 366.821 275.667 366.637 277.774 366.119C278.579 365.687 278.982 364.363 278.982 362.205L282.609 361.946Z" fill="white"/>
</svg>
