<svg width="600" height="105" viewBox="0 0 600 105" fill="none" xmlns="http://www.w3.org/2000/svg">
<path d="M214.156 24.2446V80.1446H258.956V70.4446H226.456V56.7446H258.956V46.9446H226.456V33.9446H258.956V24.2446H214.156Z" fill="white"/>
<path d="M314.856 80.1445V24.1445H326.656V80.1445H314.856Z" fill="white"/>
<path d="M160.457 24.1445L174.457 67.8445L189.157 24.1445H206.457V80.1445H195.157V38.2445L180.557 80.1445H168.257L154.457 38.2445V80.1445H143.057V24.1445H160.457Z" fill="white"/>
<path d="M280.557 34.1445H262.757V24.1445H311.057V34.1445H292.457V80.1445H280.557V34.1445Z" fill="white"/>
<path d="M449.257 24.2446V80.1446H494.057V70.4446H461.557V56.7446H494.057V46.9446H461.557V33.9446H494.057V24.2446H449.257Z" fill="white"/>
<path d="M569.557 34.1445H551.757V24.1445H599.957V34.1445H581.357V80.1445H569.557V34.1445Z" fill="white"/>
<path d="M372.457 64.3445L349.457 24.1445H334.557V80.1445H346.657L346.157 37.7445L370.257 80.1445H383.857V24.1445H371.857L372.457 64.3445Z" fill="white"/>
<path d="M416.657 65.8445L399.957 24.1445H386.557L410.957 80.1445H423.257L446.457 24.1445H433.957L416.657 65.8445Z" fill="white"/>
<path d="M532.357 47.5444H516.757C511.857 47.5444 509.357 45.5444 509.357 41.4444C509.357 36.3444 512.157 34.0444 518.357 34.0444H547.457V24.0444H516.657C509.857 24.0444 504.857 25.4444 501.757 28.1444C498.557 30.8444 497.057 35.2444 497.057 41.1444C497.057 52.3444 502.757 57.2444 515.757 57.2444H529.657C535.757 57.2444 537.957 59.0444 537.957 63.6444C537.957 68.2444 535.457 69.9444 528.857 69.9444H499.357V79.9444H530.757C544.257 79.9444 550.357 74.7444 550.357 63.1444C550.357 57.4444 548.957 53.4444 546.257 51.0444C543.457 48.7444 538.757 47.5444 532.357 47.5444Z" fill="white"/>
<path d="M87.3563 3.94444C87.3563 3.94444 79.9563 0.944435 78.9563 0.444435C77.9563 0.0444354 76.9563 -0.0555524 75.8563 0.144448C74.7563 0.344448 73.9563 0.944435 73.5563 1.44444C73.1563 1.84444 57.3563 17.6444 57.3563 17.6444C57.3563 17.6444 41.6562 2.14444 41.1562 1.54444C40.6562 1.04444 40.0563 0.544448 38.7563 0.144448C37.4563 -0.155552 36.3563 0.0444354 35.7563 0.444435C35.0563 0.744435 28.3563 3.54444 27.3563 3.94444C26.4563 4.24444 25.5563 5.04444 24.9563 5.94444C24.5563 6.74444 24.1562 7.54444 24.1562 8.54444C24.1562 7.64444 24.1562 30.5444 24.1562 30.5444L38.6562 38.9444V19.8444L45.4563 26.6444C45.9563 27.1444 46.5562 27.4445 47.2562 27.7445C47.7562 27.9445 48.1563 28.0444 48.9563 28.0444C49.7563 28.0444 65.4563 28.0444 65.4563 28.0444C66.0563 28.0444 66.6562 27.9445 67.1562 27.7445C67.7563 27.4445 68.3563 27.1444 69.0563 26.4444C69.7563 25.7444 75.7562 19.7445 75.7562 19.7445V38.8444L90.2562 30.4444C90.2562 30.4444 90.2562 10.8444 90.2562 8.64445C90.3562 6.44445 89.1563 4.74444 87.3563 3.94444Z" fill="white"/>
<path d="M0.0564468 51.3445C0.0564468 51.3445 1.05645 59.2445 1.25645 60.3445C1.45645 61.4445 1.85645 62.3445 2.65645 63.2445C3.45645 64.0445 4.35645 64.4445 4.95645 64.6445C5.55645 64.8445 27.0564 70.5445 27.0564 70.5445C27.0564 70.5445 21.3564 91.9445 21.1564 92.5445C20.9564 93.2445 20.8564 93.9445 21.1564 95.2445C21.4564 96.5445 22.3564 97.3445 22.9564 97.7445C23.5564 98.1445 29.3564 102.645 30.1564 103.245C30.9564 103.845 32.0564 104.245 33.1564 104.245C33.9564 104.245 34.9564 104.045 35.7564 103.545C34.9564 104.045 54.7564 92.5445 54.7564 92.5445V75.7445L38.0564 85.2445L40.5564 75.9445C40.7564 75.2445 40.7564 74.5445 40.6564 73.8445C40.5564 73.2445 40.4564 72.9445 40.0564 72.1445C39.6564 71.4445 31.7564 57.8445 31.7564 57.8445C31.4564 57.3445 31.0564 56.9445 30.6564 56.5445C30.1564 56.1445 29.5564 55.7445 28.6564 55.5445C27.8564 55.2445 19.5564 53.0445 19.5564 53.0445L36.0564 43.5445L21.5564 35.1445C21.5564 35.1445 4.55645 44.9445 2.65645 46.0445C0.656447 47.3445 -0.243553 49.3445 0.0564468 51.3445Z" fill="white"/>
<path d="M84.6561 103.244C84.6561 103.244 90.9561 98.4444 91.8561 97.7444C92.7561 97.0444 93.2561 96.2444 93.6561 95.2444C93.9561 94.1444 93.8561 93.2444 93.7561 92.6444C93.5561 92.0444 87.8561 70.5444 87.8561 70.5444C87.8561 70.5444 109.256 64.8444 109.956 64.6444C110.656 64.4444 111.356 64.2444 112.356 63.2444C113.256 62.3444 113.656 61.2444 113.756 60.4444C113.856 59.6444 114.756 52.4444 114.956 51.4444C115.156 50.4444 114.956 49.3444 114.356 48.4444C113.956 47.6444 113.356 47.0444 112.456 46.5444C113.256 47.0444 93.4561 35.5444 93.4561 35.5444L78.9561 43.9444L95.5561 53.5444L86.2561 56.0444C85.5561 56.2444 84.9561 56.5444 84.3561 56.9444C83.9561 57.2444 83.5561 57.6444 83.2561 58.3444C82.8561 59.0444 74.9561 72.6444 74.9561 72.6444C74.6561 73.1444 74.4561 73.6444 74.3561 74.2444C74.2561 74.9444 74.2561 75.6444 74.5561 76.4444C74.8561 77.2444 77.0561 85.5444 77.0561 85.5444L60.4561 75.9444V92.5444C60.4561 92.5444 77.4561 102.344 79.3561 103.444C81.0561 104.644 83.1561 104.344 84.6561 103.244Z" fill="white"/>
</svg>
