<svg width="703" height="120" viewBox="0 0 703 120" fill="none" xmlns="http://www.w3.org/2000/svg">
<g opacity="0.964">
<path fill-rule="evenodd" clip-rule="evenodd" d="M208.01 0.0314604C211.399 -0.076079 214.764 0.0920459 218.108 0.53634C218.275 4.58951 218.107 8.62855 217.603 12.6535C206.928 10.4749 199.944 14.5139 196.651 24.7706C196.04 28.1088 195.787 31.4744 195.893 34.8682C202.962 34.8682 210.03 34.8682 217.098 34.8682C217.098 38.5704 217.098 42.2732 217.098 45.9755C210.03 45.9755 202.962 45.9755 195.893 45.9755C195.893 70.0416 195.893 94.1072 195.893 118.173C191.518 118.173 187.142 118.173 182.766 118.173C182.766 94.1072 182.766 70.0416 182.766 45.9755C179.064 45.9755 175.361 45.9755 171.659 45.9755C171.659 42.2732 171.659 38.5704 171.659 34.8682C175.361 34.8682 179.064 34.8682 182.766 34.8682C181.96 25.6799 184.063 17.265 189.077 9.62418C194.299 4.1947 200.61 0.997295 208.01 0.0314604Z" fill="white"/>
<path fill-rule="evenodd" clip-rule="evenodd" d="M241.333 10.634C245.708 10.634 250.084 10.634 254.459 10.634C254.459 18.7121 254.459 26.7902 254.459 34.8683C261.528 34.8683 268.596 34.8683 275.664 34.8683C275.664 38.5705 275.664 42.2733 275.664 45.9756C268.596 45.9756 261.528 45.9756 254.459 45.9756C254.234 61.9798 254.486 77.9673 255.217 93.9392C258.338 105.012 265.574 109.387 276.927 107.066C277.179 111.27 277.263 115.477 277.179 119.688C269.879 120.55 262.811 119.625 255.974 116.911C247.378 112.168 242.582 104.847 241.585 94.9489C241.333 78.6252 241.248 62.3009 241.333 45.9756C237.63 45.9756 233.927 45.9756 230.225 45.9756C230.225 42.2733 230.225 38.5705 230.225 34.8683C233.927 34.8683 237.63 34.8683 241.333 34.8683C241.333 26.7902 241.333 18.7121 241.333 10.634Z" fill="white"/>
<path fill-rule="evenodd" clip-rule="evenodd" d="M29.7879 31.334C38.0018 31.075 45.7436 32.8421 53.0124 36.6353C55.2485 37.7768 57.0999 39.3758 58.566 41.4316C56.7475 44.9299 54.728 48.2955 52.5075 51.5292C43.1193 43.3729 32.6849 41.6058 21.2049 46.228C14.9793 51.4338 14.643 56.9875 20.1952 62.889C27.2251 67.0295 34.6302 70.3956 42.4099 72.9866C48.2635 75.4444 53.228 79.0628 57.3038 83.8415C64.1859 98.8743 60.2311 110.065 45.4392 117.416C30.3756 122.057 16.4071 119.87 3.53416 110.853C2.16139 109.65 0.983001 108.303 0 106.814C2.07405 103.479 4.42981 100.365 7.06832 97.4733C15.4094 105.555 25.3389 108.837 36.8562 107.318C44.4976 105.396 47.7793 100.6 46.7014 92.9294C44.7662 89.4815 41.9893 86.8728 38.3709 85.1037C32.6491 82.7475 26.9267 80.3917 21.2049 78.0354C15.3514 75.5777 10.3869 71.9592 6.311 67.1805C3.21003 62.0524 2.20027 56.4988 3.28172 50.5195C4.99831 42.9124 9.45842 37.6112 16.661 34.6157C20.95 32.9027 25.3258 31.8086 29.7879 31.334Z" fill="white"/>
<path fill-rule="evenodd" clip-rule="evenodd" d="M115.617 31.3341C136.831 31.2816 151.725 40.8743 160.299 60.1122C166.489 81.7635 160.683 99.3499 142.881 112.872C132.247 119.307 120.802 121.326 108.549 118.931C88.9682 113.822 77.4403 101.285 73.9647 81.3172C72.233 59.9481 80.9003 44.5493 99.966 35.1207C105.076 33.1274 110.293 31.8652 115.617 31.3341ZM116.627 43.4512C136.802 44.6927 147.74 55.379 149.444 75.511C148.482 92.0958 140.068 102.698 124.2 107.318C108.12 109.251 96.5924 102.94 89.616 88.3855C84.3264 73.597 87.44 60.8907 98.9563 50.2671C104.25 46.3446 110.14 44.0727 116.627 43.4512Z" fill="white"/>
<path fill-rule="evenodd" clip-rule="evenodd" d="M320.599 31.8389C331.245 30.612 341.343 32.3791 350.891 37.1401C352.832 38.3629 354.683 39.7094 356.445 41.1791C353.732 46.5203 350.956 51.8215 348.115 57.0828C339.693 50.3159 330.353 48.5489 320.094 51.7816C315.927 55.492 316.095 59.0261 320.599 62.3841C328.677 66.0864 336.755 69.7891 344.833 73.4914C357.297 80.9273 360.915 91.4455 355.688 105.046C350.595 113.449 343.106 118.245 333.221 119.435C321.611 121.063 310.672 119.043 300.403 113.377C297.554 111.708 295.029 109.688 292.83 107.318C296.046 102.319 299.328 97.3541 302.675 92.4244C310.848 99.8053 320.357 102.582 331.201 100.755C337.004 97.7459 337.677 93.8754 333.221 89.1427C327.527 86.0437 321.636 83.3507 315.55 81.0646C309.068 78.4458 303.599 74.4906 299.141 69.2C291.566 52.3839 296.362 40.5193 313.53 33.6059C315.951 33.0006 318.307 32.4114 320.599 31.8389Z" fill="white"/>
<path fill-rule="evenodd" clip-rule="evenodd" d="M406.933 31.839C416.965 30.5298 426.386 32.2969 435.206 37.1402C444.461 43.9394 449.762 53.1116 451.11 64.6562C451.448 69.5368 451.448 74.417 451.11 79.2977C431.879 79.8005 412.607 79.9692 393.301 79.8025C394.679 91.6985 401.242 98.8511 412.992 101.26C424.013 102.439 433.772 99.4939 442.275 92.4245C445.233 97.3315 447.924 102.38 450.353 107.571C445.072 112.57 438.846 116.021 431.672 117.921C417.601 121.741 404.137 120.227 391.282 113.377C377.949 104.388 371.217 91.7657 371.087 75.5111C371.985 51.659 383.934 37.1018 406.933 31.839ZM412.487 47.9951C423.114 48.5247 429.006 54.0784 430.158 64.6562C418.04 65.3292 405.923 65.3292 393.806 64.6562C396.26 54.7772 402.487 49.2235 412.487 47.9951Z" fill="white"/>
<path fill-rule="evenodd" clip-rule="evenodd" d="M657.858 31.839C667.89 30.5298 677.311 32.2969 686.132 37.1402C695.386 43.9414 700.687 53.1136 702.035 64.6562C702.288 69.7019 702.374 74.7507 702.288 79.8025C682.936 79.8025 663.579 79.8025 644.227 79.8025C645.605 91.7005 652.168 98.8532 663.917 101.26C674.938 102.439 684.698 99.4939 693.2 92.4245C696.158 97.3315 698.849 102.38 701.278 107.571C695.997 112.57 689.772 116.021 682.597 117.921C668.526 121.741 655.061 120.227 642.207 113.377C628.949 104.456 622.219 91.9181 622.012 75.7635C622.789 51.7787 634.74 37.1372 657.858 31.839ZM663.412 47.9951C674.025 48.5101 679.916 54.0638 681.083 64.6562C668.966 65.3292 656.849 65.3292 644.731 64.6562C647.185 54.7772 653.41 49.2235 663.412 47.9951Z" fill="white"/>
<path fill-rule="evenodd" clip-rule="evenodd" d="M515.987 32.3438C518.209 32.2065 520.4 32.3746 522.551 32.8487C523.141 39.9109 523.222 46.9793 522.803 54.0536C510.802 52.3123 502.052 56.8562 496.549 67.6854C494.439 73.0311 493.429 78.5847 493.52 84.3464C493.267 95.6209 493.182 106.896 493.267 118.173C486.199 118.173 479.131 118.173 472.063 118.173C472.063 89.9001 472.063 61.6268 472.063 33.3536C478.964 33.3536 485.861 33.3536 492.763 33.3536C492.677 39.4147 492.763 45.4732 493.015 51.5292C497.418 41.1439 505.077 34.7486 515.987 32.3438Z" fill="white"/>
<path fill-rule="evenodd" clip-rule="evenodd" d="M531.638 33.3537C539.217 33.1856 546.79 33.3542 554.358 33.8586C561.335 54.3678 568.151 74.8998 574.806 95.4539C581.303 74.6978 587.953 53.9977 594.748 33.3537C602.321 33.3537 609.895 33.3537 617.468 33.3537C607.709 61.5366 597.697 89.6418 587.428 117.669C578.966 118.169 570.469 118.338 561.931 118.174C551.935 89.8679 541.837 61.5947 531.638 33.3537Z" fill="white"/>
</g>
</svg>
