<svg width="163" height="100" viewBox="0 0 163 100" fill="none" xmlns="http://www.w3.org/2000/svg">
<path d="M70.2521 66.7002H66.1146V49.9127H72.1896C73.5396 49.9127 75.2771 50.0752 76.7021 51.3127C77.8396 52.2877 78.3896 53.6377 78.3896 55.4252C78.3896 57.0627 77.8896 58.4127 76.9146 59.4002C75.5771 60.7252 73.8646 60.9002 72.5271 60.9002H70.2521V66.7002ZM70.2521 57.5252H71.5271C71.9396 57.5252 72.9146 57.5252 73.5396 56.9377C73.9146 56.5627 74.1396 56.0002 74.1396 55.3877C74.1396 54.7627 73.9271 54.2127 73.5521 53.8627C73.0021 53.3502 72.1771 53.2752 71.4521 53.2752H70.2521V57.5252ZM84.7646 67.0752C82.9271 67.0752 81.5896 66.5377 80.4521 65.3502C79.3396 64.1877 78.7771 62.7627 78.7771 61.1252C78.7771 59.3377 79.4271 57.6877 80.5646 56.5752C81.5896 55.5752 83.0021 55.0252 84.5771 55.0252C85.6021 55.0252 86.9896 55.2752 88.0021 56.4127V55.3877H91.8896V66.7002H88.0021V65.6252C87.2146 66.5877 86.1396 67.0752 84.7646 67.0752ZM85.4771 58.3502C84.7646 58.3502 84.0521 58.6377 83.5646 59.1127C83.2021 59.4752 82.7646 60.0877 82.7646 61.0377C82.7646 61.9752 83.1646 62.5877 83.4896 62.9377C83.9896 63.4627 84.7646 63.7627 85.5521 63.7627C86.2271 63.7627 86.8896 63.5002 87.3646 63.0252C87.7521 62.6627 88.2146 62.0252 88.2146 61.0252C88.2146 60.2627 87.9271 59.5502 87.4146 59.0752C86.8396 58.5377 86.0396 58.3502 85.4771 58.3502ZM104.29 69.8252V66.7002H96.8146V69.8252H93.3271V63.7502L93.4396 63.7377C94.0021 63.6752 94.4896 63.4502 94.9146 63.0752C95.7896 62.2877 95.8646 61.1377 95.8646 59.8127V55.4002H106.115V63.7377H107.79V69.8252H104.29ZM98.3646 63.7377H102.215V58.3752H99.4521V60.3627C99.4521 61.4752 99.3021 62.0752 99.1896 62.4377C99.0771 62.7627 98.8521 63.2377 98.3646 63.7377ZM113.115 66.7002H109.227V55.3877H113.115V66.7002ZM111.177 53.0127C109.915 53.0127 108.927 52.0377 108.927 50.8127C108.927 49.5752 109.915 48.6127 111.177 48.6127C112.44 48.6127 113.427 49.5877 113.427 50.8127C113.427 52.0377 112.44 53.0127 111.177 53.0127ZM121.277 67.0752C119.265 67.0752 117.44 66.4127 116.252 65.2502C115.165 64.1877 114.515 62.6127 114.515 61.0502C114.515 59.4752 115.165 57.9127 116.252 56.8502C117.427 55.6877 119.265 55.0252 121.277 55.0252C123.29 55.0252 125.115 55.6877 126.302 56.8502C127.39 57.9127 128.04 59.4877 128.04 61.0502C128.04 62.6252 127.39 64.1877 126.302 65.2502C125.115 66.4127 123.29 67.0752 121.277 67.0752ZM121.277 58.3002C120.49 58.3002 119.827 58.5502 119.315 59.0627C118.777 59.5877 118.515 60.2377 118.515 61.0627C118.515 61.8752 118.777 62.5377 119.315 63.0627C119.827 63.5627 120.502 63.8252 121.302 63.8252C122.077 63.8252 122.727 63.5752 123.24 63.0627C123.777 62.5377 124.04 61.8877 124.04 61.0627C124.04 60.2502 123.777 59.5877 123.24 59.0627C122.727 58.5502 122.065 58.3002 121.277 58.3002ZM73.7271 93.6127C70.9521 93.6127 68.6896 92.7877 67.0146 91.1752C65.2896 89.5502 64.3396 87.2877 64.3396 84.8127C64.3396 82.4127 65.3146 80.1002 67.0146 78.5002C68.6646 76.9377 70.9271 76.0877 73.4021 76.0877C74.6771 76.0877 76.0271 76.3877 77.5021 77.0127L77.5771 77.0502V81.8502L77.3646 81.6377C76.2646 80.4877 74.9646 79.9127 73.5021 79.9127C72.1521 79.9127 71.0146 80.3377 70.1396 81.1627C69.1521 82.1002 68.5771 83.4627 68.5771 84.9002C68.5771 86.8127 69.4771 87.9502 70.0021 88.4627C70.4146 88.8752 71.6021 89.8127 73.5646 89.8127C74.9396 89.8127 76.1771 89.2627 77.3521 88.1377L77.5646 87.9377V92.6877L77.5021 92.7127C75.8896 93.5127 74.6396 93.6127 73.7271 93.6127ZM86.3396 93.2377H79.3271V81.9252H85.5021C86.2021 81.9252 87.4896 81.9252 88.3896 82.6752C89.0271 83.2127 89.3396 83.9752 89.3396 84.9252C89.3396 85.7377 89.1146 86.3127 88.6146 86.8002C88.4396 86.9877 88.2271 87.1502 87.9771 87.2752C88.4896 87.4252 88.9771 87.6877 89.3271 88.0127C89.8396 88.5127 90.1021 89.1752 90.1021 89.9877C90.1021 90.8752 89.8021 91.6502 89.2271 92.2127C88.7521 92.6877 87.8646 93.2377 86.3396 93.2377ZM83.2146 90.6127H84.7396C85.0396 90.6127 85.4521 90.6127 85.7521 90.3502C85.9521 90.1752 86.0646 89.8877 86.0646 89.5752C86.0646 89.2377 85.8896 89.0127 85.7521 88.9002C85.4271 88.6377 84.9021 88.6377 84.5896 88.6377H83.2146V90.6127ZM83.2146 86.3502H84.5896C84.7896 86.3502 85.1646 86.3252 85.4396 86.1502C85.6646 85.9877 85.7646 85.7627 85.7646 85.4377C85.7646 85.0377 85.5646 84.8377 85.4771 84.7627C85.3021 84.6252 84.8771 84.5627 84.5396 84.5627H83.2146V86.3502ZM97.9271 93.6127C95.9146 93.6127 94.0896 92.9502 92.9021 91.7877C91.8146 90.7252 91.1646 89.1502 91.1646 87.5877C91.1646 86.0127 91.8146 84.4502 92.9021 83.3877C94.0771 82.2252 95.9146 81.5627 97.9271 81.5627C99.9396 81.5627 101.765 82.2252 102.952 83.3877C104.04 84.4502 104.69 86.0252 104.69 87.5877C104.69 89.1627 104.04 90.7252 102.952 91.7877C101.777 92.9502 99.9396 93.6127 97.9271 93.6127ZM97.9271 84.8377C97.1396 84.8377 96.4771 85.0877 95.9646 85.6002C95.4271 86.1252 95.1646 86.7752 95.1646 87.6002C95.1646 88.4127 95.4271 89.0752 95.9646 89.6002C96.4771 90.1002 97.1521 90.3627 97.9521 90.3627C98.7271 90.3627 99.3771 90.1127 99.8896 89.6002C100.427 89.0752 100.69 88.4252 100.69 87.6002C100.69 86.7877 100.427 86.1252 99.8896 85.6002C99.3896 85.0877 98.7271 84.8377 97.9271 84.8377ZM112.765 93.6127C110.74 93.6127 109.227 93.0877 108.027 91.9377C105.99 89.9627 105.99 87.0877 105.99 86.1377C105.99 84.2002 106.277 80.6502 108.252 78.5877C109.577 77.2002 111.252 76.8377 112.365 76.5877L113.265 76.3877C114.265 76.1752 114.99 76.0127 115.365 75.6002C115.565 75.3752 115.615 75.1377 115.615 74.9877V74.8627H119.065L119.052 75.0002C118.94 76.1252 118.402 77.2877 117.677 77.9752C117.102 78.5377 116.19 78.9877 114.89 79.3377L113.365 79.7502C112.415 80.0127 111.327 80.3002 110.602 80.9377C110.027 81.4502 109.64 82.1877 109.502 82.9752C110.465 82.0127 111.727 81.5377 113.352 81.5377C115.152 81.5377 116.74 82.1002 117.815 83.1377C118.902 84.1752 119.527 85.6877 119.527 87.3002C119.527 89.0752 118.865 90.6752 117.665 91.8252C116.052 93.4127 114.202 93.6127 112.765 93.6127ZM112.74 84.8627C111.727 84.8627 111.09 85.3377 110.802 85.6252C110.29 86.1377 109.977 86.8752 109.977 87.6252C109.977 88.3502 110.265 89.0502 110.777 89.5502C111.065 89.8377 111.715 90.3127 112.79 90.3127C113.477 90.3127 114.09 90.0752 114.615 89.6252C115.19 89.1127 115.54 88.3252 115.54 87.5377C115.54 86.8627 115.252 86.2002 114.74 85.6627C114.202 85.1252 113.54 84.8627 112.74 84.8627ZM127.577 93.6127C125.565 93.6127 123.74 92.9502 122.552 91.7877C121.465 90.7252 120.815 89.1502 120.815 87.5877C120.815 86.0127 121.465 84.4502 122.552 83.3877C123.727 82.2252 125.565 81.5627 127.577 81.5627C129.59 81.5627 131.415 82.2252 132.602 83.3877C133.69 84.4502 134.34 86.0252 134.34 87.5877C134.34 89.1627 133.69 90.7252 132.602 91.7877C131.427 92.9502 129.59 93.6127 127.577 93.6127ZM127.577 84.8377C126.79 84.8377 126.127 85.0877 125.615 85.6002C125.077 86.1252 124.815 86.7752 124.815 87.6002C124.815 88.4127 125.077 89.0752 125.615 89.6002C126.127 90.1002 126.802 90.3627 127.602 90.3627C128.377 90.3627 129.027 90.1127 129.54 89.6002C130.077 89.0752 130.34 88.4252 130.34 87.6002C130.34 86.7877 130.077 86.1252 129.54 85.6002C129.027 85.0877 128.365 84.8377 127.577 84.8377ZM145.59 96.3752V93.2502H138.115V96.3752H134.627V90.2877L134.74 90.2752C135.302 90.2127 135.79 89.9877 136.215 89.6127C137.09 88.8252 137.165 87.6752 137.165 86.3502V81.9377H147.415V90.2752H149.09V96.3752H145.59ZM139.665 90.2752H143.515V84.9127H140.752V86.9002C140.752 88.0127 140.602 88.6127 140.49 88.9752C140.377 89.3002 140.152 89.7752 139.665 90.2752ZM155.452 93.6127C153.615 93.6127 152.277 93.0752 151.14 91.8877C150.027 90.7252 149.465 89.3002 149.465 87.6627C149.465 85.8752 150.115 84.2252 151.252 83.1127C152.277 82.1127 153.69 81.5627 155.265 81.5627C156.29 81.5627 157.677 81.8127 158.69 82.9502V81.9252H162.577V93.2377H158.69V92.1502C157.902 93.1252 156.827 93.6127 155.452 93.6127ZM156.165 84.8877C155.452 84.8877 154.74 85.1752 154.252 85.6502C153.89 86.0127 153.452 86.6252 153.452 87.5752C153.452 88.5127 153.852 89.1252 154.177 89.4752C154.677 90.0002 155.452 90.3002 156.24 90.3002C156.915 90.3002 157.577 90.0377 158.052 89.5627C158.44 89.2002 158.902 88.5627 158.902 87.5627C158.902 86.8002 158.615 86.0877 158.102 85.6127C157.527 85.0752 156.727 84.8877 156.165 84.8877Z" fill="white"/>
<path d="M65.2397 30.1625C56.6272 31.1625 54.2022 40.075 47.7272 47.775C39.0647 58.05 26.2147 52.775 26.2147 52.775C34.8772 51.7 37.3647 42.725 44.0022 35.0625C52.8147 24.8875 65.2397 30.1625 65.2397 30.1625ZM34.0147 45.2375C34.0147 45.2375 44.7897 36.7 40.1397 24.125C36.6397 14.6375 29.8897 7.9125 33.4647 0C33.4647 0 22.7897 8.6625 27.2397 21.1125C30.6397 30.6375 37.5897 37.325 34.0147 45.2375ZM33.3897 43.425C33.3897 43.425 34.4272 29.5875 22.4897 24.325C13.1772 20.225 3.38968 20.6125 0.039684 12.6C0.039684 12.6 -1.28532 26.35 11.3772 31.675C20.7522 35.625 30.0397 35.4125 33.3897 43.425ZM19.2022 66.6625H43.4147L49.0647 55.3H19.2022V66.6625ZM23.0647 100H25.1022L39.0022 68.1875H23.0647V100Z" fill="white"/>
</svg>
