<svg width="601" height="197" viewBox="0 0 601 197" fill="none" xmlns="http://www.w3.org/2000/svg">
<path d="M600.101 142.741L595.901 135.441H518.101C518.101 135.441 482.301 93.0407 482.301 92.5407L469.701 106.141C469.701 100.141 465.601 90.4407 456.001 90.4407C446.301 90.6407 440.901 99.4408 435.101 107.141V93.5407L411.801 96.6408C411.801 104.041 408.301 111.241 405.501 111.241C398.901 111.241 405.801 92.4407 399.201 92.4407C391.801 92.4407 384.701 104.141 378.101 110.241L378.301 91.5407L356.201 96.7408V136.541L348.801 143.841C346.501 143.841 343.901 144.341 342.501 141.741V95.7408L320.401 91.5407L319.401 95.7408C316.501 92.1408 315.101 89.8407 308.601 89.8407C290.501 89.8407 289.401 104.341 289.401 116.241V137.941C287.801 140.841 283.701 145.941 280.701 145.941C279.601 145.941 278.201 143.641 277.901 142.541V99.9407C277.901 99.9407 274.101 91.7408 267.701 91.7408C261.301 91.7408 252.801 101.141 245.701 107.241V92.5407L222.601 96.7408V135.441L215.201 143.841C213.401 145.141 211.301 144.941 209.901 142.841V99.9407C209.901 99.9407 207.801 92.2408 200.401 92.2408C193.801 92.2408 185.401 102.041 178.601 107.341V92.5407L156.301 96.7408V135.441L147.901 143.841C146.101 144.541 144.501 143.741 143.701 141.741V93.6408L121.601 96.7408V136.541L113.201 144.941C99.5009 129.741 100.601 104.841 78.5009 96.8407C104.801 69.6407 131.101 42.6407 154.201 14.2407H122.701C106.901 38.3407 87.8009 60.9408 68.0009 83.2408C69.6009 59.4408 77.5009 35.6407 77.5009 10.0407C74.9009 2.84075 69.1009 -2.95924 57.5009 1.64076C41.0009 12.8408 22.6009 28.0407 12.3009 45.5407C7.30088 54.8407 -9.29912 80.0407 7.00088 80.0407C18.3009 80.0407 34.3009 67.0407 34.3009 55.9407C34.3009 51.0407 25.9009 51.7408 25.9009 51.7408C32.7009 37.6408 45.7009 24.0408 58.5009 14.1408L59.6009 15.1408C51.5009 44.6408 46.8009 75.8407 35.4009 104.041C22.8009 110.841 7.50088 119.941 4.90088 135.441C6.00088 140.641 10.5009 144.341 16.5009 142.741C20.2009 142.741 22.8009 137.541 26.0009 139.641C22.3009 150.641 18.4009 161.641 15.5009 173.141L37.6009 186.741C45.3009 164.241 51.3009 140.741 57.6009 117.741C57.4009 113.741 61.8009 112.241 65.0009 111.441C79.0009 126.341 79.5009 148.741 96.5009 160.541C107.901 166.541 115.201 154.841 121.701 149.041C121.701 149.041 127.001 161.641 131.201 161.641C146.401 161.641 150.901 155.441 156.401 148.041V161.641H178.701V120.841C181.401 117.541 182.101 112.441 186.901 112.441C187.801 112.441 187.701 115.041 187.901 116.441L187.801 147.541C187.801 153.241 193.901 161.541 200.101 161.541C212.101 161.541 212.401 156.741 222.501 147.941V161.541H245.701V120.741C248.501 117.141 248.801 112.341 253.601 112.341C253.901 112.641 254.801 115.141 255.001 116.641V146.141C255.801 152.641 258.301 158.141 265.701 161.441C276.701 164.541 282.801 153.641 290.101 147.841C290.101 152.041 296.901 161.941 302.701 161.941C307.601 161.941 314.401 156.741 319.301 149.841C323.201 155.741 330.101 161.941 339.301 161.341C345.901 158.741 350.701 153.541 356.101 148.741V161.341H378.301V121.641L381.501 118.541C385.401 112.941 390.401 118.741 394.101 120.641C400.401 123.241 408.801 121.141 411.401 114.341V196.941H435.801V159.041C435.801 159.041 440.401 160.841 442.601 160.841C453.301 160.841 471.801 128.441 471.801 114.341C471.501 114.341 488.601 134.241 488.601 134.241C484.301 136.941 468.401 129.741 469.701 141.541C470.501 144.541 505.701 161.241 509.601 161.441C515.401 161.441 520.601 158.341 523.301 153.041C524.901 150.441 524.601 145.041 523.001 142.441C546.801 142.641 576.501 142.941 600.101 142.741ZM20.8009 131.241H16.6009C19.2009 125.741 25.0009 118.941 31.3009 117.641C31.7009 124.641 25.5009 127.141 20.8009 131.241ZM319.601 137.541C319.601 139.741 317.301 142.741 315.401 142.741H312.201C310.501 141.041 309.701 116.641 311.101 105.041C314.301 98.9407 317.401 106.141 319.501 108.141V137.541H319.601ZM435.801 120.141C436.901 118.041 440.201 113.541 443.501 113.541C444.401 113.541 445.101 115.641 445.401 117.741C445.401 121.441 445.601 127.641 445.601 132.341L435.801 142.841V120.141ZM441.401 151.141H440.301L445.601 143.841C447.201 147.441 443.301 149.741 441.401 151.141ZM486.601 143.841H495.001L502.401 153.241L486.601 143.841Z" fill="white"/>
<path d="M510.501 89.1405C512.001 90.6405 512.801 92.5405 512.801 94.6405C512.801 96.8405 512.001 98.6405 510.501 100.241C509.001 101.841 507.101 102.541 504.901 102.541C502.701 102.541 500.901 101.741 499.301 100.241C497.801 98.7405 497.001 96.8405 497.001 94.6405C497.001 92.4405 497.801 90.6405 499.301 89.1405C500.801 87.6405 502.701 86.8405 504.901 86.8405C507.101 86.8405 508.901 87.6405 510.501 89.1405ZM511.401 88.2405C509.601 86.4405 507.401 85.5405 504.901 85.5405C502.401 85.5405 500.201 86.4405 498.401 88.2405C496.601 90.0405 495.701 92.1405 495.701 94.6405C495.701 97.1405 496.601 99.3405 498.401 101.141C500.201 102.941 502.301 103.841 504.901 103.841C507.401 103.841 509.601 102.941 511.401 101.141C513.201 99.3405 514.101 97.2405 514.101 94.6405C514.101 92.2405 513.201 90.0405 511.401 88.2405ZM506.301 94.2405C505.901 94.3405 505.401 94.4405 504.601 94.4405H503.001V90.8405H504.501C505.501 90.8405 506.201 90.9405 506.601 91.2405C507.001 91.4405 507.301 91.9405 507.301 92.7405C507.301 93.5405 506.901 94.0405 506.301 94.2405ZM501.201 99.6405H503.001V95.7405H504.401C505.301 95.7405 506.001 95.8405 506.401 96.0405C507.001 96.4405 507.301 97.1405 507.301 98.3405V99.6405H509.001L508.901 99.5405C508.901 99.4405 508.801 99.2405 508.801 99.0405C508.801 98.7405 508.801 98.5405 508.801 98.3405V97.5405C508.801 97.0405 508.601 96.5405 508.201 96.0405C507.801 95.5405 507.301 95.1405 506.501 95.0405C507.101 94.9405 507.601 94.7405 508.001 94.5405C508.701 94.1405 509.001 93.4405 509.001 92.5405C509.001 91.2405 508.501 90.4405 507.401 90.0405C506.801 89.8405 505.901 89.6405 504.701 89.6405H501.201V99.6405Z" fill="white"/>
<path d="M150.901 68.6407H142.801L148.501 62.8407L142.801 57.1407L137.001 62.9407V54.7407H128.901V62.9407L123.101 57.1407L117.301 62.8407L123.101 68.6407H114.901V76.7407H123.101L117.301 82.5407L123.101 88.2407L128.901 82.4407V90.6407H137.001V82.4407L142.801 88.2407L148.501 82.5407L142.801 76.7407H150.901V68.6407Z" fill="white"/>
</svg>
