<svg width="654" height="100" viewBox="0 0 654 100" fill="none" xmlns="http://www.w3.org/2000/svg">
<path d="M540.881 76.2554L539.612 2.94942H562.722V95.3519H529.494L506.421 19.5259H505.917L507.205 95.3519H484.226V2.94942H518.91L540.377 76.2554H540.881Z" fill="white"/>
<path d="M120.683 11.611L107.896 96.3226H82.6769L99.9813 2.94942H141.516L158.764 96.3226H133.638L121.206 11.611H120.683Z" fill="white"/>
<path d="M229.569 74.3326L241.105 2.94942H279.186L281.202 96.3226H257.868L257.252 12.3763H256.767L241.161 96.3226H217.472L201.848 12.3763H201.344L200.765 96.3226H177.375L179.447 2.94942H217.547L229.065 74.3326H229.569Z" fill="white"/>
<path d="M43.3638 69.9832C44.2785 72.2419 43.9985 75.154 43.5692 76.9087C42.7851 80.0075 40.6757 83.1809 34.4782 83.1809C28.6168 83.1809 25.07 79.8208 25.07 74.706V65.6711H0.018674L0 72.8953C0 93.7092 16.3898 100 33.9556 100C50.8494 100 64.7564 94.2318 66.9591 78.6634C68.0978 70.5992 67.2391 65.3164 66.8658 63.319C62.927 43.7745 27.4781 37.9317 24.846 27.0114C24.398 25.1447 24.5287 23.1473 24.7527 22.0833C25.406 19.1152 27.4407 15.8298 33.2836 15.8298C38.7344 15.8298 41.9638 19.2085 41.9638 24.3046C41.9638 26.022 41.9638 30.0728 41.9638 30.0728H65.2417V23.5206C65.2417 3.17342 46.9853 0 33.7689 0C17.1551 0 3.5841 5.48815 1.10137 20.6832C0.429349 24.8833 0.336009 28.6168 1.3067 33.3022C5.39481 52.3614 38.5477 57.8869 43.3638 69.9832Z" fill="white"/>
<path d="M346.985 69.8152C347.9 72.0552 347.601 74.8927 347.191 76.6474C346.425 79.7461 344.334 82.8635 338.174 82.8635C332.406 82.8635 328.878 79.5034 328.878 74.5006L328.859 65.5404H304.069L304.032 72.6713C304.032 93.2798 320.272 99.496 337.652 99.496C354.359 99.496 368.135 93.8025 370.319 78.3834C371.458 70.3752 370.655 65.1671 370.244 63.207C366.324 43.8492 331.249 38.0623 328.635 27.2354C328.187 25.3687 328.318 23.4086 328.542 22.4006C329.214 19.3952 331.211 16.2031 336.998 16.2031C342.412 16.2031 345.567 19.4885 345.567 24.566C345.567 26.2647 345.567 30.2781 345.567 30.2781H368.676V23.782C368.676 3.65877 350.569 0.504016 337.465 0.504016C321.038 0.504016 307.579 5.9175 305.152 21.0192C304.48 25.1633 304.405 28.8221 305.376 33.4889C309.39 52.3614 342.225 57.8495 346.985 69.8152Z" fill="white"/>
<path d="M425.406 82.3595C431.884 82.3595 433.9 77.8794 434.348 75.5833C434.534 74.5753 434.59 73.2313 434.572 72.0179V2.91208H458.186V69.8899C458.242 71.6072 458.074 75.1353 457.98 76.0127C456.319 93.4478 442.542 99.104 425.387 99.104C408.214 99.104 394.419 93.4478 392.776 76.0127C392.701 75.1353 392.533 71.5886 392.57 69.8899V2.91208H416.166V71.9992C416.166 73.2126 416.203 74.5753 416.39 75.5647C416.912 77.8607 418.873 82.3595 425.406 82.3595Z" fill="white"/>
<path d="M620.198 81.3702C626.955 81.3702 629.326 77.0954 629.755 74.6126C629.923 73.5486 629.979 72.2419 629.961 71.0659V57.5135H620.385V43.8865H653.5V68.9565C653.481 70.7112 653.444 71.9992 653.164 75.1167C651.615 92.1038 636.868 98.1706 620.328 98.1706C603.752 98.1706 589.042 92.1038 587.456 75.1167C587.194 71.9992 587.157 70.7112 587.12 68.9565L587.138 29.6435C587.138 27.9821 587.344 25.0513 587.53 23.4833C589.602 6.0295 603.752 0.41068 620.328 0.41068C636.886 0.41068 651.391 5.99217 653.108 23.4833C653.407 26.4514 653.313 29.6435 653.313 29.6435V32.7609H629.774V27.5341C629.793 27.5527 629.737 25.3127 629.475 23.9873C629.083 21.9152 627.291 17.1738 620.16 17.1738C613.347 17.1738 611.368 21.6539 610.864 23.9873C610.584 25.2193 610.472 26.8807 610.472 28.3928V71.1032C610.454 72.2793 610.528 73.586 610.715 74.65C611.088 77.0954 613.44 81.3702 620.198 81.3702Z" fill="white"/>
</svg>
