<svg width="339" height="339" viewBox="0 0 339 339" fill="none" xmlns="http://www.w3.org/2000/svg">
<path d="M105.831 297.945L106.86 288.288L99.5254 294.659L105.831 297.945Z" fill="white"/>
<path d="M70.0893 59.5351C67.9986 57.378 65.5096 59.2032 63.7507 60.9289L61.3945 63.1856L66.2065 68.1635L69.2596 65.1767C70.8857 63.617 71.9809 61.4931 70.0893 59.5351Z" fill="white"/>
<path d="M95.9072 40.8189C94.3474 38.33 91.8917 39.3588 89.9005 40.5866L86.3164 42.7769L89.635 48.3854L92.9536 46.4606C95.0112 45.1663 97.5665 43.507 95.9072 40.8189Z" fill="white"/>
<path d="M265.82 257.789C264.512 259.12 263.633 260.812 263.294 262.647C262.955 264.482 263.173 266.377 263.919 268.087C264.665 269.798 265.906 271.246 267.481 272.246C269.057 273.246 270.895 273.753 272.76 273.7C274.626 273.648 276.433 273.039 277.949 271.952C279.466 270.865 280.623 269.349 281.272 267.599C281.921 265.849 282.031 263.946 281.59 262.133C281.149 260.319 280.176 258.68 278.795 257.424C277.946 256.546 276.924 255.855 275.793 255.394C274.662 254.933 273.448 254.713 272.227 254.747C271.006 254.781 269.806 255.07 268.703 255.593C267.6 256.117 266.618 256.865 265.82 257.789Z" fill="white"/>
<path d="M130.455 42.7439C131.638 42.4244 132.741 41.8612 133.694 41.0902C134.647 40.3193 135.428 39.3577 135.987 38.2672C136.546 37.1767 136.872 35.9813 136.942 34.7577C137.012 33.5341 136.826 32.3094 136.395 31.162C136.092 29.9719 135.55 28.8558 134.802 27.8816C134.054 26.9074 133.116 26.0955 132.045 25.495C130.974 24.8946 129.791 24.5182 128.57 24.3888C127.349 24.2594 126.114 24.3797 124.941 24.7423C123.767 25.1048 122.68 25.7022 121.744 26.4981C120.809 27.2939 120.045 28.2716 119.5 29.3718C118.954 30.472 118.637 31.6716 118.569 32.8979C118.502 34.1241 118.684 35.3513 119.105 36.505C119.39 37.69 119.92 38.8025 120.66 39.7712C121.4 40.7399 122.334 41.5436 123.402 42.1308C124.47 42.718 125.649 43.0758 126.864 43.1814C128.078 43.287 129.301 43.138 130.455 42.7439Z" fill="white"/>
<path d="M169.017 3.25895e-06C135.587 3.90335e-06 102.908 9.91349 75.1126 28.4867C47.3173 47.06 25.654 73.4587 12.8625 104.344C0.0710325 135.23 -3.27412 169.215 3.25011 202.002C9.77434 234.789 25.8749 264.905 49.5156 288.541C73.1563 312.177 103.275 328.272 136.064 334.79C168.852 341.307 202.836 337.956 233.72 325.158C264.603 312.36 290.997 290.692 309.565 262.893C328.133 235.094 338.04 202.413 338.033 168.983C338.033 146.789 333.661 124.813 325.167 104.309C316.673 83.8044 304.223 65.1744 288.527 49.4824C272.832 33.7904 254.2 21.3438 233.694 12.8536C213.188 4.36331 191.211 -0.00435534 169.017 3.25895e-06ZM283.11 60.3986C285.447 62.6546 286.876 65.689 287.126 68.9275L280.489 69.0934C280.555 68.238 280.439 67.3782 280.147 66.5714C279.855 65.7645 279.394 65.0291 278.796 64.4141C277.535 63.1199 275.212 61.8588 273.652 63.3854C269.836 67.069 281.584 74.3368 274.25 81.4054C269.57 85.9187 263.73 84.2926 259.581 79.9784C257.032 77.435 255.589 73.9886 255.566 70.3876L262.203 70.1885C262.055 71.2597 262.151 72.3505 262.485 73.3793C262.818 74.408 263.38 75.348 264.128 76.1288C265.588 77.6554 267.911 78.651 269.405 77.224C273.221 73.5071 261.705 65.7084 268.674 58.9716C273.088 54.6574 279.161 56.4163 283.11 60.3986ZM284.936 168.983C284.942 191.911 278.149 214.326 265.416 233.394C252.683 252.461 234.581 267.323 213.4 276.102C192.219 284.881 168.911 287.181 146.422 282.712C123.934 278.243 103.276 267.206 87.0614 250.995C70.8465 234.785 59.803 214.13 55.3275 191.643C50.8521 169.156 53.1457 145.847 61.9184 124.664C70.691 103.481 85.5486 85.3747 104.612 72.6359C123.676 59.8971 146.089 53.0977 169.017 53.0977C199.755 53.0977 229.234 65.306 250.972 87.0378C272.71 108.77 284.927 138.246 284.936 168.983ZM244.581 38.0644L247.9 33.3852L266.783 46.4605L263.464 51.1729L256.727 46.4605L243.453 65.808L238.143 62.1907L251.418 42.8432L244.581 38.0644ZM210.001 33.1861C210.699 31.2456 211.797 29.4733 213.222 27.9836C214.648 26.4939 216.371 25.3201 218.279 24.5382C220.187 23.7562 222.238 23.3834 224.299 23.4439C226.361 23.5044 228.386 23.9969 230.245 24.8895C231.984 25.53 233.561 26.546 234.863 27.8653C236.165 29.1845 237.161 30.7746 237.778 32.5223L231.672 34.4139C231.38 33.3764 230.845 32.4232 230.113 31.6327C229.38 30.8423 228.47 30.2372 227.457 29.8675C226.355 29.4581 225.18 29.2777 224.005 29.3371C222.831 29.3966 221.68 29.6947 220.624 30.2132C219.569 30.7318 218.63 31.46 217.864 32.3533C217.099 33.2467 216.524 34.2866 216.174 35.4095C215.648 36.4447 215.336 37.5754 215.257 38.734C215.178 39.8926 215.334 41.0552 215.715 42.1521C216.096 43.2491 216.695 44.2578 217.475 45.1179C218.255 45.9779 219.201 46.6716 220.256 47.1574C221.328 47.6123 222.496 47.7928 223.654 47.6828C224.813 47.5727 225.926 47.1754 226.893 46.5269L230.212 52.2017C228.476 53.2422 226.516 53.8542 224.496 53.987C222.477 54.1197 220.454 53.7694 218.597 52.965C216.689 52.2905 214.941 51.2304 213.461 49.8507C211.981 48.4711 210.801 46.8014 209.995 44.9459C209.189 43.0903 208.773 41.0885 208.774 39.0653C208.775 37.0421 209.193 35.0408 210.001 33.1861ZM182.756 12.6439L202.302 15.6306L201.406 21.4714L188.132 19.4802L187.335 24.8232L199.78 26.7148L198.884 32.5887L186.439 30.6639L185.61 36.5047L199.515 38.5954L198.652 44.4361L178.375 41.3498L182.756 12.6439ZM171.141 12.6439L171.472 18.2855L163.209 18.8165L164.636 42.0467L158.264 42.445L156.804 19.2147L148.508 19.6793L148.176 14.0377L171.141 12.6439ZM123.286 19.2811C125.209 18.5465 127.264 18.2236 129.319 18.3335C131.374 18.4433 133.383 18.9833 135.216 19.9187C137.049 20.854 138.665 22.1637 139.96 23.7632C141.255 25.3626 142.2 27.2161 142.733 29.2037C143.416 31.1532 143.681 33.2246 143.509 35.2831C143.338 37.3416 142.735 39.3408 141.739 41.1506C140.744 42.9604 139.378 44.54 137.731 45.7866C136.084 47.0331 134.192 47.9186 132.18 48.3853C130.256 49.1194 128.198 49.441 126.141 49.3291C124.085 49.2171 122.074 48.6743 120.241 47.7356C118.407 46.7969 116.791 45.4834 115.498 43.8803C114.205 42.2771 113.263 40.42 112.733 38.4295C112.039 36.4761 111.766 34.3981 111.932 32.3318C112.098 30.2655 112.699 28.2577 113.695 26.44C114.692 24.6223 116.062 23.036 117.714 21.785C119.367 20.5341 121.266 19.6468 123.286 19.1815V19.2811ZM87.6113 35.8741C92.6555 32.7546 97.9985 31.8586 101.583 37.5998C102.651 39.1103 103.124 40.9625 102.909 42.8002C102.695 44.638 101.809 46.3317 100.421 47.5556L113.198 54.1928L106.561 58.2084L95.2772 51.5711L92.5892 53.2636L98.6954 63.2194L93.2529 66.5381L78.0205 41.549L87.6113 35.8741ZM60.7637 56.4163C65.1111 52.2017 70.0558 50.1441 74.8678 55.0557C79.6798 59.9672 77.7218 64.6796 73.3413 68.9275L70.0227 72.2461L77.9209 80.3766L73.3413 84.8568L53.131 63.7836L60.7637 56.4163ZM20.675 147.811C20.6946 146.699 20.9329 145.603 21.3763 144.584C21.8197 143.564 22.4595 142.643 23.2592 141.871C24.0589 141.099 25.0028 140.492 26.037 140.085C27.0712 139.677 28.1755 139.478 29.2868 139.498C30.3981 139.517 31.4946 139.756 32.5138 140.199C33.533 140.642 34.4549 141.282 35.2269 142.082C35.9988 142.881 36.6057 143.825 37.0129 144.86C37.42 145.894 37.6195 146.998 37.5999 148.109C37.5803 149.221 37.342 150.317 36.8986 151.336C36.4552 152.356 35.8154 153.278 35.0157 154.049C34.216 154.821 33.2721 155.428 32.2379 155.835C31.2037 156.243 30.0994 156.442 28.9881 156.422C27.8768 156.403 26.7802 156.165 25.761 155.721C24.7418 155.278 23.8199 154.638 23.048 153.838C22.276 153.039 21.6692 152.095 21.262 151.061C20.8548 150.026 20.6554 148.922 20.675 147.811ZM45.6309 263.962L42.5114 259.183L55.7858 242.856L35.5092 248.232L32.4892 243.619L52.2017 220.389L55.985 226.229L42.8765 240.3L61.8589 235.621L65.1775 240.632L52.4009 256.13L71.1178 249.791L74.6355 255.234L45.6309 263.962ZM73.5072 291.739L81.6378 282.082L72.1466 274.05L64.016 283.608L59.1376 279.46L77.9541 257.292L82.9984 261.407L75.9961 269.67L85.4542 277.701L92.4896 269.438L97.368 273.619L78.5515 295.754L73.5072 291.739ZM111.041 313.874L104.636 310.555L105.266 303.918L95.3104 298.708L90.2993 303.055L84.0272 299.736L108.651 279.825L113.33 282.281L111.041 313.874ZM141.638 298.343L133.674 295.92L126.87 318.321L120.731 316.462L127.534 294.062L119.503 291.506L121.162 286.097L143.165 292.734L141.638 298.343ZM150.399 305.312L145.189 304.582L149.835 293.531L155.676 294.36L150.399 305.312ZM178.143 315.699C178.143 322.336 172.767 325.19 166.793 325.124C163.179 325.167 159.69 323.798 157.07 321.307L161.716 316.363C162.36 317.228 163.195 317.933 164.156 318.422C165.118 318.911 166.179 319.172 167.258 319.184C169.349 319.184 171.705 318.287 171.738 316.23C171.738 310.887 158.132 313.542 158.298 303.852C158.298 297.646 163.806 294.493 169.514 294.593C172.787 294.565 175.954 295.747 178.408 297.911L173.928 302.391C173.338 301.759 172.624 301.256 171.83 300.914C171.036 300.571 170.18 300.396 169.315 300.4C167.49 300.4 164.968 301.163 164.935 303.321C164.868 308.63 178.309 305.312 178.143 315.599V315.699ZM219.061 316.363C215.215 317.63 211.023 317.318 207.407 315.494C203.791 313.671 201.048 310.485 199.78 306.639C198.513 302.793 198.825 298.601 200.649 294.985C202.472 291.369 205.657 288.625 209.504 287.358C213.417 285.814 217.77 285.814 221.683 287.358L219.061 293.365C217.906 292.748 216.63 292.392 215.322 292.323C214.015 292.254 212.708 292.474 211.495 292.967C209.136 293.741 207.182 295.421 206.061 297.637C204.941 299.852 204.747 302.422 205.521 304.781C206.296 307.14 207.976 309.094 210.191 310.214C212.407 311.335 214.977 311.529 217.336 310.754C219.357 310.113 221.183 308.972 222.645 307.436L221.152 302.956L216.207 304.582L214.349 298.973L225.068 295.356L229.814 309.792C226.829 312.839 223.134 315.097 219.061 316.363ZM252.712 299.77C250.143 301.32 247.175 302.079 244.177 301.952C241.18 301.824 238.286 300.817 235.858 299.055C233.43 297.293 231.575 294.854 230.525 292.044C229.475 289.234 229.276 286.176 229.953 283.254C230.63 280.331 232.154 277.673 234.333 275.611C236.512 273.549 239.251 272.175 242.206 271.66C245.162 271.146 248.204 271.514 250.952 272.718C253.7 273.922 256.032 275.909 257.657 278.431C258.858 280.122 259.688 282.048 260.093 284.082C260.497 286.117 260.466 288.214 260.002 290.235C259.538 292.257 258.652 294.158 257.401 295.812C256.15 297.467 254.564 298.838 252.745 299.836L252.712 299.77ZM284.006 274.316C281.926 276.48 279.254 277.982 276.325 278.636C273.395 279.289 270.338 279.065 267.536 277.99C264.733 276.915 262.31 275.038 260.568 272.594C258.827 270.149 257.844 267.246 257.744 264.246C257.644 261.246 258.431 258.283 260.005 255.728C261.58 253.173 263.873 251.138 266.597 249.879C269.322 248.62 272.357 248.192 275.324 248.648C278.29 249.105 281.056 250.426 283.276 252.446C284.866 253.774 286.158 255.422 287.068 257.282C287.978 259.143 288.486 261.174 288.558 263.244C288.63 265.314 288.265 267.376 287.486 269.295C286.708 271.214 285.533 272.948 284.04 274.382L284.006 274.316ZM304.615 243.187L299.737 252.446L274.051 238.94L278.531 230.444C282.911 222.147 290.113 217.17 299.537 222.048C307.834 226.428 308.664 235.621 304.648 243.254L304.615 243.187ZM308.995 156.439C307.88 156.466 306.771 156.27 305.732 155.865C304.692 155.459 303.744 154.851 302.941 154.077C302.139 153.302 301.498 152.375 301.056 151.351C300.614 150.327 300.38 149.225 300.367 148.109C300.341 146.437 300.811 144.795 301.718 143.39C302.624 141.985 303.927 140.88 305.461 140.215C306.995 139.549 308.692 139.353 310.337 139.651C311.983 139.95 313.503 140.729 314.706 141.89C315.909 143.051 316.741 144.543 317.097 146.177C317.453 147.811 317.317 149.514 316.706 151.07C316.095 152.627 315.037 153.967 313.664 154.923C312.292 155.879 310.667 156.406 308.995 156.439Z" fill="white"/>
<path d="M239.406 279.127C237.83 280.104 236.58 281.528 235.814 283.217C235.049 284.906 234.802 286.784 235.106 288.613C235.41 290.443 236.25 292.14 237.52 293.491C238.79 294.842 240.433 295.785 242.241 296.201C244.048 296.616 245.938 296.486 247.67 295.826C249.403 295.165 250.901 294.005 251.973 292.492C253.045 290.979 253.644 289.182 253.693 287.328C253.742 285.475 253.24 283.648 252.249 282.081C251.654 280.986 250.833 280.03 249.841 279.277C248.848 278.523 247.707 277.989 246.493 277.71C245.279 277.43 244.019 277.412 242.797 277.657C241.575 277.901 240.419 278.402 239.406 279.127Z" fill="white"/>
<path d="M296.118 227.756C291.074 225.101 286.56 227.756 284.038 232.668L282.279 235.987L297.545 244.051L299.071 241.097C302.025 235.854 302.025 230.843 296.118 227.756Z" fill="white"/>
<path d="M244.513 126.671H220.652L209.27 140.974L221.349 155.642L244.513 126.671Z" fill="white"/>
<path d="M190.951 163.507C193.739 159.956 194.668 158.595 196.294 156.637C194.668 154.613 193.706 153.319 190.951 150C190.188 148.938 189.823 148.606 188.794 147.345C187.401 145.646 185.649 144.277 183.664 143.336C181.678 142.395 179.509 141.905 177.312 141.903C173.351 141.903 169.553 143.476 166.752 146.277C163.951 149.077 162.378 152.876 162.378 156.837C162.378 160.797 163.951 164.596 166.752 167.396C169.553 170.197 173.351 171.77 177.312 171.77C179.51 171.775 181.682 171.289 183.668 170.347C185.655 169.406 187.406 168.032 188.794 166.328C189.823 164.868 190.155 164.503 190.951 163.507Z" fill="white"/>
<path d="M165.965 187.634C163.624 187.015 161.387 186.054 159.327 184.78C154.535 181.818 150.583 177.675 147.852 172.747C145.121 167.819 143.702 162.272 143.73 156.638C143.726 152.227 144.591 147.858 146.277 143.781C147.964 139.704 150.437 136 153.557 132.881C156.676 129.762 160.38 127.288 164.457 125.602C168.534 123.915 172.903 123.05 177.314 123.054C182.188 123.018 187.008 124.076 191.419 126.149C195.829 128.222 199.719 131.259 202.801 135.034L203.199 135.532L203.498 135.3L167.259 72.5781L100.887 187.966H165.931L165.965 187.634Z" fill="white"/>
<path d="M189.358 187.634V187.932H233.994V187.601L232.633 187.368C230.249 187.042 227.917 186.406 225.697 185.477C218.951 182.247 213.061 177.472 208.507 171.539C208.507 171.539 204.923 176.218 201.87 179.702C198.536 183.48 194.197 186.231 189.358 187.634Z" fill="white"/>
<path d="M103.874 198.818H78.6191V204.327H87.878V229.715H94.4489V204.327H103.874V198.818Z" fill="white"/>
<path d="M195.433 198.852H184.714V229.748H191.351V219.029H194.67C202.137 219.029 207.944 217.038 207.944 208.808C208.143 202.137 202.933 198.586 195.433 198.852ZM195.831 213.686H191.285V204.162H195.831C199.548 203.996 201.838 205.489 201.871 208.907C201.904 212.325 199.15 213.786 195.831 213.686Z" fill="white"/>
<path d="M246.308 207.479L238.576 215.709V198.851H232.403V229.714H238.576V222.313L240.965 219.924L247.105 229.714H254.538L245.346 215.975L253.576 207.479H246.308Z" fill="white"/>
<path d="M173.199 228.983C173.012 228.508 172.922 228 172.933 227.49V214.647C172.933 208.375 167.922 206.782 162.977 206.682C153.652 206.682 153.652 213.319 153.453 214.249H158.862C158.862 214.249 158.464 210.93 163.276 210.93C165.267 210.93 167.092 211.959 166.96 213.751C166.96 215.012 165.831 215.344 163.641 215.676C160.994 215.872 158.395 216.488 155.942 217.501C154.779 218.039 153.797 218.901 153.114 219.985C152.431 221.068 152.076 222.326 152.092 223.607C152.443 225.661 153.576 227.499 155.253 228.736C156.929 229.974 159.02 230.514 161.086 230.244C166.13 230.012 167.059 226.926 167.059 226.926C167.059 227.457 167.059 227.457 167.225 228.12C167.292 228.63 167.415 229.131 167.59 229.614H173.929C173.656 229.44 173.41 229.228 173.199 228.983ZM167.059 221.549C166.968 222.662 166.465 223.7 165.649 224.462C164.833 225.223 163.762 225.652 162.645 225.665C160.754 225.864 158.331 225.333 158.232 222.977C158.132 220.62 161.55 220.023 163.044 219.658C164.247 219.445 165.425 219.112 166.561 218.662C167.092 218.463 167.192 218.264 167.192 218.264L167.059 221.549Z" fill="white"/>
<path d="M110.112 206.815C108.544 206.817 106.994 207.152 105.566 207.798C104.137 208.445 102.863 209.388 101.827 210.565C100.791 211.742 100.018 213.126 99.558 214.626C99.0983 216.125 98.9628 217.704 99.1605 219.26C99.2215 222.276 100.467 225.147 102.628 227.253C104.789 229.358 107.692 230.528 110.709 230.51C113.071 230.634 115.407 229.976 117.357 228.638C119.307 227.3 120.761 225.357 121.495 223.109L115.189 222.744C114.817 223.62 114.184 224.36 113.377 224.865C112.569 225.369 111.627 225.614 110.676 225.565C109.256 225.583 107.886 225.038 106.867 224.049C105.847 223.061 105.26 221.709 105.234 220.288H121.827C121.827 220.288 122.358 206.981 110.112 206.815ZM105.399 215.941C105.524 214.756 106.086 213.66 106.976 212.868C107.866 212.076 109.02 211.645 110.211 211.66C111.423 211.647 112.599 212.074 113.52 212.861C114.441 213.648 115.046 214.742 115.223 215.941H105.399Z" fill="white"/>
<path d="M145.489 210.001C145.348 210.246 145.226 210.501 145.124 210.764L144.925 207.445H139.051V229.647H145.157V219.592C144.964 218.304 145.154 216.989 145.703 215.809C146.251 214.629 147.135 213.636 148.243 212.954C149.42 212.354 150.76 212.156 152.06 212.39V207.18C151.561 206.997 151.03 206.918 150.5 206.948C149.459 206.916 148.431 207.188 147.541 207.73C146.652 208.272 145.939 209.061 145.489 210.001Z" fill="white"/>
<path d="M131.98 224.703C131.707 224.428 131.501 224.093 131.38 223.724C131.259 223.355 131.226 222.963 131.283 222.579V211.761H135.365V207.546H131.283V200.544H125.21V207.579H122.124V211.794H125.21V223.144C125.09 224.148 125.201 225.166 125.535 226.121C125.868 227.076 126.416 227.942 127.135 228.653C129.175 229.714 131.5 230.097 133.772 229.748H135.631V225.168H134.204C133.431 225.279 132.644 225.115 131.98 224.703Z" fill="white"/>
<path d="M228.289 228.984C228.102 228.509 228.012 228.001 228.023 227.491V214.648C228.023 208.376 222.979 206.816 218.067 206.716C208.775 206.716 208.775 213.354 208.543 214.25L213.985 214.449C213.985 214.449 213.587 211.13 218.399 211.13C220.39 211.13 222.182 212.159 222.083 213.918C221.983 215.677 220.921 215.544 218.764 215.842C216.13 216.055 213.545 216.67 211.098 217.668C209.936 218.206 208.954 219.068 208.271 220.152C207.588 221.235 207.233 222.493 207.249 223.774C207.6 225.828 208.732 227.666 210.409 228.903C212.085 230.141 214.176 230.681 216.242 230.411C221.253 230.179 222.215 227.093 222.215 227.093C222.192 227.49 222.192 227.889 222.215 228.287C222.262 228.801 222.385 229.304 222.581 229.781H229.019C228.724 229.567 228.476 229.296 228.289 228.984ZM217.569 225.898C215.711 225.898 213.255 225.533 213.189 223.177C213.123 220.82 216.507 220.223 218.001 219.858C219.131 219.627 220.241 219.305 221.319 218.896C221.566 218.81 221.792 218.674 221.983 218.497V221.55C221.91 222.684 221.417 223.751 220.602 224.542C219.786 225.333 218.705 225.793 217.569 225.831V225.898Z" fill="white"/>
<path d="M264.494 207.812C266.463 207.812 268.388 207.228 270.025 206.134C271.662 205.04 272.938 203.485 273.692 201.666C274.445 199.846 274.643 197.845 274.258 195.913C273.874 193.982 272.926 192.208 271.534 190.816C270.141 189.424 268.367 188.475 266.436 188.091C264.505 187.707 262.503 187.904 260.684 188.658C258.865 189.411 257.31 190.687 256.216 192.325C255.122 193.962 254.538 195.887 254.538 197.856C254.538 200.496 255.587 203.028 257.454 204.896C259.321 206.763 261.853 207.812 264.494 207.812ZM264.494 189.626C266.123 189.626 267.716 190.109 269.07 191.015C270.424 191.921 271.479 193.208 272.101 194.714C272.723 196.22 272.884 197.876 272.563 199.474C272.243 201.071 271.456 202.537 270.302 203.687C269.147 204.837 267.678 205.618 266.079 205.932C264.48 206.246 262.825 206.078 261.321 205.45C259.818 204.822 258.535 203.762 257.635 202.404C256.734 201.046 256.257 199.452 256.264 197.823C256.273 195.646 257.144 193.561 258.686 192.024C260.229 190.488 262.317 189.626 264.494 189.626Z" fill="white"/>
<path d="M262.734 198.817H264.261L267.115 203.463H269.305L266.318 198.651C266.724 198.632 267.121 198.529 267.484 198.348C267.847 198.166 268.168 197.912 268.427 197.599C268.687 197.287 268.878 196.924 268.989 196.534C269.1 196.144 269.129 195.735 269.073 195.333C269.073 193.142 267.779 192.014 265.024 192.014H260.644V203.397H262.734V198.817ZM262.734 193.839H264.261C265.555 193.839 266.982 193.839 266.982 195.432C266.982 197.025 265.555 197.025 264.261 197.025H262.734V193.839Z" fill="white"/>
</svg>
