<svg width="296" height="200" viewBox="0 0 296 200" fill="none" xmlns="http://www.w3.org/2000/svg">
<path fill-rule="evenodd" clip-rule="evenodd" d="M106.092 196.48C106.092 196.366 105.866 196.48 105.636 196.592L105.523 196.821L104.842 197.163L104.273 197.273L102.567 197.163H101.884L100.293 196.48L99.6113 196.366L99.0423 196.48L98.1352 196.821L97.9084 197.276H97.6803L96.9973 198.298C96.8859 198.414 96.8859 198.525 97.1126 198.525L97.5675 198.072L98.0237 197.842C98.4786 197.731 98.5913 197.615 98.5913 197.504C98.5913 197.393 98.5913 197.39 99.0462 197.504H99.5024L100.07 197.731H100.639L101.89 198.184H102.344L103.252 198.415L103.935 198.301L104.388 198.415L104.843 198.184L105.412 197.505L105.639 197.164L105.98 196.934C106.047 196.792 106.085 196.637 106.091 196.48H106.092ZM52.4228 185.677C52.3714 185.705 52.3285 185.746 52.2986 185.797C52.2687 185.847 52.253 185.904 52.253 185.963C52.253 186.021 52.2687 186.079 52.2986 186.129C52.3285 186.179 52.3714 186.221 52.4228 186.249L52.6496 186.36L53.1058 186.249H53.5607C53.7901 186.249 53.9028 186.36 54.1296 186.703C54.3564 186.475 54.5845 186.703 54.6972 187.271V188.863L54.81 189.089L54.6959 190.571L54.8087 191.138L54.6959 192.502V193.756L54.8087 194.21L55.0355 194.777C55.1495 194.891 55.1495 195.008 55.0355 195.008L54.8087 195.802L54.6959 196.597L54.8087 197.052L54.6959 197.394V198.076L54.3551 198.529L53.6721 198.76L52.6483 198.871L52.1935 198.76H51.8526V199.555C51.8526 199.44 51.9667 199.44 52.0794 199.44L52.647 199.555L53.1019 199.44L56.0593 199.671L56.8563 199.44L57.1971 199.555L57.538 199.67L58.4452 199.439L59.8098 199.553L60.717 199.439L62.3084 199.67L63.8998 199.439L64.356 199.67H64.6969V198.529L65.153 197.052V196.029L64.5841 195.918L64.3573 196.259L64.2433 197.054L63.9024 197.395V197.736L62.5378 198.419H61.8626L61.0656 198.646L60.6107 198.419L59.3601 198.646L58.5631 198.532H57.8801C57.6533 198.42 57.3125 198.305 57.1984 197.963L57.4252 196.94L57.1984 196.712V196.145L57.3112 195.462L57.1984 194.554L57.3112 193.759L57.1984 193.304V192.848H57.4252L57.652 192.963L59.6996 192.848L60.7209 192.963H61.1757L61.8574 193.19L62.0855 193.531L62.4263 194.329L62.5404 194.67H63.108L63.2233 194.329L62.994 193.531V192.848L63.2233 192.053L63.108 191.029L62.994 190.235C62.8812 190.007 62.6531 190.007 62.4263 190.007V190.803L62.1995 191.484L61.6306 191.712L60.4954 191.826H59.8124L59.2448 191.937L58.3376 191.71H57.201L57.4278 190.803L57.201 190.12V187.506L57.4278 186.707L57.5406 186.597L57.8814 186.707H61.1757L61.6319 186.597L62.0868 186.707C62.2008 186.707 62.2008 186.707 62.3136 186.821C62.8825 186.933 63.1106 187.048 62.9966 187.164L63.1106 187.504L63.3374 187.958L63.4514 188.526L63.6782 189.095L64.2472 188.983L64.3612 188.756L64.1344 187.958V187.164L63.9102 186.359L64.023 185.79C64.023 185.563 63.9102 185.563 63.5668 185.563L62.7698 185.79L62.0829 185.568L60.6055 185.795L59.6983 185.568L58.9013 185.795H56.4001L55.8325 185.568L53.4441 185.795L52.8816 185.568L52.4254 185.677H52.4228ZM77.2119 185.452L76.3047 185.678H75.9639L75.6231 185.568L74.9401 185.454H73.5729L73.0052 185.343H72.5491L71.8674 185.454L71.1844 185.795H70.6168L70.0479 186.25L69.3662 186.929L69.0241 187.727L68.6832 188.634L68.91 189.202V189.885L69.4789 190.792L69.9338 190.906L70.0479 191.244L70.1632 191.474L72.5491 193.067L74.5967 194.427L74.9375 194.77L75.7345 195.909L75.8473 196.816L75.9613 197.269L75.7345 197.61L75.3937 198.293L74.7107 198.634L73.1193 198.975H72.6631L72.2082 198.861L71.4112 198.751L70.8436 198.411L70.6168 198.182L70.3874 197.954L69.8198 197.5L69.7057 197.159L69.5995 196.597L69.2586 195.802C69.2586 195.46 69.0305 195.46 68.9165 195.46L68.5757 195.802L68.6897 196.257L68.5757 197.164L68.9165 197.959V199.773H69.2586L69.5995 199.663L69.8263 199.549L70.1671 199.663H70.736L71.4177 199.773L73.232 199.889L73.5742 199.999L74.3712 199.772H75.0529L75.6205 199.431L76.4175 199.204L77.6681 197.5L78.1243 196.134L78.0089 194.543L76.8737 193.178L76.6443 192.951L76.3035 192.837L75.6205 192.042L74.9388 191.815L74.3712 191.243L71.9827 189.656L71.1857 188.748L70.9589 187.841L71.0717 187.272C71.1831 186.932 71.4125 186.705 71.6393 186.478L72.3223 186.022H72.6631L73.118 186.252H74.4826L74.9388 186.479L75.2796 186.593L75.7358 186.705L75.9626 187.046L76.0767 187.388L76.5315 188.069L76.7596 188.523L76.8737 188.865C77.2145 189.206 77.3286 189.206 77.5554 189.092V187.955L77.3286 187.272L77.2145 186.365L77.3286 185.796C77.3286 185.796 77.3247 185.452 77.2119 185.452ZM84.2619 185.567L83.9198 185.677L83.579 185.791L82.7819 185.564L82.4411 185.791H82.2143C81.7581 185.791 81.4173 185.677 81.3071 185.338L80.7382 185.449L80.6242 185.676L80.5114 187.498L80.3974 188.177L80.1706 188.748L80.2833 189.202L80.6242 189.316L80.9663 189.085L81.0804 187.835L82.1016 186.814L82.4437 186.7L83.2394 186.588L83.4662 186.815L83.6943 186.701H83.9211L85.8534 186.589L85.9674 186.816V187.385L86.0802 188.067V190.453L85.9674 191.247V192.045L86.0802 194.206L85.9674 195.004L86.1942 195.8L85.9674 196.594V197.393L86.0802 197.96L85.6266 198.643L83.9211 198.87H83.3522V199.553L83.5816 199.667H83.8083L84.0364 199.553L84.8334 199.667L85.7406 199.553L86.4223 199.667L86.8785 199.553L87.2193 199.439L88.0137 199.668L88.6967 199.439H89.6039L90.3996 199.553L90.8558 199.667H91.1966C91.4234 199.553 91.3094 199.326 91.0839 198.984L90.629 198.757L90.2868 198.984L89.3797 198.87L88.8107 198.302L88.698 197.395V196.488L88.5852 196.261L88.4712 195.919L88.5852 195.121V194.214L88.4712 193.531L88.5852 192.053L88.4712 191.255L88.5852 191.028L88.698 190.687V188.3L88.4712 187.504L88.5852 187.049V186.709H89.6091L90.6329 186.823L91.4299 186.709H92.5677L93.1354 187.39V187.731L93.4775 188.073C93.5915 188.183 93.5915 188.414 93.5915 189.093L93.9324 189.434L94.2732 189.207V188.98L94.1605 188.754L94.2732 188.299L94.3885 187.957L93.9324 187.049L94.0464 185.799L93.9324 185.344L93.1354 185.23C93.1354 185.457 92.9086 185.799 92.6805 185.799L91.8835 185.457L91.6567 185.572L91.4299 185.799H90.4022L89.8346 185.572L89.0375 185.799L88.1304 185.572H87.3346L86.6517 185.799L85.7445 185.684L84.9488 185.799L84.2697 185.572L84.2619 185.567ZM97.6777 185.452H97.2241C96.8833 185.452 96.7679 185.452 96.5411 185.566L96.4271 185.908L96.7679 186.249H97.5636C97.6764 186.249 97.9045 186.475 97.9045 186.702V186.816L98.0172 187.499V189.088L97.9045 189.429L98.0172 190L98.1313 190.339L98.0172 191.361V191.931L98.1313 192.272V192.386L97.9045 192.728L98.0172 193.069L97.9045 193.523C97.9045 193.637 97.6764 193.753 97.2228 193.753H96.7666L96.5398 194.207L96.7666 194.548H97.6738L97.9019 194.434L99.0384 194.548H102.451L103.475 194.207H103.929L104.383 193.866L104.612 193.755L104.839 193.641L105.294 193.3L105.521 193.185L105.977 192.844L106.545 191.937L106.885 191.369L107.001 190.801L107.115 190.574L107.228 189.776L107.115 189.321L107.001 189.207L106.885 188.3L106.659 187.844L105.863 186.707L105.521 186.254H105.294L104.839 185.913V185.799L104.042 185.572H103.701L103.589 185.682L103.246 185.455L102.792 185.344H101.998L101.883 185.455L100.859 185.344L100.632 185.455H99.8368L99.3806 185.344H99.0397L98.4708 185.455H97.6764L97.6777 185.452ZM100.066 187.385V186.249H101.88L102.563 186.475H102.79L103.358 186.702L103.927 187.044L104.04 187.385L104.266 187.612L104.379 187.839L104.72 188.294V188.409L104.834 189.088L104.947 189.202V190.339L104.834 191.246L104.493 191.817V191.929L104.037 192.61L103.469 193.067L103.357 193.177L103.13 193.292V193.406L102.562 193.516H101.428L100.632 193.747L100.065 193.516V192.494L99.9521 191.925V189.08L100.065 188.511V188.058L99.9521 187.717L100.066 187.385ZM118.714 187.839L118.94 187.5L119.848 187.046L120.417 186.592L122.008 186.02L122.915 186.25L123.598 186.136L125.19 186.592L125.757 186.819L126.554 187.272C126.85 187.507 127.117 187.775 127.351 188.071L127.806 188.754L128.147 189.661H128.603V185.903L128.035 186.014L127.581 186.243L127.353 186.129L127.012 185.903H126.556L125.759 185.789L124.509 185.448L122.695 185.336H122.354L121.558 185.448H120.651L119.06 185.789L117.923 186.696L117.582 186.81L116.558 187.491L115.877 188.287L115.65 189.082L115.308 189.653L114.626 191.242L114.399 192.04V192.723L114.513 193.177L114.626 193.748L114.513 194.202L115.081 196.016L115.537 196.815L115.992 197.383L116.675 197.837L117.243 198.292L118.834 199.088L122.473 199.769L123.042 199.659L124.063 199.769L124.86 199.659H125.768L126.108 199.545C126.108 199.318 126.449 199.203 127.132 199.203L127.929 199.659C128.018 199.654 128.101 199.616 128.164 199.553C128.227 199.49 128.265 199.407 128.27 199.318L128.383 198.411L128.724 197.728L128.953 196.704L129.294 195.454C129.067 195.34 128.953 195.34 128.953 195.454L128.724 195.796L128.497 196.137L128.27 196.251L127.814 197.047L127.132 197.501L126.565 197.955L125.996 198.524L125.199 198.753L123.384 198.98H122.477L121.68 198.866L120.884 198.639L118.952 197.275L118.383 196.593L118.155 195.797L117.587 195.003V194.096L117.358 193.301L117.245 191.71L117.358 190.914L117.7 189.433L118.041 188.754L118.609 188.183L118.725 187.835L118.714 187.839ZM147.935 186.249L148.842 186.475L149.296 186.249C149.41 186.249 149.41 186.018 149.184 185.794L148.957 185.678L148.387 185.794L146.573 185.567L145.776 185.794H144.752L144.297 185.567H143.841C143.614 185.794 143.614 185.908 143.841 186.249H144.524L145.092 186.36L145.661 186.815L146.115 187.498V189.088L146.001 189.317L146.115 189.886L145.889 190.681L146.115 191.705L146.001 192.5L146.115 193.407L145.889 193.861L146.001 195.569L145.546 196.364L145.318 196.82L144.069 197.955L143.162 198.297H142.138L140.773 198.411H139.97L139.176 198.18L138.607 197.84L137.81 197.501L137.355 197.161L136.787 196.253L136.56 195.913V195.116L136.332 194.092L136.218 193.297L136.332 192.614L136.56 191.82L136.448 190.796L136.56 190.002L136.218 188.861V187.837L136.56 187.043C136.56 186.816 136.787 186.702 137.128 186.589L137.81 186.359H138.379C138.605 186.247 138.605 185.905 138.605 185.791H136.791L135.767 185.564L134.86 185.791H133.836L132.472 185.676L132.015 185.791L131.675 186.018L131.789 186.247H132.925C133.266 186.247 133.38 186.474 133.608 186.702L133.835 187.5L134.062 188.18L133.949 188.52L133.835 188.861L134.062 191.022L133.835 191.929L134.062 192.728L133.835 193.751V193.978L133.722 194.206L134.063 195.004V195.798L134.29 196.706L134.857 197.387L134.97 197.842L135.312 198.297L136.108 198.752L137.701 199.207L138.608 199.662H139.515L140.539 200L141.107 199.773H142.014L143.605 199.546L144.174 198.977L145.081 198.637L145.764 197.954L146.561 197.386V197.045L146.902 196.589L147.016 196.135V195.69L147.243 195.348L147.47 194.894L147.129 193.757V193.302L147.243 192.962L147.47 192.735V191.931L147.129 190.911L147.357 189.888L147.129 188.865L147.47 187.051C147.573 186.759 147.729 186.488 147.931 186.252L147.935 186.249ZM151.574 186.361H152.029L153.279 186.475C153.62 186.702 153.733 186.816 153.847 187.158L154.074 188.973V190.45L153.96 192.384L154.074 193.406L153.96 194.202L154.074 196.251L153.96 197.387L154.074 197.955L153.733 198.638L152.826 198.752H152.03L151.232 198.979L151.115 199.318L151.342 199.545L151.797 199.431L152.704 199.545L154.297 199.431L154.978 199.662L156.002 199.548L156.797 199.321L157.82 199.431L158.728 199.662L159.411 199.548H160.205L160.888 199.321L163.164 198.521L164.188 197.614L164.298 197.161C164.412 196.93 164.412 196.818 164.528 196.818L164.639 196.589L164.754 196.02L164.981 195.226L164.867 194.999V194.316L164.298 193.748L163.957 193.292L163.73 193.065L163.619 192.724L163.164 192.494L162.822 192.157L161.914 191.815L161.345 191.701V191.587L162.028 191.475L162.708 191.134L162.938 190.794L163.279 190.567C163.506 190.567 163.733 190.451 163.958 189.998C164.035 189.585 164.073 189.167 164.072 188.747V188.066L163.619 187.158L162.82 186.475L162.137 186.135L161.001 185.794L159.523 185.68L158.502 185.452H157.706L156.908 185.566L155.204 185.452L154.973 185.792L154.066 185.566L151.679 185.792C151.346 185.906 151.232 186.247 151.574 186.359V186.361ZM158.283 192.048L158.851 192.162H159.539L160.333 192.5C160.79 192.614 161.016 192.841 161.016 192.955L161.584 193.753L161.926 194.549L162.267 195.456L162.153 195.797L162.041 196.593L161.701 197.276L161.244 197.844L160.904 197.958L160.109 198.414L159.767 198.641H157.953L157.839 198.414H157.498L156.702 197.842L156.588 195.796V195.228L156.477 194.43L156.588 192.953V192.045L156.929 192.159H157.836L158.29 192.049L158.283 192.048ZM156.575 187.719L156.465 186.583V186.242H157.033L158.51 186.128L159.987 186.469L160.786 187.038L161.239 187.945L161.355 188.743V189.422L161.128 190.105L160.786 190.787L160.331 191.015L159.989 191.242L157.83 191.583L157.489 191.242L157.034 191.471L156.579 191.583V190.117L156.468 189.093L156.575 188.186V187.719ZM174.544 185.452L174.089 185.341L173.293 185.452C173.179 185.452 173.179 185.678 173.293 185.908H173.062V186.249L172.952 186.589L172.611 187.385L172.042 188.977V189.544L171.702 189.886L171.471 190.113L171.244 191.02L170.22 193.411L169.883 195.226L169.653 195.567L169.426 196.021L169.084 196.82L168.97 197.501C168.743 197.955 168.633 198.18 168.402 198.18C168.291 198.18 168.291 198.295 168.061 198.411C167.906 198.575 167.71 198.693 167.492 198.752H166.585C166.47 198.752 166.357 198.752 166.357 199.09C166.243 199.204 166.357 199.431 166.585 199.431H167.04L167.834 199.545L168.634 199.431L172.27 199.321V198.752H171.703L171.247 198.638L170.339 198.524C170.113 198.412 169.997 198.297 169.997 197.955L170.224 197.161V196.82L170.455 195.913L171.138 195.005V194.55L171.248 194.094H172.499L172.955 194.21H173.296L175.456 193.983L176.363 194.21L176.475 194.55L177.157 196.028L177.956 197.96L177.5 198.416L176.818 198.643L176.706 198.757L176.366 198.869L176.25 198.757C176.136 198.757 176.024 198.643 175.797 198.643C175.567 198.757 175.456 198.757 175.456 199.097C175.461 199.186 175.498 199.27 175.561 199.333C175.624 199.396 175.708 199.434 175.797 199.439L176.476 199.327L178.298 199.554L179.434 199.44H180.458L181.253 199.329L181.709 199.555H182.277L182.503 199.215L182.277 198.761L182.05 198.871V198.987L181.478 198.76C181.137 198.644 180.799 198.529 180.799 198.418L180.001 196.826L179.66 196.371V195.802L179.206 195.121L178.75 193.757L178.636 192.959L177.84 191.482L177.726 190.683L177.5 190.341L177.159 189.888L176.818 189.089L176.363 187.16L175.795 186.477V185.795L175.565 185.341H175.338L174.997 185.452H174.544ZM173.745 187.385L174.086 187.726L174.428 189.089L174.542 189.32L174.879 189.547L174.995 190.454L175.562 192.388L175.903 192.728L176.13 193.069H175.451L173.629 192.955L172.721 193.069L172.042 193.181C171.981 193.188 171.918 193.183 171.859 193.163C171.8 193.144 171.747 193.112 171.702 193.069V192.955L171.812 192.728L172.042 192.273L172.152 191.366L172.381 191.14L172.495 190.799L172.721 190.003L173.747 187.386L173.745 187.385ZM192.277 185.339L192.047 185.566L191.368 186.249L191.027 186.702L190.344 187.044L189.546 187.499L189.319 187.726L188.865 188.067C188.524 188.294 188.294 188.409 188.182 188.636C187.953 188.863 188.068 189.089 188.294 189.203L188.749 189.089L188.864 188.751L189.771 188.637L190.113 188.296L191.133 187.727L191.247 188.182L191.133 188.412L191.022 188.754L191.133 189.548L191.247 190.116L191.133 191.023L191.247 191.706V194.207C191.247 194.434 191.247 194.548 191.361 194.548L191.132 195.23V197.844L190.904 198.751H188.859C188.518 198.979 188.518 199.089 188.859 199.32L189.312 199.546L189.995 199.432H191.702L192.498 199.662L193.405 199.321L194.312 199.662L195.449 199.432C195.679 199.206 195.679 199.09 195.449 198.979L194.202 198.751H193.519C193.288 198.637 193.288 198.41 193.288 197.844V197.733L193.178 197.164L193.288 196.593L193.178 195.798V194.891L193.288 194.21L193.178 192.276L193.405 191.593L193.291 190.573L193.405 189.666L193.178 188.866L193.288 187.052V186.258L193.404 185.801L193.288 185.461L192.272 185.344L192.277 185.339ZM201.487 185.452H200.918C200.918 185.566 200.691 185.678 200.577 185.794L200.35 186.02L198.985 186.819L198.759 187.5L198.418 187.839L198.302 188.18L198.192 188.978V189.32L198.418 190.117L198.759 190.8L199.212 191.482L200.92 192.618L200.465 192.845L199.102 193.752L198.646 194.207L198.192 195.005L197.961 195.8L198.077 196.483V197.277L198.418 197.618C198.644 197.846 198.759 197.96 198.532 197.96C198.418 198.074 198.532 198.415 199.211 198.758L199.894 199.097L200.121 199.326L200.575 199.668H201.483L202.506 199.778H203.188L203.757 199.668L204.664 199.438L205.347 199.097L205.574 198.758L205.801 198.418L206.031 198.302L206.258 198.076L206.712 197.394L206.942 196.487L207.169 195.579L207.055 195.239L206.828 195.012L206.713 194.214L206.145 193.19L204.668 192.17L203.761 191.829L204.33 191.487L205.237 191.146L205.464 190.805L205.694 190.578L205.921 190.463L206.262 190.236L206.49 189.438L206.717 188.759L206.606 188.418L206.379 188.077L206.265 187.279L205.923 186.6L204.331 185.576L203.424 185.462H201.48V185.452H201.487ZM205.013 195.458L205.127 196.365V197.163L204.896 197.958L204.329 198.526L203.421 198.981L202.514 199.208L202.058 199.094L201.49 198.984L200.807 198.528L199.9 197.05L199.789 196.027L199.9 195.8L200.014 195.005L200.355 194.207L200.809 193.524L201.378 192.956L201.718 193.071L203.767 194.207L205.018 195.455L205.013 195.458ZM200.009 187.953L200.236 187.046L200.919 186.477L201.372 186.136L202.512 185.795L203.079 186.022L203.986 186.477L204.213 186.703L204.327 187.046L204.783 187.727L204.894 188.523L204.667 189.205V190.003L204.099 191.023L203.301 191.479L202.847 191.138L201.94 190.796L201.369 190.569L201.03 190.228L200.916 189.888L200.235 189.205C200.067 188.933 199.988 188.616 200.009 188.297V187.953ZM213.199 187.953L212.97 188.067L212.287 188.75L210.924 191.137L210.583 192.614L210.469 194.321L210.583 194.549L210.697 195.456L210.924 196.255L211.035 197.05L211.49 197.618L211.832 198.416L212.627 198.985L213.425 199.553L214.449 199.78L215.469 199.894L216.04 199.78L217.518 199.212L218.768 198.305L219.223 197.51L219.564 196.711L219.678 195.804L219.789 195.008L219.678 194.436L219.564 193.642L219.11 192.959L218.086 191.708L216.722 191.027H215.244L214.449 191.254L213.767 191.825L212.967 192.052L213.083 191.596L213.764 190.008V189.552L213.876 189.097L214.447 188.418L215.467 187.167L216.266 186.711L217.173 186.258L217.967 185.803L218.309 185.689L217.967 185.461H217.4L216.717 185.803L216.038 185.917L214.558 186.711L213.989 187.167L213.307 187.508L213.197 187.955L213.199 187.953ZM215.587 191.931L216.043 192.045L217.293 193.296L217.63 195.11L217.52 195.451L217.63 196.249L217.293 197.269L217.178 198.177L216.271 198.975L215.472 199.202H215.136L214.341 198.975L214.227 198.748L213.431 197.841L212.864 195.795V195L212.974 193.75V192.951L213.43 192.495L214.337 192.042L215.244 191.927H215.589L215.587 191.931ZM224.115 187.953C224.227 187.726 224.227 187.612 224.453 187.612L224.908 187.385L225.25 187.044L226.386 186.929L227.069 187.044L227.75 187.271L228.546 188.069L229.001 189.774V190.341L228.887 191.14L228.546 191.935L227.978 192.617L227.524 193.524L227.294 193.638L227.067 193.752L226.839 194.207L225.817 195.458L224.452 196.707L224.114 196.822L223.883 197.276L223.773 197.617L223.09 198.3L222.292 198.755C222.18 199.208 222.18 199.55 222.406 199.662H222.633L222.863 199.548H223.43L224.225 199.321H228.66L229.567 199.662L230.474 199.321L230.929 199.548H231.383V199.09L231.614 198.183L231.725 197.163V195.573L231.614 195.459L231.383 195.573L231.273 196.027V196.367L230.932 196.936C230.817 197.277 230.476 197.391 230.132 197.508L229.225 197.618L228.884 197.845H227.977L226.281 197.504L225.482 197.731L224.575 197.615L225.03 197.275L225.485 196.707L225.94 196.024L226.623 195.797L227.191 195.23L227.644 194.547L228.442 193.979L228.669 193.523L229.468 192.841L230.489 191.705L230.944 190.909L231.055 190.339L231.284 189.77L231.396 189.202L231.284 188.975L231.17 188.861L231.056 188.178L230.262 186.701L229.579 186.247L228.896 185.791L227.188 185.452H226.62L225.822 185.792L224.345 186.361L223.321 187.726L222.867 188.75L222.753 189.544L222.98 189.771L223.435 189.661V189.21L223.888 188.527L224.119 187.955L224.115 187.953Z" fill="white"/>
<path d="M191.711 33.0871C188.869 26.7201 185.002 20.9206 179.998 15.917C174.994 10.9133 169.196 7.05001 162.828 4.20668C156.121 1.47739 149.069 0 141.678 0C134.287 0 127.352 1.47739 120.643 4.20668C114.184 6.96413 108.316 10.94 103.36 15.917C98.3567 20.9206 94.3781 26.7201 91.6488 33.0871C88.9182 39.795 87.4408 46.8463 87.4408 54.2371C87.4408 61.628 88.9182 68.5627 91.6488 75.2718C94.3781 81.8683 98.3567 87.5523 103.36 92.5547C108.364 97.5571 114.049 101.537 120.643 104.154C127.351 106.997 134.287 108.472 141.678 108.472C148.948 108.478 156.143 107.008 162.828 104.151C169.196 101.534 174.994 97.5558 179.998 92.5521C184.977 87.5972 188.953 81.7292 191.711 75.2692C194.441 68.5938 195.831 61.4466 195.802 54.2345C195.802 46.8484 194.439 39.7993 191.711 33.0871ZM184.776 72.4285C182.502 78.0011 179.09 83.0022 174.77 87.3242C170.337 91.645 165.447 94.9432 159.877 97.3303C154.131 99.8063 147.94 101.083 141.684 101.083C135.427 101.083 129.236 99.8063 123.49 97.3303C117.915 95.0089 112.852 91.6083 108.595 87.3242C104.273 83.0048 100.976 78.0011 98.5887 72.4285C96.0933 66.6893 94.8136 60.4954 94.8304 54.2371C94.8304 47.8701 96.081 41.7298 98.5887 36.0458C100.976 30.4732 104.273 25.4708 108.595 21.15C112.917 16.8293 117.809 13.4183 123.49 11.1452C129.287 8.64404 135.315 7.50748 141.682 7.50748C148.049 7.50748 154.076 8.64404 159.877 11.1452C165.45 13.4196 170.334 16.8293 174.77 21.1513C179.09 25.4708 182.501 30.4744 184.776 36.0471C187.278 41.7311 188.414 47.8714 188.414 54.2384C188.414 60.6055 187.272 66.6291 184.776 72.4285Z" fill="white"/>
<path d="M179.542 38.2023C178.291 35.4717 177.038 33.3126 176.016 31.4931L171.813 25.9205L169.647 23.1977C169.536 22.7428 169.307 22.4019 169.194 21.9471L168.963 21.1513C168.625 20.5824 167.827 20.4684 166.69 20.6952C165.21 21.1513 163.28 22.9696 161.231 26.1524C158.046 30.5885 155.318 33.9995 152.937 36.0458C151.474 37.4368 149.598 38.3146 147.593 38.547C147.117 38.5418 146.65 38.425 146.228 38.2062C145.66 37.7513 145.321 36.7275 145.321 34.9079C146.798 33.8841 147.822 32.6348 148.732 31.0421C149.33 30.0886 149.645 28.9847 149.639 27.8592C149.529 26.8354 148.049 26.7227 145.092 27.6324L143.161 28.3141L142.478 27.6324L141.113 26.155C139.862 25.2479 139.065 25.4721 138.612 26.7227C138.499 27.1788 138.385 27.9733 138.271 29.2239C134.746 30.9294 132.925 32.4067 132.925 33.4305C132.925 34.1135 133.267 34.6811 134.063 35.1347C134.746 35.4769 135.997 35.9317 137.815 36.3853C137.929 37.4091 137.815 37.9781 137.474 38.3189L136.109 38.4316C133.835 38.2049 132.014 37.4091 130.424 36.0445C128.265 34.2237 125.536 30.9281 122.237 26.2652C120.646 23.8793 118.826 22.0585 116.892 20.8079L115.865 20.4645H114.731L114.164 21.2602L114.049 22.2827C114.049 22.6236 113.709 22.9657 113.481 23.4206L111.55 25.9192L107.343 31.4918C106.319 33.3061 105.068 35.4704 103.818 38.201C102.226 41.7251 101.204 45.8182 100.749 50.4802C100.407 55.1456 100.634 59.3484 101.543 63.4397C103.135 69.9195 105.865 75.6049 109.838 80.4945L111.77 82.6549C112.338 83.5621 112.677 83.6787 113.135 83.1098C113.249 82.8817 113.135 82.4281 112.567 81.8592L111.202 80.1537C109.616 77.8871 108.365 75.6101 107.571 73.2216C105.183 67.1967 104.84 63.8985 106.433 63.1015C107.571 62.6466 108.934 63.6691 110.64 66.3997L111.776 68.332C112.231 69.3558 112.573 69.8094 113.027 69.6966C113.482 69.3558 113.254 68.7895 112.458 67.6503C111.324 65.3491 110.521 62.8993 110.072 60.3735C109.389 56.3936 109.73 53.8937 111.093 52.9866C112.573 52.1908 114.279 52.9866 116.21 55.4878C116.893 56.1707 117.346 57.0792 117.801 57.9889C118.598 59.5804 119.052 60.6042 119.167 61.2872C119.394 62.1943 119.508 62.5378 119.963 62.4237C120.532 62.3084 120.646 61.8548 120.19 60.945L119.848 58.4477C119.848 56.0593 120.417 54.6959 121.662 54.3525C123.027 53.8976 124.277 54.4665 125.528 56.2861C126.778 58.1056 127.342 60.6055 127.342 63.673C127.342 64.356 127.001 64.6968 126.545 65.039C124.731 65.7206 123.93 66.6304 123.93 67.6542C124.043 68.9048 124.386 69.8133 125.18 70.6103C128.932 68.7895 131.548 68.4499 133.475 69.7031C134.952 70.6103 136.545 73.3422 138.022 78.0037C139.499 82.6653 140.409 87.4396 140.865 92.4433L141.094 95.7415C141.094 96.4232 141.206 96.6487 141.661 96.6487C142.116 96.6487 142.344 96.4206 142.23 95.7415L142.457 92.4433C142.91 87.6201 143.862 82.857 145.299 78.2305C146.664 73.6817 148.255 70.8435 149.732 69.7031C151.547 68.4538 154.168 68.7959 157.92 70.3848C158.944 69.9312 159.398 68.9074 159.512 67.6633C159.512 66.5254 158.713 65.6157 156.895 65.048C156.326 64.7059 155.988 64.3651 155.988 63.6821C155.988 60.612 156.557 58.1095 157.802 56.1772C159.053 54.4717 160.304 53.9041 161.671 54.2449C163.034 54.6998 163.603 56.0593 163.485 58.4516L163.258 60.9528C162.803 61.86 162.803 62.3174 163.37 62.3174C163.825 62.4328 164.051 62.0907 164.168 61.1822C164.168 60.4992 164.622 59.3614 165.531 57.884C165.986 56.9768 166.554 56.1772 167.123 55.3828C169.055 52.8773 170.761 52.0815 172.241 52.9956C173.718 53.9028 174.055 56.4066 173.264 60.2724C172.9 61.9262 172.444 63.5586 171.9 65.1621L170.763 67.5492C170.08 68.7985 169.965 69.3636 170.308 69.5955C170.763 69.7096 171.215 69.3688 171.559 68.3449L172.808 66.4127C174.516 63.5706 175.767 62.5468 177.014 63.1145C178.606 63.7974 178.268 67.2097 175.767 73.2346C174.919 75.7211 173.691 78.0613 172.127 80.1719L170.763 81.8773C170.308 82.3335 170.08 82.7845 170.308 83.1279C170.763 83.5841 171.107 83.5841 171.559 82.6731L173.491 80.5127C177.523 75.5356 180.363 69.7017 181.792 63.4579C182.699 59.3627 182.931 55.0432 182.59 50.4983C182.156 45.8212 181.246 41.7299 179.542 38.2023ZM144.635 30.7L145.318 30.3578L146 30.131C146.115 30.2451 146 30.5859 145.773 31.0382L144.978 31.9454L144.635 30.6948V30.7ZM140.768 31.0421C141.453 30.8123 142.021 30.9259 142.474 31.3829C142.816 31.7238 142.816 31.9506 142.816 32.4067C142.816 32.6335 142.474 32.7476 142.019 32.7476H140.427C139.971 32.6348 139.858 32.5208 139.858 32.1799C139.861 31.7238 140.203 31.3829 140.771 31.0421H140.768ZM175.791 60.4914L175.677 60.3787C176.814 56.6204 177.155 52.3062 176.814 47.7574C176.586 44.4592 175.791 41.0495 174.427 37.4104C173.176 34.225 171.924 31.6097 170.56 29.6762C171.13 32.6335 171.243 36.3853 170.789 40.7061C170.218 46.0519 168.967 50.4854 166.808 53.8963H166.696C168.174 49.9151 168.967 45.2549 169.198 40.1384C169.423 35.7037 169.081 31.9532 168.399 28.8817C167.832 26.1524 167.036 24.9018 166.353 24.9018C166.124 24.9018 165.785 25.3567 165.104 26.2665L163.853 28.6549C163.054 30.7026 162.376 33.4305 161.576 37.1811C160.669 43.0945 159.19 46.8476 157.482 48.3263C156.799 48.8952 156.12 49.0093 155.322 48.8952C154.529 48.8952 153.957 48.5531 153.39 47.988C152.707 47.4204 152.028 46.2839 151.229 44.463C151.571 45.3702 151.571 46.5107 151.685 47.988C151.704 50.4791 151.118 52.9375 149.977 55.1521L148.501 58.2209L150.094 57.538L151.459 56.8563C152.479 56.8563 153.163 57.4265 153.618 58.9039C154.071 60.2685 154.299 62.3162 154.413 65.1582C154.529 65.7258 154.756 66.0654 155.212 66.182C157.371 66.7496 158.166 67.4326 157.598 68.4551C156.348 67.8875 154.876 67.5479 152.932 67.4326C153.158 66.4088 152.701 65.385 151.793 64.4752C150.772 63.3374 149.521 63.1106 148.269 63.4514C146.455 64.2484 144.972 66.6356 143.836 70.7282C142.812 74.1405 142.242 78.1152 142.015 82.4398C141.902 86.1981 141.788 88.4673 141.674 89.0362L141.447 82.4398C141.105 78.1191 140.54 74.1457 139.514 70.7282C138.377 66.6356 137.013 64.2484 135.194 63.4514C133.83 63.1106 132.693 63.3374 131.555 64.3586C130.761 65.3824 130.305 66.4062 130.305 67.43C128.49 67.5415 127.009 67.8849 125.756 68.4525C125.302 67.43 126.098 66.6382 128.26 66.1794C128.468 66.1039 128.646 65.9637 128.769 65.7795C128.891 65.5953 128.952 65.3767 128.941 65.1556C128.941 62.5404 129.283 60.38 129.848 58.9013C130.302 57.4213 130.986 56.8537 132.009 56.8537L133.258 57.1945L135.306 58.3324L133.147 54.2384C132.35 52.4241 131.894 50.8275 131.781 49.3488C131.553 47.9855 131.781 46.394 132.236 44.6834C131.667 45.934 130.87 47.1845 129.619 47.9816C128.254 48.8887 127.117 49.2322 125.981 48.6645C124.048 47.8675 122.683 43.9991 121.773 37.1785C121.319 33.9969 120.636 31.2676 119.499 28.6524C119.273 27.8549 118.818 27.0588 118.134 26.2639C117.681 25.3567 117.34 24.8993 116.999 24.8993C116.316 24.8993 115.519 26.1499 114.951 28.8791C114.268 31.948 114.044 35.7011 114.156 40.1358C114.383 45.2523 115.292 49.9125 116.657 53.8937H116.543C114.383 50.4815 113.132 46.0467 112.564 40.7035C112.109 36.3827 112.223 32.6309 112.791 29.6736C111.426 31.6084 110.176 34.2224 109.033 37.4078C107.668 41.0469 106.874 44.4566 106.532 47.7548C106.077 52.3036 106.532 56.5103 107.782 60.3761L107.668 60.4889C105.854 57.4174 105.054 53.1019 105.167 47.5293C105.281 42.5269 106.647 37.4104 109.262 32.4067C110.309 30.4712 111.486 28.6093 112.786 26.8341L115.173 23.8793L115.514 22.9722L115.627 22.5186H116.534L118.125 23.996C120.287 26.2704 122.106 29.4533 123.471 33.6612L125.196 38.661C125.494 39.4788 125.916 40.2459 126.447 40.9354C127.014 41.7299 127.697 42.0733 128.607 42.186C129.745 42.4141 130.995 42.186 132.246 41.3903C133.611 40.4832 135.315 40.0257 137.362 39.6848C138.613 39.5695 139.068 39.4581 139.068 39.2287C139.068 37.9781 139.182 37.5232 139.295 37.4143C139.524 37.4143 139.524 37.6411 139.636 37.982L139.865 39.8028C139.979 40.1436 139.752 40.2564 139.296 40.3704C138.625 40.5142 137.976 40.7438 137.364 41.0534C136.113 41.735 135.316 42.6448 134.749 43.8954C133.841 46.1698 133.726 48.8978 134.522 52.1895C134.749 53.6669 135.772 56.3949 137.478 60.4837C134.863 58.8922 133.044 58.3233 132.021 58.8922C131.224 59.5739 130.656 61.3934 130.314 64.4649C131.111 62.9862 132.021 62.0764 133.498 61.7356C134.863 61.282 136.219 61.5088 137.364 62.5326C138.614 63.4397 139.751 66.055 140.662 70.1502C141.343 73.4471 141.683 76.4028 141.683 79.0172C141.796 73.9007 142.707 69.0098 144.525 64.3495L146.8 58.6641L148.847 52.6392C150.55 46.3849 149.64 42.177 146.118 40.1319C145.662 39.7911 145.889 39.6758 147.253 40.0179C148.637 40.2833 149.976 40.7427 151.232 41.3825C152.482 42.0642 153.733 42.2897 154.873 42.177C155.781 41.9502 156.465 41.6093 157.033 40.9264C157.828 40.0192 158.967 37.404 160.214 33.3087C161.581 29.2161 163.288 26.0332 165.218 23.9856C165.681 23.4244 166.216 22.9275 166.811 22.5082H167.718L167.833 22.9618L168.174 23.869L170.675 27.1659C172.268 29.2122 173.397 31.0317 174.201 32.7385C176.813 37.8549 178.063 42.7446 178.294 47.5202C178.295 53.1006 177.498 57.42 175.794 60.4914H175.791Z" fill="white"/>
<path fill-rule="evenodd" clip-rule="evenodd" d="M295.408 169.641C295.41 169.194 295.32 168.751 295.144 168.34C294.968 167.929 294.709 167.558 294.385 167.251C294.062 166.916 293.672 166.653 293.242 166.477C292.811 166.301 292.348 166.217 291.883 166.23C290.986 166.249 290.131 166.615 289.498 167.251C288.919 167.913 288.597 168.761 288.59 169.641C288.59 170.665 288.817 171.455 289.498 172.142C290.13 172.779 290.986 173.146 291.883 173.166C292.347 173.169 292.807 173.08 293.237 172.905C293.666 172.729 294.056 172.469 294.384 172.141C294.712 171.813 294.971 171.423 295.147 170.994C295.323 170.565 295.412 170.105 295.408 169.641ZM294.951 169.641C294.958 170.044 294.882 170.444 294.725 170.816C294.569 171.188 294.337 171.523 294.044 171.8C293.475 172.483 292.793 172.707 291.883 172.707C291.088 172.707 290.406 172.48 289.838 171.8C289.546 171.523 289.314 171.187 289.158 170.816C289.002 170.444 288.925 170.044 288.931 169.641C288.931 168.843 289.272 168.16 289.838 167.592C290.405 167.024 291.088 166.796 291.883 166.796C292.791 166.796 293.475 167.023 294.044 167.592C294.613 168.161 294.951 168.849 294.951 169.641Z" fill="white"/>
<path fill-rule="evenodd" clip-rule="evenodd" d="M293.59 168.849C293.59 168.396 293.363 168.166 292.907 167.942L291.883 167.832H290.633V171.59H291.208V170.109H291.777L292.459 170.223C292.686 170.337 292.797 170.679 292.797 171.13V171.357L292.911 171.587H293.594L293.48 171.357V170.789L293.252 170.22C293.138 169.993 292.911 169.993 292.57 169.879L293.138 169.653C293.275 169.568 293.388 169.449 293.467 169.309C293.546 169.168 293.589 169.01 293.59 168.849ZM292.683 168.396L292.794 169.077L292.456 169.532L291.885 169.646H291.208V168.281H291.887L292.683 168.396ZM117.121 129.622C119.964 132.123 121.786 135.308 122.353 139.176H123.034C122.92 132.124 123.034 127.463 123.261 125.302H122.92C122.694 125.757 122.013 126.097 121.215 126.209L118.484 125.983C114.067 124.297 109.334 123.598 104.617 123.934C98.5926 124.163 93.3608 126.55 89.1541 130.87C84.6066 135.647 82.3322 141.559 82.559 148.948C82.673 156.226 85.0615 161.908 89.6077 165.892C93.9297 169.756 99.387 171.464 106.21 171.236C110.876 171.122 114.85 169.986 118.375 167.596C120.877 165.892 122.81 163.838 124.059 161.572L125.196 159.532L124.513 159.079C122.353 162.263 119.848 164.762 116.555 166.353C113.564 167.851 110.226 168.518 106.889 168.285C102.797 168.171 99.2717 166.24 96.4296 162.829C93.4736 159.189 91.8808 154.529 91.7642 148.615C91.5348 142.361 92.6713 137.132 95.2879 133.037C98.1325 128.595 101.998 126.435 106.887 126.097C110.867 126.097 114.165 127.238 117.125 129.624L117.121 129.622ZM31.7289 142.815C33.6612 140.766 34.4582 138.038 34.0033 134.742C33.4344 131.557 31.843 129.169 29.3379 127.349C26.4959 125.419 22.7441 124.51 18.1927 124.736C10.1201 124.963 4.20668 124.963 0 124.846V125.529L2.84204 126.327C3.86584 127.009 4.54881 127.347 4.7756 127.691C5.34323 128.258 5.68277 128.941 5.57132 129.74V164.99C5.68407 166.24 4.66415 167.491 2.84204 168.399C1.81823 168.853 0.909762 169.082 0 169.307V169.988H11.2632L22.9734 170.1C27.6389 169.988 31.3881 168.849 34.1187 167.031C37.0748 164.985 38.5522 162.143 38.7841 158.616C38.899 154.865 37.5344 151.795 34.6902 149.407C32.189 147.017 29.1176 145.881 25.5939 145.881C27.9849 145.425 30.1453 144.516 31.7354 142.813L31.7289 142.815ZM29.6839 157.706C29.6839 159.521 29.4571 161.233 28.8895 162.483C27.4121 166.007 24.224 167.829 19.3396 167.829C15.8146 167.829 13.881 166.465 13.9938 163.62V147.36L17.8596 147.019C22.525 147.359 25.9377 149.179 28.0977 152.479C29.0461 154.065 29.5908 155.86 29.6839 157.706ZM16.6064 127.004C18.8808 127.004 20.9271 127.8 22.6326 129.164C24.5649 130.868 25.4746 133.143 25.4746 135.871C25.4746 139.17 24.7917 141.443 23.313 142.808C21.3794 144.4 18.4233 144.967 13.8771 144.512V127.577L16.6064 127.004ZM283.243 124.841H264.14V125.412C264.938 125.639 265.848 125.866 266.871 126.32C268.576 127.34 269.485 128.593 269.599 130.078V164.985C269.485 166.348 268.576 167.486 266.871 168.508C265.848 168.963 264.938 169.19 264.14 169.415V169.987H283.243V169.415C282.336 169.189 281.429 168.962 280.625 168.508C278.696 167.488 277.787 166.348 277.787 164.985V130.078C277.787 128.597 278.694 127.346 280.625 126.32C281.424 125.87 282.334 125.643 283.243 125.416V124.841ZM200.122 128.026C197.85 126.212 195.008 125.305 191.938 124.958C189.778 124.844 185.798 124.844 179.998 124.958L170.789 124.844V125.525C171.696 125.639 172.603 125.981 173.402 126.324C175.216 127.343 176.123 128.484 176.245 129.734V164.985C176.13 166.347 175.221 167.486 173.402 168.394L170.789 169.301V169.983H189.206V169.412C188.353 169.216 187.517 168.95 186.707 168.617C185.116 167.481 184.318 166.457 184.318 165.206V147.816C184.318 147.474 184.544 147.247 185.001 147.247C186.136 147.247 187.617 148.268 189.547 150.544C190.686 151.679 191.937 153.613 193.305 156L196.831 162.368C199.789 167.256 202.517 169.987 205.133 169.987C208.429 170.328 211.725 170.328 215.251 170.098V169.303C213.436 169.076 212.067 168.621 210.931 167.596C210.133 167.027 209.34 166.003 208.43 164.526L201.152 153.156C198.766 149.289 196.038 147.015 193.195 146.331C196.606 146.104 199.334 145.195 201.61 143.262C203.997 141.332 205.021 138.715 204.678 135.757C204.224 132.692 202.864 130.078 200.128 128.03L200.122 128.026ZM187.162 127.004C189.668 127.004 191.714 127.8 193.3 129.391C195.008 130.982 195.801 133.149 196.032 135.871C196.142 138.376 195.801 140.309 195.008 141.668C194.325 142.808 192.963 143.828 190.914 144.51C189.663 144.852 187.503 144.852 184.544 144.625V127.459C185.002 127.004 185.91 127.004 187.164 127.004H187.162ZM237.645 124.841H215.816V125.412C216.614 125.639 217.524 125.866 218.434 126.32C220.248 127.34 221.155 128.477 221.155 129.729V165.09C221.155 166.454 220.248 167.479 218.434 168.616L215.816 169.299V169.98H224.798C226.506 169.98 230.714 170.094 237.422 170.321C245.609 170.433 251.863 168.158 256.41 163.271C260.504 159.065 262.55 153.948 262.548 147.919C262.437 141.097 260.161 135.641 255.615 131.549C251.179 127.34 245.151 125.18 237.646 124.838L237.645 124.841ZM238.214 127.459C242.537 128.366 246.06 130.528 248.676 134.054C251.398 137.58 252.655 141.9 252.771 147.013C252.771 152.358 251.973 156.679 250.155 160.088C248.109 164.071 244.926 166.457 240.49 167.475L237.194 167.818L233.666 167.702C232.189 167.361 231.391 167.02 230.945 166.567C230.038 165.884 229.467 164.518 229.467 162.698C229.353 159.403 229.353 147.689 229.353 127.676C231.739 126.883 234.697 126.883 238.22 127.452L238.214 127.459ZM82.6691 168.396C81.3045 167.828 80.1679 166.581 79.4863 164.985L64.7046 124.282H57.8827C49.2412 149.071 44.5784 162.487 43.8967 164.198C43.2137 166.131 42.1899 167.497 40.5985 168.293C39.5459 168.87 38.3837 169.219 37.1875 169.317V169.999H52.1973V169.317C50.9467 169.089 50.0382 168.748 49.2412 168.293C48.334 167.724 47.7638 166.816 47.8766 165.679C47.8766 164.996 48.1034 163.746 48.671 162.039L52.6522 150.555H65.2735L69.2534 161.47C69.821 163.403 70.1606 164.655 70.2772 165.338C70.3899 166.589 69.9351 167.497 68.9126 168.176C68.3436 168.633 67.3198 169.084 66.0692 169.317V169.999H85.6278V169.317C84.6216 169.084 83.633 168.781 82.6691 168.41V168.396ZM64.3624 147.247H53.6734L58.9039 131.782L64.3624 147.247ZM149.528 150.544C150.778 154.295 152.029 157.931 153.392 161.458L154.416 165.327C154.53 166.577 154.074 167.486 153.165 168.165C152.482 168.736 151.574 169.072 150.323 169.305V169.987H169.763L169.877 169.305C168.846 169.176 167.845 168.869 166.919 168.398C165.442 167.829 164.418 166.584 163.734 164.987L148.957 124.282H142.021C133.38 149.071 128.717 162.487 128.035 164.198C127.352 166.131 126.221 167.497 124.851 168.293C123.715 168.755 122.533 169.098 121.326 169.317V169.999H136.341V169.317C135.092 169.089 134.068 168.748 133.385 168.293C132.478 167.724 132.021 166.816 132.021 165.679C132.021 164.996 132.361 163.746 132.818 162.039L136.683 150.555L149.528 150.544ZM137.816 147.247L143.273 131.782L148.618 147.247H137.816Z" fill="white"/>
</svg>
