<svg width="318" height="100" viewBox="0 0 318 100" fill="none" xmlns="http://www.w3.org/2000/svg">
<path d="M155.293 99.9313C140.147 99.3799 124.589 95.6864 108.683 88.8664C102.209 86.0909 95.3632 82.6528 88.3966 78.6788C83.8019 76.0579 73.2841 69.6205 72.6985 69.0708C72.3301 68.7251 72.1859 68.4007 72.1859 67.918C72.1859 67.0248 72.8279 66.3867 73.7251 66.3881C74.1901 66.3888 74.3025 66.4379 75.4009 67.1186C79.8088 69.8507 85.9057 72.9454 91.8465 75.4661C119.515 87.206 152.294 91.3285 183.759 87.0255C205.248 84.0869 225.903 77.2111 242.015 67.6327C244.34 66.2508 244.554 66.1781 245.251 66.5369C246.213 67.0327 246.421 68.2462 245.672 68.9886C245.378 69.2805 245.016 69.5122 239.727 72.7958C225.622 81.5532 214.234 87.3349 202.377 91.7587C186.428 97.7088 170.446 100.483 155.293 99.9313Z" fill="white"/>
<path fill-rule="evenodd" clip-rule="evenodd" d="M0 1.54558C0 1.54558 0.298204 2.4842 0.586692 5.15172C0.932515 11.7968 0.950863 17.305 0.990828 23.4466C1.07045 28.1893 1.02389 32.8106 0.982773 37.2606C0.955113 40.2742 0.934285 41.9169 0.934285 44.6569C0.934285 52.8105 0.287558 58.5252 0.287558 58.5252C0.287558 58.5252 6.31566 59.8222 15.4145 59.8222C24.5164 59.8222 34.1738 56.6727 39.7464 51.947C45.3176 47.2216 50.3314 40.4575 50.3314 28.3214C50.3314 16.1849 45.1317 9.51368 38.2606 5.15992C31.3875 0.804161 20.8942 -0.0283301 12.8144 0.341629C4.73661 0.713086 0.279529 1.54558 0 1.54558ZM316.47 47.2216L304.315 44.3502C301.125 47.4987 297.679 49.0633 293.254 48.9817C284.142 48.815 279.614 43.4568 277.931 34.6207H317.117C317.674 31.4709 317.857 28.1354 317.672 24.9856C317.3 18.6236 315.342 12.7679 311.358 7.75379C307.415 2.78966 300.631 0.186289 292.243 0.248559C284.367 0.308165 277.93 3.0011 272.834 8.4028C268.045 13.4773 265.178 21.2159 265.311 31.2854C265.439 40.8516 267.879 47.974 273.855 53.8C278.015 57.856 283.607 60.0223 290.942 60.0067C304.918 59.5861 310.726 55.0918 316.47 47.2216ZM306.52 24.8015H278.391C278.887 17.5427 285.548 10.7821 292.605 10.8156C299.91 10.849 306.183 16.0617 306.52 24.8015ZM183.171 11.2321C192.474 11.2321 200.017 19.634 200.017 29.9945C200.017 40.3551 192.474 48.7574 183.171 48.7574C173.872 48.7574 166.326 40.3551 166.326 29.9945C166.326 19.634 173.872 11.2321 183.171 11.2321ZM183.533 0C199.143 0 211.801 13.5316 211.801 29.9945C211.801 46.4575 198.781 59.808 183.171 59.808C167.564 59.808 154.905 46.4575 154.905 29.9945C154.905 13.5316 167.926 0 183.533 0ZM214.251 57.7838H226.87V19.7043C238.417 29.8039 246.925 42.4977 252.032 57.7838L262.873 57.8485V1.91554L250.789 1.91556L250.776 29.3186C246.993 23.0065 242.36 17.8151 237.806 13.3398C233.244 8.8575 229.539 5.06212 224.92 1.91556H214.251V57.7838ZM104.007 57.7838H116.264V19.7043C127.811 29.8039 136.139 42.4977 141.246 57.7838H152.204V1.91554H139.945V28.8722C132.822 18.6334 124.193 9.43675 114.316 1.91554H104.007V57.7838ZM68.9982 1.91554H80.8847C92.4267 14.6558 99.4919 33.186 101.872 57.7838H88.9631C88.6276 53.5116 88.1045 49.5852 87.3949 45.6429H61.9118C61.2042 49.579 60.6857 53.5049 60.3616 57.7838H47.8249C50.0863 33.0378 57.6621 13.8909 68.9982 1.91554ZM85.0163 35.1781C82.2453 26.3484 78.9462 19.0846 74.481 12.3851C70.0446 19.1106 66.5748 26.6927 64.1224 35.1781H85.0163ZM12.9226 11.2737C12.9226 11.2737 15.4145 11.1807 18.4803 11.1807C21.5456 11.1807 28.2409 11.7368 33.1616 16.5548C38.0828 21.3731 38.1761 26.8386 38.1761 30.6382C38.1761 34.4367 36.8675 42.6819 28.7877 46.3873C20.7094 50.0945 12.8298 48.7046 12.8298 48.7046L12.9226 11.2737Z" fill="white"/>
</svg>
