<svg width="600" height="72" viewBox="0 0 600 72" fill="none" xmlns="http://www.w3.org/2000/svg">
<path d="M365.2 71C364.6 69.4 364.3 67.7 364.1 66C364 64.3 363.8 62.6 363.6 60.9C363.2 57.6 362.7 54.9 361.8 52.8C361 50.6 359.8 48.9 358.3 47.7C356.8 46.4 354.9 45.5 352.7 45C350.4 44.5 347.7 44.2 344.4 44.2H332.3V71.1H317.3V0.199982H351.9C354.5 0.199982 357.2 0.3 359.9 0.5C362.5 0.7 365.2 1.09999 367.7 1.79999C371.9 2.99999 375.1 5.30001 377.5 8.60001C379.8 11.9 381 15.7 381 20C381 24.9 380 29.2 377.9 32.8C375.8 36.4 372.4 39 367.5 40.6C369.1 41.2 370.4 41.7 371.5 42.2C372.6 42.7 373.5 43.4 374.4 44.1C375.3 44.9 376 45.8 376.6 46.8C377.3 48 378 49.3 378.5 50.7C379.5 53 380 55.4 380.1 57.9C380.2 60.4 380.4 62.9 380.7 65.3C380.9 67.2 381.4 69.2 382 71H365.2ZM363.5 17C363 15.9 362.2 14.9 361.2 14.2C360.2 13.5 359 13 357.8 12.8C356.4 12.5 354.9 12.4 353.5 12.4H332.4V31.6H353.5C357 31.6 359.6 30.9 361.6 29.5C363.5 28.1 364.5 25.4 364.5 21.6C364.4 19.8 364.1 18.2 363.5 17ZM438.9 56.9C437.6 60 435.6 62.8 433.2 65C430.7 67.2 427.7 68.9 424.5 70C421.1 71.1 417.5 71.7 413.4 71.7C404.8 71.7 398.1 69.3 393.3 64.6C388.6 59.9 386.2 53.2 386.2 44.6C386.2 40.6 386.9 36.9 388.2 33.6C389.5 30.3 391.4 27.6 393.8 25.3C396.3 23 399.3 21.3 402.5 20.1C406 18.9 409.7 18.3 413.5 18.3C422.1 18.3 428.9 20.7 433.7 25.4C438.5 30.1 441 36.9 441 45.6C441 49.9 440.3 53.6 438.9 56.9ZM425.7 38.9C425.3 37.1 424.6 35.5 423.6 34C422.6 32.6 421.2 31.4 419.6 30.7C418 29.9 415.9 29.5 413.5 29.5C411 29.5 408.9 29.9 407.2 30.8C405.6 31.6 404.3 32.7 403.3 34.2C402.3 35.6 401.7 37.3 401.3 39.2C400.9 41.3 400.7 43.3 400.7 45.4C400.7 47.4 400.9 49.5 401.4 51.4C401.8 53.1 402.6 54.8 403.6 56.2C404.7 57.6 406 58.7 407.6 59.4C409.2 60.2 411.3 60.6 413.7 60.6C416.1 60.6 418.1 60.2 419.7 59.3C421.3 58.5 422.6 57.4 423.6 55.9C424.6 54.5 425.3 52.8 425.7 50.9C426.1 48.9 426.3 46.9 426.3 44.9C426.4 42.9 426.1 40.9 425.7 38.9ZM498.9 57.3C497.1 61.3 494.2 64.5 490.2 67.1C487.3 68.9 484.4 70 481.4 70.4C478.3 70.8 475.1 70.9 472 70.9H448.9V0H463.1V19H475.7C483.8 19 490.2 21.1 494.8 25.4C499.4 29.7 501.6 35.9 501.7 44.2C501.6 49 500.7 53.4 498.9 57.3ZM484.2 34C482 31.5 478.5 30.2 473.7 30.2H463.1V59.9H473.7C478.3 59.9 481.7 58.5 484 55.6C486.3 52.7 487.4 49.1 487.4 44.8C487.4 40.2 486.3 36.6 484.2 34ZM558.8 56.9C557.5 60 555.5 62.8 553.1 65C550.7 67.2 547.8 68.9 544.4 70C541 71.1 537.3 71.7 533.3 71.7C524.7 71.7 518 69.3 513.2 64.6C508.4 59.9 506.1 53.2 506.1 44.6C506.1 40.6 506.8 36.9 508.1 33.6C509.4 30.3 511.3 27.6 513.7 25.4C516.2 23.1 519.1 21.4 522.3 20.2C525.7 19 529.3 18.4 533.3 18.4C541.9 18.4 548.7 20.8 553.5 25.5C558.3 30.3 560.8 37 560.8 45.7C560.9 49.9 560.2 53.6 558.8 56.9ZM545.6 38.9C545.2 37.1 544.5 35.5 543.5 34C542.5 32.6 541.1 31.4 539.5 30.7C537.8 29.9 535.8 29.5 533.4 29.5C530.9 29.5 528.8 29.9 527.1 30.8C525.5 31.6 524.2 32.7 523.2 34.2C522.2 35.7 521.5 37.4 521.2 39.2C520.8 41.3 520.6 43.3 520.6 45.4C520.6 47.4 520.8 49.5 521.3 51.4C521.7 53.1 522.5 54.8 523.5 56.2C524.6 57.6 525.9 58.7 527.5 59.4C529.1 60.2 531.2 60.6 533.6 60.6C536 60.6 538 60.2 539.6 59.3C541.2 58.5 542.5 57.4 543.5 56C544.5 54.5 545.2 52.8 545.6 51C546 49 546.2 47 546.2 45C546.3 43 546.1 40.9 545.6 38.9ZM589.6 71C586.1 71 582.9 70.4 580.1 69.1C577.3 67.9 575.2 65.5 573.9 61.9C573.3 60.2 573 58.5 572.8 56.7C572.7 55 572.6 53.2 572.6 51.4V30.1H563.6V19H572.6V0H586.8V19H600V30.1H586.8V48.9C586.8 50 586.8 51.4 586.8 53.2C586.8 54.9 587.2 56.2 587.9 57.2C588.5 58 589.4 58.7 590.3 59.1C591.3 59.5 592.4 59.7 593.5 59.8C594.6 59.9 595.8 59.9 596.9 59.9C598 59.8 599 59.8 599.9 59.8V70.9L589.6 71Z" fill="white"/>
<path d="M149.8 41.2C149.6 43.2 149.4 45.2 149 47.1C148.7 49.1 148.2 51 147.6 53C147.1 54.8 146.4 56.5 145.6 58.2C144.6 60.4 143.2 62.3 141.5 64C139.8 65.6 137.8 67 135.6 68C134 68.8 132.3 69.4 130.6 69.8C128.9 70.2 127.1 70.5 125.3 70.7C123.5 70.9 121.7 71 119.9 71H84.5V0.100006H114.6C117.5 0.100006 120.5 0.3 123.5 0.5C126.4 0.8 129.3 1.39999 132.1 2.39999C134.8 3.39999 137.4 4.69999 139.6 6.39999C141.9 8.09999 143.8 10.4 145.3 13.3C146.9 16.5 148.1 20.1 148.9 24.2C149.6 28 150 31.8 150.1 35.7C150.1 37.4 150 39.2 149.8 41.2ZM132.5 26.9C131.9 23.8 130.9 21.1 129.5 18.8C127.8 16.1 125.6 14.3 123 13.6C120.3 12.8 117.4 12.5 114.6 12.5H99.6V58.6H114.6C116.5 58.6 118.4 58.4 120.3 58.1C122.4 57.7 124.2 57.2 125.7 56.4C127.3 55.5 128.5 54.3 129.5 52.6C130.5 50.9 131.3 49 131.8 47.1C132.4 45.1 132.8 43.1 133 41.1C133.2 39.3 133.4 37.5 133.4 35.7C133.4 32.7 133.1 29.8 132.5 26.9ZM176.3 70.9C174.4 70.9 172.4 70.9 170.5 70.8C168.6 70.8 166.7 70.5 164.8 70C161.5 69.1 159.1 67.3 157.3 64.5C155.6 61.8 154.7 58.7 154.8 55.5C154.8 53 155.3 50.5 156.3 48.2C157.3 45.8 158.9 43.8 160.9 42.2C161.9 41.5 163 40.9 164.2 40.6C165.5 40.2 166.9 39.9 168.2 39.7C169.6 39.5 170.9 39.4 172.3 39.4C173.7 39.4 174.9 39.3 176 39.3H193.5V38.5C193.5 36.7 193.3 35.2 192.8 34.1C192.3 33.1 191.6 32.2 190.6 31.6C189.5 31 188.4 30.6 187.1 30.4C185.6 30.2 184.1 30.1 182.6 30.1H158.6V19.1H182.6C183.6 19.1 184.6 19.1 185.5 19.1C186.5 19.1 187.4 19.2 188.4 19.2C192.8 19.3 196.5 20.3 199.6 22C202.7 23.7 205 26.8 206.4 31.3C206.9 33 207.3 34.7 207.4 36.5C207.5 38.2 207.6 40 207.6 41.8V70.9H176.3ZM193.6 50.5H174.7C173.2 50.5 171.9 50.9 170.9 51.7C169.9 52.5 169.4 53.7 169.4 55.3C169.4 56.4 169.6 57.3 170.1 57.9C170.6 58.5 171.2 59 171.9 59.2C172.7 59.5 173.6 59.7 174.4 59.7C175.3 59.8 176.2 59.8 177.1 59.8H193.6C193.6 59.8 193.6 50.5 193.6 50.5ZM239.2 71C235.7 71 232.5 70.4 229.7 69.1C226.9 67.9 224.8 65.5 223.5 61.9C222.9 60.2 222.6 58.5 222.4 56.7C222.3 54.9 222.2 53.2 222.2 51.4V30.1H213.2V19H222.2V0H236.4V19H249.5V30.1H236.3V48.9C236.3 50 236.3 51.5 236.3 53.2C236.3 54.9 236.7 56.3 237.4 57.2C238 58 238.9 58.7 239.8 59.1C240.8 59.5 241.9 59.7 243 59.8C244.1 59.9 245.3 59.9 246.4 59.9C247.5 59.8 248.5 59.8 249.4 59.8V70.9L239.2 71ZM275 70.9C273.1 70.9 271.2 70.9 269.2 70.8C267.3 70.8 265.4 70.5 263.5 70C260.2 69.2 257.8 67.3 256.1 64.5C254.4 61.8 253.5 58.7 253.5 55.5C253.5 53 254 50.5 255.1 48.2C256.1 45.8 257.7 43.8 259.7 42.2C260.7 41.5 261.8 40.9 263 40.6C264.3 40.2 265.6 39.9 267 39.7C268.4 39.5 269.8 39.4 271.1 39.4C272.4 39.4 273.7 39.4 274.8 39.3H292.3V38.4C292.3 36.6 292.1 35.1 291.6 34C291.1 32.9 290.4 32.1 289.4 31.4C288.3 30.8 287.2 30.4 286 30.2C284.5 30 283 29.9 281.5 29.9H257.5V18.9H281.5C282.5 18.9 283.5 18.9 284.4 18.9C285.4 18.9 286.3 19 287.3 19C291.7 19.1 295.4 20.1 298.5 21.8C301.6 23.5 303.9 26.6 305.3 31.1C305.8 32.8 306.2 34.5 306.3 36.3C306.4 38 306.5 39.8 306.5 41.6V70.9C306.5 70.9 275 70.9 275 70.9ZM292.3 50.5H273.4C271.9 50.5 270.6 50.9 269.6 51.7C268.6 52.5 268.1 53.7 268.1 55.3C268.1 56.4 268.3 57.3 268.8 57.9C269.3 58.5 269.9 59 270.6 59.2C271.4 59.5 272.2 59.7 273.1 59.7C274 59.8 274.9 59.8 275.8 59.8H292.3C292.3 59.8 292.3 50.5 292.3 50.5ZM41.4 19.1C39.8 19.1 38.5 21.1 38.5 23.5C38.5 25.9 39.8 27.9 41.4 27.9C43 27.9 44.4 25.9 44.4 23.5C44.4 21.1 43.1 19.1 41.4 19.1ZM21.2 19.1C19.6 19.1 18.3 21.1 18.3 23.5C18.3 25.9 19.6 27.9 21.2 27.9C22.8 27.9 24.2 25.9 24.2 23.5C24.1 21.1 22.8 19.1 21.2 19.1ZM60.5 13.7H60.3V8.39999C60.3 4.09999 56.8 0.699982 52.6 0.699982H10.1C5.8 0.699982 2.4 4.19999 2.4 8.39999V13.7H2.2C1 13.9 0 15 0 16.3V25C0 26.3 0.900001 27.3 2.2 27.6H2.4V36.3C2.4 40.6 5.9 44 10.1 44H22.2V46H21.2L17.4 47.5V48.1H16V49.6C13 49.8 10.7 52.2 10.7 55.2V56.9H10.1L8.3 58.7V63.7L10.1 65.5H13.9L14.7 64.7V62.2H16.2V58.1C16.2 57.5 15.7 56.9 15 56.9H14.3V55.2C14.3 54.2 15 53.4 16 53.3V55.3H17.6V61.3L19.6 63.6V66.7C18.1 66.7 16.4 66.8 14.2 68.7V71.8H30.4V65.8H32.4V71.9H48.6V68.8C46.4 66.9 44.7 66.8 43.2 66.8V63.7L45.3 61.4V55.4H46.9V53.4C47.9 53.5 48.6 54.4 48.6 55.4V57.1H47.9C47.3 57.1 46.7 57.6 46.7 58.3V62.4H48.2V65L49 65.8H52.8L54.6 64V59L52.8 57.2H52.2V55.5C52.2 52.5 49.8 50.1 46.9 49.9V48.4H45.5V47.8L41.7 46.3H40.7V43.9H52.7C57 43.9 60.4 40.4 60.4 36.2V27.5H60.6C61.8 27.3 62.8 26.2 62.8 24.9V16.2C62.7 15 61.7 13.9 60.5 13.7ZM58.2 34.4C58.2 37.8 55.4 40.6 52 40.6H10.6C7.2 40.6 4.4 37.8 4.4 34.4V9.60001C4.4 6.20001 7.2 3.39999 10.6 3.39999H52.1C55.5 3.39999 58.3 6.20001 58.3 9.60001V34.4H58.2Z" fill="white"/>
</svg>
