<svg width="840" height="167" viewBox="0 0 840 167" fill="none" xmlns="http://www.w3.org/2000/svg">
<path fill-rule="evenodd" clip-rule="evenodd" d="M793.636 0C772.407 0 754.429 7.4127 754.429 15.5497V51.251H786.102C816.21 51.251 839.601 41.7285 839.601 24.1737C839.601 5.58174 815.682 0 793.636 0Z" fill="white"/>
<path fill-rule="evenodd" clip-rule="evenodd" d="M748.603 48.9841C739.882 27.7261 706.006 16.3203 664.063 16.3203H612.691V74.2012C612.691 81.4167 621.41 88.273 634.93 93.0135V48.9841H748.603Z" fill="white"/>
<path fill-rule="evenodd" clip-rule="evenodd" d="M638.362 94.1431C649.029 97.4118 662.209 99.418 676.268 99.418C712.034 99.418 750.812 90.3594 750.812 60.2168C750.812 57.4984 750.446 54.8956 749.78 52.4097C722.993 52.4097 641.148 52.4097 638.362 52.4097C638.362 57.6079 638.362 74.2363 638.362 94.1431Z" fill="white"/>
<path fill-rule="evenodd" clip-rule="evenodd" d="M89.3037 126.188H101.808V64.4536H89.3037V126.188Z" fill="white"/>
<path fill-rule="evenodd" clip-rule="evenodd" d="M522.216 119.591V126.187H466.088V64.3657H518.135V71.0188H478.451V90.6261H512.481V97.2499H478.451V119.591H522.216Z" fill="white"/>
<path fill-rule="evenodd" clip-rule="evenodd" d="M570.343 92.6606L569.992 92.2783L596.104 64.4536H584.228L564.072 85.7921L544.459 64.4536H529.918L557.201 94.1494L527.947 126.188H539.525L562.927 100.756L585.492 126.188H600.37L570.343 92.6606Z" fill="white"/>
<path fill-rule="evenodd" clip-rule="evenodd" d="M157.661 69.367C141.137 69.367 130.657 79.7586 130.657 95.228C130.657 112.892 143.039 121.25 157.754 121.25C174.712 121.25 184.432 110.707 184.432 94.9614C184.432 81.0977 176.144 69.367 157.661 69.367ZM157.768 128.02C134.039 128.308 117.434 115.552 117.434 95.9755C117.434 78.4962 130.995 62.9343 157.661 62.6153C184.904 62.2854 197.651 78.4901 197.651 94.567C197.651 113.461 182.681 127.724 157.768 128.02Z" fill="white"/>
<path fill-rule="evenodd" clip-rule="evenodd" d="M326.814 69.367C310.291 69.367 299.81 79.7586 299.81 95.228C299.81 112.892 312.195 121.25 326.91 121.25C343.873 121.25 353.587 110.707 353.587 94.9614C353.587 81.0977 345.3 69.367 326.814 69.367ZM326.922 128.02C303.194 128.308 286.584 115.552 286.584 95.9755C286.584 78.4962 300.152 62.9343 326.814 62.6153C354.063 62.2854 366.802 78.4901 366.802 94.567C366.802 113.461 351.837 127.724 326.922 128.02Z" fill="white"/>
<path fill-rule="evenodd" clip-rule="evenodd" d="M280.493 71.697C273.593 66.2211 263.791 62.6152 250.391 62.6152C222.444 62.6152 208.222 78.0031 208.222 95.4933C208.222 115.077 225.638 128.02 250.509 128.02C263.197 128.02 273.417 124.699 281.753 119.111L275.854 113.698C269.369 117.819 262.481 121.012 253.074 121.012C235.771 121.012 221.441 112.661 221.441 94.9893C221.441 79.5272 232.781 69.1295 250.855 69.1295C260.829 69.1295 267.717 71.3792 272.976 76.0845L280.493 71.697Z" fill="white"/>
<path fill-rule="evenodd" clip-rule="evenodd" d="M413.837 118.938C409.451 119.673 403.061 119.818 400.233 119.818H391.554C391.554 119.818 391.554 90.5908 391.554 83.5786C391.554 80.6398 392.42 77.1398 395.396 74.4847C399.459 70.8459 406.338 69.2341 414.089 69.2341C426.973 69.2341 439.39 76.8488 439.39 92.7236C439.39 110.916 425.429 116.973 413.837 118.938ZM412.957 62.8354C399.537 62.8354 386.445 68.3941 382.043 74.8389C379.467 78.6055 379.049 82.8189 379.049 85.5885C379.049 95.6332 379.047 126.204 379.047 126.204C379.047 126.204 378.238 126.204 404.098 126.204C407.715 126.204 413.58 125.973 416.944 125.515C437.62 122.71 452.717 111.385 452.717 92.7236C452.717 69.7381 432.036 62.8354 412.957 62.8354Z" fill="white"/>
<path fill-rule="evenodd" clip-rule="evenodd" d="M45.7471 119.233C43.6435 119.569 40.219 119.755 37.5906 119.755H12.5099C12.5099 119.755 12.5099 88.2733 12.5099 85.3406C12.5099 80.9068 12.8459 76.4901 17.416 73.0486C21.4176 70.0282 27.619 68.672 35.0426 68.672C45.2784 68.672 54.3103 73.3894 54.3103 80.1886C54.3103 84.6223 50.4243 88.8637 40.8739 90.0239C39.2365 90.2199 35.5064 90.4463 33.583 90.4463H18.2207V96.8559H36.9405C38.6595 96.8559 42.0816 96.9374 43.6435 97.0823C53.5944 98.0501 58.8657 101.991 58.8657 107.92C58.8657 113.27 55.0529 117.761 45.7471 119.233ZM56.2666 92.4112C63.1059 89.7159 66.2322 85.3515 66.2322 79.8343C66.2322 68.8814 52.9979 62.2686 33.9104 62.2686C22.1163 62.2686 11.4837 65.4788 5.38452 70.8512C1.49861 74.2769 0 77.9449 0 85.5779C0 95.6044 0 126.205 0 126.205H39.1148C42.9776 126.205 48.3816 125.858 51.6941 125.191C63.1607 122.896 70.7901 116.816 70.7901 108.36C70.7901 101.111 66.4379 96.0451 56.2666 92.4112Z" fill="white"/>
<path fill-rule="evenodd" clip-rule="evenodd" d="M1.09062 141.931V150.578H1.14662C1.33166 150.038 1.59706 149.56 1.94158 149.141C2.28488 148.724 2.68419 148.365 3.14071 148.068C3.59601 147.77 4.09271 147.546 4.63323 147.398C5.17253 147.249 5.72036 147.175 6.27914 147.175C7.11549 147.175 7.82645 147.277 8.41201 147.482C8.99758 147.686 9.47601 147.956 9.84853 148.29C10.2198 148.625 10.5132 149.001 10.7275 149.42C10.9405 149.839 11.0939 150.262 11.1877 150.69C11.2802 151.117 11.3362 151.531 11.3557 151.93C11.3727 152.331 11.3824 152.679 11.3824 152.976V161.847H10.3233V152.781C10.3233 152.409 10.2953 151.958 10.2393 151.429C10.1833 150.898 10.0202 150.388 9.75114 149.895C9.4821 149.402 9.07184 148.979 8.52401 148.625C7.97497 148.272 7.21775 148.096 6.25114 148.096C5.45132 148.096 4.73062 148.244 4.08906 148.541C3.44749 148.839 2.90332 149.252 2.45775 149.783C2.01097 150.312 1.67132 150.945 1.4388 151.68C1.20627 152.414 1.09062 153.218 1.09062 154.092V161.847H0.0302734V141.931H1.09062Z" fill="white"/>
<path fill-rule="evenodd" clip-rule="evenodd" d="M29.6249 153.897C29.6054 153.154 29.4752 152.428 29.2341 151.721C28.9919 151.015 28.6486 150.397 28.2018 149.867C27.755 149.336 27.212 148.909 26.5705 148.584C25.9289 148.258 25.1985 148.096 24.3804 148.096C23.5806 148.096 22.8696 148.264 22.2475 148.597C21.6242 148.932 21.0898 149.374 20.643 149.922C20.1962 150.471 19.8432 151.094 19.5827 151.79C19.3221 152.488 19.1651 153.19 19.1091 153.897H29.6249ZM19.1091 154.817C19.0908 155.654 19.1882 156.463 19.4013 157.244C19.6155 158.026 19.9454 158.714 20.3922 159.308C20.8378 159.904 21.3917 160.378 22.0515 160.731C22.7114 161.084 23.488 161.261 24.3804 161.261C25.7378 161.261 26.8675 160.884 27.7696 160.131C28.6717 159.378 29.2524 158.333 29.5129 156.994H30.5733C30.2933 158.686 29.62 159.974 28.55 160.856C27.4811 161.74 26.0908 162.182 24.3804 162.182C23.3395 162.182 22.4192 161.991 21.6194 161.61C20.8195 161.229 20.1548 160.708 19.6253 160.048C19.0945 159.387 18.6952 158.616 18.4261 157.733C18.1559 156.85 18.0305 155.915 18.0487 154.929C18.0305 153.944 18.1461 152.986 18.3969 152.056C18.6489 151.126 19.0397 150.299 19.5693 149.574C20.0988 148.849 20.7635 148.267 21.5634 147.83C22.362 147.394 23.3018 147.175 24.3804 147.175C25.4967 147.175 26.4633 147.38 27.2814 147.789C28.0995 148.198 28.7691 148.751 29.2901 149.448C29.81 150.146 30.1874 150.96 30.4187 151.889C30.6512 152.819 30.74 153.795 30.684 154.817H19.1091Z" fill="white"/>
<path fill-rule="evenodd" clip-rule="evenodd" d="M46.8627 153.702C46.6582 153.944 46.3709 154.125 45.9983 154.246C45.6258 154.368 45.2034 154.455 44.7298 154.511C44.255 154.566 43.7571 154.614 43.2373 154.65C42.7162 154.688 42.1952 154.744 41.6742 154.817C40.4105 154.967 39.4378 155.288 38.7597 155.78C38.0816 156.273 37.742 157.058 37.742 158.137C37.742 159.011 38.0536 159.75 38.6757 160.355C39.299 160.959 40.2425 161.261 41.5074 161.261C42.7163 161.261 43.6731 161.043 44.3804 160.606C45.0865 160.169 45.6258 159.667 45.9983 159.098C46.3709 158.532 46.607 157.983 46.7093 157.454C46.8116 156.924 46.8627 156.565 46.8627 156.38V153.702ZM47.923 159.173C47.923 159.377 47.9279 159.581 47.9364 159.785C47.9462 159.988 47.979 160.175 48.0338 160.341C48.0898 160.508 48.1836 160.643 48.3138 160.746C48.4429 160.847 48.6291 160.899 48.8714 160.899C49.0564 160.899 49.3169 160.871 49.6517 160.815V161.735C49.5032 161.773 49.3596 161.8 49.2196 161.819C49.0808 161.838 48.9359 161.847 48.7874 161.847C48.3601 161.847 48.0204 161.791 47.7696 161.679C47.5189 161.567 47.3277 161.419 47.1975 161.234C47.0672 161.047 46.9783 160.828 46.9333 160.578C46.8858 160.327 46.8627 160.052 46.8627 159.755V159.001H46.8067C46.6399 159.43 46.3976 159.834 46.0811 160.215C45.7658 160.596 45.3799 160.935 44.9246 161.234C44.4693 161.531 43.9519 161.763 43.3761 161.93C42.799 162.097 42.1672 162.182 41.4794 162.182C40.811 162.182 40.1829 162.111 39.5961 161.971C39.0105 161.833 38.4992 161.605 38.0634 161.289C37.6251 160.972 37.2867 160.559 37.0444 160.048C36.8022 159.537 36.6816 158.9 36.6816 158.137C36.6816 157.3 36.8448 156.617 37.1698 156.087C37.4949 155.557 37.9136 155.138 38.4249 154.831C38.9363 154.525 39.5036 154.307 40.1269 154.177C40.7489 154.046 41.3589 153.954 41.9542 153.897C43.1436 153.822 44.0688 153.735 44.7298 153.632C45.3896 153.53 45.8778 153.372 46.1931 153.158C46.5096 152.945 46.7044 152.666 46.7787 152.321C46.8529 151.978 46.8907 151.508 46.8907 150.913C46.8907 150.745 46.8359 150.509 46.7239 150.202C46.6119 149.895 46.4122 149.583 46.1237 149.267C45.8352 148.95 45.431 148.678 44.91 148.444C44.3902 148.211 43.7206 148.096 42.9025 148.096C41.6194 148.096 40.5822 148.421 39.7921 149.072C39.002 149.723 38.5698 150.672 38.4956 151.917H37.4352C37.5095 150.336 38.0171 149.151 38.9557 148.361C39.8943 147.57 41.2103 147.175 42.9025 147.175C43.5343 147.175 44.1479 147.231 44.7432 147.342C45.3373 147.453 45.8729 147.649 46.3465 147.926C46.8213 148.205 47.2023 148.586 47.4909 149.068C47.7782 149.55 47.923 150.163 47.923 150.904V159.173Z" fill="white"/>
<path fill-rule="evenodd" clip-rule="evenodd" d="M55.7324 161.847H56.7928V141.931H55.7324V161.847Z" fill="white"/>
<path fill-rule="evenodd" clip-rule="evenodd" d="M69.6223 148.429H66.4985V158.444C66.4985 159.021 66.563 159.476 66.6945 159.811C66.8247 160.146 67.0244 160.396 67.2934 160.564C67.5637 160.731 67.8887 160.838 68.271 160.885C68.6508 160.932 69.0927 160.945 69.5943 160.926V161.848C69.055 161.884 68.5303 161.879 68.019 161.833C67.5077 161.787 67.056 161.648 66.6665 161.414C66.2757 161.183 65.964 160.833 65.7327 160.368C65.499 159.905 65.4016 159.262 65.4393 158.444V148.429H62.7891V147.509H65.4393V143.047H66.4985V147.509H69.6223V148.429Z" fill="white"/>
<path fill-rule="evenodd" clip-rule="evenodd" d="M76.8189 141.931V150.578H76.8761C77.0612 150.038 77.3253 149.56 77.6711 149.141C78.0144 148.724 78.4137 148.365 78.8702 148.068C79.3243 147.77 79.8222 147.546 80.3627 147.398C80.902 147.249 81.4499 147.175 82.0074 147.175C82.8438 147.175 83.5559 147.277 84.1415 147.482C84.7271 147.686 85.2055 147.956 85.578 148.29C85.9493 148.625 86.2427 149.001 86.457 149.42C86.67 149.839 86.8234 150.262 86.9172 150.69C87.0097 151.117 87.0657 151.531 87.0852 151.93C87.1022 152.331 87.1119 152.679 87.1119 152.976V161.847H86.0516V152.781C86.0516 152.409 86.0248 151.958 85.9688 151.429C85.9128 150.898 85.7497 150.388 85.4806 149.895C85.2104 149.402 84.8013 148.979 84.2535 148.625C83.7045 148.272 82.9472 148.096 81.9806 148.096C81.1796 148.096 80.4601 148.244 79.8173 148.541C79.177 148.839 78.6328 149.252 78.186 149.783C77.7392 150.312 77.4008 150.945 77.1683 151.68C76.9358 152.414 76.8189 153.218 76.8189 154.092V161.847H75.7598V141.931H76.8189Z" fill="white"/>
<path fill-rule="evenodd" clip-rule="evenodd" d="M105.215 151.945C105.159 151.313 104.995 150.756 104.726 150.271C104.456 149.788 104.108 149.389 103.681 149.072C103.253 148.755 102.755 148.514 102.188 148.346C101.621 148.178 101.012 148.096 100.361 148.096C99.4684 148.096 98.6783 148.277 97.9905 148.64C97.3015 149.001 96.7256 149.486 96.2606 150.09C95.7955 150.695 95.4425 151.383 95.2015 152.153C94.9592 152.926 94.8387 153.721 94.8387 154.539C94.8387 155.506 94.9495 156.398 95.1735 157.216C95.3962 158.036 95.7408 158.747 96.2046 159.35C96.6696 159.954 97.2467 160.424 97.9345 160.759C98.6223 161.094 99.4307 161.261 100.361 161.261C101.03 161.261 101.649 161.15 102.216 160.926C102.783 160.703 103.285 160.396 103.722 160.005C104.159 159.616 104.517 159.146 104.796 158.597C105.074 158.049 105.261 157.449 105.354 156.798H106.414C106.303 157.653 106.065 158.415 105.703 159.085C105.34 159.755 104.893 160.317 104.364 160.774C103.834 161.229 103.229 161.577 102.551 161.819C101.872 162.06 101.142 162.182 100.361 162.182C99.1896 162.182 98.1889 161.971 97.3623 161.554C96.5345 161.135 95.8564 160.573 95.3268 159.867C94.7961 159.159 94.4065 158.346 94.1557 157.426C93.9037 156.505 93.7783 155.542 93.7783 154.539C93.7783 153.534 93.922 152.587 94.2105 151.693C94.499 150.801 94.9215 150.02 95.479 149.351C96.0378 148.681 96.7256 148.152 97.5437 147.761C98.3618 147.37 99.3004 147.175 100.361 147.175C101.142 147.175 101.872 147.273 102.551 147.467C103.229 147.663 103.834 147.956 104.364 148.346C104.893 148.737 105.325 149.23 105.66 149.824C105.996 150.421 106.199 151.126 106.275 151.945H105.215Z" fill="white"/>
<path fill-rule="evenodd" clip-rule="evenodd" d="M122.591 153.702C122.387 153.944 122.098 154.125 121.727 154.246C121.354 154.368 120.932 154.455 120.458 154.511C119.984 154.566 119.486 154.614 118.966 154.65C118.445 154.688 117.924 154.744 117.403 154.817C116.139 154.967 115.166 155.288 114.488 155.78C113.81 156.273 113.471 157.058 113.471 158.137C113.471 159.011 113.782 159.75 114.404 160.355C115.028 160.959 115.971 161.261 117.236 161.261C118.445 161.261 119.402 161.043 120.109 160.606C120.815 160.169 121.354 159.667 121.727 159.098C122.098 158.532 122.336 157.983 122.438 157.454C122.54 156.924 122.591 156.565 122.591 156.38V153.702ZM123.652 159.173C123.652 159.377 123.656 159.581 123.665 159.785C123.675 159.988 123.708 160.175 123.762 160.341C123.818 160.508 123.912 160.643 124.042 160.746C124.171 160.847 124.358 160.899 124.6 160.899C124.785 160.899 125.045 160.871 125.38 160.815V161.735C125.232 161.773 125.088 161.8 124.948 161.819C124.808 161.838 124.664 161.847 124.516 161.847C124.089 161.847 123.749 161.791 123.498 161.679C123.247 161.567 123.056 161.419 122.926 161.234C122.796 161.047 122.707 160.828 122.662 160.578C122.614 160.327 122.591 160.052 122.591 159.755V159.001H122.535C122.368 159.43 122.126 159.834 121.81 160.215C121.493 160.596 121.108 160.935 120.653 161.234C120.197 161.531 119.68 161.763 119.105 161.93C118.528 162.097 117.896 162.182 117.208 162.182C116.54 162.182 115.911 162.111 115.325 161.971C114.739 161.833 114.228 161.605 113.791 161.289C113.354 160.972 113.014 160.559 112.773 160.048C112.531 159.537 112.41 158.9 112.41 158.137C112.41 157.3 112.573 156.617 112.898 156.087C113.223 155.557 113.642 155.138 114.153 154.831C114.665 154.525 115.232 154.307 115.855 154.177C116.477 154.046 117.086 153.954 117.683 153.897C118.872 153.822 119.797 153.735 120.458 153.632C121.117 153.53 121.605 153.372 121.922 153.158C122.238 152.945 122.433 152.666 122.507 152.321C122.581 151.978 122.619 151.508 122.619 150.913C122.619 150.745 122.563 150.509 122.452 150.202C122.34 149.895 122.141 149.583 121.852 149.267C121.564 148.95 121.158 148.678 120.639 148.444C120.119 148.211 119.448 148.096 118.631 148.096C117.348 148.096 116.311 148.421 115.521 149.072C114.731 149.723 114.297 150.672 114.224 151.917H113.164C113.238 150.336 113.744 149.151 114.684 148.361C115.623 147.57 116.939 147.175 118.631 147.175C119.263 147.175 119.875 147.231 120.472 147.342C121.066 147.453 121.601 147.649 122.075 147.926C122.55 148.205 122.931 148.586 123.219 149.068C123.507 149.55 123.652 150.163 123.652 150.904V159.173Z" fill="white"/>
<path fill-rule="evenodd" clip-rule="evenodd" d="M132.269 150.69H132.353C132.483 150.225 132.726 149.788 133.079 149.379C133.432 148.97 133.85 148.617 134.334 148.319C134.817 148.021 135.361 147.794 135.965 147.636C136.569 147.477 137.197 147.408 137.848 147.426V148.487C137.291 148.412 136.653 148.468 135.937 148.653C135.221 148.84 134.538 149.249 133.887 149.88C133.626 150.159 133.399 150.429 133.204 150.69C133.009 150.951 132.846 151.238 132.716 151.554C132.586 151.871 132.483 152.224 132.409 152.613C132.335 153.005 132.287 153.469 132.269 154.009V161.847H131.21V147.509H132.269V150.69Z" fill="white"/>
<path fill-rule="evenodd" clip-rule="evenodd" d="M154.082 153.897C154.062 153.154 153.932 152.428 153.691 151.721C153.45 151.015 153.106 150.397 152.66 149.867C152.213 149.336 151.669 148.909 151.028 148.584C150.386 148.258 149.656 148.096 148.839 148.096C148.038 148.096 147.327 148.264 146.705 148.597C146.081 148.932 145.547 149.374 145.1 149.922C144.654 150.471 144.3 151.094 144.04 151.79C143.78 152.488 143.622 153.19 143.566 153.897H154.082ZM143.566 154.817C143.548 155.654 143.645 156.463 143.86 157.244C144.073 158.026 144.402 158.714 144.849 159.308C145.295 159.904 145.849 160.378 146.509 160.731C147.168 161.084 147.945 161.261 148.839 161.261C150.195 161.261 151.325 160.884 152.227 160.131C153.129 159.378 153.709 158.333 153.97 156.994H155.03C154.752 158.686 154.077 159.974 153.008 160.856C151.938 161.74 150.549 162.182 148.839 162.182C147.797 162.182 146.876 161.991 146.076 161.61C145.277 161.229 144.612 160.708 144.082 160.048C143.552 159.387 143.152 158.616 142.883 157.733C142.613 156.85 142.488 155.915 142.506 154.929C142.488 153.944 142.603 152.986 142.854 152.056C143.106 151.126 143.497 150.299 144.026 149.574C144.556 148.849 145.221 148.267 146.02 147.83C146.82 147.394 147.76 147.175 148.839 147.175C149.954 147.175 150.92 147.38 151.738 147.789C152.557 148.198 153.226 148.751 153.747 149.448C154.267 150.146 154.644 150.96 154.877 151.889C155.108 152.819 155.198 153.795 155.141 154.817H143.566Z" fill="white"/>
<path fill-rule="evenodd" clip-rule="evenodd" d="M177.315 160.619H177.371L181.277 147.509H182.7L186.632 160.619H186.688L190.704 147.509H191.875L187.273 161.847H185.962L182.029 148.849H181.974L178.013 161.847H176.675L172.128 147.509H173.271L177.315 160.619Z" fill="white"/>
<path fill-rule="evenodd" clip-rule="evenodd" d="M197.816 161.847H198.877V147.509H197.816V161.847ZM197.816 144.804H198.877V141.931H197.816V144.804Z" fill="white"/>
<path fill-rule="evenodd" clip-rule="evenodd" d="M211.708 148.429H208.583V158.444C208.583 159.021 208.649 159.476 208.779 159.811C208.91 160.146 209.109 160.396 209.38 160.564C209.649 160.731 209.974 160.838 210.356 160.885C210.736 160.932 211.179 160.945 211.68 160.926V161.848C211.141 161.884 210.615 161.879 210.104 161.833C209.593 161.787 209.142 161.648 208.751 161.414C208.361 161.183 208.05 160.833 207.818 160.368C207.584 159.905 207.487 159.262 207.524 158.444V148.429H204.874V147.509H207.524V143.047H208.583V147.509H211.708V148.429Z" fill="white"/>
<path fill-rule="evenodd" clip-rule="evenodd" d="M218.904 141.931V150.578H218.96C219.145 150.038 219.411 149.56 219.755 149.141C220.098 148.724 220.498 148.365 220.954 148.068C221.409 147.77 221.906 147.546 222.447 147.398C222.986 147.249 223.534 147.175 224.093 147.175C224.929 147.175 225.64 147.277 226.225 147.482C226.811 147.686 227.291 147.956 227.662 148.29C228.035 148.625 228.327 149.001 228.541 149.42C228.754 149.839 228.909 150.262 229.001 150.69C229.094 151.117 229.15 151.531 229.169 151.93C229.186 152.331 229.197 152.679 229.197 152.976V161.847H228.137V152.781C228.137 152.409 228.109 151.958 228.053 151.429C227.997 150.898 227.834 150.388 227.565 149.895C227.296 149.402 226.885 148.979 226.337 148.625C225.788 148.272 225.031 148.096 224.065 148.096C223.265 148.096 222.544 148.244 221.903 148.541C221.261 148.839 220.717 149.252 220.271 149.783C219.824 150.312 219.485 150.945 219.252 151.68C219.02 152.414 218.904 153.218 218.904 154.092V161.847H217.844V141.931H218.904Z" fill="white"/>
<path fill-rule="evenodd" clip-rule="evenodd" d="M255.012 161.261C255.943 161.261 256.75 161.084 257.429 160.731C258.11 160.378 258.67 159.904 259.108 159.308C259.546 158.714 259.873 158.021 260.087 157.23C260.301 156.44 260.408 155.598 260.408 154.706C260.408 153.888 260.306 153.085 260.1 152.293C259.896 151.503 259.578 150.797 259.15 150.173C258.721 149.55 258.167 149.049 257.487 148.667C256.805 148.287 255.981 148.096 255.012 148.096C254.061 148.096 253.25 148.282 252.578 148.653C251.906 149.026 251.362 149.518 250.942 150.132C250.522 150.745 250.22 151.447 250.033 152.237C249.846 153.029 249.754 153.851 249.754 154.706C249.754 155.562 249.837 156.385 250.006 157.175C250.173 157.965 250.457 158.663 250.858 159.266C251.26 159.871 251.799 160.355 252.481 160.716C253.161 161.079 254.005 161.261 255.012 161.261ZM249.726 150.801H249.81C249.922 150.448 250.107 150.058 250.367 149.63C250.627 149.202 250.971 148.807 251.4 148.444C251.827 148.081 252.343 147.779 252.947 147.538C253.552 147.296 254.243 147.175 255.025 147.175C256.122 147.175 257.075 147.38 257.885 147.789C258.693 148.198 259.363 148.747 259.893 149.435C260.423 150.123 260.817 150.922 261.078 151.833C261.338 152.744 261.469 153.702 261.469 154.706C261.469 155.803 261.337 156.807 261.078 157.718C260.816 158.63 260.42 159.416 259.888 160.076C259.358 160.736 258.686 161.252 257.876 161.623C257.065 161.996 256.11 162.182 255.01 162.182C253.816 162.182 252.755 161.92 251.822 161.401C250.891 160.879 250.21 160.033 249.782 158.862H249.727L249.726 166.979H248.693V147.509H249.726V150.801Z" fill="white"/>
<path fill-rule="evenodd" clip-rule="evenodd" d="M277.647 153.702C277.442 153.944 277.154 154.125 276.783 154.246C276.41 154.368 275.988 154.455 275.514 154.511C275.039 154.566 274.541 154.614 274.021 154.65C273.5 154.688 272.979 154.744 272.458 154.817C271.193 154.967 270.222 155.288 269.544 155.78C268.865 156.273 268.526 157.058 268.526 158.137C268.526 159.011 268.838 159.75 269.46 160.355C270.083 160.959 271.027 161.261 272.292 161.261C273.5 161.261 274.457 161.043 275.165 160.606C275.871 160.169 276.41 159.667 276.783 159.098C277.154 158.532 277.391 157.983 277.493 157.454C277.596 156.924 277.647 156.565 277.647 156.38V153.702ZM278.707 159.173C278.707 159.377 278.711 159.581 278.721 159.785C278.73 159.988 278.763 160.175 278.818 160.341C278.874 160.508 278.968 160.643 279.098 160.746C279.227 160.847 279.413 160.899 279.656 160.899C279.841 160.899 280.101 160.871 280.436 160.815V161.735C280.287 161.773 280.144 161.8 280.004 161.819C279.864 161.838 279.72 161.847 279.572 161.847C279.144 161.847 278.805 161.791 278.554 161.679C278.303 161.567 278.112 161.419 277.982 161.234C277.851 161.047 277.763 160.828 277.717 160.578C277.67 160.327 277.647 160.052 277.647 159.755V159.001H277.591C277.423 159.43 277.182 159.834 276.865 160.215C276.549 160.596 276.164 160.935 275.709 161.234C275.252 161.531 274.736 161.763 274.16 161.93C273.583 162.097 272.951 162.182 272.264 162.182C271.594 162.182 270.967 162.111 270.38 161.971C269.795 161.833 269.283 161.605 268.846 161.289C268.409 160.972 268.07 160.559 267.829 160.048C267.586 159.537 267.466 158.9 267.466 158.137C267.466 157.3 267.629 156.617 267.954 156.087C268.279 155.557 268.698 155.138 269.209 154.831C269.72 154.525 270.288 154.307 270.911 154.177C271.533 154.046 272.142 153.954 272.738 153.897C273.928 153.822 274.853 153.735 275.514 153.632C276.173 153.53 276.661 153.372 276.977 153.158C277.294 152.945 277.489 152.666 277.563 152.321C277.637 151.978 277.675 151.508 277.675 150.913C277.675 150.745 277.619 150.509 277.508 150.202C277.396 149.895 277.196 149.583 276.908 149.267C276.619 148.95 276.214 148.678 275.694 148.444C275.173 148.211 274.504 148.096 273.687 148.096C272.404 148.096 271.366 148.421 270.576 149.072C269.786 149.723 269.353 150.672 269.279 151.917H268.219C268.294 150.336 268.8 149.151 269.74 148.361C270.679 147.57 271.995 147.175 273.687 147.175C274.319 147.175 274.931 147.231 275.527 147.342C276.121 147.453 276.657 147.649 277.131 147.926C277.605 148.205 277.987 148.586 278.275 149.068C278.562 149.55 278.707 150.163 278.707 150.904V159.173Z" fill="white"/>
<path fill-rule="evenodd" clip-rule="evenodd" d="M286.767 157.078C286.804 157.747 286.953 158.336 287.214 158.848C287.473 159.36 287.814 159.796 288.232 160.159C288.65 160.522 289.137 160.797 289.696 160.982C290.254 161.168 290.858 161.261 291.509 161.261C291.974 161.261 292.472 161.219 293.001 161.135C293.531 161.051 294.024 160.899 294.479 160.675C294.935 160.452 295.312 160.142 295.609 159.741C295.906 159.341 296.056 158.834 296.056 158.221C296.056 157.607 295.916 157.114 295.637 156.743C295.358 156.37 294.986 156.072 294.522 155.849C294.057 155.626 293.531 155.45 292.945 155.32C292.36 155.189 291.761 155.059 291.146 154.929C290.533 154.8 289.927 154.65 289.333 154.483C288.738 154.315 288.209 154.088 287.743 153.799C287.278 153.512 286.907 153.131 286.628 152.656C286.348 152.182 286.21 151.582 286.21 150.857C286.21 150.151 286.368 149.56 286.683 149.085C287 148.612 287.404 148.234 287.897 147.956C288.389 147.677 288.943 147.477 289.557 147.357C290.17 147.236 290.783 147.175 291.398 147.175C292.16 147.175 292.861 147.258 293.504 147.426C294.145 147.593 294.702 147.863 295.177 148.234C295.652 148.607 296.023 149.081 296.293 149.658C296.562 150.235 296.697 150.931 296.697 151.75H295.637C295.637 151.099 295.525 150.54 295.302 150.075C295.079 149.611 294.781 149.235 294.41 148.947C294.037 148.658 293.592 148.444 293.071 148.304C292.551 148.165 291.992 148.096 291.398 148.096C290.914 148.096 290.425 148.142 289.934 148.234C289.441 148.328 288.999 148.486 288.608 148.709C288.217 148.932 287.897 149.221 287.646 149.574C287.394 149.928 287.269 150.355 287.269 150.857C287.269 151.434 287.409 151.899 287.688 152.251C287.966 152.605 288.334 152.889 288.789 153.103C289.245 153.316 289.756 153.489 290.323 153.618C290.89 153.749 291.463 153.879 292.038 154.009C292.746 154.139 293.41 154.292 294.034 154.469C294.656 154.645 295.195 154.887 295.652 155.194C296.107 155.501 296.465 155.897 296.725 156.38C296.985 156.863 297.115 157.477 297.115 158.221C297.115 159.001 296.938 159.643 296.585 160.145C296.232 160.647 295.786 161.051 295.247 161.359C294.707 161.666 294.108 161.879 293.447 161.999C292.787 162.121 292.141 162.182 291.509 162.182C290.691 162.182 289.934 162.074 289.236 161.861C288.538 161.648 287.929 161.321 287.409 160.884C286.888 160.447 286.479 159.913 286.182 159.281C285.883 158.649 285.725 157.914 285.708 157.078H286.767Z" fill="white"/>
<path fill-rule="evenodd" clip-rule="evenodd" d="M304.368 157.078C304.405 157.747 304.554 158.336 304.815 158.848C305.075 159.36 305.415 159.796 305.832 160.159C306.251 160.522 306.739 160.797 307.297 160.982C307.854 161.168 308.458 161.261 309.109 161.261C309.575 161.261 310.072 161.219 310.602 161.135C311.133 161.051 311.625 160.899 312.081 160.675C312.535 160.452 312.913 160.142 313.211 159.741C313.508 159.341 313.656 158.834 313.656 158.221C313.656 157.607 313.516 157.114 313.238 156.743C312.959 156.37 312.588 156.072 312.123 155.849C311.657 155.626 311.133 155.45 310.547 155.32C309.96 155.189 309.361 155.059 308.747 154.929C308.134 154.8 307.529 154.65 306.934 154.483C306.339 154.315 305.809 154.088 305.344 153.799C304.879 153.512 304.508 153.131 304.229 152.656C303.95 152.182 303.81 151.582 303.81 150.857C303.81 150.151 303.968 149.56 304.285 149.085C304.6 148.612 305.004 148.234 305.497 147.956C305.991 147.677 306.543 147.477 307.158 147.357C307.772 147.236 308.385 147.175 308.999 147.175C309.761 147.175 310.463 147.258 311.105 147.426C311.745 147.593 312.304 147.863 312.777 148.234C313.252 148.607 313.624 149.081 313.894 149.658C314.163 150.235 314.298 150.931 314.298 151.75H313.238C313.238 151.099 313.127 150.54 312.903 150.075C312.68 149.611 312.383 149.235 312.011 148.947C311.639 148.658 311.192 148.444 310.673 148.304C310.152 148.165 309.594 148.096 308.999 148.096C308.515 148.096 308.026 148.142 307.534 148.234C307.041 148.328 306.6 148.486 306.208 148.709C305.819 148.932 305.497 149.221 305.247 149.574C304.996 149.928 304.871 150.355 304.871 150.857C304.871 151.434 305.009 151.899 305.288 152.251C305.568 152.605 305.934 152.889 306.391 153.103C306.846 153.316 307.358 153.489 307.925 153.618C308.491 153.749 309.063 153.879 309.64 154.009C310.346 154.139 311.011 154.292 311.634 154.469C312.258 154.645 312.797 154.887 313.252 155.194C313.708 155.501 314.065 155.897 314.326 156.38C314.587 156.863 314.717 157.477 314.717 158.221C314.717 159.001 314.54 159.643 314.186 160.145C313.833 160.647 313.387 161.051 312.848 161.359C312.308 161.666 311.709 161.879 311.049 161.999C310.389 162.121 309.741 162.182 309.109 162.182C308.291 162.182 307.534 162.074 306.837 161.861C306.14 161.648 305.53 161.321 305.009 160.884C304.489 160.447 304.079 159.913 303.782 159.281C303.485 158.649 303.327 157.914 303.309 157.078H304.368Z" fill="white"/>
<path fill-rule="evenodd" clip-rule="evenodd" d="M321.717 161.847H322.777V147.509H321.717V161.847ZM321.717 144.804H322.777V141.931H321.717V144.804Z" fill="white"/>
<path fill-rule="evenodd" clip-rule="evenodd" d="M330.726 154.678C330.726 155.534 330.847 156.357 331.089 157.147C331.331 157.937 331.684 158.638 332.149 159.253C332.614 159.867 333.19 160.355 333.878 160.716C334.566 161.079 335.357 161.261 336.249 161.261C337.142 161.261 337.932 161.079 338.62 160.716C339.307 160.355 339.885 159.867 340.35 159.253C340.815 158.638 341.168 157.937 341.41 157.147C341.651 156.357 341.771 155.534 341.771 154.678C341.771 153.822 341.651 153.001 341.41 152.21C341.168 151.42 340.815 150.718 340.35 150.104C339.885 149.49 339.307 149.001 338.62 148.64C337.932 148.277 337.142 148.096 336.249 148.096C335.357 148.096 334.566 148.277 333.878 148.64C333.19 149.001 332.614 149.49 332.149 150.104C331.684 150.718 331.331 151.42 331.089 152.21C330.847 153.001 330.726 153.822 330.726 154.678ZM329.667 154.678C329.667 153.655 329.811 152.694 330.099 151.79C330.386 150.89 330.81 150.095 331.368 149.407C331.925 148.718 332.614 148.175 333.432 147.774C334.25 147.375 335.189 147.175 336.249 147.175C337.31 147.175 338.248 147.375 339.066 147.774C339.885 148.175 340.572 148.718 341.131 149.407C341.689 150.095 342.111 150.89 342.4 151.79C342.688 152.694 342.832 153.655 342.832 154.678C342.832 155.702 342.688 156.669 342.4 157.579C342.111 158.491 341.689 159.286 341.131 159.964C340.572 160.643 339.885 161.183 339.066 161.582C338.248 161.981 337.31 162.182 336.249 162.182C335.189 162.182 334.25 161.981 333.432 161.582C332.614 161.183 331.925 160.643 331.368 159.964C330.81 159.286 330.386 158.491 330.099 157.579C329.811 156.669 329.667 155.702 329.667 154.678Z" fill="white"/>
<path fill-rule="evenodd" clip-rule="evenodd" d="M349.498 147.509H350.558V150.578H350.614C350.799 150.039 351.065 149.56 351.409 149.141C351.753 148.724 352.152 148.365 352.608 148.068C353.064 147.771 353.56 147.547 354.101 147.398C354.64 147.25 355.188 147.175 355.747 147.175C356.583 147.175 357.294 147.278 357.88 147.482C358.465 147.687 358.945 147.956 359.316 148.29C359.688 148.625 359.981 149.001 360.195 149.42C360.408 149.839 360.563 150.263 360.655 150.69C360.748 151.117 360.804 151.531 360.823 151.93C360.84 152.331 360.851 152.679 360.851 152.976V161.847H359.791V152.781C359.791 152.409 359.763 151.958 359.707 151.429C359.651 150.898 359.488 150.388 359.219 149.895C358.95 149.402 358.54 148.979 357.992 148.625C357.443 148.272 356.686 148.096 355.719 148.096C354.919 148.096 354.198 148.244 353.557 148.541C352.915 148.839 352.371 149.252 351.926 149.783C351.479 150.313 351.139 150.946 350.907 151.68C350.674 152.414 350.558 153.218 350.558 154.093V161.847H349.498V147.509Z" fill="white"/>
<path fill-rule="evenodd" clip-rule="evenodd" d="M389.609 153.702C389.403 153.944 389.116 154.125 388.743 154.246C388.372 154.368 387.948 154.455 387.475 154.511C387 154.566 386.502 154.614 385.982 154.65C385.461 154.688 384.94 154.744 384.42 154.817C383.155 154.967 382.184 155.288 381.506 155.78C380.826 156.273 380.487 157.058 380.487 158.137C380.487 159.011 380.799 159.75 381.421 160.355C382.045 160.959 382.987 161.261 384.252 161.261C385.461 161.261 386.419 161.043 387.125 160.606C387.833 160.169 388.372 159.667 388.743 159.098C389.116 158.532 389.353 157.983 389.454 157.454C389.556 156.924 389.609 156.565 389.609 156.38V153.702ZM390.668 159.173C390.668 159.377 390.673 159.581 390.681 159.785C390.691 159.988 390.724 160.175 390.78 160.341C390.835 160.508 390.928 160.643 391.059 160.746C391.189 160.847 391.374 160.899 391.616 160.899C391.801 160.899 392.063 160.871 392.398 160.815V161.735C392.248 161.773 392.104 161.8 391.964 161.819C391.826 161.838 391.681 161.847 391.532 161.847C391.105 161.847 390.766 161.791 390.514 161.679C390.264 161.567 390.073 161.419 389.944 161.234C389.813 161.047 389.723 160.828 389.678 160.578C389.631 160.327 389.609 160.052 389.609 159.755V159.001H389.552C389.385 159.43 389.143 159.834 388.827 160.215C388.511 160.596 388.125 160.935 387.669 161.234C387.214 161.531 386.697 161.763 386.122 161.93C385.545 162.097 384.913 162.182 384.224 162.182C383.556 162.182 382.928 162.111 382.342 161.971C381.757 161.833 381.244 161.605 380.808 161.289C380.37 160.972 380.032 160.559 379.789 160.048C379.547 159.537 379.428 158.9 379.428 158.137C379.428 157.3 379.59 156.617 379.915 156.087C380.24 155.557 380.658 155.138 381.171 154.831C381.682 154.525 382.248 154.307 382.872 154.177C383.494 154.046 384.104 153.954 384.699 153.897C385.888 153.822 386.814 153.735 387.475 153.632C388.134 153.53 388.623 153.372 388.939 153.158C389.255 152.945 389.451 152.666 389.525 152.321C389.598 151.978 389.636 151.508 389.636 150.913C389.636 150.745 389.581 150.509 389.469 150.202C389.357 149.895 389.157 149.583 388.869 149.267C388.58 148.95 388.176 148.678 387.656 148.444C387.135 148.211 386.465 148.096 385.647 148.096C384.364 148.096 383.327 148.421 382.537 149.072C381.747 149.723 381.315 150.672 381.24 151.917H380.18C380.254 150.336 380.762 149.151 381.701 148.361C382.639 147.57 383.955 147.175 385.647 147.175C386.279 147.175 386.893 147.231 387.488 147.342C388.083 147.453 388.618 147.649 389.091 147.926C389.566 148.205 389.947 148.586 390.236 149.068C390.524 149.55 390.668 150.163 390.668 150.904V159.173Z" fill="white"/>
<path fill-rule="evenodd" clip-rule="evenodd" d="M398.227 147.509H399.286V150.578H399.342C399.527 150.039 399.792 149.56 400.137 149.141C400.48 148.724 400.88 148.365 401.336 148.068C401.791 147.771 402.289 147.547 402.828 147.398C403.368 147.25 403.917 147.175 404.474 147.175C405.311 147.175 406.023 147.278 406.608 147.482C407.194 147.687 407.672 147.956 408.044 148.29C408.416 148.625 408.708 149.001 408.923 149.42C409.136 149.839 409.29 150.263 409.383 150.69C409.476 151.117 409.531 151.531 409.551 151.93C409.569 152.331 409.579 152.679 409.579 152.976V161.847H408.518V152.781C408.518 152.409 408.49 151.958 408.436 151.429C408.378 150.898 408.215 150.388 407.946 149.895C407.677 149.402 407.267 148.979 406.719 148.625C406.17 148.272 405.413 148.096 404.446 148.096C403.646 148.096 402.926 148.244 402.284 148.541C401.643 148.839 401.098 149.252 400.653 149.783C400.206 150.313 399.866 150.946 399.635 151.68C399.401 152.414 399.286 153.218 399.286 154.093V161.847H398.227V147.509Z" fill="white"/>
<path fill-rule="evenodd" clip-rule="evenodd" d="M422.632 161.26C423.544 161.26 424.329 161.075 424.989 160.703C425.65 160.332 426.198 159.838 426.636 159.225C427.072 158.611 427.397 157.909 427.611 157.119C427.826 156.329 427.933 155.524 427.933 154.706C427.933 153.868 427.826 153.056 427.611 152.265C427.397 151.475 427.077 150.769 426.65 150.146C426.221 149.522 425.668 149.026 424.989 148.653C424.311 148.282 423.516 148.096 422.605 148.096C421.657 148.096 420.848 148.277 420.178 148.64C419.508 149.001 418.956 149.489 418.519 150.104C418.082 150.718 417.765 151.424 417.57 152.224C417.376 153.024 417.277 153.851 417.277 154.706C417.277 155.542 417.384 156.357 417.598 157.147C417.811 157.937 418.138 158.638 418.575 159.253C419.01 159.866 419.564 160.355 420.234 160.716C420.904 161.079 421.703 161.26 422.632 161.26ZM427.96 158.778H427.905C427.309 159.913 426.566 160.764 425.673 161.331C424.781 161.898 423.693 162.182 422.409 162.182C421.331 162.182 420.402 161.976 419.62 161.567C418.839 161.159 418.198 160.61 417.696 159.921C417.193 159.235 416.822 158.438 416.581 157.538C416.338 156.636 416.218 155.692 416.218 154.706C416.218 153.646 416.347 152.656 416.607 151.736C416.868 150.815 417.264 150.02 417.793 149.351C418.324 148.681 418.989 148.152 419.787 147.761C420.587 147.37 421.527 147.175 422.605 147.175C423.181 147.175 423.749 147.254 424.306 147.411C424.864 147.57 425.38 147.797 425.855 148.096C426.328 148.393 426.742 148.765 427.096 149.211C427.448 149.657 427.718 150.159 427.905 150.718H427.96V141.931H429.02V161.847H427.96V158.778Z" fill="white"/>
<path fill-rule="evenodd" clip-rule="evenodd" d="M459.312 151.945C459.256 151.313 459.094 150.756 458.825 150.271C458.555 149.788 458.206 149.389 457.778 149.072C457.351 148.755 456.853 148.514 456.286 148.346C455.718 148.178 455.11 148.096 454.458 148.096C453.566 148.096 452.776 148.277 452.088 148.64C451.4 149.001 450.823 149.486 450.359 150.09C449.894 150.695 449.54 151.383 449.299 152.153C449.057 152.926 448.936 153.721 448.936 154.539C448.936 155.506 449.047 156.398 449.271 157.216C449.494 158.036 449.838 158.747 450.302 159.35C450.767 159.954 451.344 160.424 452.032 160.759C452.72 161.094 453.53 161.261 454.458 161.261C455.129 161.261 455.746 161.15 456.314 160.926C456.881 160.703 457.383 160.396 457.82 160.005C458.257 159.616 458.616 159.146 458.893 158.597C459.173 158.049 459.358 157.449 459.452 156.798H460.511C460.401 157.653 460.163 158.415 459.8 159.085C459.438 159.755 458.992 160.317 458.462 160.774C457.932 161.229 457.327 161.577 456.648 161.819C455.97 162.06 455.24 162.182 454.458 162.182C453.287 162.182 452.288 161.971 451.46 161.554C450.632 161.135 449.954 160.573 449.424 159.867C448.894 159.159 448.504 158.346 448.253 157.426C448.001 156.505 447.876 155.542 447.876 154.539C447.876 153.534 448.02 152.587 448.308 151.693C448.597 150.801 449.019 150.02 449.578 149.351C450.135 148.681 450.823 148.152 451.643 147.761C452.459 147.37 453.399 147.175 454.458 147.175C455.24 147.175 455.97 147.273 456.648 147.467C457.327 147.663 457.932 147.956 458.462 148.346C458.992 148.737 459.424 149.23 459.759 149.824C460.094 150.421 460.298 151.126 460.372 151.945H459.312Z" fill="white"/>
<path fill-rule="evenodd" clip-rule="evenodd" d="M467.568 154.678C467.568 155.534 467.689 156.357 467.931 157.147C468.172 157.937 468.526 158.638 468.991 159.253C469.455 159.867 470.032 160.355 470.72 160.716C471.408 161.079 472.198 161.261 473.091 161.261C473.984 161.261 474.774 161.079 475.462 160.716C476.15 160.355 476.727 159.867 477.192 159.253C477.657 158.638 478.01 157.937 478.251 157.147C478.493 156.357 478.614 155.534 478.614 154.678C478.614 153.822 478.493 153.001 478.251 152.21C478.01 151.42 477.657 150.718 477.192 150.104C476.727 149.49 476.15 149.001 475.462 148.64C474.774 148.277 473.984 148.096 473.091 148.096C472.198 148.096 471.408 148.277 470.72 148.64C470.032 149.001 469.455 149.49 468.991 150.104C468.526 150.718 468.172 151.42 467.931 152.21C467.689 153.001 467.568 153.822 467.568 154.678ZM466.508 154.678C466.508 153.655 466.653 152.694 466.941 151.79C467.229 150.89 467.652 150.095 468.21 149.407C468.767 148.718 469.455 148.175 470.274 147.774C471.093 147.375 472.031 147.175 473.091 147.175C474.151 147.175 475.09 147.375 475.909 147.774C476.727 148.175 477.414 148.718 477.972 149.407C478.531 150.095 478.953 150.89 479.242 151.79C479.53 152.694 479.674 153.655 479.674 154.678C479.674 155.702 479.53 156.669 479.242 157.579C478.953 158.491 478.531 159.286 477.972 159.964C477.414 160.643 476.727 161.183 475.909 161.582C475.09 161.981 474.151 162.182 473.091 162.182C472.031 162.182 471.093 161.981 470.274 161.582C469.455 161.183 468.767 160.643 468.21 159.964C467.652 159.286 467.229 158.491 466.941 157.579C466.653 156.669 466.508 155.702 466.508 154.678Z" fill="white"/>
<path fill-rule="evenodd" clip-rule="evenodd" d="M486.341 147.509H487.4V150.578H487.457C487.642 150.039 487.906 149.56 488.252 149.141C488.595 148.724 488.995 148.365 489.451 148.068C489.907 147.771 490.403 147.547 490.944 147.398C491.483 147.25 492.031 147.175 492.588 147.175C493.425 147.175 494.137 147.278 494.723 147.482C495.308 147.687 495.787 147.956 496.159 148.29C496.53 148.625 496.824 149.001 497.038 149.42C497.251 149.839 497.404 150.263 497.498 150.69C497.591 151.117 497.647 151.531 497.665 151.93C497.683 152.331 497.693 152.679 497.693 152.976V161.847H496.634V152.781C496.634 152.409 496.606 151.958 496.55 151.429C496.494 150.898 496.331 150.388 496.062 149.895C495.791 149.402 495.382 148.979 494.835 148.625C494.286 148.272 493.528 148.096 492.562 148.096C491.761 148.096 491.041 148.244 490.398 148.541C489.758 148.839 489.214 149.252 488.767 149.783C488.32 150.313 487.982 150.946 487.749 151.68C487.517 152.414 487.4 153.218 487.4 154.093V161.847H486.341V147.509Z" fill="white"/>
<path fill-rule="evenodd" clip-rule="evenodd" d="M510.468 161.847H509.157L503.383 147.509H504.61L509.798 160.619H509.854L514.708 147.509H515.879L510.468 161.847Z" fill="white"/>
<path fill-rule="evenodd" clip-rule="evenodd" d="M521.82 161.847H522.879V147.509H521.82V161.847ZM521.82 144.804H522.879V141.931H521.82V144.804Z" fill="white"/>
<path fill-rule="evenodd" clip-rule="evenodd" d="M541.234 151.945C541.178 151.313 541.015 150.756 540.746 150.271C540.476 149.788 540.126 149.389 539.699 149.072C539.272 148.755 538.775 148.514 538.208 148.346C537.639 148.178 537.032 148.096 536.38 148.096C535.488 148.096 534.698 148.277 534.009 148.64C533.321 149.001 532.745 149.486 532.28 150.09C531.815 150.695 531.462 151.383 531.22 152.153C530.978 152.926 530.857 153.721 530.857 154.539C530.857 155.506 530.969 156.398 531.192 157.216C531.416 158.036 531.759 158.747 532.224 159.35C532.688 159.954 533.265 160.424 533.954 160.759C534.641 161.094 535.45 161.261 536.38 161.261C537.05 161.261 537.667 161.15 538.236 160.926C538.802 160.703 539.303 160.396 539.742 160.005C540.179 159.616 540.536 159.146 540.815 158.597C541.094 158.049 541.28 157.449 541.373 156.798H542.433C542.321 157.653 542.085 158.415 541.722 159.085C541.359 159.755 540.913 160.317 540.383 160.774C539.853 161.229 539.248 161.577 538.57 161.819C537.891 162.06 537.161 162.182 536.38 162.182C535.209 162.182 534.208 161.971 533.382 161.554C532.554 161.135 531.876 160.573 531.345 159.867C530.816 159.159 530.425 158.346 530.174 157.426C529.923 156.505 529.798 155.542 529.798 154.539C529.798 153.534 529.942 152.587 530.23 151.693C530.517 150.801 530.941 150.02 531.499 149.351C532.056 148.681 532.745 148.152 533.563 147.761C534.381 147.37 535.32 147.175 536.38 147.175C537.161 147.175 537.891 147.273 538.57 147.467C539.248 147.663 539.853 147.956 540.383 148.346C540.913 148.737 541.345 149.23 541.68 149.824C542.014 150.421 542.219 151.126 542.294 151.945H541.234Z" fill="white"/>
<path fill-rule="evenodd" clip-rule="evenodd" d="M554.37 148.429H551.247V158.444C551.247 159.021 551.311 159.476 551.441 159.811C551.572 160.146 551.772 160.396 552.042 160.564C552.311 160.731 552.636 160.838 553.018 160.885C553.399 160.932 553.841 160.945 554.342 160.926V161.848C553.803 161.884 553.278 161.879 552.767 161.833C552.255 161.787 551.804 161.648 551.413 161.414C551.024 161.183 550.712 160.833 550.48 160.368C550.247 159.905 550.15 159.262 550.187 158.444V148.429H547.537V147.509H550.187V143.047H551.247V147.509H554.37V148.429Z" fill="white"/>
<path fill-rule="evenodd" clip-rule="evenodd" d="M560.759 161.847H561.818V147.509H560.759V161.847ZM560.759 144.804H561.818V141.931H560.759V144.804Z" fill="white"/>
<path fill-rule="evenodd" clip-rule="evenodd" d="M569.768 154.678C569.768 155.534 569.889 156.357 570.131 157.147C570.372 157.937 570.725 158.638 571.19 159.253C571.655 159.867 572.231 160.355 572.92 160.716C573.607 161.079 574.398 161.261 575.29 161.261C576.183 161.261 576.973 161.079 577.662 160.716C578.349 160.355 578.926 159.867 579.391 159.253C579.856 158.638 580.209 157.937 580.451 157.147C580.692 156.357 580.814 155.534 580.814 154.678C580.814 153.822 580.692 153.001 580.451 152.21C580.209 151.42 579.856 150.718 579.391 150.104C578.926 149.49 578.349 149.001 577.662 148.64C576.973 148.277 576.183 148.096 575.29 148.096C574.398 148.096 573.607 148.277 572.92 148.64C572.231 149.001 571.655 149.49 571.19 150.104C570.725 150.718 570.372 151.42 570.131 152.21C569.889 153.001 569.768 153.822 569.768 154.678ZM568.708 154.678C568.708 153.655 568.852 152.694 569.14 151.79C569.429 150.89 569.851 150.095 570.409 149.407C570.967 148.718 571.655 148.175 572.473 147.774C573.291 147.375 574.23 147.175 575.29 147.175C576.351 147.175 577.289 147.375 578.107 147.774C578.926 148.175 579.615 148.718 580.172 149.407C580.73 150.095 581.152 150.89 581.441 151.79C581.729 152.694 581.873 153.655 581.873 154.678C581.873 155.702 581.729 156.669 581.441 157.579C581.152 158.491 580.73 159.286 580.172 159.964C579.615 160.643 578.926 161.183 578.107 161.582C577.289 161.981 576.351 162.182 575.29 162.182C574.23 162.182 573.291 161.981 572.473 161.582C571.655 161.183 570.967 160.643 570.409 159.964C569.851 159.286 569.429 158.491 569.14 157.579C568.852 156.669 568.708 155.702 568.708 154.678Z" fill="white"/>
<path fill-rule="evenodd" clip-rule="evenodd" d="M588.541 147.509H589.6V150.578H589.656C589.841 150.039 590.107 149.56 590.451 149.141C590.794 148.724 591.194 148.365 591.65 148.068C592.106 147.771 592.602 147.547 593.143 147.398C593.682 147.25 594.231 147.175 594.789 147.175C595.625 147.175 596.336 147.278 596.922 147.482C597.507 147.687 597.987 147.956 598.358 148.29C598.731 148.625 599.023 149.001 599.237 149.42C599.45 149.839 599.605 150.263 599.697 150.69C599.79 151.117 599.846 151.531 599.865 151.93C599.883 152.331 599.893 152.679 599.893 152.976V161.847H598.833V152.781C598.833 152.409 598.805 151.958 598.749 151.429C598.693 150.898 598.53 150.388 598.261 149.895C597.992 149.402 597.581 148.979 597.034 148.625C596.484 148.272 595.727 148.096 594.761 148.096C593.961 148.096 593.24 148.244 592.599 148.541C591.957 148.839 591.413 149.252 590.967 149.783C590.521 150.313 590.181 150.946 589.95 151.68C589.716 152.414 589.6 153.218 589.6 154.093V161.847H588.541V147.509Z" fill="white"/>
</svg>
