<svg width="334" height="120" viewBox="0 0 334 120" fill="none" xmlns="http://www.w3.org/2000/svg">
<g opacity="0.982">
<path fill-rule="evenodd" clip-rule="evenodd" d="M98.2956 0C106.562 1.06727 110.837 5.78093 111.121 14.141C111.078 16.8772 110.53 19.5081 109.477 22.0336C132.796 21.0596 156.145 19.9634 179.524 18.745C181.195 18.7183 182.84 18.8827 184.457 19.2383C186.383 20.6072 186.602 22.2515 185.115 24.1712C184.071 24.7384 182.975 25.1769 181.826 25.4867C154.861 30.2913 127.895 35.0598 100.926 39.7921C92.7654 57.4302 84.5989 75.0791 76.4264 92.7385C75.1658 99.6282 78.0707 103.027 85.1412 102.933C91.6707 102.537 98.0285 101.276 104.215 99.1513C101.856 88.8093 103.446 79.108 108.984 70.0472C116.967 57.5298 128.203 49.5822 142.692 46.2048C148.61 45.0377 153.598 46.6271 157.655 50.9733C159.765 54.2912 160.533 57.9086 159.957 61.8257C158.156 70.5816 154.045 78.0359 147.625 84.1882C142.655 88.9948 137.174 93.1056 131.182 96.5204C133.691 98.7593 136.651 99.9103 140.061 99.9735C146.75 99.2579 152.779 96.9009 158.148 92.903C166.872 86.0999 173.997 77.9333 179.524 68.4029C174.352 64.9594 172.324 60.136 173.44 53.9331C175.086 45.8734 179.965 41.2693 188.074 40.1209C193.843 40.5182 197.022 43.5874 197.611 49.329C201.249 49.0051 204.866 48.5118 208.464 47.8491C215.526 46.4479 222.541 44.8585 229.511 43.0807C231.528 43.0748 233.008 43.9515 233.95 45.7116C235.264 48.2053 235.374 50.7267 234.279 53.2753C231.484 55.6323 228.689 57.9889 225.893 60.3458C223.207 62.8123 220.632 65.3882 218.165 68.074C212.99 73.9445 209.975 80.7957 209.121 88.6278C209.167 94.7018 212.182 97.826 218.165 98.0003C222.913 97.8464 227.243 96.4215 231.155 93.7251C233.879 85.3145 238.209 77.8603 244.145 71.3626C257.023 57.0556 272.863 47.6831 291.665 43.2451C296.299 42.4871 300.903 42.5966 305.477 43.574C311.756 46.3216 313.894 50.9806 311.89 57.5505C309.298 62.5071 305.516 63.7679 300.545 61.3324C298.435 58.6354 298.435 55.895 300.545 53.1109C299.873 52.0053 298.887 51.6764 297.585 52.1243C293.525 53.2582 289.688 54.9025 286.075 57.0572C275.467 63.6078 266.424 71.8842 258.944 81.8862C256.552 85.5536 255.072 89.5549 254.504 93.8896C254.758 99.3861 257.608 101.798 263.054 101.124C266.569 99.9705 269.748 98.2167 272.591 95.8627C277.046 91.7368 281.157 87.2972 284.924 82.5439C288.925 77.2272 292.926 71.9109 296.927 66.5942C301.245 64.8887 304.15 66.2591 305.642 70.7049C305.891 72.8067 305.781 74.8893 305.313 76.9533C303.364 83.4351 301.829 90.0123 300.709 96.6849C299.786 103.662 302.581 106.019 309.095 103.755C313.271 101.878 316.999 99.3565 320.276 96.1916C323.126 93.1223 325.976 90.0527 328.827 86.9835C332.977 85.7805 334.345 87.2604 332.937 91.4231C327.264 102.577 318.768 110.854 307.451 116.252C302.24 118.377 296.868 118.925 291.336 117.896C285.623 116.239 282.389 112.457 281.635 106.551C281.454 104.231 281.454 101.929 281.635 99.6446C276.642 106.064 270.558 111.162 263.383 114.937C256.356 118.372 249.121 118.92 241.679 116.581C237.386 114.85 234.372 111.835 232.635 107.537C227.1 113.129 220.468 116.801 212.739 118.554C204.373 120.233 197.303 117.986 191.527 111.812C187.94 106.47 186.953 100.66 188.568 94.3828C189.728 89.6946 191.592 85.3099 194.158 81.2284C197.959 75.0123 202.508 69.3671 207.806 64.2922C202.314 66.0769 196.723 67.6117 191.034 68.8962C183.693 86.2103 172.183 100.022 156.504 110.333C145.956 116.893 134.556 119.195 122.302 117.239C116.608 115.865 111.895 112.96 108.161 108.524C98.6234 113.95 88.4288 117.513 77.5774 119.212C70.9831 120.196 64.8442 118.99 59.1612 115.594C56.5747 113.659 54.6565 111.193 53.4062 108.195C45.9174 113.336 37.7508 117.008 28.9061 119.212C20.7652 121.025 13.2015 119.71 6.21473 115.265C0.595768 109.839 -1.21296 103.317 0.788533 95.6983C1.27021 93.9244 1.81833 92.1703 2.43283 90.4365C5.96035 82.6139 9.57781 74.8311 13.2852 67.0875C13.8976 63.8248 14.336 60.5362 14.6007 57.2217C14.9843 55.9611 15.8065 55.139 17.0671 54.7552C22.8702 53.84 27.9676 55.3199 32.3591 59.1948C35.3258 63.1819 36.093 67.5666 34.6611 72.3492C31.4995 79.4394 28.43 86.5649 25.453 93.7251C24.5024 98.1289 26.092 101.143 30.2215 102.769C34.9857 103.656 39.5898 103.108 44.0336 101.124C46.7563 99.9824 49.3872 98.6669 51.9263 97.1782C52.9191 92.1163 54.5088 87.238 56.6948 82.5439C62.4695 70.0074 68.3341 57.5107 74.2888 45.0538C73.0848 44.7408 71.8789 44.7957 70.6713 45.2183C65.2244 46.366 60.5658 44.9956 56.6948 41.1075C54.3411 36.1026 55.1633 31.663 59.1612 27.7887C62.9622 25.3828 67.1278 24.177 71.6579 24.1712C76.0515 24.0272 80.4365 23.7532 84.8123 23.3491C88.3498 15.6705 92.1867 8.16158 96.3224 0.82215C97.0166 0.544369 97.6743 0.270316 98.2956 0ZM142.363 58.866C146.433 58.7176 147.803 60.5813 146.474 64.4566C141.783 74.354 134.822 82.2466 125.591 88.1345C124.33 75.9128 128.934 66.5402 139.403 60.017C140.422 59.6131 141.408 59.2297 142.363 58.866Z" fill="white"/>
<path fill-rule="evenodd" clip-rule="evenodd" d="M36.7986 23.3491C45.6055 24.0773 49.1684 28.7909 47.4866 37.4901C43.5557 46.389 36.8141 49.9515 27.2617 48.178C23.1592 46.4272 21.0764 43.303 21.0133 38.8055C21.8322 31.904 25.4496 27.1356 31.8657 24.5001C33.5248 23.9822 35.1691 23.5986 36.7986 23.3491Z" fill="white"/>
</g>
</svg>
