<svg width="225" height="250" viewBox="0 0 225 250" fill="none" xmlns="http://www.w3.org/2000/svg">
<path d="M0 211.55H12.8V0H0V211.55Z" fill="white"/>
<path d="M211.5 211.55H224.3V0H211.5V211.55Z" fill="white"/>
<path d="M198.7 211.55H185.55V112.5H6.3999V99.3501H198.7V211.55Z" fill="white"/>
<path d="M173.05 211.55H160.25V138.45H9.60009V125H173.05V211.55Z" fill="white"/>
<path d="M147.4 211.55H134.3V166.7H9.60009V153.9H147.4V211.55Z" fill="white"/>
<path d="M80.1001 211.55H92.9V160.25H80.1001V211.55Z" fill="white"/>
<path d="M51.25 211.55H64.05V163.45H51.25V211.55Z" fill="white"/>
<path d="M25.6499 211.55H38.4499V160.25H25.6499V211.55Z" fill="white"/>
<path d="M25.6499 0V112.2H217.95V99.0499H38.7999V0H25.6499Z" fill="white"/>
<path d="M54.4502 0V86.5499H217.9V73.0999H67.3001V0H54.4502Z" fill="white"/>
<path d="M76.9502 57.7V0H90.1001V44.85H214.8V57.7H76.9502Z" fill="white"/>
<path d="M131.4 51.3H144.2V0H131.4V51.3Z" fill="white"/>
<path d="M160.25 48.1H173.05V0H160.25V48.1Z" fill="white"/>
<path d="M185.9 51.3H198.7V0H185.9V51.3Z" fill="white"/>
<path d="M17.95 224.35V233H7.34997V224.35H0V250H7.70001V241.05H18.3V250H26V224.35H17.95Z" fill="white"/>
<path d="M80.7499 224.35H76.8999V250H105.75V242.65H84.8999V231.45H105.75V224.1H80.7499V224.35Z" fill="white"/>
<path d="M216.65 224.35V235.25L206.05 224.35H198.7V250H206.4V238.45L217 250H224.7V224.35H216.65Z" fill="white"/>
<path d="M139.1 224.35V233H126.6V224.35H118.6V250H126.95V241.05H139.45V250H147.8V240.7H140.1L147.8 233V224.35H139.1Z" fill="white"/>
<path d="M38.4502 224.35V250H45.8001V244.55H56.4001V250H63.7502V224.35H38.4502ZM56.7002 236.85H46.1001V231.7H56.7002V236.85Z" fill="white"/>
<path d="M162.5 224.35H160.25V250H185.55V242.65H167.3V240.75H185.55V233.4H167.3V231.5H185.55V224.15H162.45V224.35H162.5Z" fill="white"/>
</svg>
