<svg width="284" height="100" viewBox="0 0 284 100" fill="none" xmlns="http://www.w3.org/2000/svg">
<path d="M53.5934 63.0516C53.5934 67.7174 55.8633 69.9873 60.5291 69.9873H62.5467C67.2125 69.9873 69.4824 67.7174 69.4824 63.0516V54.0983H80.2012V62.6733C80.2012 74.4009 74.2743 80.4539 62.4206 80.4539H60.1508C48.4232 80.4539 42.3702 74.527 42.3702 64.0605V19.1677C42.3702 6.05296 48.2971 0 60.1508 0H62.4206C74.1482 0 80.2012 5.92685 80.2012 17.7806V44.6406H53.5934V63.0516ZM53.5934 34.0479H69.3563V17.4022C69.3563 12.7364 67.0864 10.4666 62.4206 10.4666H60.6552C55.9894 10.4666 53.7195 12.7364 53.7195 17.4022V34.0479H53.5934Z" fill="white"/>
<path d="M87.5149 1.00895H98.612V6.05308C101.26 3.27881 105.8 0.126226 112.105 0.126226C121.563 0.126226 126.229 6.43139 126.229 15.6369V64.8172C126.229 74.1488 121.563 80.3279 112.105 80.3279C105.674 80.3279 101.26 77.3014 98.612 74.6533V100H87.5149V1.00895ZM98.612 65.826C101.638 68.4742 105.169 69.8613 108.826 69.8613C112.862 69.8613 115.258 67.9698 115.258 63.4301V17.0241C115.258 12.4843 112.988 10.5928 108.826 10.5928C105.169 10.5928 101.638 12.106 98.612 14.6281V65.826Z" fill="white"/>
<path d="M132.912 52.2068C132.912 42.4968 136.065 38.5876 144.514 35.6872L159.394 30.6431V17.4022C159.394 12.7364 157.124 10.2144 152.458 10.2144H150.693C146.027 10.2144 143.757 12.7364 143.757 17.4022V28.4993H133.038V17.7806C133.038 6.05296 138.965 0 150.819 0H152.963C164.69 0 170.743 5.92685 170.743 17.7806V79.4451H159.646V74.527C156.62 77.4274 152.458 80.3278 146.153 80.3278C137.326 80.3278 133.164 75.2836 133.164 66.4564V52.2068H132.912ZM159.394 66.2042V40.353L149.306 44.1361C145.27 45.7755 143.883 47.7931 143.883 52.3329V64.3127C143.883 68.0958 145.775 69.9873 149.306 69.9873C152.71 69.8612 155.737 68.7263 159.394 66.2042Z" fill="white"/>
<path d="M215.131 79.4452H204.034V16.2674C204.034 12.3582 202.143 10.5928 198.738 10.5928C195.711 10.5928 192.433 11.7277 188.523 14.502V79.4452H177.426V1.00895H188.523V6.05308C191.676 3.0266 195.963 0.126226 202.016 0.126226C207.691 0.126226 211.474 2.39608 213.492 6.55749C217.401 3.1527 222.067 0.126226 228.498 0.126226C237.073 0.126226 241.487 5.42256 241.487 13.9976V79.5713H230.39V16.2674C230.39 12.3582 228.498 10.5928 225.093 10.5928C222.067 10.5928 218.788 11.7277 214.879 14.502V79.4452H215.131Z" fill="white"/>
<path d="M28.3732 8.19671V22.6986L9.83605 40.353L28.3732 57.7553V72.5094L0 45.7755V35.1828L28.3732 8.19671Z" fill="white"/>
<path d="M283.984 35.1828V45.7755L255.61 72.5094V57.7553L274.147 40.353L255.61 22.5725V8.19671L283.984 35.1828Z" fill="white"/>
</svg>
