<svg width="22" height="22" viewBox="0 0 22 22" fill="none" xmlns="http://www.w3.org/2000/svg">
<path d="M10.5082 5.11758C7.52695 5.11758 5.12226 7.52226 5.12226 10.5035C5.12226 13.4848 7.52695 15.8894 10.5082 15.8894C13.4894 15.8894 15.8941 13.4848 15.8941 10.5035C15.8941 7.52226 13.4894 5.11758 10.5082 5.11758ZM10.5082 14.0051C8.58163 14.0051 7.00663 12.4348 7.00663 10.5035C7.00663 8.57226 8.57695 7.00195 10.5082 7.00195C12.4394 7.00195 14.0098 8.57226 14.0098 10.5035C14.0098 12.4348 12.4348 14.0051 10.5082 14.0051ZM17.3707 4.89726C17.3707 5.5957 16.8082 6.15351 16.1144 6.15351C15.416 6.15351 14.8582 5.59101 14.8582 4.89726C14.8582 4.20351 15.4207 3.64101 16.1144 3.64101C16.8082 3.64101 17.3707 4.20351 17.3707 4.89726ZM20.9379 6.17226C20.8582 4.48945 20.4738 2.99883 19.241 1.7707C18.0129 0.542578 16.5223 0.158203 14.8394 0.0738281C13.1051 -0.0246094 7.90663 -0.0246094 6.17226 0.0738281C4.49414 0.153516 3.00351 0.53789 1.7707 1.76601C0.53789 2.99414 0.158203 4.48476 0.0738281 6.16757C-0.0246094 7.90195 -0.0246094 13.1004 0.0738281 14.8348C0.153515 16.5176 0.53789 18.0082 1.7707 19.2363C3.00351 20.4644 4.48945 20.8488 6.17226 20.9332C7.90663 21.0316 13.1051 21.0316 14.8394 20.9332C16.5223 20.8535 18.0129 20.4691 19.241 19.2363C20.4691 18.0082 20.8535 16.5176 20.9379 14.8348C21.0363 13.1004 21.0363 7.90664 20.9379 6.17226ZM18.6972 16.6957C18.3316 17.6144 17.6238 18.3223 16.7004 18.6926C15.3176 19.241 12.0363 19.1144 10.5082 19.1144C8.98007 19.1144 5.69414 19.2363 4.31601 18.6926C3.39726 18.3269 2.68945 17.6191 2.31914 16.6957C1.7707 15.3129 1.89726 12.0316 1.89726 10.5035C1.89726 8.97539 1.77539 5.68945 2.31914 4.31133C2.68476 3.39258 3.39258 2.68476 4.31601 2.31445C5.69882 1.76601 8.98007 1.89258 10.5082 1.89258C12.0363 1.89258 15.3223 1.7707 16.7004 2.31445C17.6191 2.68008 18.3269 3.38789 18.6972 4.31133C19.2457 5.69414 19.1191 8.97539 19.1191 10.5035C19.1191 12.0316 19.2457 15.3176 18.6972 16.6957Z" fill="black"/>
</svg>
