<svg width="22" height="22" viewBox="0 0 22 22" fill="none" xmlns="http://www.w3.org/2000/svg">
<path d="M11.3622 5.61562C8.38095 5.61562 5.97626 8.02031 5.97626 11.0016C5.97626 13.9828 8.38095 16.3875 11.3622 16.3875C14.3434 16.3875 16.7481 13.9828 16.7481 11.0016C16.7481 8.02031 14.3434 5.61562 11.3622 5.61562ZM11.3622 14.5031C9.43564 14.5031 7.86064 12.9328 7.86064 11.0016C7.86064 9.07031 9.43095 7.5 11.3622 7.5C13.2934 7.5 14.8638 9.07031 14.8638 11.0016C14.8638 12.9328 13.2888 14.5031 11.3622 14.5031V14.5031ZM18.2247 5.39531C18.2247 6.09375 17.6622 6.65156 16.9684 6.65156C16.27 6.65156 15.7122 6.08906 15.7122 5.39531C15.7122 4.70156 16.2747 4.13906 16.9684 4.13906C17.6622 4.13906 18.2247 4.70156 18.2247 5.39531ZM21.7919 6.67031C21.7122 4.9875 21.3278 3.49687 20.095 2.26875C18.8669 1.04062 17.3763 0.65625 15.6934 0.571875C13.9591 0.473438 8.76064 0.473438 7.02626 0.571875C5.34814 0.651562 3.85752 1.03594 2.62471 2.26406C1.39189 3.49219 1.01221 4.98281 0.927832 6.66562C0.829395 8.4 0.829395 13.5984 0.927832 15.3328C1.00752 17.0156 1.39189 18.5062 2.62471 19.7344C3.85752 20.9625 5.34345 21.3469 7.02626 21.4312C8.76064 21.5297 13.9591 21.5297 15.6934 21.4312C17.3763 21.3516 18.8669 20.9672 20.095 19.7344C21.3231 18.5062 21.7075 17.0156 21.7919 15.3328C21.8903 13.5984 21.8903 8.40468 21.7919 6.67031V6.67031ZM19.5513 17.1937C19.1856 18.1125 18.4778 18.8203 17.5544 19.1906C16.1716 19.7391 12.8903 19.6125 11.3622 19.6125C9.83407 19.6125 6.54814 19.7344 5.17002 19.1906C4.25127 18.825 3.54345 18.1172 3.17314 17.1937C2.62471 15.8109 2.75127 12.5297 2.75127 11.0016C2.75127 9.47343 2.62939 6.1875 3.17314 4.80937C3.53877 3.89062 4.24658 3.18281 5.17002 2.8125C6.55283 2.26406 9.83407 2.39062 11.3622 2.39062C12.8903 2.39062 16.1763 2.26875 17.5544 2.8125C18.4731 3.17812 19.1809 3.88594 19.5513 4.80937C20.0997 6.19218 19.9731 9.47343 19.9731 11.0016C19.9731 12.5297 20.0997 15.8156 19.5513 17.1937Z" fill="black"/>
</svg>
