<svg width="22" height="22" viewBox="0 0 22 22" fill="none" xmlns="http://www.w3.org/2000/svg">
<path d="M5.57562 21.5015H1.22188V7.48117H5.57562V21.5015ZM3.39641 5.56867C2.00422 5.56867 0.875 4.41554 0.875 3.02336C0.875 2.35464 1.14065 1.71331 1.6135 1.24046C2.08636 0.7676 2.72769 0.501953 3.39641 0.501953C4.06512 0.501953 4.70645 0.7676 5.17931 1.24046C5.65216 1.71331 5.91781 2.35464 5.91781 3.02336C5.91781 4.41554 4.78813 5.56867 3.39641 5.56867ZM21.8703 21.5015H17.5259V14.6765C17.5259 13.0499 17.4931 10.964 15.2623 10.964C12.9987 10.964 12.6519 12.7312 12.6519 14.5593V21.5015H8.30281V7.48117H12.4784V9.39367H12.5394C13.1206 8.29211 14.5405 7.12961 16.6588 7.12961C21.065 7.12961 21.875 10.0312 21.875 13.7999V21.5015H21.8703Z" fill="black"/>
</svg>
