<svg width="85" height="140" viewBox="0 0 85 140" fill="none" xmlns="http://www.w3.org/2000/svg">
<path d="M0 0V140H66.9058L84.9184 122.221V0H0Z" fill="#998162"/>
<path d="M63.0804 119.903H55.547V99.9591L47.289 91.8109L52.6186 86.553L63.0804 96.8789V119.903Z" fill="#1E2749"/>
<path d="M25.9258 102.253L14.4596 90.9329L19.7866 85.675L25.6184 91.4311L51.5067 64.4881L57.1261 69.4426L25.9258 102.253Z" fill="#1E2749"/>
<path d="M25.9258 111.341L22.0454 107.508H21.9804V119.903H29.5138V107.508H29.3964L25.9258 111.341Z" fill="#1E2749"/>
<path d="M41.2324 100.899H37.0472V105.03H41.2324V100.899Z" fill="#1E2749"/>
<path d="M41.2324 107.508H37.0472V111.639H41.2324V107.508Z" fill="#1E2749"/>
<path d="M47.9312 100.899H43.746V105.03H47.9312V100.899Z" fill="#1E2749"/>
<path d="M47.9312 107.508H43.746V111.639H47.9312V107.508Z" fill="#1E2749"/>
</svg>
