<svg width="60" height="70" viewBox="0 0 60 70" fill="none" xmlns="http://www.w3.org/2000/svg">
<path d="M60 69.2811H50.7021V44.3481L40.5131 34.1591L47.0887 27.585L60 40.4963V69.2811Z" fill="#9B8264"/>
<path d="M14.1509 47.214L0 33.0616L6.57411 26.4875L13.7718 33.6852L45.7176 0L52.6509 6.19351L14.1509 47.214Z" fill="#9B8264"/>
<path d="M14.1509 58.577L9.36057 53.7866H9.27956V69.2811H18.5775V53.7866H18.4323L14.1509 58.577Z" fill="#9B8264"/>
<path d="M33.0402 45.522H27.8754V50.6868H33.0402V45.522Z" fill="#9B8264"/>
<path d="M33.0402 53.7866H27.8754V58.9515H33.0402V53.7866Z" fill="#9B8264"/>
<path d="M41.3033 45.522H36.1385V50.6868H41.3033V45.522Z" fill="#9B8264"/>
<path d="M41.3033 53.7866H36.1385V58.9515H41.3033V53.7866Z" fill="#9B8264"/>
</svg>
