<svg width="576" height="204" viewBox="0 0 576 204" fill="none" xmlns="http://www.w3.org/2000/svg">
<path d="M155.847 120.202V135.141H106.667V50.7937H122.951V120.202H155.847Z" fill="white"/>
<path d="M214.648 120.202V135.141H165.467V50.7937H181.751V120.202H214.648Z" fill="white"/>
<path d="M277.602 107.234H265.023V135.171H248.74V50.7937H278.319C296.247 50.7937 308.198 62.2073 308.198 79.4473C308.198 91.5481 302.402 100.362 292.631 104.515L312.351 135.171H295.021L277.602 107.234ZM265.023 93.1018H276.676C285.64 93.1018 291.615 89.3072 291.615 79.4473C291.615 69.5874 285.64 65.7629 276.676 65.7629H265.023V93.1018Z" fill="white"/>
<path d="M320.747 50.7937H337.001V135.171H320.747V50.7937Z" fill="white"/>
<path d="M391.052 136.336C385.323 136.484 379.625 135.464 374.305 133.336C368.984 131.208 364.153 128.018 360.107 123.961C356.061 119.903 352.884 115.064 350.771 109.737C348.658 104.411 347.653 98.7098 347.817 92.982C347.817 66.7187 367.776 49.6281 391.53 49.6281C398.314 49.4316 405.032 51.0164 411.014 54.2248C416.995 57.4331 422.032 62.1529 425.621 67.9138L413.879 76.1006C411.399 72.5708 408.08 69.7145 404.219 67.7896C400.359 65.8647 396.08 64.9318 391.769 65.0753C376.68 65.0753 364.46 75.6524 364.46 92.982C364.46 110.312 376.411 121.367 391.769 121.367C402.107 121.367 411.489 116.496 413.998 103.439H393.801V89.785H429.655C433.599 119.006 414.357 136.336 391.052 136.336Z" fill="white"/>
<path d="M508.295 50.7937V135.171H492.041V100.601H457.352V135.171H441.068V50.7937H457.352V85.6322H492.041V50.7937H508.295Z" fill="white"/>
<path d="M575.999 65.733H555.742V135.171H539.488V65.733H519.17V50.7937H575.94L575.999 65.733Z" fill="white"/>
<path d="M90.2034 173.744H93.9382V197.199H90.2034V173.744Z" fill="#9B8264"/>
<path d="M113.928 187.07V197.198H110.252V187.667C110.252 184.679 108.609 182.976 106.069 182.976C105.468 182.958 104.87 183.071 104.317 183.307C103.763 183.542 103.268 183.895 102.864 184.342C102.461 184.788 102.159 185.316 101.98 185.89C101.801 186.464 101.749 187.071 101.827 187.667V197.198H98.2114V180.018H101.827V182.588C102.38 181.626 103.19 180.836 104.166 180.309C105.142 179.781 106.246 179.536 107.354 179.6C108.304 179.57 109.249 179.751 110.122 180.129C110.994 180.507 111.772 181.073 112.4 181.787C113.028 182.501 113.49 183.344 113.754 184.257C114.018 185.171 114.078 186.131 113.928 187.07Z" fill="#9B8264"/>
<path d="M116.527 180.019H120.112L125.49 192.777L130.659 180.019H134.424L127.014 197.199H123.608L116.527 180.019Z" fill="#9B8264"/>
<path d="M152.381 189.968H139.025C139.259 191.311 139.986 192.518 141.064 193.353C142.142 194.187 143.493 194.589 144.852 194.48C146.609 194.526 148.314 193.883 149.602 192.687L151.335 194.48C150.473 195.444 149.413 196.21 148.226 196.726C147.04 197.242 145.756 197.495 144.463 197.468C142.086 197.503 139.792 196.593 138.086 194.937C136.379 193.282 135.401 191.016 135.365 188.638C135.329 186.261 136.24 183.967 137.895 182.261C139.551 180.555 141.817 179.576 144.194 179.54C145.475 179.528 146.742 179.811 147.896 180.365C149.051 180.92 150.062 181.732 150.853 182.74C151.644 183.747 152.193 184.923 152.458 186.176C152.723 187.429 152.697 188.727 152.381 189.968ZM138.876 187.279H149.393C149.363 186.653 149.208 186.04 148.938 185.475C148.669 184.91 148.289 184.404 147.822 183.987C147.355 183.57 146.809 183.25 146.217 183.045C145.625 182.841 144.999 182.757 144.374 182.797C143.075 182.719 141.796 183.139 140.796 183.972C139.797 184.805 139.153 185.988 138.995 187.279H138.876Z" fill="#9B8264"/>
<path d="M154.562 192.777L157.55 191.971C157.703 192.716 158.113 193.385 158.708 193.859C159.303 194.334 160.046 194.586 160.807 194.57C162.151 194.57 163.466 193.883 163.466 192.359C163.466 190.835 162.749 190.596 161.105 189.939L159.253 189.252C158.146 188.993 157.153 188.381 156.425 187.507C155.697 186.634 155.274 185.547 155.219 184.411C155.259 183.723 155.44 183.05 155.75 182.434C156.06 181.818 156.493 181.272 157.022 180.829C157.551 180.387 158.165 180.058 158.826 179.862C159.487 179.666 160.182 179.608 160.866 179.691C162.146 179.603 163.416 179.968 164.453 180.722C165.491 181.475 166.231 182.57 166.543 183.814L163.555 184.561C163.396 183.983 163.047 183.474 162.565 183.117C162.083 182.76 161.496 182.574 160.896 182.589C159.582 182.589 158.655 183.306 158.655 184.441C158.655 185.577 159.223 186.085 160.777 186.652L162.45 187.31C164.84 188.206 166.992 189.431 166.992 192.359C166.992 195.795 164.004 197.498 160.717 197.498C159.286 197.625 157.86 197.21 156.721 196.336C155.581 195.462 154.811 194.192 154.562 192.777Z" fill="#9B8264"/>
<path d="M175.417 182.946V192.358C175.417 193.344 175.955 194.091 177.3 194.091C177.841 194.087 178.377 193.986 178.883 193.792V196.78C178.087 197.274 177.16 197.514 176.224 197.467C175.627 197.548 175.019 197.491 174.447 197.302C173.875 197.113 173.353 196.797 172.922 196.377C172.49 195.956 172.159 195.443 171.955 194.877C171.751 194.31 171.678 193.704 171.742 193.105V182.946H169.382V179.958H171.742V175.626H175.417V180.018H178.883V183.006L175.417 182.946Z" fill="#9B8264"/>
<path d="M208.433 187.129V197.198H204.758V187.338C204.758 184.559 203.414 182.976 201.113 182.976C198.813 182.976 197.199 184.559 197.199 187.338V197.198H193.644V187.338C193.644 184.559 192.269 182.976 189.998 182.976C187.728 182.976 186.144 184.559 186.144 187.338V197.198H182.499V180.018H186.144V182.438C186.662 181.563 187.409 180.845 188.303 180.361C189.198 179.877 190.207 179.645 191.223 179.689C192.291 179.628 193.352 179.878 194.28 180.409C195.208 180.939 195.963 181.727 196.452 182.677C197.037 181.696 197.883 180.897 198.896 180.369C199.91 179.841 201.05 179.606 202.189 179.689C205.774 179.689 208.433 181.96 208.433 187.129Z" fill="#9B8264"/>
<path d="M228.751 189.968H215.276C215.511 191.339 216.26 192.569 217.37 193.407C218.48 194.245 219.868 194.629 221.251 194.48C223.008 194.523 224.712 193.88 226.002 192.687L227.705 194.48C226.852 195.455 225.793 196.229 224.605 196.746C223.417 197.263 222.128 197.509 220.833 197.468C219.656 197.485 218.487 197.271 217.393 196.837C216.298 196.403 215.3 195.757 214.456 194.937C212.749 193.282 211.771 191.016 211.735 188.638C211.699 186.261 212.61 183.967 214.265 182.261C215.921 180.555 218.187 179.576 220.564 179.54C221.845 179.528 223.112 179.811 224.266 180.365C225.421 180.92 226.432 181.732 227.223 182.74C228.014 183.747 228.563 184.923 228.828 186.176C229.093 187.429 229.067 188.727 228.751 189.968ZM215.126 187.279H225.375C225.344 186.656 225.191 186.045 224.923 185.482C224.655 184.919 224.278 184.415 223.814 183.998C223.35 183.581 222.808 183.261 222.22 183.054C221.631 182.848 221.008 182.761 220.385 182.797C219.108 182.757 217.862 183.194 216.89 184.022C215.918 184.851 215.289 186.012 215.126 187.279Z" fill="#9B8264"/>
<path d="M247.993 187.07V197.198H244.347V187.667C244.347 184.679 242.704 182.976 240.164 182.976C239.573 182.975 238.989 183.101 238.45 183.344C237.911 183.588 237.43 183.943 237.04 184.387C236.65 184.832 236.359 185.354 236.186 185.919C236.014 186.485 235.965 187.081 236.041 187.667V197.198H232.306V180.018H236.041V182.588C236.594 181.626 237.404 180.836 238.38 180.309C239.357 179.781 240.461 179.536 241.569 179.6C242.506 179.593 243.434 179.79 244.288 180.177C245.142 180.565 245.901 181.134 246.512 181.845C247.124 182.556 247.573 183.392 247.829 184.294C248.084 185.196 248.14 186.144 247.993 187.07Z" fill="#9B8264"/>
<path d="M256.956 182.946V192.358C256.956 193.344 257.494 194.091 258.838 194.091C259.38 194.087 259.916 193.986 260.422 193.792V196.78C259.628 197.278 258.699 197.518 257.763 197.467C257.164 197.536 256.558 197.467 255.99 197.266C255.422 197.066 254.907 196.739 254.484 196.31C254.061 195.881 253.74 195.362 253.548 194.791C253.355 194.22 253.294 193.613 253.371 193.015V182.946H250.98V179.958H253.371V175.626H256.956V180.018H260.422V183.006L256.956 182.946Z" fill="#9B8264"/>
<path d="M291.585 193.792V196.78C290.976 197.263 290.211 197.508 289.434 197.467C288.98 197.488 288.527 197.409 288.107 197.237C287.686 197.065 287.308 196.804 286.998 196.472C286.689 196.139 286.455 195.744 286.313 195.312C286.171 194.88 286.125 194.423 286.177 193.972V193.523C285.584 194.821 284.607 195.906 283.378 196.633C282.15 197.359 280.729 197.692 279.305 197.587C278.272 197.649 277.237 197.496 276.266 197.138C275.295 196.779 274.409 196.222 273.665 195.503C272.92 194.784 272.334 193.918 271.941 192.96C271.549 192.002 271.361 190.973 271.388 189.938C271.281 188.193 271.837 186.473 272.945 185.121C274.054 183.769 275.631 182.886 277.363 182.648L273.091 173.684H285.759V176.672H277.483L281.247 184.769H280.261C279.606 184.697 278.942 184.765 278.314 184.969C277.687 185.173 277.109 185.507 276.621 185.951C276.132 186.394 275.743 186.936 275.48 187.541C275.216 188.146 275.084 188.8 275.092 189.46C275.071 190.1 275.182 190.738 275.421 191.332C275.66 191.926 276.02 192.464 276.478 192.911C276.937 193.358 277.483 193.705 278.083 193.929C278.683 194.152 279.323 194.248 279.963 194.211C280.668 194.237 281.371 194.115 282.026 193.855C282.682 193.594 283.276 193.199 283.771 192.696C284.266 192.193 284.65 191.592 284.9 190.932C285.15 190.272 285.259 189.567 285.221 188.862V182.887H291.197V185.875H288.717V192.269C288.691 192.492 288.714 192.719 288.784 192.933C288.854 193.147 288.97 193.343 289.123 193.508C289.277 193.673 289.464 193.803 289.673 193.888C289.881 193.973 290.106 194.012 290.331 194.002C290.759 194.023 291.187 193.951 291.585 193.792Z" fill="#9B8264"/>
<path d="M302.76 173.744H310.529C313.635 173.744 316.614 174.978 318.811 177.174C321.007 179.371 322.241 182.35 322.241 185.456C322.241 188.563 321.007 191.542 318.811 193.738C316.614 195.935 313.635 197.169 310.529 197.169H302.76V173.744ZM310.409 193.643C312.46 193.468 314.37 192.529 315.762 191.013C317.153 189.497 317.926 187.514 317.926 185.456C317.926 183.398 317.153 181.415 315.762 179.899C314.37 178.383 312.46 177.445 310.409 177.27H306.495V193.643H310.409Z" fill="#9B8264"/>
<path d="M341.633 189.968H328.157C328.393 191.339 329.142 192.569 330.252 193.407C331.362 194.246 332.75 194.629 334.133 194.48C335.89 194.526 337.595 193.883 338.884 192.687L340.587 194.48C339.734 195.455 338.675 196.229 337.487 196.746C336.298 197.263 335.01 197.509 333.715 197.468C331.337 197.499 329.045 196.585 327.342 194.927C325.638 193.268 324.663 191.001 324.632 188.624C324.6 186.246 325.514 183.954 327.173 182.25C328.831 180.547 331.098 179.572 333.476 179.54C334.756 179.527 336.022 179.809 337.176 180.364C338.33 180.918 339.34 181.732 340.129 182.74C340.918 183.749 341.464 184.925 341.725 186.179C341.985 187.432 341.954 188.729 341.633 189.968ZM328.127 187.279H338.406C338.329 186.021 337.758 184.845 336.818 184.005C335.878 183.166 334.645 182.732 333.386 182.797C332.109 182.757 330.863 183.194 329.891 184.023C328.919 184.851 328.29 186.012 328.127 187.279Z" fill="#9B8264"/>
<path d="M343.037 180.019H346.771L352 192.777L357.169 180.019H360.934L353.673 197.199H350.267L343.037 180.019Z" fill="#9B8264"/>
<path d="M379.16 189.968H365.685C365.92 191.339 366.669 192.569 367.779 193.407C368.89 194.245 370.278 194.629 371.661 194.479C373.418 194.526 375.123 193.882 376.411 192.687L378.144 194.479C377.282 195.444 376.222 196.21 375.036 196.726C373.849 197.242 372.565 197.495 371.272 197.467C370.095 197.485 368.926 197.271 367.832 196.837C366.738 196.402 365.74 195.757 364.895 194.937C363.188 193.281 362.21 191.016 362.174 188.638C362.139 186.261 363.049 183.967 364.705 182.261C366.36 180.554 368.626 179.576 371.003 179.54C372.282 179.533 373.545 179.818 374.695 180.375C375.846 180.932 376.854 181.745 377.642 182.752C378.429 183.758 378.976 184.932 379.239 186.183C379.502 187.434 379.475 188.729 379.16 189.968ZM365.655 187.279H375.903C375.873 186.653 375.718 186.04 375.449 185.475C375.179 184.91 374.8 184.404 374.332 183.987C373.865 183.569 373.32 183.249 372.728 183.045C372.136 182.841 371.509 182.757 370.884 182.797C369.61 182.758 368.368 183.195 367.401 184.025C366.434 184.854 365.811 186.014 365.655 187.279Z" fill="#9B8264"/>
<path d="M382.715 173.744H386.33V197.199H382.715V173.744Z" fill="#9B8264"/>
<path d="M389.796 188.594C389.796 186.821 390.322 185.088 391.307 183.614C392.292 182.14 393.692 180.991 395.33 180.313C396.968 179.635 398.77 179.457 400.509 179.803C402.247 180.149 403.844 181.002 405.098 182.256C406.352 183.51 407.205 185.107 407.551 186.846C407.897 188.584 407.72 190.387 407.041 192.024C406.363 193.662 405.214 195.062 403.74 196.047C402.266 197.032 400.533 197.558 398.76 197.558C397.573 197.595 396.39 197.389 395.286 196.952C394.182 196.514 393.178 195.855 392.339 195.015C391.499 194.176 390.84 193.172 390.402 192.068C389.965 190.964 389.759 189.781 389.796 188.594ZM404.138 188.594C404.091 187.541 403.736 186.524 403.115 185.671C402.495 184.818 401.638 184.166 400.651 183.797C399.663 183.427 398.589 183.356 397.561 183.592C396.533 183.828 395.597 184.361 394.87 185.125C394.143 185.888 393.656 186.849 393.471 187.887C393.285 188.925 393.409 189.995 393.827 190.963C394.245 191.932 394.938 192.756 395.82 193.333C396.702 193.911 397.735 194.216 398.79 194.211C399.517 194.217 400.237 194.073 400.906 193.789C401.575 193.505 402.179 193.087 402.68 192.56C403.181 192.034 403.569 191.411 403.82 190.728C404.07 190.046 404.179 189.32 404.138 188.594Z" fill="#9B8264"/>
<path d="M428.878 188.594C428.964 189.741 428.813 190.893 428.433 191.977C428.053 193.062 427.452 194.057 426.67 194.899C425.887 195.741 424.938 196.411 423.884 196.869C422.829 197.327 421.691 197.561 420.542 197.558C419.369 197.643 418.195 197.41 417.144 196.884C416.092 196.358 415.202 195.559 414.566 194.57V203.534H410.951V180.019H414.566V182.738C415.206 181.754 416.098 180.958 417.148 180.433C418.198 179.908 419.37 179.672 420.542 179.75C421.68 179.748 422.808 179.979 423.854 180.43C424.9 180.88 425.842 181.54 426.623 182.369C427.404 183.197 428.007 184.177 428.395 185.248C428.783 186.319 428.947 187.458 428.878 188.594ZM425.263 188.594C425.227 187.526 424.878 186.492 424.258 185.621C423.638 184.75 422.775 184.081 421.777 183.697C420.779 183.314 419.691 183.233 418.647 183.465C417.604 183.698 416.652 184.232 415.91 185.002C415.169 185.772 414.671 186.744 414.478 187.795C414.286 188.847 414.408 189.932 414.829 190.915C415.25 191.897 415.951 192.734 416.845 193.321C417.739 193.907 418.785 194.217 419.854 194.212C420.588 194.23 421.316 194.095 421.994 193.816C422.673 193.538 423.286 193.121 423.794 192.593C424.303 192.064 424.696 191.436 424.949 190.748C425.201 190.06 425.308 189.326 425.263 188.594Z" fill="#9B8264"/>
<path d="M458.249 187.13V197.199H454.574V187.339C454.574 184.56 453.229 182.976 450.959 182.976C448.688 182.976 447.134 184.56 447.134 187.339V197.199H443.459V187.339C443.459 184.56 442.114 182.976 439.814 182.976C437.513 182.976 435.96 184.56 435.96 187.339V197.199H432.344V180.018H435.96V182.439C436.478 181.563 437.224 180.846 438.119 180.361C439.013 179.877 440.023 179.645 441.039 179.69C442.106 179.629 443.168 179.879 444.096 180.409C445.024 180.939 445.778 181.727 446.268 182.678C446.857 181.701 447.705 180.906 448.717 180.379C449.729 179.852 450.866 179.613 452.004 179.69C455.59 179.69 458.249 181.961 458.249 187.13Z" fill="#9B8264"/>
<path d="M478.566 189.968H465.091C465.333 191.336 466.084 192.562 467.192 193.399C468.301 194.236 469.685 194.622 471.067 194.48C472.824 194.526 474.529 193.883 475.818 192.687L477.521 194.48C476.674 195.455 475.62 196.229 474.437 196.746C473.253 197.262 471.969 197.509 470.678 197.468C469.501 197.485 468.332 197.271 467.238 196.837C466.144 196.403 465.146 195.757 464.301 194.937C462.595 193.282 461.616 191.016 461.58 188.639C461.545 186.261 462.455 183.967 464.111 182.261C465.767 180.555 468.032 179.576 470.41 179.54C471.69 179.527 472.956 179.809 474.11 180.364C475.264 180.918 476.274 181.732 477.063 182.74C477.852 183.749 478.398 184.925 478.659 186.179C478.919 187.432 478.888 188.729 478.566 189.968ZM465.061 187.279H475.34C475.305 186.655 475.148 186.044 474.877 185.48C474.606 184.917 474.226 184.413 473.76 183.996C473.294 183.58 472.75 183.26 472.16 183.054C471.569 182.848 470.944 182.761 470.32 182.797C469.043 182.757 467.797 183.194 466.825 184.023C465.853 184.851 465.224 186.012 465.061 187.279Z" fill="#9B8264"/>
<path d="M497.837 187.069V197.198H494.162V187.667C494.162 184.679 492.519 182.976 489.979 182.976C489.38 182.962 488.786 183.078 488.236 183.316C487.686 183.554 487.194 183.907 486.794 184.353C486.394 184.799 486.095 185.326 485.918 185.898C485.74 186.47 485.688 187.073 485.766 187.667V197.198H482.121V180.018H485.766V182.588C486.317 181.63 487.122 180.844 488.093 180.317C489.063 179.789 490.161 179.541 491.264 179.6C492.214 179.57 493.159 179.751 494.031 180.129C494.903 180.507 495.681 181.073 496.309 181.787C496.937 182.501 497.4 183.344 497.664 184.257C497.928 185.17 497.987 186.131 497.837 187.069Z" fill="#9B8264"/>
<path d="M506.831 182.946V192.358C506.831 193.344 507.368 194.091 508.713 194.091C509.255 194.09 509.792 193.989 510.296 193.792V196.78C509.502 197.278 508.573 197.518 507.637 197.467C507.042 197.543 506.438 197.483 505.87 197.291C505.302 197.1 504.784 196.783 504.356 196.363C503.928 195.944 503.6 195.433 503.397 194.868C503.194 194.304 503.122 193.701 503.185 193.105V182.946H500.795V179.958H503.185V175.626H506.831V180.018H510.296V183.006L506.831 182.946Z" fill="#9B8264"/>
<path d="M95.8212 135.171H80.9715V95.3433L64.7176 79.0594L75.205 68.572L95.8212 89.1883V135.171Z" fill="white"/>
<path d="M22.5882 99.9146L0 77.3264L10.4874 66.8091L21.9907 78.3124L73.0233 24.501L84.0784 34.3908L22.5882 99.9146Z" fill="white"/>
<path d="M22.5881 118.051L14.9392 110.402H14.8197V135.171H29.6694V110.402H29.4303L22.5881 118.051Z" fill="white"/>
<path d="M52.7653 97.2251H44.5188V105.472H52.7653V97.2251Z" fill="white"/>
<path d="M52.7653 110.402H44.5188V118.649H52.7653V110.402Z" fill="white"/>
<path d="M65.9715 97.2251H57.725V105.472H65.9715V97.2251Z" fill="white"/>
<path d="M65.9715 110.402H57.725V118.649H65.9715V110.402Z" fill="white"/>
<path d="M348.026 42.2484L329.113 23.3352L311.036 41.4118L299.354 29.7591L329.113 0L359.708 30.5957L348.026 42.2484Z" fill="#9B8264"/>
</svg>
