<svg xmlns="http://www.w3.org/2000/svg" viewBox="0 0 404.29 312.35"><defs><style>.cls-1{fill:#fff;}</style></defs><g id="Слой_2" data-name="Слой 2"><g id="OBJECTS"><path class="cls-1" d="M203.44,204.46a1,1,0,0,0-.17-.29.84.84,0,0,0-.26,0l-.27,0a2.89,2.89,0,0,1-.92-.35,1.8,1.8,0,0,0-.65-.24c-.5-.05-.92.55-1.33,1.12l-.11.15a2.74,2.74,0,0,1-1.76,1.14,1.27,1.27,0,0,1-1.06-.34,2,2,0,0,1-.27-.31c0-.07-.13-.18-.17-.19l-.12,0a1.36,1.36,0,0,1-.55,0,1.23,1.23,0,0,1-.84-1c0-.09-.06-.18-.1-.27a.57.57,0,0,0-.36-.3,2.3,2.3,0,0,0-1.63.3l-.24.13c-.87.5-2,1.12-3,.63a3.24,3.24,0,0,1-.92-.72,2.49,2.49,0,0,0-.45-.41.73.73,0,0,0-.58-.11l-.24,0a2.23,2.23,0,0,1-.14,1.26,3.85,3.85,0,0,1-1.34,1.51,4.33,4.33,0,0,0-1.6,2.09,10.34,10.34,0,0,1-.74,1.33,3.08,3.08,0,0,1-2.15,1.26,1.71,1.71,0,0,1-.6,0v0a2.14,2.14,0,0,1-1.15,1.14,5.39,5.39,0,0,1-1,.29,4,4,0,0,0-.89.26,1,1,0,0,0-.54.59.29.29,0,0,0,0,.28l.27.44-.44.26a1.24,1.24,0,0,1-.62.17,2.45,2.45,0,0,1-1.37-.56c.11.32.19.64.27.95.28,1.06.54,2.05,1.3,2.41l.31.15a10.34,10.34,0,0,1,3.31,1.06l.4.19a5.84,5.84,0,0,0,3.69.7,2.36,2.36,0,0,0,1.47-1.26,1.36,1.36,0,0,0,0-1.19l-.35-.69,5.28-.24a2.15,2.15,0,0,0,.64-.09c.49-.2.69-.88.91-1.6.29-.95.61-2,1.74-2.2a2.73,2.73,0,0,1,.7,0,1.12,1.12,0,0,0,.53,0,1.07,1.07,0,0,0,.29-.35,4.17,4.17,0,0,1,.3-.4,2.56,2.56,0,0,1,3-.18c.25.13.49.28.73.43a4.43,4.43,0,0,0,1.45.68,4.3,4.3,0,0,0,1.77-.24,9.58,9.58,0,0,1,1-.24,3.24,3.24,0,0,1,1.89.25l0-.1c.38-1.17.8-2.33,1.23-3.48A8.16,8.16,0,0,1,203.44,204.46Z"/><path class="cls-1" d="M152.91,201.43a33.24,33.24,0,0,0,6.57,10.31l.08.08.16-.36a6.09,6.09,0,0,0,2.45.72h0a1.71,1.71,0,0,0,1.68-1.07,3.12,3.12,0,0,0,0-.7,2.89,2.89,0,0,1,.19-1.24,2.37,2.37,0,0,1,1.47-1.21,4.53,4.53,0,0,1,4.67,1.18,8.07,8.07,0,0,1,.69.88,3.06,3.06,0,0,0,1.36,1.3,2.56,2.56,0,0,0,.46.11,2.92,2.92,0,0,1,.65.15,2.26,2.26,0,0,1,1,.72,2.19,2.19,0,0,1,1,.37l.1.07a3.79,3.79,0,0,0,.71.45,2.5,2.5,0,0,1,.06-.38,2.08,2.08,0,0,1,1.08-1.22,5.11,5.11,0,0,1,1.1-.33,4.65,4.65,0,0,0,.82-.23,1.16,1.16,0,0,0,.61-.58.32.32,0,0,0,0-.29l-1.23-2.66,2,2.1a.81.81,0,0,0,.65.22,2.1,2.1,0,0,0,1.41-.85,8,8,0,0,0,.66-1.19,6.61,6.61,0,0,1,1.06-1.72,6.93,6.93,0,0,1,.82-.72,3,3,0,0,0,1-1.1c.34-.81-.16-1.81-1.52-3.05a41.73,41.73,0,0,0-4.28-3.57,1.76,1.76,0,0,0-1.21-.45,2.27,2.27,0,0,0-1,.74c-.49.52-1.11,1.16-2,.93l-.68-.17.39-.59a.5.5,0,0,0-.38-.31,2.23,2.23,0,0,0-.72,0,3.76,3.76,0,0,1-.74.06,1.72,1.72,0,0,1-1.25-.58l-.07-.09a4.28,4.28,0,0,1-2,.32l-.34,0-.1-.32a7.91,7.91,0,0,1-.34-1.73,4,4,0,0,1-1.84.35l-.55,0,.07-.54a3.41,3.41,0,0,0-2.11-3.48l0,.07-7.27,2.75a21.49,21.49,0,0,1-2.71.89,10.7,10.7,0,0,1-4.81,0l.33,1.06C151.73,198.14,152.26,199.83,152.91,201.43Z"/><path class="cls-1" d="M156,227.26l.23-.21,4.92,1.76a2.37,2.37,0,0,0,1.48.2.6.6,0,0,0,.33-.45c0-.13,0-.16-.05-.17l-2.35-1.75,2.8.87a5.83,5.83,0,0,0,4.11-.28L168,227a6.23,6.23,0,0,1,1.34-.58,5.22,5.22,0,0,1,3.47.47,5.82,5.82,0,0,1,1.64-4.92,3.89,3.89,0,0,1-1.13-1.12,2,2,0,0,1,.21-2.52l.16-.14h.21a2.52,2.52,0,0,0,1.76-.57,5.31,5.31,0,0,1-1.27-2.69,7.56,7.56,0,0,0-.54-1.59l-.86-.13a1,1,0,0,1,.27-.54l-.23-.11a3.72,3.72,0,0,0-.48-.11,3.27,3.27,0,0,1-.62-.14,4,4,0,0,1-1.86-1.67,7.68,7.68,0,0,0-.6-.78,3.49,3.49,0,0,0-3.61-.91,1.49,1.49,0,0,0-.89.67,2.1,2.1,0,0,0-.1.83,3.52,3.52,0,0,1-.08,1,2.71,2.71,0,0,1-2.64,1.82,5.43,5.43,0,0,1-2.46-.62l-4.73.15a3.36,3.36,0,0,1-1.65,2.14,7.72,7.72,0,0,1,.16,3.76l-.13.65-.59-.31c-1.33-.7-2.89-.38-4.55,0-.58.12-1.16.23-1.73.3a21.16,21.16,0,0,1-3.46.07l-9.82-.33a10.78,10.78,0,0,1,1.14,1.83c.1.19.2.39.29.59.57,1.18,1.15,2.39,2.22,2.67l.11,0a2,2,0,0,1,.77.33,1.16,1.16,0,0,1,.66-.94,1.57,1.57,0,0,1,1.67.45,2.85,2.85,0,0,0,.48.32c.44.21.93,0,1.68-.4a4.34,4.34,0,0,1,1.91-.64h0a4,4,0,0,1,2.09.85l4.39,3a2.42,2.42,0,0,0,.89.45,3.08,3.08,0,0,0,1.3-.24,2.26,2.26,0,0,1,2.36.11,1.87,1.87,0,0,1,.39.51A2.2,2.2,0,0,1,156,227.26Z"/><path class="cls-1" d="M164.56,178.71c.13.37.26.74.38,1.11a24.05,24.05,0,0,1,.9,10.92,4.43,4.43,0,0,1,3,4,3.21,3.21,0,0,0,1.47-.57l.82-.59,0,1a7.18,7.18,0,0,0,.22,1.91A3.26,3.26,0,0,0,173,196l.93-.57-.18,1.08a.14.14,0,0,0,0,.09.71.71,0,0,0,.5.22,2.78,2.78,0,0,0,.58-.05,3.49,3.49,0,0,1,1,0,1.53,1.53,0,0,1,1.11.86.58.58,0,0,1,0,.14,3.52,3.52,0,0,0,.61-.56,3.09,3.09,0,0,1,1.52-1,2.61,2.61,0,0,1,2,.62,42.06,42.06,0,0,1,4.39,3.65,6.93,6.93,0,0,1,1.67,2.09l.15-.08a1.72,1.72,0,0,1,1.5.23,4.35,4.35,0,0,1,.59.53,2.21,2.21,0,0,0,.62.51c.6.28,1.37-.16,2.12-.59l.24-.13a3.27,3.27,0,0,1,2.42-.38,1.56,1.56,0,0,1,1,.83c.06.12.1.25.15.38a1.42,1.42,0,0,0,.13.34s.05,0,.1,0a1.21,1.21,0,0,1,.52,0,1.26,1.26,0,0,1,.77.56c0,.06.1.13.15.18a.32.32,0,0,0,.29.09,1.71,1.71,0,0,0,1-.74l.11-.15c.51-.71,1.12-1.58,2.2-1.53a2.47,2.47,0,0,1,1.05.36,2.26,2.26,0,0,0,.61.24l.17,0a1.52,1.52,0,0,1,.76.19,1.56,1.56,0,0,1,.51.68,7.17,7.17,0,0,0,3.11,3.26c.52-1.36,1.06-2.71,1.59-4l.85-2.14a8.44,8.44,0,0,1,.91-1.83,8.59,8.59,0,0,1,2.19-1.94,7,7,0,0,0,2-1.84c1-1.61.57-3.92-1.31-6.87a4.45,4.45,0,0,1-.94-2.41,2.07,2.07,0,0,1,.79-1.59,1.5,1.5,0,0,1,.59-.3,3.92,3.92,0,0,0-2-2.61l-.77-.4.74-.46a3.2,3.2,0,0,0,1.32-3.37c0-.14-.08-.28-.13-.42a3,3,0,0,1-.19-1.65,3.17,3.17,0,0,1,.34-.74,1.79,1.79,0,0,0,.24-.48,1.92,1.92,0,0,0-.15-1L211.59,167l0,0a6,6,0,0,1-1-1,3,3,0,0,0-1.23-1l-.41-.09a2.24,2.24,0,0,1-1.06-.38,2.21,2.21,0,0,1-.71-1.36,15.75,15.75,0,0,1-.19-5.26,3.7,3.7,0,0,0-2.39.61l-.56-.83a4.66,4.66,0,0,1,3.63-.67l.46.1-.07.46a14.74,14.74,0,0,0,.1,5.38,1.35,1.35,0,0,0,.34.78,1.52,1.52,0,0,0,.61.18c.19,0,.37.07.55.12a3.78,3.78,0,0,1,1.7,1.37,4.88,4.88,0,0,0,.8.83.75.75,0,0,0,.15.09l.08,0,0,.09a1.93,1.93,0,0,0,1.92,0,1.58,1.58,0,0,0,.61-1.91l-.27-.55.6-.15a1.79,1.79,0,0,1,1.43.25,2.12,2.12,0,0,1,.49.45,4.61,4.61,0,0,1,1.88-.56,2.94,2.94,0,0,0,1.76-.62,2.27,2.27,0,0,0,.31-1.93l-.06-.38a4.88,4.88,0,0,1,0-2.28,2.24,2.24,0,0,1,1.28-1.38,1.55,1.55,0,0,1,1.35.08l.23.16a.69.69,0,0,0,.18.12,1,1,0,0,0,.36-.15l3-1.64a1.84,1.84,0,0,0-1-.22,2.32,2.32,0,0,1-1.84-.73,1.1,1.1,0,0,1-.17-1,1.71,1.71,0,0,1,.47-.67l.14-.13-1.23,0,.91-.66a4,4,0,0,1-1.33-1.37c-.44-.64-.74-1-1.17-1.06a1.45,1.45,0,0,0-.36,0,2.3,2.3,0,0,1-.78,0,2.19,2.19,0,0,1-1.1-.82l-.08-.09c-1.82-2.09-4.79-2.72-7.94-3.23-2-.32-3.73-.53-5.19.23-.23.11-.46.25-.69.39-.92.56-2,1.19-3.06.67a3.76,3.76,0,0,1-.57-.38,1.75,1.75,0,0,0-.44-.29c-.52-.21-1.17.25-1.84.79a2.91,2.91,0,0,1-2.35.78,13.64,13.64,0,0,0,6.6,10.83,6.81,6.81,0,0,0-5.38.32,2.19,2.19,0,0,0-.22-2,3.48,3.48,0,0,0-1.47,4.16,2.48,2.48,0,0,1-3-2.82c-1.61-.11-2.31,2-2.14,3.64s.57,3.49-.6,4.59c-2.34-.59-5.1-1.58-5.6-3.94-.12-.57-.16-1.28-.68-1.54a1.52,1.52,0,0,0-1.09,0l-5.6,1.53c-5.13,1.4-9.63,4.65-13.77,8l-.16-.13a7.76,7.76,0,0,0-1,4.9A16.06,16.06,0,0,0,164.56,178.71Z"/><path class="cls-1" d="M160,236.06l.14.12s0-.08.11-.12a4.17,4.17,0,0,1,3.12-.61,5.47,5.47,0,0,0,2-.1,5.08,5.08,0,0,0,1.9-1.37,8.06,8.06,0,0,0,1.29-1.52,9.55,9.55,0,0,0,.48-1,3.68,3.68,0,0,1,2-2.35,3.48,3.48,0,0,1,.56-.12,2.21,2.21,0,0,0,.51-.14,1.47,1.47,0,0,0,.63-1,4.6,4.6,0,0,0-3-.51,5.83,5.83,0,0,0-1.13.5l-.6.31a6.84,6.84,0,0,1-3.94.53v0a1.59,1.59,0,0,1-1,1.24,2,2,0,0,1-.71.13,4.43,4.43,0,0,1-1.47-.32l-4.29-1.54a1.09,1.09,0,0,0-.16.52H156a8.14,8.14,0,0,1,.8,4.08l.24-.12a2.16,2.16,0,0,1,.4,2A4.67,4.67,0,0,1,160,236.06Z"/><path class="cls-1" d="M190.76,265.55a3.16,3.16,0,0,0,.19-2.67l-.25-.66.7,0a3.26,3.26,0,0,0,2.24-1.45,24.79,24.79,0,0,0,1.6-2.34c.1-.17.21-.34.32-.5l-.15-.17c-.26-.3-.44-.47-.6-.47l-.24.07a1.79,1.79,0,0,1-.46.13,1.93,1.93,0,0,1-1.38-.58,2,2,0,0,0-.53-.36,1.78,1.78,0,0,0-.39-.08,2.24,2.24,0,0,1-.79-.2,2.34,2.34,0,0,1-1-1.72l-.05-.21a1.25,1.25,0,0,0-.44-.74l0,0a.76.76,0,0,1-.08.11,26.53,26.53,0,0,1-3.2,3.16,3.09,3.09,0,0,0-.72.74,2.66,2.66,0,0,0,0,1.83,4.35,4.35,0,0,1,.1,2.15l-1-.26a3.64,3.64,0,0,0-.11-1.68,2.79,2.79,0,0,1,1-3.51,26,26,0,0,0,3.12-3.08,3.94,3.94,0,0,0,1-1.83,4.21,4.21,0,0,0-.87-2.56,6.69,6.69,0,0,1-1-2.51,6.28,6.28,0,0,1,.28-2.37c.09-.39.18-.76.23-1.13l0,.12a6.88,6.88,0,0,1-2.66-1.22,4.24,4.24,0,0,0-3.52-1.08l-.7,0a12.62,12.62,0,0,1-2.84-.37l-6-1.27a1.7,1.7,0,0,0-.8,0,1.56,1.56,0,0,0-.47.33l-.23.19a5.82,5.82,0,0,1-.94.58,3.89,3.89,0,0,0-1,.65,2.67,2.67,0,0,0-.53,2c.12,2.19,1.45,4,2.85,6s2.68,3.7,3,6a2.61,2.61,0,0,1,0,.39c1.5.39,3,1.45,2.78,2.93a14.41,14.41,0,0,0,6.15,3.79c1.84.69,4.34,2.16,3.38,3.87a5.63,5.63,0,0,0,4.42.4Z"/><path class="cls-1" d="M173.42,254.55c-.3-2-1.53-3.71-2.84-5.51-1.43-2-2.9-4-3-6.5a3.61,3.61,0,0,1,.81-2.69,4.38,4.38,0,0,1,1.23-.85,5,5,0,0,0,.79-.47l.2-.17a2.36,2.36,0,0,1,.8-.52,2.55,2.55,0,0,1,1.32,0l6.06,1.27a13.64,13.64,0,0,0,2.61.35c.22,0,.43,0,.65,0a7.48,7.48,0,0,1,1.42,0,6.84,6.84,0,0,1,2.71,1.24,6.63,6.63,0,0,0,2.16,1,5.83,5.83,0,0,0-.65-1.75,8.61,8.61,0,0,1-.59-1.35,8.42,8.42,0,0,1,.32-5c-.26.14-.52.27-.76.42a1.71,1.71,0,0,1-.68,1,2.75,2.75,0,0,1-1.61.5,3.14,3.14,0,0,1-.75-.09,7.88,7.88,0,0,1-1.46-.61,5.58,5.58,0,0,0-1.43-.58c-.25-.05-.52-.07-.79-.1a3.16,3.16,0,0,1-2.11-.71,3.3,3.3,0,0,1-.57-.9l-1.45-3a4.66,4.66,0,0,0-1-1.57,1.49,1.49,0,0,0-.63-.34l.36,1-.91-.44a2.25,2.25,0,0,1-1.11,1.52,2.86,2.86,0,0,1-.79.22,2.71,2.71,0,0,0-.41.09c-.68.22-1,1-1.39,1.81a9.53,9.53,0,0,1-.53,1.06,8.37,8.37,0,0,1-1.45,1.72,6,6,0,0,1-2.3,1.62,6.31,6.31,0,0,1-2.33.13,3.46,3.46,0,0,0-2.37.35,1.34,1.34,0,0,1-.81.38H160a1.15,1.15,0,0,1-.74-.38c-.88-.83-1.59-1.2-2.15-1.13a13.13,13.13,0,0,1-.79,1.49c-.85,1.38-1.43,3.52,0,4.36a2.24,2.24,0,0,0,2.74-.71,6.59,6.59,0,0,0,1.11-2.84c1.75-.62,3.29,1.49,3.48,3.34s-.18,3.88.86,5.43c.82,1.22,2.36,1.82,3.19,3,.72,1.06.83,2.48,1.68,3.43s2.59,1.2,4.08,1.4C173.42,254.58,173.43,254.57,173.42,254.55Z"/><path class="cls-1" d="M100.3,184.42c.17.4.32.79.49,1.14.3.62.63,1.23,1.14,1.42l.13,0a1.39,1.39,0,0,1,.55.25,1.62,1.62,0,0,1,.51,1.15l.17,1.62a1.09,1.09,0,0,0,.12.48.83.83,0,0,0,.32.14,5.43,5.43,0,0,0,2.16.19l.22,0a2.59,2.59,0,0,1,1.57.12c.91.44,1.14,1.6,1.34,2.62a5.13,5.13,0,0,0,.39,1.41,7.15,7.15,0,0,0,3.39,3,7,7,0,0,0,1.69.24c-.31-1.6.41-3.26,1.07-4.74.14-.34.29-.67.42-1a13.22,13.22,0,0,0,.92-6.28,3,3,0,0,1,.06-1.26,1.92,1.92,0,0,1,.12-.25,3.79,3.79,0,0,0-.25-.35,5,5,0,0,0-.91-.72,14,14,0,0,0-6.43-2.29l.06-.56a5.82,5.82,0,0,1-6,.27s-3.27,1-3.65,1l-.7.12A12,12,0,0,1,100.3,184.42Z"/><path class="cls-1" d="M110,180.35a15.16,15.16,0,0,1,6.46,2.39,6.33,6.33,0,0,1,1.08.88,2.65,2.65,0,0,1,.21.26,5.54,5.54,0,0,1,.89-.49,2.61,2.61,0,0,0,1.19-.83,3.09,3.09,0,0,0,.18-.47,2.2,2.2,0,0,1,.49-1,2.31,2.31,0,0,1,2-.49c.49,0,1,.06,1.19-.16a2.13,2.13,0,0,0,.39-.62c.23-.48.55-1.14,1.31-1.15h0a1.61,1.61,0,0,1,.83.28,1.62,1.62,0,0,0,.27.13.42.42,0,0,0,.39-.05,2.67,2.67,0,0,0,.85-1.71l.9-5.68a1.31,1.31,0,0,0,0-.47,1.78,1.78,0,0,0-.55-.75,2,2,0,0,1-.79-1.46,9,9,0,0,0-7.64-.16l-1.59,6.44-2.21-.78c.09-1.33.17-2.67.26-4l-4,4.5c-1.31,1.46-2.71,3.43-1.87,5.2C110.15,180.26,110.08,180.3,110,180.35Z"/><path class="cls-1" d="M214.66,174.43a2.6,2.6,0,0,1-.35.75,1.38,1.38,0,0,0-.06,1.56c.05.17.11.33.15.49a4.16,4.16,0,0,1-1.16,4,5,5,0,0,1,1.93,3.18,4.19,4.19,0,0,0,1.06-.9l.29-.37a3.73,3.73,0,0,1,1.3-1.22,1.74,1.74,0,0,1,1.69.15,1.21,1.21,0,0,1,.24.21c1.47-1,3.59-.7,5.22,0,.44.2.89.43,1.33.66a8.59,8.59,0,0,0,3.66,1.27,9.67,9.67,0,0,0,2.14-.3,6.37,6.37,0,0,1,3.49-.13,6.2,6.2,0,0,1,.94.41,5.71,5.71,0,0,0,.85.38,5.32,5.32,0,0,0,1.61.13l3.57-.06c2.6,0,4.9-.18,6.69-1.37a11.26,11.26,0,0,0-.37-5l-.13-.4.37-.19a3.13,3.13,0,0,1,2.36-.21l.25.08.07.25a1.88,1.88,0,0,0,1,1.08,1.74,1.74,0,0,0,2.47-1,1.87,1.87,0,0,0-.05-1.47l-.35-.68,1.11-.07a3.41,3.41,0,0,1-.37-.25,4.24,4.24,0,0,1-.49-5.95,6.35,6.35,0,0,1,.77-.71c.21-.19.43-.37.63-.58a7.36,7.36,0,0,0,1.44-3.61,1.09,1.09,0,0,0,0-.5c-.06-.14-.31-.28-.47-.37l-4.92-2.67a3.24,3.24,0,0,1-1.86-1.9c-.2-.45-.34-.73-.58-.82a1.34,1.34,0,0,0-.46,0,3,3,0,0,1-.52,0c-1.46-.19-2-1.94-2.11-2.51a59.17,59.17,0,0,1-1.53-7,1.27,1.27,0,0,0-1.12-.2,1.19,1.19,0,0,0-.93.82l-.1.43-.44-.05a23.34,23.34,0,0,1-5.22-1.17,22.48,22.48,0,0,1-3.52-.9,7,7,0,0,1-1.26-.56h0a1.52,1.52,0,0,0-.76,1.16l0,.55a2.28,2.28,0,0,1-2.66,2.86,5.14,5.14,0,0,0-.68,0,5.22,5.22,0,0,0-1.31.42,6.58,6.58,0,0,1-1.34.44l-.09.06a1.15,1.15,0,0,1-.16.95,2.89,2.89,0,0,1-.29.32,1,1,0,0,0-.21.25,1.3,1.3,0,0,0,1,.41,2.62,2.62,0,0,1,1.87.62,1.09,1.09,0,0,1,.28.9l0,.25-3.58,2a1.49,1.49,0,0,1-1.06.24,1.47,1.47,0,0,1-.56-.29.67.67,0,0,0-.14-.09.53.53,0,0,0-.48,0,1.27,1.27,0,0,0-.68.74,3.89,3.89,0,0,0,.05,1.82l.06.4a3.16,3.16,0,0,1-.56,2.76,3.77,3.77,0,0,1-2.35.93c-.78.11-1.45.21-1.77.7l-.7,1-.21-1.23a.88.88,0,0,0-.38-.54l-.11-.06a2.61,2.61,0,0,1-1.19,2.43,2.74,2.74,0,0,1-1.45.41,3.27,3.27,0,0,1-.62-.07l1.68,5.33A2.79,2.79,0,0,1,214.66,174.43Z"/><path class="cls-1" d="M304.79,197.88a11,11,0,0,0-.78-1.36,11.91,11.91,0,0,1-.74-1.26,3.46,3.46,0,0,1-.07-3.4,6.93,6.93,0,0,1,.51-.66c.52-.64.72-1,.56-1.15a1,1,0,0,0-.38-.2,18.52,18.52,0,0,0-10.84-1l-1.74.41,1.28-1.25a.92.92,0,0,0-.75-.25,4.05,4.05,0,0,0-.55.2,2.27,2.27,0,0,1-2,.14,2.48,2.48,0,0,1-.85-.92c-.21-.33-.35-.54-.51-.55a1.06,1.06,0,0,0-.28,0,1.37,1.37,0,0,1-.87,0,1.44,1.44,0,0,1-.68-.76,1.23,1.23,0,0,0-.14-.25.5.5,0,0,0-.34-.19,1.85,1.85,0,0,0-1.23.41c-.13.1-.27.21-.4.33a3.5,3.5,0,0,1-2,1h-.26l-.15-.21c-.77-1-2.36-1-3.82-.86l-.5,0-.05-.5c-.11-1.44-.51-3.2-1.75-3.44a3.45,3.45,0,0,0-1.42.17l-.41.11a8,8,0,0,1-3,.09,2.59,2.59,0,0,1-2.08-1.31,3.1,3.1,0,0,1-.17-1.38l.21-4.17a11.9,11.9,0,0,0-4.23-.47c-.49,0-1,.09-1.46.16a38.1,38.1,0,0,0-4.53,1s0,.05.05.09l-.92.38a1.19,1.19,0,0,0-.22-.33l-.87,0a2.91,2.91,0,0,1-.14,1.59,2.71,2.71,0,0,1-3.82,1.56,2.89,2.89,0,0,1-1.43-1.41,2.08,2.08,0,0,0-1,.05,12.12,12.12,0,0,1,.24,5.19l0,.2L250,184c-2.22,1.58-5.1,1.63-7.42,1.67l-3.58.06a6.32,6.32,0,0,1-1.91-.17,6.68,6.68,0,0,1-1-.44,6.86,6.86,0,0,0-.8-.36,5.7,5.7,0,0,0-3,.15,10.05,10.05,0,0,1-2.39.33,9.57,9.57,0,0,1-4.09-1.38c-.43-.22-.85-.44-1.29-.64-1.45-.66-3.54-1-4.63.22l-1,1.12.13-1.5s0-.1-.11-.18a.77.77,0,0,0-.69-.07,2.9,2.9,0,0,0-.93.92c-.1.14-.21.28-.32.41a5.66,5.66,0,0,1-3.22,1.9,1.1,1.1,0,0,0,0,.18,3.66,3.66,0,0,0,.78,1.86c2.11,3.31,2.56,6,1.32,7.94a7.68,7.68,0,0,1-2.31,2.13,5.63,5.63,0,0,0-2.74,3.32l-.85,2.14c-1.09,2.72-2.22,5.54-3.15,8.4a1.5,1.5,0,0,0-.13.81c.08.29.42.52,1,.72a22.06,22.06,0,0,0,6.52.8,50.54,50.54,0,0,0,12-1.43c.67-.16,1.38-.39,1.61-.9a2.1,2.1,0,0,0,.13-.44,2.74,2.74,0,0,1,.3-.82,2.67,2.67,0,0,1,2.3-.92h.22a12.15,12.15,0,0,0,3.47-.95,15.23,15.23,0,0,1,3.23-1,5.38,5.38,0,0,1,4.53,1.56,3,3,0,0,1,.81,2,6.21,6.21,0,0,1,2.5.34,2.84,2.84,0,0,1,1.9,2.73,4.2,4.2,0,0,1-.19.83,1.59,1.59,0,0,0-.13.87,1.79,1.79,0,0,0,.56.72,24.93,24.93,0,0,1,5.94,8.79l-.29.12h0c.64.36,1.2,1,1.93,1,1.62-.06,1.28-2.58.41-3.94l6-2.34a5.44,5.44,0,0,1,1.65-3.53,6.24,6.24,0,0,1,0,7.34c.23,1.26,2.17.94,3.14.12s2.29-1.9,3.33-1.16c.42.3.62.83,1,1.22a2.07,2.07,0,0,0,3.38-2.35,3.29,3.29,0,0,1,4.74.72,5.14,5.14,0,0,0,2.7-4.87,2.17,2.17,0,0,1,2.3,2.22c2.44.4,3.12-4.19,5.59-4.3.55,0,1.1.2,1.65.15,1.35-.12,2-1.67,2.73-2.8a7.54,7.54,0,0,1,3.37-2.66,6.31,6.31,0,0,1-.62-4.26l.06-.28.27-.09a14.54,14.54,0,0,0,6.23-3.95l.41-.44.36.49a.19.19,0,0,0,.22.09,1.56,1.56,0,0,0,1-1A4.83,4.83,0,0,0,304.79,197.88Z"/><path class="cls-1" d="M79.41,118.49a1.87,1.87,0,0,0,3.67.41,3.33,3.33,0,0,1-1.52-1.47l3.45.14c-.27-1.19-.55-2.38-.82-3.56a8.08,8.08,0,0,0,5.06,2.43c1.4.12,3.44.55,3.11,1.91a13,13,0,0,0-7.13,3.29,2,2,0,0,0-.85,1.66c.22,1.24,2,1.07,3.24.85a8.55,8.55,0,0,1,5.38.76c.72.36,1.47,1,1.44,1.78a2.61,2.61,0,0,1-.32,1,13.42,13.42,0,0,1-2.87,4.23,4.53,4.53,0,0,1-4.75,1c-.17.78-.33,1.57-.49,2.35a3.87,3.87,0,0,0-1.93-1.11c-.75-.09-1.62.47-1.55,1.22.11,1.25,2,1,3.21,1.17a3.22,3.22,0,0,1,2.7,3.58,1,1,0,0,1-.65,1.3c1.5-.46,2.68,1.29,3.21,2.77.69,2,1.23,4,1.76,6.05l.4,1.52c.51,2,.9,4.41-.63,5.76l-1.87.29a5.13,5.13,0,0,1,2.79,4,15,15,0,0,1-.33,5,9.54,9.54,0,0,1,4.41.7,3.22,3.22,0,0,1,1.8,3.7c-1.07,2.9-6.48,1.75-7.57,4.65a2.47,2.47,0,0,0,2.86,3.06c-2.06,1.42-4.71,1.65-7.21,1.5-1.81-.1-3.59-.38-5.38-.65l-6.53-1a4.41,4.41,0,0,1-1.86-.58c-1-.67-1.37-2.08-2.49-2.45-2.28-.74-3.64,3.6-6,3.24-.07-1.45-2.17-1.58-3.57-1.19s-3.43.5-3.75-.91l5.95-2.21a15.14,15.14,0,0,1,6.34-1.36c1.3.11,2.65.54,3.86.06s1.72-2.53.5-3l.75-1.63a1.2,1.2,0,0,0-1.08,1.6c-1,1.08-2.76-.12-3.9-1.11a28,28,0,0,0-7.3-4.15,15.49,15.49,0,0,0,5.63.23,5.33,5.33,0,0,0,4.18-3.42c.52-1.83-1-4.2-2.88-3.78l7.22-1,1.22,1.45c1.18-.14.93-1.88.88-3.07A3.91,3.91,0,0,1,82,151.68c-1.33-1-2.76-2.1-3.12-3.71s1.16-3.61,2.7-3a1.76,1.76,0,0,0-1.2-1.87A5.24,5.24,0,0,0,78,143l-4.77.51a1.83,1.83,0,0,1-.93-.07c-.67-.3-.69-1.31-.26-1.9a5.7,5.7,0,0,1,1.75-1.31,10,10,0,0,0,3.91-6.59c.51-2.57.46-5.22.8-7.82a2,2,0,0,1-2.57-1.39c1.58.06,2.08-1.1,2.53-2.28C78.49,121.87,79.41,118.59,79.41,118.49Z"/><path class="cls-1" d="M223.36,32.22c.17-.69-.21-.62-.39-1.32a2.53,2.53,0,0,1-4-1.32,2.81,2.81,0,0,0-3,2.91L213.14,32q1.22-2.62,2.41-5.27a7,7,0,0,0-3.94,6.48,2,2,0,0,1-1.67-3l-2.17,2.59a3,3,0,0,1,1.45-4.55c-1.65-.55-3.33.75-4.34,2.16s-1.81,3.09-3.33,3.92-3.47.61-5.07,1.34-2.33,3.51-.64,4L189.3,41l2.2,3c-2.23-.13-4.79-.14-6.28,1.52a8,8,0,0,0-1.38,2.72c-.63,1.76-1.32,3.51-2.07,5.22-.9,2-2,4.17-4,5.24a3.46,3.46,0,0,0-2.41-1.12c-.13,3.21-5.68,4-5.79,7.23,0,.85.37,1.71.14,2.53-.29,1.09-1.51,1.59-2.4,2.29-3.57,2.79-2.11,9-5.22,12.28a1.63,1.63,0,0,1-2.41-1.29,9.58,9.58,0,0,0-3.06,3.27c-2.69,4.71-8.17,9.76-13.44,11-2.35.56-4.87.6-7,1.75a7.61,7.61,0,0,0-3.8,7.87c1.2.2,1.08,2,.64,3.11l-1.89,4.84,2.28.15a4.37,4.37,0,0,1-3.37,5.06c.73.65,1.45,1.31,2.17,2-.1,2-2.54,3.37-2.55,5.39,0,1.26.93,2.31,1.83,3.2a13.7,13.7,0,0,0,4.42,3.3,4.93,4.93,0,0,0,5.2-.71c1.14-1.11,1.51-2.92,2.86-3.77a13,13,0,0,1,2.92-.88c2.76-.91,4.13-4,4.75-6.81.33-1.53,1.64-3.59,2.88-2.63a2.31,2.31,0,0,1,.58,1.92q-.06,3.24-.1,6.48c0,.36,0,.72,0,1.07l2.45-6.44a5.17,5.17,0,0,1,1.31-2.19,2.3,2.3,0,0,1,2.12-.49,18.09,18.09,0,0,1,2.31-11.2c-1-.54-2.59-1.64-2.45-3.32a3.81,3.81,0,0,1,.33-1.19,3.17,3.17,0,0,0,.26-.83,3.61,3.61,0,0,0-.69-2.13c-.19-.36-.39-.71-.54-1.08a3.08,3.08,0,0,1,.33-2.88,1.58,1.58,0,0,1,.77-.55,8,8,0,0,1,.71-5.49A4.84,4.84,0,0,1,165,86a26.75,26.75,0,0,1,3.69-.29,2.4,2.4,0,0,0,2.1-1.52l-3.16-3.48.65-.28a5.65,5.65,0,0,0,3.3-4,13.43,13.43,0,0,0,.17-1.92,6.53,6.53,0,0,1,.93-3.86,7.47,7.47,0,0,1,2.13-1.74c1-.64,1.9-1.19,2.07-2.14,0-.14,0-.29,0-.43a3.06,3.06,0,0,1,.16-.91,3.31,3.31,0,0,1,2.1-1.66c.87-.37,1.4-.63,1.44-1.13a1.82,1.82,0,0,0-.26-.88,3.61,3.61,0,0,1-.34-1c-.24-1.65,1.44-2.7,2.56-3.39A3.13,3.13,0,0,0,184,55.52a.77.77,0,0,0-.16-.65l-.5-.61.75-.2a4,4,0,0,1,2.67.25,4.43,4.43,0,0,0,1.94-2.93l.12-.77.65.44a.58.58,0,0,0,.52.06,1.6,1.6,0,0,0,1-.9,6,6,0,0,0,.33-1.18,6,6,0,0,1,.46-1.56,2.53,2.53,0,0,1,1.68-1.3,2,2,0,0,1,.17-2.55,1.53,1.53,0,0,1,1.23-.4,3.85,3.85,0,0,1,2.36,1.59l.15.2a9,9,0,0,0,1.86,2,2.71,2.71,0,0,0,2.5.47l.32-.14.23.25a2.13,2.13,0,0,0,1.85.62,4.93,4.93,0,0,0,1.32-.53,9.6,9.6,0,0,0,3.13-2.18,2.9,2.9,0,0,0,.46-3.19l-.13-.2a2.22,2.22,0,0,1-.38-.7,2.29,2.29,0,0,1,.1-1.35,11.94,11.94,0,0,1,1.85-3.6l.52-.7.34.8a1.39,1.39,0,0,0,1.06.77,1.37,1.37,0,0,0,1.26-.35,3.44,3.44,0,0,0,.28-.36,3.69,3.69,0,0,1,.43-.53,2.19,2.19,0,0,1,2.37-.41l.24.11.27,1.49a2.31,2.31,0,0,1,2.1,1.22,3.81,3.81,0,0,1,.42,1.65A10.19,10.19,0,0,1,224,38.09,8.89,8.89,0,0,1,223.36,32.22Z"/><path class="cls-1" d="M206.55,66.68a2.87,2.87,0,0,0-.49-.26,2.37,2.37,0,0,1-1.05-.73,2.29,2.29,0,0,1,.07-2.32,3.28,3.28,0,0,0,.32-1.14,2.75,2.75,0,0,0-.79-1.55,7.53,7.53,0,0,1-.64-.92,6.79,6.79,0,0,1-.6-1.6l-.1-.33a14.42,14.42,0,0,0-3.08-5.52,13.89,13.89,0,0,1-4.14-3c-.66-.65-1.3-1.35-1.91-2.06l0,0a.48.48,0,0,0-.48-.13,1.49,1.49,0,0,0-1,.78,5.14,5.14,0,0,0-.38,1.31,7,7,0,0,1-.39,1.37,2.58,2.58,0,0,1-1.6,1.47,1.78,1.78,0,0,1-.72.06A5.34,5.34,0,0,1,187,55.32l-.25.14-.24-.14a3,3,0,0,0-1.56-.38,2,2,0,0,1,0,.74,4.07,4.07,0,0,1-1.9,2.47c-1.19.74-2.24,1.48-2.1,2.4a2.52,2.52,0,0,0,.26.72,2.6,2.6,0,0,1,.35,1.38c-.1,1.15-1.14,1.58-2.05,2-.7.29-1.36.57-1.56,1.09a2.25,2.25,0,0,0-.09.62,3.31,3.31,0,0,1-.06.54c-.24,1.39-1.4,2.12-2.51,2.82a6.63,6.63,0,0,0-1.86,1.49,5.68,5.68,0,0,0-.74,3.29,13.19,13.19,0,0,1-.19,2.08A6.57,6.57,0,0,1,169.26,81l2.53,2.79V84c-.05,1.48-1.54,2.46-3,2.66a32.05,32.05,0,0,0-3.57.27,3.87,3.87,0,0,0-2.38,2,7.17,7.17,0,0,0-.46,5.31l.23.76-.79-.12a.53.53,0,0,0-.55.23,2.12,2.12,0,0,0-.19,1.88,10,10,0,0,0,.5,1,3.52,3.52,0,0,1,.48,3.81,3.39,3.39,0,0,0-.27.9c-.07.9.71,1.75,2.39,2.6l.5.24-.3.47a17,17,0,0,0-1.93,13.55l.08.3c.47,1.61,1.05,3.61-.14,5l-.48.57-.35-.65a9.7,9.7,0,0,1-.86-6.71,1.32,1.32,0,0,0-1.23.28,4.24,4.24,0,0,0-1,1.79l-2.82,7.38-.32-.13a2.47,2.47,0,0,0,.1.29,11,11,0,0,0,1.25,1.58c3.16,4-.35,10.67,2.75,14.74a3.32,3.32,0,0,1,.76,1.25c.18.85-.49,1.61-.88,2.38-1,2-.15,4.26.68,6.27a7.26,7.26,0,0,0,2.19,3.37c1.11.79,2.94.73,3.58-.47s-.16-2.66.25-3.93a4.35,4.35,0,0,1,1.29-1.73c1.18-1.12,3.26-2.2,4.2-.86.28.4.37.95.79,1.2.7.42,1.49-.37,1.9-1.08a34.44,34.44,0,0,0,4.27-21.4l2.07,1.07a5.72,5.72,0,0,1,1.62-2.4,2,2,0,0,1,2.65.11,3.08,3.08,0,0,0,.59-3.33l3.49-2a13.26,13.26,0,0,1-1-4.81c-4.21-.3-6.34-5.4-6.18-9.62a20.67,20.67,0,0,1,2-8.16,3.6,3.6,0,0,1-2.78-1.48,20.84,20.84,0,0,0,10.92-6.71c1.14-1.34,2.44-3,4.19-2.82a16.42,16.42,0,0,0,2-9c-.14-2.35-.72-5,.7-6.85,1.82-2.38,5.47-1.84,8.37-1a7,7,0,0,1-.06-2.61C207.18,68,207.22,67.14,206.55,66.68Z"/><path class="cls-1" d="M161.58,120.1l-.08-.3,0-.08a8.7,8.7,0,0,0,.57,3.67A7.2,7.2,0,0,0,161.58,120.1Z"/><path class="cls-1" d="M47.8,140.59c-.22,1.68-2.26,2.34-3.93,2.64a3,3,0,0,0,3.2,2.11,4.11,4.11,0,0,1-4.7,6,2.23,2.23,0,0,0,1.44,2.51c-1.79,1-4.52-1.2-5.93.31a3.18,3.18,0,0,0-.36,2.76c.2,1.09.5,2.33,1.48,2.87,1.14.62,2.72,0,3.77.73a9.64,9.64,0,0,1,1,1c1.54,1.43,4,.42,5.74-.8s3.5-2.51,5.7-1.92c1.63.44,2.84,1.77,4.64.75a7.39,7.39,0,0,0,2.25-2.4,5.78,5.78,0,0,0,1.27-2.75c.1-1.21-.53-2.39-.39-3.59a5.94,5.94,0,0,1,.51-1.56,9.33,9.33,0,0,1,2.8-4.11c.58-.41,1.34-.81,1.35-1.52s-.61-1.18-.43-1.77.93-.71,1.34-1.15c.69-.73.07-2-.85-2.44a7.72,7.72,0,0,0-3-.27,8.43,8.43,0,0,1-3.25-.7,2.92,2.92,0,0,0,2-1.37,22,22,0,0,0-6-.07,4.1,4.1,0,0,0-2.36.89,1.59,1.59,0,0,0-.1,2.27c1.09.88,1.47,2.59-.53,3.12-1.45.39-2.11-1.19-2.94-2.13C49.86,138.16,48.23,137.4,47.8,140.59Z"/><path class="cls-1" d="M56.06,32c.58-1.54.71-3.69-.77-4.41l-1,5.14a17,17,0,0,1-3-5.24l-.18,3.25a5.57,5.57,0,0,0-2.44-1.48,2,2,0,0,0-2.32,1.18c1.18.2,2.52.5,3.13,1.53s-.44,2.77-1.5,2.21a9.26,9.26,0,0,0,4.29,1.93c.27,1.7-2.25,2.49-3.8,1.75s-2.7-2.23-4.35-2.73c-.56-.17-1.39,0-1.43.55a.93.93,0,0,0,.19.57c.74,1.2,2.09,1.87,3.12,2.83s1.73,2.66.83,3.75a3.52,3.52,0,0,1-1.35.88L38.3,46.92l6.33.34a3.09,3.09,0,0,1,1.59.38,3.23,3.23,0,0,1,1,2.37c.35,2.67,1.48,5.81,4.12,6.29a17.4,17.4,0,0,1,2.91.27c.84.29,1.47,1,2.3,1.34a4.33,4.33,0,0,0,4-.95,21.59,21.59,0,0,1,3.42-2.51c3-1.39,7.24,0,9.42-2.48,2.65-3-.7-8.55,2-11.54-1.89-1.78-5,.91-7.51.09a9,9,0,0,1-2.39-1.66,7.75,7.75,0,0,0-9.06,0C54.19,37,55.2,34.3,56.06,32Z"/><path class="cls-1" d="M121.71,264a2.19,2.19,0,0,0,.52,1.13c.31.3.79.46.91.88s0,.63.11.9c.31.53,1.12,0,1.38-.55a5.48,5.48,0,0,0,.54-2.49,3.17,3.17,0,0,1,.2-1.79c.35-.57,1.09-.76,1.62-1.18,2.09-1.62.09-5.14-2.31-4.59C121.65,257,121.18,261.68,121.71,264Z"/><path class="cls-1" d="M118.26,276.77c.65.2,1.26,1,.88,1.53-.23.36-.74.45-1,.8a1.59,1.59,0,0,0-.23.64c-.31,1.69-.63,3.38-.94,5.06a.89.89,0,0,0,0,.56c.13.29.51.35.83.37.82,0,1.83,0,2.2-.72.2-.38.22-.94.62-1.08a.8.8,0,0,1,.46,0,2.73,2.73,0,0,1,2,2.46c.84-1,1.74-2.17,1.64-3.48,0-.51-.23-1-.31-1.51a7.33,7.33,0,0,1,.16-2.42,20.93,20.93,0,0,1,.73-3.88c.42-1,1.69-2,1.89-3,.38-1.95-.76-2.59-2.38-2.66s-4.27,1-5.72,1.5c-2.8,1-2.95,2.31-2.8,5.37A15.47,15.47,0,0,0,118.26,276.77Z"/><path class="cls-1" d="M141.89,297.89a1.69,1.69,0,0,0,.48.67,2.18,2.18,0,0,0,1,.31,9.27,9.27,0,0,1,6.3,4.09,2.6,2.6,0,0,0,.62.77,3,3,0,0,0,1.76.22c1.66,0,3.5,1.08,3.58,2.74,0,.45,0,1,.36,1.24a1.08,1.08,0,0,0,.86,0c1.57-.5,3.44-1.37,3.51-3a10.83,10.83,0,0,0-.35-1.94c-.41-3.05,3.42-5.34,3.31-8.41-2.15,0-4,2.46-6,1.82-.43-.13-.81-.4-1.25-.53-1.51-.45-3.42.37-5,.24a21.79,21.79,0,0,1-3.95-1.11C144.43,294.24,139.9,293.66,141.89,297.89Z"/><path class="cls-1" d="M82,273.4a8.32,8.32,0,0,0-5.4.67,6.71,6.71,0,0,1,5.86,2.34c.49-.64,1-1.56.45-2.17-.38-.44-1.25-.83-.89-1.29"/><path class="cls-1" d="M223.79,295.14a3.41,3.41,0,0,0,2.56,1.39,54.12,54.12,0,0,0-6.35-6c-1-.81-3.75-.19-4.93.18a15.87,15.87,0,0,0,3.66,1C221.12,292.27,222.15,293.35,223.79,295.14Z"/><path class="cls-1" d="M274.62,232.58c.76,1.77-1.17,3.85-.43,5.63a3.34,3.34,0,0,0,3.35-1.35,8.77,8.77,0,0,1,1-1.57,3.5,3.5,0,0,1,1-.59l5.74-2.78c0-.55-.09-1.1-.13-1.65a28,28,0,0,0,5.1-1.2,2.85,2.85,0,0,0,1.36-.78,1.07,1.07,0,0,0,0-1.44c-.49-.42-1.24-.11-1.82.17a12.08,12.08,0,0,1-6.29,1.16,3.29,3.29,0,0,1-1.45-.38c-2.66-1.55-3.14-3.58-6.7-2.49a34.44,34.44,0,0,0-6.51,2.57C262.9,231.14,273.64,230.32,274.62,232.58Z"/><path class="cls-1" d="M147.85,137.06a28.21,28.21,0,0,0-3.49,1.5,8.22,8.22,0,0,0,3.84,1.27,1.5,1.5,0,0,0,.18.78.53.53,0,0,0,.68.22.77.77,0,0,0,.21-.23,5.9,5.9,0,0,0,.92-3.77,5,5,0,0,0-4,.44"/><path class="cls-1" d="M154.05,153a2.61,2.61,0,0,1-.84.78.9.9,0,0,1-1.06-.13c-.27-.3-.2-.76-.26-1.16s-.42-.86-.78-.68a.73.73,0,0,0-.27.28c-.27.37-.53.75-.79,1.12a2,2,0,0,0-.37.77,1.8,1.8,0,0,0,.22.93c.42.95,1,2,2,2.28a2.57,2.57,0,0,1,.67.19.86.86,0,0,0,.29.14.53.53,0,0,0,.4-.18,9.57,9.57,0,0,0,3.3-7.11C155.49,150.63,154.74,152.16,154.05,153Z"/><path class="cls-1" d="M146,154.49a.91.91,0,0,0-1.18.62,1.48,1.48,0,0,0,.43,1.38,4.18,4.18,0,0,0,1.28.82l.91.44a1.08,1.08,0,0,0,.69.17c.6-.12.6-1,.35-1.54a3,3,0,0,0-1.43-1.6,1.7,1.7,0,0,0-2,.38"/><path class="cls-1" d="M151.06,161a2.43,2.43,0,0,0-2.54-1.43,7.14,7.14,0,0,0,3.36,2.3,1.3,1.3,0,0,0-1-1.32"/><path class="cls-1" d="M206.7,129.21l-3.47,2.26a2.14,2.14,0,0,0-.78.71.74.74,0,0,0,.16.95,1.09,1.09,0,0,0,1-.09l2.3-1a2.8,2.8,0,0,0,1.4-1,1.17,1.17,0,0,0-.11-1.36.86.86,0,0,0-1.28.07"/><path class="cls-1" d="M279.83,30c.48.65,1.34.9,1.85,1.53s.73,1.31,1.38,1.26.84-.91,1-1.54a19.29,19.29,0,0,1,.91-1.89,2.2,2.2,0,0,0,0-2c-.53-.85-1.8-.89-2.54-1.58-.3-.28-.5-.65-.79-.95a2.45,2.45,0,0,0-2-.7C280,25.85,278.74,28.58,279.83,30Z"/><path class="cls-1" d="M76.45,112.76a10.16,10.16,0,0,1-2,1.12c-1.19.59-2.44,1.7-2.15,3a4.93,4.93,0,0,1,3.65-1.17,1.27,1.27,0,0,0,.67-.12,1.32,1.32,0,0,0,.5-.75c.2-.52.39-1,.58-1.55a3.07,3.07,0,0,0-1.56.61"/><path class="cls-1" d="M74,147.87a4.29,4.29,0,0,0-1.69,1.91,4.89,4.89,0,0,0,1.83,0,1.64,1.64,0,0,0,1.23-1.24,10,10,0,0,1-1.73-.09"/><path class="cls-1" d="M73.81,119.11a1.24,1.24,0,0,0,.19.76c.44.92.89,1.83,1.33,2.74a3.73,3.73,0,0,0-.16-2.23,2.45,2.45,0,0,0-.54-1.15.87.87,0,0,0-1.16-.14"/><path class="cls-1" d="M87.48,271.39a1.7,1.7,0,0,0,1.32,2.54,1.8,1.8,0,0,1,1,.06c.26.14.39.45.64.59.6.34,1.26-.58,1-1.21a2.53,2.53,0,0,0-1.66-1.13c-.45-.14-1-.35-1.1-.81a3.24,3.24,0,0,0-.12-.62.67.67,0,0,0-1-.19,1.5,1.5,0,0,0-.58.9"/><path class="cls-1" d="M70.55,276.34l-4.29,4.39a9.39,9.39,0,0,0,3.65-.72,3.2,3.2,0,0,0,1.92-3,5.12,5.12,0,0,0-2.81.76"/><path class="cls-1" d="M92.53,111.54a8,8,0,0,0-.85,2l1.65,0a1.4,1.4,0,0,0-1-1.71"/><path class="cls-1" d="M360.68,152.26a.8.8,0,0,0,.22.27C360.83,152.43,360.75,152.35,360.68,152.26Z"/><path class="cls-1" d="M218.32,302.75l-.48-.39A2,2,0,0,0,218.32,302.75Z"/><path class="cls-1" d="M237.08,89.64,229,85.73l.83-2.51.56.47a1,1,0,0,0,1.05,0,1,1,0,0,0,.59-.87,2.81,2.81,0,0,0-1-1.53l-.08-.07a18.1,18.1,0,0,1-4.25-6.7,5,5,0,0,1-.39-2.29,6,6,0,0,1,.41-1.42,7.18,7.18,0,0,0,.3-.89,5,5,0,0,0-.38-2.91,10.11,10.11,0,0,0-3.47-4.44l-.1-.08a3.3,3.3,0,0,1-.88-.8,3,3,0,0,1-.43-1.14,7.54,7.54,0,0,1,.51-4.47l.16-.34a3,3,0,0,0,.39-1.24c0-.84-.87-1.54-1.63-2.16-2.57-2.07-3.94-4.27-4.07-6.52a6.83,6.83,0,0,1,1.64-4.69,4.43,4.43,0,0,0-.31-2.15c-.27-.49-.94-.87-1.4-.63l-.61.33-.37-2.16a1.16,1.16,0,0,0-1,.29,2.47,2.47,0,0,0-.32.39,5.32,5.32,0,0,1-.36.47,2.4,2.4,0,0,1-2.17.64,2.43,2.43,0,0,1-1.34-.68,11,11,0,0,0-1.29,2.73,1.41,1.41,0,0,0-.1.76,1.85,1.85,0,0,0,.24.42l.16.24a3.86,3.86,0,0,1-.53,4.34,10.31,10.31,0,0,1-3.45,2.45,5.45,5.45,0,0,1-1.61.62,3.05,3.05,0,0,1-2.5-.68,3.73,3.73,0,0,1-3.15-.69,10,10,0,0,1-2.08-2.23l-.15-.2a2.94,2.94,0,0,0-1.66-1.2.59.59,0,0,0-.46.15c-.52.46.05,1.52.55,2.12a26.17,26.17,0,0,0,2,2.12,12.64,12.64,0,0,0,3.93,2.84l.17.12a15.65,15.65,0,0,1,3.37,6l.1.35a5.88,5.88,0,0,0,.51,1.37,6.47,6.47,0,0,0,.56.8,3.57,3.57,0,0,1,1,2.18,4.16,4.16,0,0,1-.39,1.5c-.26.65-.41,1.06-.19,1.36a1.62,1.62,0,0,0,.65.41,4.22,4.22,0,0,1,.66.35c1.2.84,1,2.3.9,3.59a4.55,4.55,0,0,0,.19,2.6l-.26.15a4.87,4.87,0,0,1,2.64,1.62c1.28,1.77.28,4.24-1,6a25.06,25.06,0,0,1-3.52,4,7.72,7.72,0,0,0-1.43,1.54,11.65,11.65,0,0,0-1,2.79,8.15,8.15,0,0,1-5.6,5.29,39.51,39.51,0,0,1,0,12.93c-.39,2.31-.76,5.19,1.16,6.52a27.39,27.39,0,0,0,2.67,1.13c.86.46,1.53,1.59,1,2.38,1.32,0,2.2,1.29,3.08,2.27s2.57,1.72,3.41.7c.45-.54.41-1.35.83-1.91.61-.84,1.86-.76,2.86-1.05a9.45,9.45,0,0,0,2.3-1.23,15,15,0,0,1,7.71-2.28c.25-1.54,2-1.89,3.69-1.72l-.45-.26,4.65-8.08a3.06,3.06,0,0,1,1.07-1.22,4.61,4.61,0,0,1,.8-.32,2.14,2.14,0,0,0,.72-.31.64.64,0,0,0-.15-.26,1.74,1.74,0,0,1-.31-.61,1.59,1.59,0,0,1,.28-1.16,46.49,46.49,0,0,1,3.5-5.44,5.68,5.68,0,0,1,2.18-1.87C239.13,90.72,237.59,89.89,237.08,89.64Z"/><path class="cls-1" d="M231.7,145.85a4.49,4.49,0,0,1-.09-2.12c.1-.91.14-1.48-.28-1.79l-.19-.13a1.54,1.54,0,0,1-.64-.61,1.55,1.55,0,0,1,.06-1.26,3.29,3.29,0,0,0-1-3.69l-.06.17c-1.53-.51-2.9-.89-4.15-.48a6.91,6.91,0,0,0-1.08.5,8.67,8.67,0,0,1-1,.47,3.21,3.21,0,0,1-1.24.26,2.1,2.1,0,0,1-1.45-.48,3.12,3.12,0,0,1-.74-1,2.52,2.52,0,0,0-.5-.75,1.9,1.9,0,0,0-1.45-.21c-.21,0-.42.1-.63.15a6.67,6.67,0,0,1-1.36.24,5.91,5.91,0,0,1-1-.11,18,18,0,0,1-2.09,8.12c-2-.14-3.33-2.1-4.46-3.78s-2.9-3.45-4.86-2.95c-2.76.7-2.6,4.66-4.05,7.11a16.32,16.32,0,0,0-1.43,2.27,4.84,4.84,0,0,0-.23,1.25h0c.4.34,1.18,0,1.73-.48s1.72-1.36,2.82-.94a3,3,0,0,1,.7.44,3,3,0,0,0,.39.27c.6.29,1.33-.15,2.1-.62.25-.15.51-.31.75-.43,1.88-1,4.15-.6,5.81-.33,3.33.54,6.5,1.23,8.54,3.57l.08.09c.2.23.38.45.58.5a1.26,1.26,0,0,0,.43,0,2.49,2.49,0,0,1,.54,0,2.69,2.69,0,0,1,1.92,1.49,2.85,2.85,0,0,0,1,1.1,2.49,2.49,0,0,0,1.85-.31,5.69,5.69,0,0,1,1.58-.49,5.58,5.58,0,0,1,.82,0,2.06,2.06,0,0,0,1.13-.16c.45-.29.47-1,.5-1.73l0-.61a2.63,2.63,0,0,1,1-1.74A2.41,2.41,0,0,1,231.7,145.85Z"/><path class="cls-1" d="M211.1,132a4.88,4.88,0,0,0,1.82-1.14c1-.52,1.84.93,2,2,0,.35,0,.7.06,1.06a5.06,5.06,0,0,0,1,.12,5.4,5.4,0,0,0,1.14-.21c.23-.06.46-.12.7-.16a2.67,2.67,0,0,1,2.28.43,3.47,3.47,0,0,1,.74,1.05,2.44,2.44,0,0,0,.49.74A1.75,1.75,0,0,0,223,136c.3-.12.58-.28.87-.43a7,7,0,0,1,1.24-.57,6.45,6.45,0,0,1,3.85.19l.11-.07a3,3,0,0,0,1.19-3.51l-.09-.21a2.46,2.46,0,0,1-.27-.94,2.38,2.38,0,0,1,0-.56,1.36,1.36,0,0,0,0-.38,1.54,1.54,0,0,0-.37-.66,2.47,2.47,0,0,1-.21-.27,4.91,4.91,0,0,1,0-5l.16-.29a3.1,3.1,0,0,0,.46-1.12,1.4,1.4,0,0,0-.9-1.45l.18-.51c-2.33,1.42-5.52,1.54-8.38,1.55-3.68,0-8,.39-10,3.48l1.55,1A6.65,6.65,0,0,0,211.1,132Z"/><path class="cls-1" d="M403.49,130.9c-3.1-2.4-8.33,3.42-11,.57a2.54,2.54,0,0,1,.54-3.76,7.83,7.83,0,0,0-6.6,3.65A30.58,30.58,0,0,1,381,115.55a5.33,5.33,0,0,1-2.29-4.47c-.24,3-3.15,5.07-5.76,6.64a5.16,5.16,0,0,1-1.8.79,2.54,2.54,0,1,1,1.81-3.77c.22-2.13.44-4.27.65-6.4a2.8,2.8,0,0,0-.07-1.32c-.6-1.57-2.89-1-4.51-.55a8.47,8.47,0,0,1-8.95-3.52l2.57-.38a15.45,15.45,0,0,1-2.44-10.46c.23-1.77,1.21-4.18,0-5.52a1.28,1.28,0,0,1-1.18.45c-1.15-1.94-1.32-4.45-2.89-6.07-.55-.56-1.23-1-1.83-1.47a7.93,7.93,0,0,1-2.83-6.15,3.48,3.48,0,0,0-.1-1.29c-.31-.8-1.25-1.12-2-1.58s-1.32-1.54-.69-2.12c-.75-2.51-2.83-5.94-3.58-8.45a9.27,9.27,0,0,0-1.66-3.55c-1-1.15-2.57-1.71-3.77-2.67-2.15-1.72-3-4.51-4.17-7s-3-5.09-5.71-5.43a4.65,4.65,0,0,1,3.94.2,10.42,10.42,0,0,1,.73-9.74c.83-1.29,2-2.78,1.34-4.16-.38-.81-1.3-1.23-1.83-2-1.11-1.53-.17-3.64.73-5.31s1.67-3.91.35-5.27c.94-2.18-2.1-5.3-4.08-4a5.45,5.45,0,0,0-7.11-3.49,3.21,3.21,0,0,1-2.25-3.7L316.15,4a9.66,9.66,0,0,0-3.93.71,3.3,3.3,0,0,0-2,3.18c.22,1.55,1.78,2.48,2.78,3.68s.93,3.66-.64,3.72c2.27.46,2.73,4.24.65,5.23a5.08,5.08,0,0,1-3.06-6A6.38,6.38,0,0,0,308.12,22l-4.22,0a18.64,18.64,0,0,0-.95,4.21,5,5,0,0,1-2.15,3.6c-1.26.7-3.25.06-3.39-1.38s1.79-3.21.82-4.46A1.8,1.8,0,0,0,297,23.4a3.37,3.37,0,0,0-3.53,3.86c.35,1.63,1.73,3.77.26,4.56-1.16.62-2.33-.8-2.88-2l-3.78,5.76a3.52,3.52,0,0,0-.63,1.36,3.62,3.62,0,0,0,.32,1.64c1,2.61,1.42,6.17-1,7.61s-6-.55-8.16,1.31a5.52,5.52,0,0,1-2.35-5.36c2.05,0,4.63-.36,5.23-2.32-3.61-2.69-8.66-5.22-12.3-2.58a10.46,10.46,0,0,0,2.38,2.21c2.77,2.51,2.48,6.86,2,10.56,1.69-.5,3.89-.85,4.92.58,1.24,1.71-.15,4.81,1.69,5.83a6,6,0,0,0-5.12-.68c-.15-.86-.31-1.72-.46-2.58-1.93-.38-3.7,1.23-4.71,2.92s-1.68,3.67-3.19,4.94c-1.27,1.06-3.27,2.07-2.86,3.67a3.36,3.36,0,0,1,3.63,3.65,9,9,0,0,1,5.14,4.3c-4.71-.79-11.1-.58-15.72-1.77l-1,2.5c3.4.36,7.71,1.61,7.92,5a1.55,1.55,0,0,1-.41,1.27,1.72,1.72,0,0,1-1.16.3,10.37,10.37,0,0,1-5.57-1.65c-1.24-.81-3.21-1.72-3.86-.39A10.22,10.22,0,0,1,247,70.79c-.23-1.48-.15-3.07-.84-4.41s-2.62-2.2-3.71-1.16c.32-1.54-1.63-2.45-3.15-2.84s-3.4-1.6-2.79-3c.45-1.07,2-1.17,3-.63s1.81,1.46,2.84,2c3.29,1.74,7.81-1.13,10.89.95a14.88,14.88,0,0,0,2,1.48c1.38.6,3-.14,4.09-1.19s1.84-2.41,2.93-3.45,2.92-2,3.52-3.57a6.45,6.45,0,0,0,.09-3.18c-.41-2.92-1.78-6.65-4.71-6.42a21.71,21.71,0,0,0-2.34.6c-3.55.69-6.12-3.28-9.43-4.72-3.93-1.7-8.57.32-12.72-.72-3.12-.78-6.08-3.27-9.16-2.34a4.47,4.47,0,0,0-2.33,1.67,8.44,8.44,0,0,1-.61-.83,9.26,9.26,0,0,0-4.45,2.16,6.1,6.1,0,0,0-2,4.64c.12,2,1.36,3.9,3.71,5.8.89.72,2,1.61,2,2.93a3.75,3.75,0,0,1-.49,1.66l-.15.33a6.59,6.59,0,0,0-.44,3.87,2.17,2.17,0,0,0,.27.76,2.55,2.55,0,0,0,.64.56l.11.08a11.13,11.13,0,0,1,3.8,4.88,5.82,5.82,0,0,1,.43,3.51,6.42,6.42,0,0,1-.34,1,5.61,5.61,0,0,0-.35,1.18,4.29,4.29,0,0,0,.34,1.84,17.19,17.19,0,0,0,4,6.32l.07.07A3.62,3.62,0,0,1,233,82.76a2,2,0,0,1-1.13,1.84,2.08,2.08,0,0,1-1.53.18l-.15.43,7.3,3.53c2,1,2.87,2.22,2.49,3.48l-.08.26-.26.08a4.32,4.32,0,0,0-2,1.62,46.71,46.71,0,0,0-3.41,5.33,1,1,0,0,0-.18.44,1.11,1.11,0,0,0,.15.23,1.63,1.63,0,0,1,.32.66c.16,1-.81,1.28-1.39,1.47a3.8,3.8,0,0,0-.63.23,2.1,2.1,0,0,0-.68.85l-4.56,7.91a10,10,0,0,1,1,.23l1.76.52c.11.72.23,1.43.35,2.14a9,9,0,0,1,9.3,1.52,18.79,18.79,0,0,0-8.67,2.9,6.4,6.4,0,0,1-1.32,1.28,2.45,2.45,0,0,1,1.27,2.39,4.23,4.23,0,0,1-.58,1.47l-.15.28a3.94,3.94,0,0,0-.12,4l.18.24a2.29,2.29,0,0,1,.59,1.16,2.68,2.68,0,0,1-.05.66,1.56,1.56,0,0,0,0,.35,1.78,1.78,0,0,0,.18.57l.11.25a4,4,0,0,1-.94,4.23,4.27,4.27,0,0,1,1.3,4.76c-.07.22-.16.46-.12.54a.89.89,0,0,0,.26.2,1.67,1.67,0,0,1,.28.18c.89.68.77,1.75.66,2.7a3.62,3.62,0,0,0,0,1.65c.27.71,1.15,1.09,1.89,1.34a21.58,21.58,0,0,0,3.45.89,23.27,23.27,0,0,0,4.69,1.1,2.27,2.27,0,0,1,1.51-1.15,2.19,2.19,0,0,1,2.2.62l.1.11,0,.14a59.82,59.82,0,0,0,1.53,7c.32,1.13.74,1.72,1.28,1.79a2.17,2.17,0,0,0,.36,0,2.13,2.13,0,0,1,.81.08,2.15,2.15,0,0,1,1.17,1.35,3,3,0,0,0,.31.6,3.21,3.21,0,0,0,1.11.83l4.93,2.68a1.51,1.51,0,0,1,.94,1.94,8.24,8.24,0,0,1-1.69,4.09,7.51,7.51,0,0,1-.72.66,7.81,7.81,0,0,0-.67.62,3.05,3.05,0,0,0-.72,2.32,3.09,3.09,0,0,0,1.09,2.18,6.74,6.74,0,0,0,.62.42,7.79,7.79,0,0,1,.77.55,37.74,37.74,0,0,1,5.06-1.16c.51-.08,1-.15,1.54-.18a13.27,13.27,0,0,1,5,.63l.36.12-.24,4.94a2.13,2.13,0,0,0,.09.92c.2.45.83.65,1.33.73a6.71,6.71,0,0,0,2.64-.08l.39-.1a4.25,4.25,0,0,1,1.86-.18c1,.19,2.17,1,2.51,3.84,1.5-.09,3,0,4,1.07a3.37,3.37,0,0,0,1.21-.76c.15-.12.29-.25.44-.36a2.82,2.82,0,0,1,2-.6,1.47,1.47,0,0,1,1,.59,2.6,2.6,0,0,1,.23.4,1.06,1.06,0,0,0,.17.28,1.16,1.16,0,0,0,.28,0,2.06,2.06,0,0,1,.58-.05,1.78,1.78,0,0,1,1.26,1,1.52,1.52,0,0,0,.48.58c.26.15.6,0,1.14-.19.21-.09.43-.17.64-.24a1.81,1.81,0,0,1,1.89.75l.09.19a19.65,19.65,0,0,1,10.71,1.15,1.79,1.79,0,0,1,.77.47c.75.86,0,1.77-.54,2.44a5.46,5.46,0,0,0-.44.57,2.54,2.54,0,0,0,.13,2.42,10.62,10.62,0,0,0,.68,1.16,11.44,11.44,0,0,1,.85,1.5,5.85,5.85,0,0,1,.21,4.1,2.53,2.53,0,0,1-1.78,1.65,1.2,1.2,0,0,1-.73-.1,15.63,15.63,0,0,1-6,3.79,5.3,5.3,0,0,0,.63,3.4,25.56,25.56,0,0,1,5.28-1,2.78,2.78,0,0,1-2.18,2.73c.2.62.41,1.24.62,1.86a2.85,2.85,0,0,1-3.6.15,2.87,2.87,0,0,0-1,1.49,4.09,4.09,0,0,1,2.56,5.15c-.74-.39-1.54.48-1.67,1.3a6.68,6.68,0,0,1-.38,2.42c-.41.72-1.32,1.08-1.62,1.85-.53,1.38,1.21,2.5,2.64,2.87s3.25,1.12,3.12,2.59c3-1.18,7,.72,9.49,3.11a1.66,1.66,0,0,1,.31-.12,2.33,2.33,0,0,1,1.73.27,4.3,4.3,0,0,1,1.4,1.71,3.88,3.88,0,0,0,2.76-3.08l.08-.57.56.17a2,2,0,0,0,2.19-.82l.13-.21h.25c1.16-.07,1.54,1,1.86,1.8a3.84,3.84,0,0,0,.64,1.23,2.65,2.65,0,0,0,2.08.38L332,235c2.5-.19,5.6-.43,8.24.78l.64.3-.5.51s-.07.07,0,.21a.84.84,0,0,0,.67.5,3.37,3.37,0,0,0,1.19-.26,5.8,5.8,0,0,1,.95-.28,7,7,0,0,1,1-.08,3.69,3.69,0,0,0,1.13-.14,3.63,3.63,0,0,0,1.1-.76,5.44,5.44,0,0,1,1.15-.85,2.14,2.14,0,0,1,2.27.35,1.29,1.29,0,0,1,.16.17,1.72,1.72,0,0,1,.4-.14,3.73,3.73,0,0,1,2.93.84l.19.15c.87.71,1.85,1.5,2.68,1.15l.42-.17,1.77,3.18a2.91,2.91,0,0,0,.32-.92,3.67,3.67,0,0,1,.64-1.56c.91-1.06,2.52-.83,4.32.63a3.36,3.36,0,0,0,2.31.88.69.69,0,0,0,.52-.35l1-1.72-.09,2a.86.86,0,0,0,.29.64.82.82,0,0,0,.66.25.92.92,0,0,0,.74-1.07,2.37,2.37,0,0,0-.13-.34,1.91,1.91,0,0,1-.22-1,2,2,0,0,1,1.17-1.4c.35-.21.68-.41.73-.65a1.27,1.27,0,0,0-.22-.68,4.46,4.46,0,0,1-.22-.5,1.5,1.5,0,0,1,.25-1.39c-2.79-1.49-5.83-2.62-8.06-4.85a10.28,10.28,0,0,1-1.73-2.26c-1.12-2-1.62-4.24-2.91-6.09s-3.9-3.14-5.8-1.93q.5-6.77,1-13.52a4.63,4.63,0,0,1,2.74.9l3.87-6.74a3.63,3.63,0,0,1-3.42-3.56l3,.34a36.27,36.27,0,0,1-8.64-8.4,4.47,4.47,0,0,0-.95,3c-.87.95-2.46-.07-3.05-1.21s-1-2.62-2.27-3c-.72-.21-1.5.06-2.24-.08-1.85-.34-2-3.6-.17-4.09-2.27-2.35-2.51-5.94-2.61-9.22a3.19,3.19,0,0,1,.63-2.49,2.18,2.18,0,0,1,3,.52,6.2,6.2,0,0,1,1,3.25c.58,1.1,2.47.62,2.92-.55a4.24,4.24,0,0,0-.7-3.54,7.6,7.6,0,0,1-1.41-3.41,3.87,3.87,0,0,1,3.06.47c-1.62-1.64-.64-4.4.56-6.36a44.77,44.77,0,0,1,4.78-6.42c.48.83,1,1.66,1.45,2.5a10.46,10.46,0,0,1,4.07-5.73,4.76,4.76,0,0,1,2.06,1.42,1.49,1.49,0,0,1,.86-1.93,4,4,0,0,1,2.71.33l11,4.11-3.08-4,7,1a9.62,9.62,0,0,1,5.42-6.33l1.55.34c-.82-2.77,2.24-5.84,5-5,.17.58.33,1.17.5,1.75a11,11,0,0,1,5-1c0-.74,0-1.47.07-2.21l4.75-1.45C403.07,135.69,405.58,132.52,403.49,130.9Z"/><path class="cls-1" d="M341.59,249.23c.32.17.84-.19,1.18-.62l.16-.21a2.85,2.85,0,0,1,1.73-1.34,2.46,2.46,0,0,1,.77,0l.24,0a5.23,5.23,0,0,0,1.95-.4l3.78-1.28a1.14,1.14,0,0,0,.6-.39l-.15-.13-.2-.18a1.47,1.47,0,0,1,1.66-2.35,2.26,2.26,0,0,1,.64.47,2.48,2.48,0,0,0,.3.25,2.42,2.42,0,0,0,.61.21l3.94,1a2.84,2.84,0,0,0-.13-2.71,1.61,1.61,0,0,1-.39.12l-.34.05-1.77-3.17c-1.22.23-2.34-.68-3.27-1.43l-.19-.16a2.76,2.76,0,0,0-2.06-.64.66.66,0,0,0-.49.39l-.92-.4c0-.05.06-.14-.07-.26a1.13,1.13,0,0,0-1.14-.18,4.49,4.49,0,0,0-.94.7,4.31,4.31,0,0,1-1.43.95,4.23,4.23,0,0,1-1.43.2,5.77,5.77,0,0,0-.85.06,5.52,5.52,0,0,0-.8.24,4.11,4.11,0,0,1-1.57.32,1.86,1.86,0,0,1-1.56-1.13,1.31,1.31,0,0,1-.07-.67c-2.3-.89-4.93-.68-7.28-.5l-6.81.53a3.42,3.42,0,0,1-2.87-.68,4.32,4.32,0,0,1-.86-1.57c-.27-.71-.44-1-.66-1.14a3,3,0,0,1-2.59,1.08,4.89,4.89,0,0,1-3.84,3.49l-.36,0-.17-.32a3.84,3.84,0,0,0-1.21-1.66,1.21,1.21,0,0,0-.7-.16l.12.15c.83,1,1.51,2.23,2.71,2.7a8.93,8.93,0,0,0,3.27.14c2.71,0,5.16,1.54,7.42,3.05a10.17,10.17,0,0,1,3.67,3.43c.79,1.5.63,3.64-.8,4.54,2.66-1.06,5.79-2.09,8.26-.64a5.59,5.59,0,0,0,1.62.85,6.7,6.7,0,0,0,2.16-.24,3.21,3.21,0,0,1,.88,0Z"/><path class="cls-1" d="M364.15,257.46l-.29-.43a3.26,3.26,0,0,0-.68-.85,3.44,3.44,0,0,0-1.85-.52,6,6,0,0,1-1.89-.42l-.11-.05-.07-.1a.82.82,0,0,1-.13-.77,1.28,1.28,0,0,1,.84-.79l.31-.07c.17,0,.36-.08.41-.15a.41.41,0,0,0-.26-.35,1.9,1.9,0,0,0-1.11.19l-1.61.61,1-1.38a.71.71,0,0,0,.11-.63,1.64,1.64,0,0,0-.84-1,5.17,5.17,0,0,0-1.85-.38c-.3,0-.59-.05-.88-.09a1.58,1.58,0,0,1-1-.55.86.86,0,0,1-.14-.68,1.12,1.12,0,0,1,.46-.67l.1-.09a.69.69,0,0,0,.19-.6,1.4,1.4,0,0,0-.59-1,4.07,4.07,0,0,0-2.31-.42,1.78,1.78,0,0,1-.23.1l-3.78,1.28a6,6,0,0,1-2.34.45l-.29,0a2.09,2.09,0,0,0-.49,0c-.42.07-.75.5-1.09,1l-.17.22a3.06,3.06,0,0,1-1.11.89c1.87,1.16,2.78,4.14,1.18,5.83.65,1.15,2.35.66,3.66.49,5.62-.69,9.89,7.55,15.31,5.91a6.86,6.86,0,0,0,3.63-3.14A5.76,5.76,0,0,1,364.15,257.46Z"/><path class="cls-1" d="M384.57,241.67c-4.57.76-7.84-4-11.56-6.8a17.13,17.13,0,0,0-1.77-1.13l-.07.21s0,.26,0,.42a3.39,3.39,0,0,0,.18.39,2.06,2.06,0,0,1,.3,1.31,2.14,2.14,0,0,1-1.19,1.32c-.42.25-.68.42-.7.64a1.12,1.12,0,0,0,.15.49,3.23,3.23,0,0,1,.18.49,1.93,1.93,0,0,1-1.61,2.32,1.86,1.86,0,0,1-1.44-.52,2.12,2.12,0,0,1-.38-.47,1.64,1.64,0,0,1-.5.17,4.36,4.36,0,0,1-3.12-1.09c-.22-.18-2.14-1.69-2.92-.77a2.84,2.84,0,0,0-.44,1.16,5.1,5.1,0,0,1-.32,1,3.78,3.78,0,0,1,.07,4.32l-.19.28-4.63-1.13a3.2,3.2,0,0,1-.91-.34,3,3,0,0,1-.44-.36,1.72,1.72,0,0,0-.37-.29.47.47,0,0,0-.53.75l.12.11a1.33,1.33,0,0,1,.42.5,1,1,0,0,1,0,.65,3.89,3.89,0,0,1,1.87.57,2.43,2.43,0,0,1,1,1.75,1.69,1.69,0,0,1-.5,1.41l-.14.12-.07.06a.61.61,0,0,0,.28.09c.27,0,.55.06.82.09a5.92,5.92,0,0,1,2.21.47,2.64,2.64,0,0,1,1.37,1.68,3.41,3.41,0,0,1,.06.43,1.86,1.86,0,0,1,.84.05,1.46,1.46,0,0,1,.93.93,1.07,1.07,0,0,1-.18,1,1.51,1.51,0,0,1-1,.49l-.21,0a6.91,6.91,0,0,0,1.15.18,3.39,3.39,0,0,1,3.27,1.83c.09.13.17.26.26.38a4.54,4.54,0,0,0,1.76,1.46c.1-.19.2-.38.29-.57.95-2,1.69-4.1,3.2-5.68s4.17-2.35,5.89-1a11.82,11.82,0,0,1,1.22,8.26,18.76,18.76,0,0,1,4.29-.43c-.19-3.67-.05-6.81-.24-10.48C381.23,245.66,381.83,242,384.57,241.67Z"/><path class="cls-1" d="M242.18,224.4l.15-.18a1.7,1.7,0,0,0,1.57,0c.26-.11.52-.24.78-.38a7.13,7.13,0,0,1,1.23-.53,6.92,6.92,0,0,1,2.67-.09c.52.05,1,.1,1.56.19a6.17,6.17,0,0,1,1.29.36,23.61,23.61,0,0,0-4.6-6.08,2.73,2.73,0,0,1-.85-1.2,2.53,2.53,0,0,1,.14-1.43,3.34,3.34,0,0,0,.16-.62,1.86,1.86,0,0,0-1.28-1.71,6.54,6.54,0,0,0-2.68-.24l-.67,0,.16-.65a1.89,1.89,0,0,0-.49-1.76,4.36,4.36,0,0,0-3.65-1.24,14,14,0,0,0-3,.9,15.88,15.88,0,0,1-3.06.91,6.48,6.48,0,0,1,2,1.65c.25.3.48.62.72.94a6.85,6.85,0,0,0,2.39,2.37,4.28,4.28,0,0,0,.43.19,2.64,2.64,0,0,1,1.57,1.17,2.78,2.78,0,0,1,.21.68,1.33,1.33,0,0,0,.16.5,1.43,1.43,0,0,0,.48.32l.27.14c1.46.81,1.91,2.59,2.17,4.22C242,223.4,242.11,223.9,242.18,224.4Z"/><path class="cls-1" d="M254.88,229.64l-3.41-3.19c0-.45.4-.69.88-.72l-.16-.33-.08.06a3.17,3.17,0,0,0-2.14-1c-.49-.09-1-.14-1.48-.19a4.49,4.49,0,0,0-3.35.52c-.29.15-.58.3-.88.42a3,3,0,0,1-1.95.12c.37,2.68.65,5.37.84,8.05a2.08,2.08,0,0,0,1.92-.34l.34-.22a4,4,0,0,1,2.62-.9,3.84,3.84,0,0,1,1.14.4l2.19,1a21.62,21.62,0,0,0-1.52-3.28Z"/><path class="cls-1" d="M201.59,273.56l.2,0c2.24.35,4.51-.39,6.82-1.25,1.24-.46,2.49-1,3-2.06a5.13,5.13,0,0,0,0-3.22,8.94,8.94,0,0,0-1.37-3.43c-.43-.19-1.13.13-1.66.55-.83.66-1.79,1.43-2.9,1.09l-.43-.14.09-.44c0-.11-.18-.3-.36-.47a2.17,2.17,0,0,1-.69-1,1.86,1.86,0,0,1,0-.66c0-.11,0-.21,0-.29-.05-.36-.45-.55-1.1-.83a4.8,4.8,0,0,1-1.16-.62,4,4,0,0,1-1.06-1.59,5.76,5.76,0,0,0-.44-.86,2.44,2.44,0,0,0-1.84-1,2.47,2.47,0,0,0-2,.68l-.15.18-.08.29-.11,0c-.1.14-.19.29-.29.44-.3.49-.62,1-1,1.46l.24.37a.15.15,0,0,0-.05.11.65.65,0,0,0,.15.45,3,3,0,0,0,.6.47,5.62,5.62,0,0,1,.5.35,5.36,5.36,0,0,1,1.54,2.6,73.33,73.33,0,0,1,2.43,8.73A3.59,3.59,0,0,1,201.59,273.56Z"/><path class="cls-1" d="M197.26,231.22a2.7,2.7,0,0,1,.49-.72,5,5,0,0,1,1.34-.9l.29-.15a9.44,9.44,0,0,0,4.74-6.6c0-.22.07-.44.1-.67a5.47,5.47,0,0,1,1-2.86,5.28,5.28,0,0,1,2.22-1.4,7.84,7.84,0,0,0,1.39-.7,1.87,1.87,0,0,0,.64-1.81.46.46,0,0,0-.45-.4v-.12c-.52-.11-1-.24-1.56-.4-.36-.11-1.45-.45-1.71-1.4a1.13,1.13,0,0,1,0-.18.2.2,0,0,0-.08-.08,2.11,2.11,0,0,0-1.52-.3c-.31.06-.62.14-.92.22A5,5,0,0,1,201,213a5.13,5.13,0,0,1-1.81-.81l-.66-.39c-.6-.31-1.43-.45-1.84,0l-.2.28a1.87,1.87,0,0,1-.65.67,1.89,1.89,0,0,1-1.1.14,1.65,1.65,0,0,0-.44,0c-.48.07-.67.61-.94,1.49a3,3,0,0,1-1.5,2.25,2.73,2.73,0,0,1-1,.16l-3.86.18a2.5,2.5,0,0,1-.21,1.35,3.29,3.29,0,0,1-2.13,1.81,4.47,4.47,0,0,1-1,.14,8.09,8.09,0,0,1-3.33-.89l-.41-.19a8.28,8.28,0,0,0-3.33-1v0a3.55,3.55,0,0,1-2.43,1,1.16,1.16,0,0,0,.09,1.11,4.1,4.1,0,0,0,1.37,1.17l.61.38-.58.44a4.81,4.81,0,0,0-1.77,4.39,2.59,2.59,0,0,1,1.55.63,5.62,5.62,0,0,1,1.27,1.89l1.44,3a2.35,2.35,0,0,0,.39.62,2.31,2.31,0,0,0,1.48.43,6.66,6.66,0,0,1,.91.11,6.54,6.54,0,0,1,1.68.66,6.54,6.54,0,0,0,1.27.54,1.85,1.85,0,0,0,1.5-.24.65.65,0,0,0,.31-.54v-.26l.22-.15A15.16,15.16,0,0,1,197.26,231.22Z"/><path class="cls-1" d="M246.17,249l-.07,0-1.16-1.42a4.2,4.2,0,0,0-4.62-.15l-.3.21a4,4,0,0,1-1,.55c-1.4.49-2.72-.43-3.79-1.18l-.15-.11c-.89-.61-2.06-1-2.7-.51.06,2.37-1.84,4.24-3.68,5a10.28,10.28,0,0,1-3.89.69,24.62,24.62,0,0,1-2.47-.12,76,76,0,0,1-10.91-1.74l-.5-.12.13-.49a4.1,4.1,0,0,0,.09-1.52,5.56,5.56,0,0,1-.85,1.07l-.37.4c-.17.21-.73.93-.48,1.49a2,2,0,0,0,.72.71,4.82,4.82,0,0,1,.68.55c1.22,1.29.74,3.22.19,4.76l-1.66,4.62a3.72,3.72,0,0,1,1.51,1.15l.17.12,0,0a9.89,9.89,0,0,1,1.52,3.79,10.52,10.52,0,0,1,.3,2.11h.25a.21.21,0,0,0,.1.18,1.26,1.26,0,0,0,1,.07l.5-.21a2.24,2.24,0,0,1,2.65,0l.32.19c.83.38,1.84-.09,2.9-.59,1.25-.59,2.67-1.25,3.89-.34a3.17,3.17,0,0,1,.39.34,1.74,1.74,0,0,0,.42.34c.38.17.81-.08,1.47-.51a7.3,7.3,0,0,1,.84-.49,5.69,5.69,0,0,1,2.13-.42l.64,0a4.21,4.21,0,0,0,3.18-1.71,5.23,5.23,0,0,0,.35-.76,4.78,4.78,0,0,1,.7-1.29,2.1,2.1,0,0,1,1.66-.71,1.86,1.86,0,0,1,.34.07,2.24,2.24,0,0,1,.69-.79,4.22,4.22,0,0,1,3.34-.53,11.83,11.83,0,0,1,1.16.34,5.41,5.41,0,0,0,2.85.39c-.23-.32-.46-.64-.67-1-2-3.25-2.62-7.7-.41-10.82A2.26,2.26,0,0,0,246.17,249Z"/><path class="cls-1" d="M210.39,215.13a2.84,2.84,0,0,1-1,2.91,8.69,8.69,0,0,1-1.58.8,3.28,3.28,0,0,0-2.58,3.48c0,.23-.07.47-.1.7a10.47,10.47,0,0,1-5.26,7.31l-.3.16a4,4,0,0,0-1.08.7c-1.25,1.29,0,3.62.92,4.89l4.3,6.23L207,243a9.6,9.6,0,0,1,1.52.37,5.7,5.7,0,0,1,3.6,6.09,74.76,74.76,0,0,0,10.3,1.6,12.73,12.73,0,0,0,5.89-.49c1.63-.67,3.2-2.34,3.05-4.23l0-.21.14-.16c1-1.14,2.81-.71,4.16.22l.15.11c1,.68,2,1.38,2.88,1.06a3.09,3.09,0,0,0,.73-.43l.33-.23a5.23,5.23,0,0,1,5.82.23l.08.08.82,1a14.38,14.38,0,0,0,.27-2.2q.23-4.23.46-8.46a2.33,2.33,0,0,1,.94,3.16c2.12-.06,3.64-2.32,3.68-4.44a7.68,7.68,0,0,0-.29-2.08l-.24.49-2.57-1.23a3.18,3.18,0,0,0-.84-.31,3.12,3.12,0,0,0-2,.75l-.35.23a3.93,3.93,0,0,1-1.92.62,1.89,1.89,0,0,1-1.37-.52l-.13-.14,0-.19c-.24-3.52-.64-7.08-1.19-10.59-.23-1.46-.59-2.9-1.67-3.5l-.22-.12a2.11,2.11,0,0,1-.84-.61,2,2,0,0,1-.34-.9,2.3,2.3,0,0,0-.13-.44c-.16-.33-.59-.5-1.05-.69l-.48-.2a7.84,7.84,0,0,1-2.77-2.69c-.22-.31-.45-.61-.68-.91a4.46,4.46,0,0,0-2.58-1.69l-.5.73-.67-.46-.06.23a3,3,0,0,1-.19.63,3.06,3.06,0,0,1-2.28,1.45,51.53,51.53,0,0,1-12.26,1.46,30.16,30.16,0,0,1-3.86-.22Z"/><path class="cls-1" d="M196,281.76a3.48,3.48,0,0,1,3-1.21,4.77,4.77,0,0,1,1.27-3.69c.15-.15.32-.33.32-.4s-.28-.22-.44-.31a1.83,1.83,0,0,1-1-.92,1.17,1.17,0,0,1,.07-.93,1.51,1.51,0,0,1,.36-.44,74.11,74.11,0,0,0-2.43-8.78,4.66,4.66,0,0,0-1.22-2.16l-.42-.28a3.55,3.55,0,0,1-.82-.66,1.83,1.83,0,0,1-.32-.58,4.67,4.67,0,0,1-2.33,1.7,4.15,4.15,0,0,1-.43,2.95l-.14-.08c1.49,4.72-1.2,9.85-.71,14.81a1.37,1.37,0,0,0,.45,1.05,2,2,0,0,0,1.12.16,3.61,3.61,0,0,1,2.92,2.19A3.49,3.49,0,0,1,196,281.76Z"/><path class="cls-1" d="M244.92,262.87l.18.53a5.75,5.75,0,0,1-3.61-.35c-.36-.11-.73-.23-1.09-.32a3.27,3.27,0,0,0-2.52.36,1.13,1.13,0,0,0-.5.85l0,.79.13.26a3.18,3.18,0,0,1,.5,1.33,3.05,3.05,0,0,1-.49,1.63l-1.42,2.6a1.65,1.65,0,0,0-.3.87c0,.38.43.65,1,1,.18.11.35.22.51.34a4,4,0,0,1,1.53,2.24l0,.17c.1.42.23,1,.47,1l0,.31a6.71,6.71,0,0,0,.9-1.32,11.76,11.76,0,0,1,12.1-5.87A34.78,34.78,0,0,1,244.92,262.87Z"/><path class="cls-1" d="M237.87,275.43l0-.17a2.93,2.93,0,0,0-1.13-1.67l-.46-.3c-.63-.39-1.41-.88-1.49-1.78a2.53,2.53,0,0,1,.42-1.44l1.42-2.6a2.11,2.11,0,0,0,.37-1.08,2.53,2.53,0,0,0-.37-.92,2.75,2.75,0,0,1-.47-1.46,1.13,1.13,0,0,0-.75.35,4,4,0,0,0-.54,1,7,7,0,0,1-.42.88,5,5,0,0,1-3.94,2.2c-.23,0-.46,0-.68,0a4.88,4.88,0,0,0-1.76.32,5.47,5.47,0,0,0-.72.43,2.55,2.55,0,0,1-2.44.58,2.8,2.8,0,0,1-.7-.53,3.45,3.45,0,0,0-.28-.26c-.7-.52-1.55-.18-2.87.44a6.72,6.72,0,0,1-2.65.83,2.54,2.54,0,0,1-1.1-.24,3.62,3.62,0,0,1-.43-.24,1.8,1.8,0,0,0-.46-.23,2,2,0,0,0-1.26.29l-.56.24a2.2,2.2,0,0,1-1.8-.14,3.62,3.62,0,0,1-.24.7c-.68,1.4-2.19,2.06-3.56,2.57-2.44.91-4.85,1.69-7.33,1.3l-.21,0a2.44,2.44,0,0,0-1,0,.54.54,0,0,0-.33.26.16.16,0,0,0,0,.13c0,.12.29.26.51.38.41.21,1,.52,1,1.19a1.54,1.54,0,0,1-.55,1.05,3.69,3.69,0,0,0-.93,3.54l.26.93-.91-.32a2.51,2.51,0,0,0-2.66.74,2.47,2.47,0,0,0-.21,2.75l-.63.37c.17.38.33.76.49,1.13.89,2,3.35,4.07,5,2.6a3,3,0,0,1-2.26,2.35c2.75,1.25,5.95.5,9,.63s6.58,2,6.4,5a22.57,22.57,0,0,0-12.06-.47,9.24,9.24,0,0,1,3.12,7.24,11.53,11.53,0,0,0,0,3.16,2.15,2.15,0,0,0,2.24,1.79c1.72-.36,1.43-2.9.7-4.5a5,5,0,0,1,2.67,4.44l1.29-2a7.3,7.3,0,0,0,4.3,1.93,33.84,33.84,0,0,1-5-9.17,13.34,13.34,0,0,1,6.06,2.68,2.33,2.33,0,0,1,3.25-3.33c1.61-1.68-.1-4.55-2.21-5.55s-4.66-1.22-6.32-2.85c-.29-1.93-.59-3.85-.88-5.77a1.63,1.63,0,0,1,2.22.78c.8-.23.84-1.45.32-2.09a9.91,9.91,0,0,0-2-1.45,4.3,4.3,0,0,1,.07-6.63c1.36.12,1.73,1.89,2,3.24s1.45,3,2.61,2.27a3.3,3.3,0,0,0-.61-2.21l3.19,2.17c-.32-.75-.63-1.49-.94-2.24l4.31,1.08a7.22,7.22,0,0,1-3.65-4.62,20.32,20.32,0,0,1,10.14-2.63c2.82,0,6,.88,7.36,3.34a2.69,2.69,0,0,0,1,1.23,1.12,1.12,0,0,0,1.13-.08A2.54,2.54,0,0,1,237.87,275.43Z"/><path class="cls-1" d="M191,254.31c.1.44.2.91.48,1.05a1.25,1.25,0,0,0,.45.1,3,3,0,0,1,.61.13,3.13,3.13,0,0,1,.81.52c.29.24.48.37.64.36l.23-.07a1.51,1.51,0,0,1,1.93.68l.08.09a3.47,3.47,0,0,1,2.52-.78,3.39,3.39,0,0,1,2.57,1.43,6.1,6.1,0,0,1,.53,1,3.25,3.25,0,0,0,.78,1.22,4,4,0,0,0,.92.48c.7.3,1.58.67,1.7,1.63a2.06,2.06,0,0,1,0,.5,1.2,1.2,0,0,0,0,.33,1.57,1.57,0,0,0,.41.51,2,2,0,0,1,.63.85,3.5,3.5,0,0,0,1.6-.91,4.35,4.35,0,0,1,1.26-.71,2.81,2.81,0,0,0-.49-.16l-.57-.11,2-5.67c.45-1.27.87-2.84,0-3.73a3.52,3.52,0,0,0-.54-.43,2.78,2.78,0,0,1-1.05-1.12,2.47,2.47,0,0,1,.64-2.54l.4-.43a3.71,3.71,0,0,0,.84-1.16,1,1,0,0,0-.09-.85.36.36,0,0,0-.29-.21l.06-.66a4.35,4.35,0,0,0-1.89-1.39,10.66,10.66,0,0,0-1.38-.33l-3.75-.72-4.54-6.57a7,7,0,0,1-1.57-4.48,14.2,14.2,0,0,0-8.44.88l0,0c-.63,1.93-1.1,3.66-.59,5.25a9.08,9.08,0,0,0,.53,1.21,6.48,6.48,0,0,1,.76,2.11A6.84,6.84,0,0,1,189,244a5.49,5.49,0,0,0-.26,2,5.9,5.9,0,0,0,.91,2.12,5,5,0,0,1,1,3.21,3.62,3.62,0,0,1-.58,1.42,2.25,2.25,0,0,1,.86,1.34Z"/><path class="cls-1" d="M86.36,252.61c0-.69-1-1.06-1.74-1.1-.21,0-.43,0-.66,0a4.32,4.32,0,0,1-2.48-.55l-.2-.13-.1-1.41c-.32-.15-.91.1-1.35.45-.68.54-1.61,1.28-2.63.87l-.47-.19.2-.46a3.46,3.46,0,0,0,0-2.55c-2.6,0-5.5-.1-8-1.32a10.13,10.13,0,0,1-4.34-4,1.62,1.62,0,0,0-.42-.54,1.32,1.32,0,0,0-.55-.09l-3-.07v-.49c0-2.29-2.5-3.8-4.66-4.86l.3-.61a14.6,14.6,0,0,1-3.39-.89,29.5,29.5,0,0,1-5.27-2.64,4.72,4.72,0,0,0-2-.88c-1.55-.14-3.11,1.37-4.51.69s-1.27-2.42-2.23-3.43c-1.25-1.31-3.39-.71-5.17-.41s-3.83.3-3.62-1.49c-.36.51-1.21.35-1.63-.11a6.12,6.12,0,0,1-.85-1.67,3.39,3.39,0,0,0-3-2.08,2.32,2.32,0,0,0-2.23,2.59,9.69,9.69,0,0,0-7-.24,9.06,9.06,0,0,1,1.3,4.09,3.09,3.09,0,0,1-2.43,3.13c0,4.14-1.79,8-3.58,11.77a29.13,29.13,0,0,1-4.83,7.85C4.18,253.59,2,255,1.3,257.31c1.31.55,2.78,1.41,2.87,2.83a4,4,0,0,1-.54,1.95Q2,265.46.41,268.85c-.32.67-.63,1.5-.19,2.1a1.93,1.93,0,0,0,.57.49,19.67,19.67,0,0,0,6.44,3.14c.41.09.83.15,1.25.2a2.55,2.55,0,0,1-.73-1.44,3.46,3.46,0,0,1,.94-3,6.8,6.8,0,0,1,4.38-1.61,1.78,1.78,0,0,0-.16-1.05,1.7,1.7,0,0,0-1-.9l-1.06-.32.94-.58A7.53,7.53,0,0,0,15,257.66l-.24-.82,2.84.66a1.92,1.92,0,0,0,.24-1.1,3,3,0,0,1,.53-1.83,2.71,2.71,0,0,1,.92-.63l.31-.16c1.35-.79,1.61-2.6,1.78-4.72.23-2.9,1.26-4.67,3-5.13a5.16,5.16,0,0,1,1.83-.07c.28,0,.57,0,.84,0,.68,0,1.43-.3,1.55-.84a2.07,2.07,0,0,0-.46-1.35,5.35,5.35,0,0,0-2-2.24,4.78,4.78,0,0,0-1.29-.32l-.52-.09c-3.7-.72-6.39-3.61-9-6.77l.76-.64c2.54,3,5.09,5.77,8.47,6.43l.49.08a6.22,6.22,0,0,1,1.54.39,6.16,6.16,0,0,1,2.49,2.63,2.82,2.82,0,0,1,.58,2.1A2.42,2.42,0,0,1,27,244.9c-.3,0-.62,0-.94,0a4.1,4.1,0,0,0-1.49,0c-1.69.45-2.13,2.85-2.24,4.24-.15,1.85-.35,4.39-2.27,5.5l-.37.19a1.83,1.83,0,0,0-.6.39,2.21,2.21,0,0,0-.29,1.24,2.19,2.19,0,0,1-.88,2l-.17.1-1.64-.38A8.67,8.67,0,0,1,13,266.25a2.73,2.73,0,0,1,.8,1,2.67,2.67,0,0,1,.1,2.14l-.11.29-.31,0a6.3,6.3,0,0,0-4.1,1.35,2.52,2.52,0,0,0-.66,2.13,1.44,1.44,0,0,0,.77,1.11l-.27.56a19.4,19.4,0,0,1,2.84.39c1.58.39,3.18,1.41,3.55,3a11.15,11.15,0,0,1-.1,3,6.65,6.65,0,0,0,2.69,5.57l6.4-2.52,1.64,2a2.2,2.2,0,0,0,1-3c.49-.92,1.92-.77,2.73-.11s1.31,1.64,2.12,2.28a7,7,0,0,0,2.81,1.11l8.82,2.05a4.5,4.5,0,0,1,6.6-5.19,3.69,3.69,0,0,0,1.47.7c1.09.09,1.8-1.13,2-2.2s.28-2.3,1.12-3c1.56-1.28,4.61.22,5.59-1.54.72-1.28-.59-2.69-1-4.08-.8-2.45,1.22-4.94,3.42-6.28s4.81-2.22,6.39-4.25a12,12,0,0,1,2-2.58,5.81,5.81,0,0,1,2.18-.81c4.5-.91,10-1.14,12.27-5.1a9,9,0,0,0,.71-1.63Z"/><path class="cls-1" d="M183.44,279.93c-.61-1.85-2.47-2.95-4.18-3.89l-12.14-6.65a2.41,2.41,0,0,1,2.42-1.66c-.21-1.16-1.52-1.78-2.69-1.83s-2.33.27-3.5.13a6.37,6.37,0,0,1-2.71-1.11,11.74,11.74,0,0,1-5.08-7.88c-.25-1.59-.19-3.28-1-4.68-1.77-3.17-7.11-3.59-7.82-7.15-.27-1.4.33-2.8.61-4.19s.11-3.13-1.14-3.81a48.66,48.66,0,0,0,9.34-3.76c.6-1.39,0-3.15-.72-4.86a1.48,1.48,0,0,0-.31-.54c-.28-.25-.71-.13-1.38.1a4,4,0,0,1-1.77.28,3.51,3.51,0,0,1-1.29-.61l-4.39-3a3.09,3.09,0,0,0-1.54-.68,3.38,3.38,0,0,0-1.47.53,2.82,2.82,0,0,1-2.56.42,3.88,3.88,0,0,1-.67-.44c-.3-.23-.52-.39-.64-.33s-.12.34-.11.74a2,2,0,0,1-.47,1.62c-.67.59-1.48.2-2.07-.09a3.33,3.33,0,0,0-.74-.29,3.69,3.69,0,0,1-1.53,3.32l-.52.36-.23-.59a6.44,6.44,0,0,0-1.74-2.45l-1.33,2.52-.42-.94a2.31,2.31,0,0,0-1.3-1.29.22.22,0,0,0-.24.11,1.26,1.26,0,0,0-.06.83,2.24,2.24,0,0,1-.18,1.47,1.33,1.33,0,0,1-1.24.64,2.18,2.18,0,0,1-1.79-1.15,4.94,4.94,0,0,1-.44-1.65,6.27,6.27,0,0,0-.2-1,1.53,1.53,0,0,0-.84-.93.74.74,0,0,0-.18,0l.33,4.75-.89-.71a1.1,1.1,0,0,0-1.39.07l-.36.34-.35-.35a4.14,4.14,0,0,0-4.94-.61,31,31,0,0,1-1.24,6.11l-.12.38-2.41-.19c0,.36.35.75,1,1.42s1.64,1.55,1.55,2.67a3,3,0,0,1-.49,1.26,3.73,3.73,0,0,0-.3.6,1.45,1.45,0,0,0,.09,1.22c.55,1.09,2.23,1.92,3.5,2.29l-.29,1c-.74-.22-3.22-1.07-4.1-2.79a2.48,2.48,0,0,1-.14-2,4.25,4.25,0,0,1,.38-.77,2.19,2.19,0,0,0,.35-.84c0-.64-.61-1.26-1.24-1.87-.82-.78-1.85-1.75-1.13-2.93l.16-.26,2.3.18a30.48,30.48,0,0,0,1.22-10.05l-3.91,2-.2-.53c-.55-1.45.87-2.82,1.34-3.27l5.39-5.18,2.62-.16a15.55,15.55,0,0,1,5.41-12,.75.75,0,0,0-.22-.38,2.57,2.57,0,0,0-1.83-.54l-.59.06a4,4,0,0,1-3.15-.51,3.85,3.85,0,0,1-1.08-2.25,4.06,4.06,0,0,0-.56-1.55c-.63-.84-1.75-.88-3-.94a9.05,9.05,0,0,1-2.43-.31,8.17,8.17,0,0,1-3.94-3.41,5.52,5.52,0,0,1-.51-1.72c-.16-.8-.33-1.7-.79-1.92a1.88,1.88,0,0,0-1,0l-.23,0a6.56,6.56,0,0,1-2.57-.22,1.6,1.6,0,0,1-.75-.41,1.74,1.74,0,0,1-.39-1.06l-.18-1.62c0-.12,0-.41-.13-.47a.61.61,0,0,0-.21-.08l-.18-.06A3.31,3.31,0,0,1,99.89,186c-.18-.37-.34-.78-.51-1.2a10,10,0,0,0-1.18-2.33l.22-.18a7,7,0,0,0-2.43,1c-2.6,1.74-4.56,4.77-6.75,7A12.36,12.36,0,0,1,87,192.22c-3.39,2.12-8.36.48-10.28-3a2.25,2.25,0,0,0-.47-.67c-.61-.51-1.61-.05-2,.67a4.77,4.77,0,0,0-.2,2.35,3,3,0,0,1-.52,2.26c-.81.9-2.25.66-3.41.35-5.23-1.39-10.57-2.94-16.05-2.42l3,2.31L54,197.35a23.57,23.57,0,0,1,9.51,4.75c1.11.91,2.23,2.24,1.83,3.62A1.94,1.94,0,0,1,67,207.91a5.58,5.58,0,0,1-1.35,2.74,6.09,6.09,0,0,0,5.62,3,35,35,0,0,0-1.07,11.48c-.49-1.07-1-2.14-1.46-3.21.29,3.63-2.22,6.82-4.59,9.58-1.3,1.5-2.67,3.07-4.54,3.74a6.56,6.56,0,0,1-2.44.37c2.08,1.09,4.21,2.61,4.49,4.91l2,.05a1.73,1.73,0,0,1,1.78,1.07,9.22,9.22,0,0,0,3.94,3.62c2.45,1.17,5.37,1.2,8,1.23h.3l.14.27a4.42,4.42,0,0,1,.33,3,3.82,3.82,0,0,0,1.14-.72c.87-.7,2.09-1,2.82-.27l.12.13.09,1.3a4.17,4.17,0,0,0,1.74.26l.71,0a3.29,3.29,0,0,1,2.17.92,15.44,15.44,0,0,1,.88-2.47,8.47,8.47,0,0,1,8.28-4.4,10.63,10.63,0,0,1,8,5.37l0,0a1.82,1.82,0,0,0,.06.7,1.74,1.74,0,0,0,1.27.84,7,7,0,0,0,2.71.39,2.39,2.39,0,0,0,2.09-1.55c-.48-1,1.7-2.35,2.86-2.32s2.56.26,3.24-.68c.27-.36.35-.84.62-1.21.6-.8,1.8-.71,2.8-.79s2.2-.89,1.82-1.82c2-.92,4.26-1,5.69.68a4.25,4.25,0,0,1,4.22-3.11,15.81,15.81,0,0,0,.71,7.56c1.51,4.51,4.57,8.31,7.57,12,3.73,4.59,7.64,9.33,13,11.84,3.15,1.48,7.38,3,7.38,6.51a2.28,2.28,0,0,0,.17,1.28c.42.65,1.38.46,2.15.52a4.47,4.47,0,0,1,3,2.11,11.35,11.35,0,0,1-1,14l4.37.91c-.95-4,6.49-6.24,5.49-10.19-.44-1.77-2.46-2.74-3-4.46-.78-2.35,1.88-4.79,4.33-4.45s4.27,2.59,5,5C182.34,284.3,184.05,281.79,183.44,279.93Z"/><path class="cls-1" d="M137,225.58a1.86,1.86,0,0,1,.1-.2,1,1,0,0,0,.1-.24l-.4-.11-.12,0c-1.53-.4-2.24-1.89-2.87-3.2-.09-.2-.18-.39-.28-.58a10.69,10.69,0,0,0-2.31-3.07,2.08,2.08,0,0,0-.79-.52,2.58,2.58,0,0,0-.38,0,2.38,2.38,0,0,1-1.6-.63,1.51,1.51,0,0,0-.8-.39,1.78,1.78,0,0,0-.57.2,1.7,1.7,0,0,1-2-.11l-.08,0A5,5,0,0,0,121,216a13.94,13.94,0,0,0,0,1.71l0,.49-3.23.2-5.12,4.92a3.7,3.7,0,0,0-1.12,1.58l4.09-2.12,0,.76a30.55,30.55,0,0,1,0,4.28,5.16,5.16,0,0,1,5.23.78,2.12,2.12,0,0,1,1.46-.23l-.25-3.5.26-.15a1.46,1.46,0,0,1,1.32-.12,2.59,2.59,0,0,1,1.44,1.56,6.54,6.54,0,0,1,.24,1.2,4.25,4.25,0,0,0,.34,1.34,1.22,1.22,0,0,0,.93.6.34.34,0,0,0,.35-.16,1.5,1.5,0,0,0,0-.84,2,2,0,0,1,.26-1.56,1.27,1.27,0,0,1,1.15-.49,2.63,2.63,0,0,1,1.6,1.08l1-1.88.47.34a7.43,7.43,0,0,1,2.24,2.61,2.69,2.69,0,0,0,.58-2.34l-.08-.33.28-.2a2,2,0,0,1,2,.18l.25.11A.79.79,0,0,1,137,225.58Z"/><path class="cls-1" d="M118.77,199.54a4.86,4.86,0,0,1,.74,1.92,2.94,2.94,0,0,0,.75,1.71,3.16,3.16,0,0,0,2.39.29q.31,0,.63-.06a3.53,3.53,0,0,1,2.61.82,1.72,1.72,0,0,1,.51,1.36v.21l-.17.14a14.47,14.47,0,0,0-5.06,9,5.91,5.91,0,0,1,4.3.81l.09.06a1.24,1.24,0,0,0,.45.22,1.25,1.25,0,0,0,.6-.18,2.3,2.3,0,0,1,1-.3,2.34,2.34,0,0,1,1.41.58,2.4,2.4,0,0,0,.68.39,1.75,1.75,0,0,0,.4.05,3.31,3.31,0,0,1,.55.07,2.77,2.77,0,0,1,1.23.75c.18.16.34.33.5.5l10.74.36a20.19,20.19,0,0,0,3.3-.06c.55-.07,1.1-.18,1.66-.29a8.74,8.74,0,0,1,4.59-.12,6.86,6.86,0,0,0-.36-3.05l-.17-.48.47-.16a2.35,2.35,0,0,0,1.51-1.93l0-.44,3.9-.12a34.68,34.68,0,0,1-6-9.81c-.66-1.64-1.2-3.35-1.72-5-.21-.64-.41-1.29-.62-1.93l-.31-.94.94.31a9.68,9.68,0,0,0,5.2.23,19.77,19.77,0,0,0,2.57-.84l6.75-2.55a23.27,23.27,0,0,0-.8-11c-.12-.36-.24-.73-.37-1.09a16.88,16.88,0,0,1-.91-3.33A8.83,8.83,0,0,1,164,170a4.74,4.74,0,0,1-1.13-2.49l-2.57-.09c.19-1.87-2.17-3-4-2.79s-3.69,1.1-5.54.8c-3.07-.48-5.47-4.13-8.48-3.31a19.43,19.43,0,0,1-.45-6.3,6.53,6.53,0,0,1,3.39-5c1.24-.56,3-.84,3.27-2.17.42-1.87-2.53-4-1.06-5.24a2.2,2.2,0,0,0-2-.52l-.81,1.84a13.86,13.86,0,0,0-8.05-.69q.39,6.15.77,12.3c.21,3.28.48,6.75,2.37,9.44a7.94,7.94,0,0,0-2.94,4.48,15.76,15.76,0,0,0-8.34-4c-.17.9-.35,1.81-.52,2.71l.5.12c-.05.2.15.42.49.75a2.6,2.6,0,0,1,.83,1.27,2.43,2.43,0,0,1,0,.82l-.91,5.68a3.53,3.53,0,0,1-1.31,2.41,1.42,1.42,0,0,1-1.22.14,2.78,2.78,0,0,1-.46-.21,1,1,0,0,0-.32-.15c-.13,0-.26.23-.42.58a3,3,0,0,1-.62.93,2.46,2.46,0,0,1-1.92.42c-.6,0-1,0-1.18.18a1.38,1.38,0,0,0-.26.57,3.92,3.92,0,0,1-.26.66,3.35,3.35,0,0,1-1.63,1.24,6.53,6.53,0,0,0-.76.41c.14.27.28.53.4.78l-.84.42V186a14.42,14.42,0,0,1-1,6.82c-.14.34-.29.68-.44,1-.66,1.49-1.32,3-.94,4.39A4,4,0,0,1,118.77,199.54Z"/><path class="cls-1" d="M64.47,147.4a1,1,0,0,1-.78-.37,1.73,1.73,0,0,1-.24-1.54c0-.15.12-.3.19-.46a1.31,1.31,0,0,0,.19-.82c-.07-.25-.43-.39-.76-.39a3.27,3.27,0,0,0-1,.25l-.33.11a7.53,7.53,0,0,1-3.59.25,1.68,1.68,0,0,1-.85-.34,3.29,3.29,0,0,1-.83-1.69,5.26,5.26,0,0,0-.34-.94c-.07-.12-.13-.2-.19-.22l-.66-.74a.94.94,0,0,1,1.12-.15,1.52,1.52,0,0,1,.59.6,5.46,5.46,0,0,1,.44,1.18,3,3,0,0,0,.5,1.19,1,1,0,0,0,.39.12,6.55,6.55,0,0,0,3.11-.21l.32-.11a4.45,4.45,0,0,1,1.34-.3,1.73,1.73,0,0,1,1.74,1.11,2.15,2.15,0,0,1-.24,1.5c0,.13-.11.25-.15.38a.74.74,0,0,0,.08.6l.11,1Z"/><path class="cls-1" d="M56.51,140.84l-.62-.78a2,2,0,0,1,1.45-.31,2,2,0,0,0,.7,0,2,2,0,0,0,.5-.32,10,10,0,0,0,1.6-1.43,1.28,1.28,0,0,1,.9-.58l1.06-.26.23,1-1.06.26-.19,0-.15.16a10.65,10.65,0,0,1-1.77,1.62,2.63,2.63,0,0,1-.81.48,2.78,2.78,0,0,1-1.06.08A1.22,1.22,0,0,0,56.51,140.84Z"/><path class="cls-1" d="M264.21,3a1.5,1.5,0,0,0,0-3,1.5,1.5,0,0,0,0,3Z"/><path class="cls-1" d="M232.67,289.49l-1,.19a2.67,2.67,0,0,0,2,2.05,2.73,2.73,0,0,0-.21,2,2.59,2.59,0,0,0,3.39,1.15l-1.2.8c1,.55,2.29-.3,3.31.16.84.39,1.09,1.49,1.81,2.09a2,2,0,0,0,3-.79,3.3,3.3,0,0,1,.41-1.07c.6-.75,1.85-.15,2.4.65s1,1.83,1.91,2.08a2.93,2.93,0,0,0,2-.45l4.15-2a3.47,3.47,0,0,1,1.38-.46,3.72,3.72,0,0,1,1.08.19l2.91.83c2.48-1,5.31-.37,8-.56a12.54,12.54,0,0,0,5.55-1.73,4.79,4.79,0,0,1,1.18-.58,4.36,4.36,0,0,1,1.61,0,19.93,19.93,0,0,0,7.22-.34,1.85,1.85,0,0,0,1.2-.66c.38-.6,0-1.42.25-2.09.13-.35.43-.62.57-1,.64-1.52-1.72-3.58-.45-4.63l1.14-.43c.23-.73-.45-1.42-1.14-1.77s-1.49-.62-1.83-1.3-.1-1.49-.22-2.24c-.24-1.56-2.06-2.42-3.63-2.29a16.16,16.16,0,0,0-4.46,1.49,13.22,13.22,0,0,1-7.3.69,22.52,22.52,0,0,1-3.3-1l-5.29-1.94A14.45,14.45,0,0,0,253,275.3c-3.49.31-6.41,3.13-9.92,3.29a2.22,2.22,0,0,0-1.33.29c-.54.42-.52,1.28-1,1.73-2.5,2.23-6.91.14-9.52,1.78a1.88,1.88,0,0,0-.78,2.78c.62,1,1.33.59,1.92,1.35A12,12,0,0,1,232.67,289.49Z"/><path class="cls-1" d="M260.85,298.8c-.31.21-.79.14-1,.42a1,1,0,0,0-.21.62c-.12,1-.23,2-.35,3.05-.07.64,0,1.48.59,1.67.22.07.48,0,.66.19.36.3-.05.85-.39,1.17a5.37,5.37,0,0,0-1.61,2.92,3.4,3.4,0,0,0,.53,2.71,2,2,0,0,0,2.54.54c.69-.45,1-1.44,1.84-1.6a8.86,8.86,0,0,1,1.25.09,3,3,0,0,0,1.15-.32c3.64-1.58,7.58-3.44,9.27-7,.75-1.58,1-3.45,2.23-4.72.46-.48,1-.84,1.48-1.34a1.9,1.9,0,0,0,.51-1.83c-2.34-.95-4.87.52-7.27,1.29a20.78,20.78,0,0,1-7.15.73c-.66,0-2.32-.5-2.9-.26C261.17,297.43,261.48,298.35,260.85,298.8Z"/></g></g></svg>