<svg width="24" height="24" viewBox="0 0 24 24" fill="none" xmlns="http://www.w3.org/2000/svg">
<path d="M12.2758 0.376953C5.71187 0.376953 0.625 5.17414 0.625 11.6537C0.625 15.0427 2.01766 17.9715 4.28453 19.9946C4.67594 20.3466 4.59531 20.5505 4.66188 22.7241C4.66712 22.8764 4.70953 23.025 4.78541 23.1571C4.8613 23.2892 4.96835 23.4008 5.09723 23.482C5.22612 23.5632 5.37292 23.6117 5.52482 23.6231C5.67673 23.6346 5.82914 23.6087 5.96875 23.5477C8.44891 22.4555 8.48078 22.3693 8.90125 22.4837C16.0867 24.4613 23.875 19.8629 23.875 11.6537C23.875 5.17414 18.8402 0.376953 12.2758 0.376953ZM19.2714 9.05492L15.8495 14.4723C15.7203 14.676 15.5504 14.8508 15.3505 14.9858C15.1505 15.1208 14.9249 15.213 14.6876 15.2567C14.4504 15.3004 14.2067 15.2946 13.9718 15.2397C13.7369 15.1848 13.5158 15.082 13.3225 14.9377L10.6 12.9001C10.4783 12.8088 10.3303 12.7595 10.1781 12.7595C10.026 12.7595 9.87796 12.8088 9.75625 12.9001L6.08266 15.6863C5.59234 16.058 4.95016 15.4707 5.28062 14.9518L8.7025 9.53445C8.83167 9.33069 9.00155 9.15581 9.20148 9.02079C9.40142 8.88577 9.62709 8.79352 9.86436 8.74981C10.1016 8.70611 10.3454 8.7119 10.5803 8.76682C10.8152 8.82175 11.0362 8.92462 11.2295 9.06898L13.9511 11.1062C14.0728 11.1975 14.2208 11.2468 14.373 11.2468C14.5251 11.2468 14.6731 11.1975 14.7948 11.1062L18.4703 8.32273C18.9597 7.94867 19.6019 8.53555 19.2714 9.05492V9.05492Z" fill="black"/>
</svg>
