<svg width="24" height="24" viewBox="0 0 24 24" fill="none" xmlns="http://www.w3.org/2000/svg">
<path d="M17.0025 5.8725C15.5371 4.50037 13.6354 3.74822 11.6179 3.75C7.98703 3.75319 4.8525 6.24272 3.98705 9.69609C3.92405 9.94748 3.70008 10.125 3.44091 10.125H0.754828C0.403359 10.125 0.136359 9.80592 0.201375 9.4605C1.21561 4.07456 5.94436 0 11.625 0C14.7397 0 17.5683 1.22512 19.6554 3.21961L21.3295 1.54547C22.0382 0.836766 23.25 1.3387 23.25 2.34098V8.625C23.25 9.24633 22.7463 9.75 22.125 9.75H15.841C14.8387 9.75 14.3368 8.53823 15.0455 7.82948L17.0025 5.8725V5.8725ZM1.125 13.5H7.40902C8.4113 13.5 8.91323 14.7118 8.20453 15.4205L6.2475 17.3775C7.71291 18.7497 9.61477 19.5019 11.6323 19.5C15.2613 19.4968 18.3971 17.0089 19.263 13.554C19.326 13.3026 19.5499 13.1251 19.8091 13.1251H22.4952C22.8467 13.1251 23.1137 13.4442 23.0487 13.7896C22.0344 19.1754 17.3056 23.25 11.625 23.25C8.51025 23.25 5.68167 22.0249 3.59461 20.0304L1.92047 21.7045C1.21177 22.4132 0 21.9113 0 20.909V14.625C0 14.0037 0.503672 13.5 1.125 13.5Z" fill="black"/>
</svg>
