<svg width="272" height="272" viewBox="0 0 272 272" fill="none" xmlns="http://www.w3.org/2000/svg">
<path d="M255.497 149.061L251.966 148.87L252.026 147.767L254.534 147.903L255.062 138.141L252.554 137.99L252.614 136.887L256.144 137.094L256.114 137.653C256.117 138.391 256.669 138.933 257.772 139.281C258.886 139.63 260.474 139.892 262.537 140.068L266.157 140.392L265.749 147.933L255.588 147.383L255.497 149.061ZM262.368 141.116C260.667 140.971 259.268 140.761 258.172 140.489C257.086 140.227 256.369 139.841 256.023 139.331L255.651 146.217L264.789 146.711L265.079 141.359L262.368 141.116Z" fill="white"/>
<path d="M253.696 160.235L252.685 160.074L253.93 152.253L264.991 154.013L263.783 161.598L262.772 161.437L263.793 155.022L259.859 154.395L258.948 160.115L257.953 159.957L258.863 154.237L254.755 153.583L253.696 160.235Z" fill="white"/>
<path d="M255.893 170.823C255.54 171.535 255.085 172.028 254.529 172.3C253.982 172.576 253.347 172.619 252.625 172.429C251.687 172.182 251.053 171.657 250.723 170.853C250.391 170.06 250.395 169.019 250.734 167.729L251.995 162.932L262.827 165.78L261.643 170.283C261.339 171.438 260.865 172.278 260.22 172.804C259.574 173.329 258.803 173.473 257.905 173.238C257.297 173.078 256.821 172.787 256.48 172.367C256.149 171.949 255.953 171.434 255.893 170.823ZM257.625 165.62L256.754 168.931C256.534 169.767 256.537 170.451 256.76 170.984C256.981 171.528 257.417 171.885 258.067 172.056C258.717 172.227 259.272 172.13 259.731 171.765C260.188 171.411 260.527 170.816 260.746 169.981L261.617 166.669L257.625 165.62ZM251.647 167.969C251.156 169.837 251.607 170.953 253 171.319C254.361 171.677 255.288 170.923 255.779 169.055L256.743 165.388L252.611 164.302L251.647 167.969Z" fill="white"/>
<path d="M246.547 183.132L245.588 182.772L248.37 175.357L258.856 179.291L256.158 186.482L255.2 186.122L257.482 180.04L253.752 178.64L251.717 184.063L250.773 183.709L252.808 178.286L248.913 176.825L246.547 183.132Z" fill="white"/>
<path d="M250.22 198.759L240.202 193.753L240.724 192.708L249.826 197.257L252.244 192.419L248.952 190.631C247.592 189.892 246.533 189.22 245.774 188.614C245.02 188.023 244.524 187.441 244.286 186.869C244.056 186.301 244.092 185.717 244.392 185.115C244.521 184.858 244.688 184.607 244.893 184.364L245.795 184.922C245.676 185.065 245.578 185.213 245.502 185.366C245.292 185.785 245.29 186.208 245.495 186.632C245.695 187.066 246.11 187.524 246.74 188.006C247.379 188.492 248.265 189.048 249.395 189.672L253.617 191.961L250.22 198.759Z" fill="white"/>
<path d="M235.191 201.6C235.797 200.67 236.553 199.96 237.459 199.468C238.368 198.991 239.325 198.774 240.328 198.817C241.326 198.869 242.276 199.189 243.178 199.777C244.081 200.366 244.757 201.106 245.207 201.998C245.651 202.898 245.834 203.858 245.756 204.876C245.681 205.91 245.341 206.891 244.735 207.82C244.129 208.75 243.379 209.451 242.484 209.925C241.584 210.408 240.628 210.625 239.615 210.576C238.612 210.533 237.659 210.217 236.756 209.629C235.854 209.041 235.176 208.293 234.723 207.387C234.279 206.486 234.096 205.527 234.174 204.508C234.246 203.498 234.585 202.529 235.191 201.6ZM236.076 202.176C235.592 202.918 235.321 203.696 235.261 204.51C235.211 205.33 235.369 206.102 235.738 206.826C236.115 207.556 236.67 208.16 237.403 208.637C238.136 209.115 238.908 209.376 239.719 209.421C240.539 209.472 241.309 209.306 242.03 208.922C242.76 208.545 243.367 207.985 243.85 207.244C244.334 206.502 244.604 205.717 244.66 204.888C244.72 204.074 244.564 203.297 244.192 202.558C243.824 201.834 243.273 201.233 242.54 200.756C241.808 200.278 241.031 200.014 240.211 199.963C239.394 199.927 238.621 200.098 237.891 200.476C237.164 200.868 236.559 201.435 236.076 202.176Z" fill="white"/>
<path d="M232.059 224.08L223.479 216.881L224.23 215.986L232.025 222.528L236.582 217.098L228.786 210.557L229.537 209.662L238.117 216.861L232.059 224.08Z" fill="white"/>
<path d="M215.151 226.384L214.443 225.645L220.164 220.168L227.909 228.258L222.361 233.569L221.653 232.829L226.346 228.337L223.591 225.459L219.407 229.465L218.71 228.737L222.894 224.731L220.017 221.726L215.151 226.384Z" fill="white"/>
<path d="M215.217 239.345C214.093 240.227 213.001 240.65 211.942 240.614C210.883 240.577 209.984 240.089 209.247 239.149C208.509 238.209 208.249 237.221 208.465 236.183C208.688 235.154 209.362 234.198 210.486 233.316L212.852 231.459L210.669 228.677L211.601 227.946L218.515 236.757L215.217 239.345ZM211.153 234.114C210.281 234.799 209.762 235.512 209.596 236.251C209.438 236.999 209.632 237.722 210.178 238.418C210.738 239.132 211.397 239.496 212.155 239.511C212.919 239.535 213.738 239.205 214.61 238.52L216.952 236.683L213.494 232.277L211.153 234.114Z" fill="white"/>
<path d="M189.524 243.674L187.771 240.604L188.729 240.056L189.975 242.238L198.464 237.39L197.233 235.201L198.191 234.653L199.931 237.732L199.445 238.009C198.827 238.412 198.67 239.17 198.976 240.286C199.286 241.41 199.927 242.887 200.897 244.716L202.587 247.933L196.029 251.678L190.983 242.841L189.524 243.674ZM199.925 245.142C199.125 243.634 198.542 242.345 198.177 241.276C197.809 240.221 197.745 239.41 197.986 238.843L191.997 242.262L196.536 250.21L201.19 247.552L199.925 245.142Z" fill="white"/>
<path d="M181.565 245.865C182.587 245.433 183.611 245.266 184.637 245.365C185.658 245.478 186.572 245.832 187.38 246.429C188.178 247.029 188.787 247.825 189.207 248.818C189.627 249.81 189.774 250.802 189.649 251.793C189.514 252.788 189.129 253.686 188.495 254.487C187.855 255.302 187.025 255.925 186.003 256.357C184.981 256.79 183.967 256.952 182.961 256.845C181.944 256.742 181.03 256.388 180.218 255.782C179.41 255.185 178.796 254.391 178.376 253.399C177.956 252.407 177.812 251.408 177.943 250.403C178.078 249.408 178.462 248.51 179.096 247.709C179.721 246.912 180.543 246.297 181.565 245.865ZM181.977 246.838C181.161 247.183 180.501 247.676 179.997 248.318C179.496 248.97 179.197 249.699 179.098 250.505C179.003 251.321 179.126 252.132 179.466 252.938C179.807 253.743 180.301 254.391 180.949 254.882C181.601 255.382 182.332 255.675 183.144 255.76C183.96 255.855 184.776 255.73 185.592 255.385C186.407 255.04 187.07 254.54 187.58 253.884C188.084 253.242 188.389 252.511 188.494 251.69C188.593 250.884 188.472 250.078 188.131 249.273C187.79 248.467 187.294 247.814 186.643 247.314C185.985 246.828 185.248 246.537 184.432 246.442C183.611 246.361 182.792 246.493 181.977 246.838Z" fill="white"/>
<path d="M175.671 260.066L171.349 256.735L169.587 261.89L168.253 262.289L170.373 256.042L164.747 251.648L166.08 251.249L170.789 254.865L172.732 249.255L174.035 248.865L171.754 255.578L176.974 259.676L175.671 260.066Z" fill="white"/>
<path d="M164.343 263.105L163.203 263.359L160.77 252.426L161.91 252.172L164.343 263.105Z" fill="white"/>
<path d="M146.225 255.776L145.736 252.274L146.83 252.121L147.177 254.609L156.859 253.258L156.528 250.767L157.621 250.615L158.094 254.119L157.539 254.197C156.816 254.341 156.39 254.987 156.259 256.136C156.13 257.296 156.177 258.905 156.4 260.963L156.775 264.578L149.296 265.622L147.889 255.543L146.225 255.776ZM155.339 260.998C155.155 259.3 155.093 257.888 155.151 256.759C155.2 255.643 155.441 254.866 155.876 254.429L149.046 255.382L150.311 264.446L155.619 263.705L155.339 260.998Z" fill="white"/>
<path d="M133.392 266.296L133.132 255.099L134.3 255.072L134.42 260.238L141.426 260.076L141.306 254.91L142.49 254.882L142.749 266.079L141.565 266.107L141.45 261.116L134.444 261.278L134.559 266.269L133.392 266.296Z" fill="white"/>
<path d="M123.307 254.239C124.411 254.346 125.39 254.687 126.246 255.263C127.089 255.848 127.724 256.595 128.151 257.505C128.567 258.413 128.723 259.403 128.619 260.476C128.515 261.548 128.172 262.49 127.59 263.302C126.997 264.112 126.231 264.719 125.292 265.121C124.342 265.533 123.314 265.685 122.21 265.578C121.106 265.472 120.137 265.131 119.303 264.558C118.458 263.983 117.823 263.236 117.398 262.316C116.971 261.407 116.81 260.416 116.914 259.344C117.017 258.271 117.366 257.324 117.96 256.503C118.553 255.692 119.319 255.086 120.258 254.684C121.186 254.281 122.202 254.133 123.307 254.239ZM123.205 255.29C122.324 255.205 121.508 255.325 120.759 255.649C120.009 255.983 119.398 256.481 118.927 257.143C118.454 257.816 118.176 258.587 118.092 259.458C118.008 260.328 118.134 261.133 118.469 261.873C118.804 262.623 119.308 263.229 119.981 263.691C120.654 264.163 121.43 264.442 122.312 264.527C123.193 264.612 124.014 264.488 124.775 264.155C125.524 263.831 126.14 263.333 126.623 262.662C127.095 262 127.372 261.234 127.456 260.363C127.541 259.493 127.415 258.682 127.081 257.932C126.734 257.191 126.225 256.584 125.553 256.112C124.869 255.65 124.086 255.376 123.205 255.29Z" fill="white"/>
<path d="M112.088 264.008L110.924 263.795L112.938 252.777L114.103 252.99L112.088 264.008ZM112.677 265.416C112.865 265.451 113.017 265.544 113.13 265.695C113.233 265.843 113.266 266.018 113.23 266.217C113.195 266.406 113.103 266.552 112.954 266.655C112.793 266.766 112.618 266.805 112.429 266.77C112.251 266.737 112.106 266.64 111.994 266.479C111.881 266.328 111.842 266.158 111.876 265.97C111.911 265.781 112.009 265.63 112.17 265.519C112.319 265.416 112.488 265.382 112.677 265.416ZM109.875 264.904C110.064 264.939 110.215 265.031 110.328 265.182C110.429 265.342 110.463 265.516 110.428 265.705C110.394 265.894 110.297 266.039 110.137 266.14C109.976 266.251 109.806 266.29 109.628 266.258C109.439 266.223 109.294 266.126 109.193 265.967C109.079 265.816 109.04 265.646 109.075 265.457C109.111 265.258 109.209 265.108 109.368 265.007C109.517 264.904 109.686 264.87 109.875 264.904Z" fill="white"/>
<path d="M91.0893 258.387L94.4661 247.709L95.5798 248.061L94.0216 252.988L100.703 255.101L102.262 250.174L103.391 250.531L100.014 261.21L98.8848 260.853L100.39 256.093L93.708 253.98L92.2029 258.74L91.0893 258.387Z" fill="white"/>
<path d="M82.5912 243.659L83.0041 242.722L90.2516 245.916L85.7352 256.165L78.7073 253.068L79.1202 252.131L85.0646 254.75L86.6712 251.105L81.371 248.769L81.7775 247.846L87.0777 250.182L88.7552 246.375L82.5912 243.659Z" fill="white"/>
<path d="M70.6356 248.637C69.3918 247.932 68.5853 247.084 68.2162 246.09C67.8471 245.097 67.9568 244.08 68.5454 243.041C69.134 242.001 69.9492 241.384 70.991 241.189C72.0275 241.004 73.1677 241.263 74.4115 241.967L77.0291 243.449L78.7712 240.372L79.8015 240.956L74.2836 250.702L70.6356 248.637ZM73.927 242.888C72.9616 242.342 72.1054 242.133 71.3584 242.261C70.6062 242.399 70.0119 242.853 69.5757 243.624C69.129 244.413 69.0427 245.161 69.3168 245.867C69.5855 246.583 70.2026 247.215 71.168 247.761L73.7577 249.228L76.5167 244.354L73.927 242.888Z" fill="white"/>
<path d="M56.005 238.917L65.5945 234.149C66.2782 233.808 66.9158 233.645 67.5074 233.657C68.0841 233.672 68.6078 233.846 69.0785 234.178C69.4271 234.424 69.7436 234.771 70.0277 235.22L69.1998 235.81C68.9721 235.467 68.7275 235.203 68.466 235.019C67.8645 234.594 67.1415 234.574 66.2969 234.957L65.7218 235.217L64.4645 244.884L63.4316 244.155L64.6125 235.708L56.9725 239.6L56.005 238.917Z" fill="white"/>
<path d="M52.686 236.085L53.175 230.65L47.8801 231.932L46.8269 231.022L53.2354 229.455L53.9204 222.349L54.9736 223.259L54.4514 229.173L60.2274 227.8L61.2563 228.689L54.3684 230.37L53.715 236.975L52.686 236.085Z" fill="white"/>
<path d="M48.5821 216.605C49.3404 217.414 49.8504 218.318 50.1121 219.315C50.3587 220.311 50.3418 221.292 50.0612 222.256C49.7733 223.213 49.2362 224.059 48.4499 224.796C47.6636 225.532 46.7838 226.013 45.8105 226.238C44.8299 226.454 43.8543 226.404 42.8837 226.085C41.898 225.766 41.026 225.202 40.2676 224.392C39.5093 223.583 39.0065 222.687 38.7594 221.705C38.505 220.716 38.522 219.735 38.8104 218.764C39.091 217.8 39.6244 216.949 40.4107 216.213C41.197 215.476 42.0843 214.996 43.0727 214.772C44.0533 214.555 45.0289 214.605 45.9995 214.924C46.9629 215.235 47.8237 215.795 48.5821 216.605ZM47.8113 217.326C47.2061 216.68 46.5152 216.231 45.7386 215.979C44.9542 215.735 44.1666 215.705 43.3757 215.891C42.577 216.084 41.8585 216.479 41.2201 217.077C40.5817 217.675 40.1442 218.362 39.9074 219.139C39.6629 219.924 39.6409 220.712 39.8414 221.503C40.0342 222.302 40.4331 223.024 41.0383 223.67C41.6436 224.316 42.342 224.766 43.1337 225.018C43.9103 225.27 44.7016 225.303 45.5076 225.118C46.2985 224.933 47.0131 224.541 47.6515 223.943C48.2899 223.345 48.7313 222.654 48.9758 221.87C49.2052 221.085 49.2236 220.293 49.0309 219.494C48.8231 218.695 48.4166 217.973 47.8113 217.326Z" fill="white"/>
<path d="M26.3881 206.619L35.4693 200.064L36.1342 200.985L28.8693 206.229L37.5549 205.386L37.8827 205.84L34.3865 213.791L41.6126 208.575L42.2775 209.496L33.1962 216.051L32.625 215.26L36.5112 206.455L26.9594 207.411L26.3881 206.619Z" fill="white"/>
<path d="M31.0104 191.873C31.5391 192.849 31.8037 193.852 31.8044 194.883C31.7906 195.909 31.526 196.854 31.0104 197.716C30.4897 198.568 29.7557 199.251 28.8086 199.764C27.8615 200.278 26.8886 200.52 25.8901 200.491C24.8866 200.452 23.9556 200.156 23.0973 199.602C22.2245 199.044 21.5237 198.277 20.9951 197.302C20.4665 196.327 20.2069 195.333 20.2164 194.321C20.2208 193.299 20.4854 192.355 21.0104 191.488C21.526 190.626 22.2574 189.939 23.2046 189.425C24.1517 188.912 25.1317 188.672 26.1447 188.705C27.1483 188.744 28.0792 189.04 28.9376 189.594C29.7908 190.138 30.4818 190.898 31.0104 191.873ZM30.082 192.377C29.6602 191.598 29.1054 190.989 28.4179 190.549C27.721 190.114 26.9665 189.886 26.1544 189.865C25.333 189.849 24.5377 190.05 23.7688 190.466C22.9998 190.883 22.4024 191.437 21.9767 192.129C21.5415 192.826 21.3207 193.583 21.3143 194.399C21.2985 195.221 21.5016 196.021 21.9235 196.799C22.3454 197.577 22.9073 198.189 23.6093 198.633C24.2969 199.073 25.0539 199.306 25.8804 199.331C26.6925 199.352 27.483 199.154 28.252 198.737C29.021 198.321 29.623 197.764 30.0582 197.067C30.4789 196.366 30.6971 195.604 30.7129 194.783C30.7142 193.957 30.5039 193.155 30.082 192.377Z" fill="white"/>
<path d="M25.0244 178.83C25.4412 179.858 25.5906 180.879 25.4725 181.894C25.3505 182.899 24.9853 183.801 24.377 184.6C23.7548 185.393 22.9445 185.992 21.9461 186.397C20.9477 186.802 19.954 186.934 18.9649 186.794C17.9619 186.648 17.0648 186.252 16.2734 185.606C15.482 184.96 14.8779 184.123 14.4611 183.095C14.1485 182.324 13.9884 181.561 13.9809 180.804C13.9734 180.047 14.1246 179.341 14.4345 178.686L15.414 179.101C14.9221 180.244 14.9267 181.433 15.4277 182.669C15.7604 183.489 16.2508 184.16 16.8989 184.679C17.5471 185.199 18.2756 185.52 19.0843 185.641C19.889 185.752 20.6966 185.643 21.5072 185.314C22.3178 184.986 22.9731 184.501 23.4733 183.861C23.9694 183.211 24.269 182.474 24.3721 181.649C24.4752 180.825 24.3604 180.003 24.0277 179.182C23.5227 177.937 22.6927 177.082 21.5378 176.618L21.9521 175.638C22.6307 175.893 23.2377 176.297 23.7732 176.851C24.2947 177.399 24.7118 178.059 25.0244 178.83Z" fill="white"/>
<path d="M10.5826 167.521L11.6982 171.296L21.4569 168.412L21.788 169.532L12.0293 172.416L13.1448 176.19L12.1628 176.481L9.60062 167.811L10.5826 167.521Z" fill="white"/>
<path d="M8.90903 164.406L8.65527 163.266L19.5877 160.833L19.8415 161.973L8.90903 164.406Z" fill="white"/>
<path d="M15.8741 131.889L19.4094 131.82L19.4308 132.924L16.9192 132.973L17.1079 142.747L19.6197 142.714L19.641 143.818L16.1054 143.87L16.0946 143.31C16.0377 142.575 15.4466 142.075 14.3213 141.808C13.1852 141.542 11.5821 141.397 9.51196 141.373L5.87816 141.315L5.73242 133.765L15.9065 133.568L15.8741 131.889ZM9.60356 140.315C11.3109 140.336 12.7212 140.442 13.8345 140.634C14.9369 140.815 15.6794 141.147 16.0621 141.631L15.9291 134.736L6.77877 134.913L6.88221 140.272L9.60356 140.315Z" fill="white"/>
<path d="M16.9194 119.984L17.9393 120.074L17.2377 127.963L6.08178 126.971L6.7621 119.321L7.78207 119.412L7.20663 125.882L11.175 126.235L11.688 120.466L12.6921 120.555L12.179 126.325L16.3227 126.693L16.9194 119.984Z" fill="white"/>
<path d="M14.0065 109.498C14.3095 108.763 14.7295 108.24 15.2665 107.93C15.793 107.618 16.423 107.532 17.1564 107.671C18.1099 107.853 18.7784 108.334 19.1619 109.113C19.5474 109.881 19.6152 110.92 19.3654 112.23L18.4361 117.102L7.43445 115.004L8.3068 110.43C8.53063 109.257 8.94649 108.386 9.55437 107.818C10.1623 107.25 10.922 107.052 11.8335 107.226C12.4517 107.344 12.9456 107.601 13.3153 107.998C13.6744 108.392 13.9048 108.892 14.0065 109.498ZM12.6355 114.807L13.277 111.443C13.4389 110.595 13.3899 109.912 13.1301 109.396C12.8722 108.869 12.4133 108.542 11.7532 108.416C11.0931 108.29 10.5462 108.425 10.1125 108.82C9.68076 109.205 9.38397 109.821 9.22209 110.67L8.58057 114.033L12.6355 114.807ZM18.4381 112.053C18.7999 110.157 18.2735 109.074 16.859 108.804C15.4759 108.54 14.6035 109.356 14.2418 111.253L13.5313 114.978L17.7277 115.778L18.4381 112.053Z" fill="white"/>
<path d="M22.3522 96.9451L23.3342 97.2353L21.0895 104.831L10.3487 101.656L12.5255 94.291L13.5075 94.5813L11.6663 100.811L15.487 101.94L17.1286 96.3856L18.0953 96.6713L16.4536 102.226L20.443 103.405L22.3522 96.9451Z" fill="white"/>
<path d="M17.5882 81.5567L27.9357 85.8425L27.4888 86.9216L18.0873 83.0276L16.0179 88.024L19.4279 89.575C20.8365 90.2161 21.9405 90.8119 22.74 91.3624C23.5338 91.899 24.0699 92.4443 24.3484 92.9984C24.6171 93.5484 24.6228 94.1338 24.3657 94.7547C24.2555 95.0208 24.1067 95.2824 23.9193 95.5396L22.9804 95.0468C23.0893 94.8956 23.1763 94.7412 23.2416 94.5835C23.4212 94.1499 23.3937 93.7286 23.1589 93.3197C22.9283 92.9009 22.4819 92.4735 21.8196 92.0376C21.1475 91.5976 20.2254 91.106 19.0534 90.5628L14.68 88.5783L17.5882 81.5567Z" fill="white"/>
<path d="M32.2743 77.8216C31.7349 78.7909 31.0304 79.5524 30.1608 80.1061C29.2871 80.6453 28.3482 80.9285 27.3443 80.9558C26.3455 80.9738 25.3754 80.7208 24.434 80.197C23.4926 79.6731 22.7663 78.9821 22.2551 78.1239C21.7491 77.2564 21.4995 76.3119 21.5065 75.2904C21.5092 74.2543 21.7803 73.2516 22.3198 72.2823C22.8592 71.3129 23.5585 70.5607 24.4177 70.0257C25.2822 69.4813 26.221 69.1981 27.2343 69.176C28.2382 69.1487 29.2109 69.397 30.1523 69.9208C31.0937 70.4447 31.822 71.1429 32.3374 72.0156C32.8434 72.8832 33.093 73.8277 33.0861 74.8492C33.0843 75.8614 32.8138 76.8522 32.2743 77.8216ZM31.3516 77.3081C31.7821 76.5345 31.9986 75.7395 32.0013 74.9231C31.9946 74.1015 31.7822 73.3424 31.3641 72.6459C30.9367 71.9442 30.3409 71.3807 29.5766 70.9554C28.8123 70.5301 28.024 70.3234 27.2117 70.3353C26.3901 70.342 25.6332 70.5616 24.9408 70.9942C24.2391 71.4216 23.673 72.0221 23.2425 72.7957C22.812 73.5694 22.5975 74.3716 22.599 75.2025C22.5964 76.0189 22.8062 76.7826 23.2284 77.4937C23.6465 78.1902 24.2377 78.7511 25.002 79.1764C25.7663 79.6017 26.5592 79.811 27.3808 79.8043C28.1983 79.7831 28.9578 79.5588 29.6595 79.1314C30.3571 78.6895 30.9211 78.0817 31.3516 77.3081Z" fill="white"/>
<path d="M33.8694 55.0514L42.9267 61.6398L42.2396 62.5843L34.0105 56.5983L29.8409 62.3302L38.0701 68.3163L37.383 69.2608L28.3258 62.6724L33.8694 55.0514Z" fill="white"/>
<path d="M50.2247 51.8992L50.9847 52.5855L45.6764 58.4633L37.3643 50.9567L42.5117 45.257L43.2717 45.9433L38.9178 50.7643L41.8746 53.4345L45.7566 49.136L46.5047 49.8116L42.6227 54.1101L45.71 56.8983L50.2247 51.8992Z" fill="white"/>
<path d="M49.5901 38.5987C50.6509 37.6407 51.7108 37.1434 52.77 37.1067C53.8292 37.07 54.7592 37.4949 55.5599 38.3816C56.3606 39.2682 56.6889 40.2365 56.5448 41.2865C56.3935 42.3285 55.7875 43.3286 54.7268 44.2865L52.4944 46.3026L54.8643 48.9268L53.9856 49.7204L46.479 41.4083L49.5901 38.5987ZM54.006 43.5362C54.8293 42.7926 55.2977 42.0462 55.4114 41.2967C55.518 40.5394 55.2745 39.8322 54.6812 39.1751C54.0735 38.5022 53.3911 38.1843 52.634 38.2213C51.8697 38.2503 51.076 38.6366 50.2527 39.3801L48.044 41.3747L51.7973 45.5308L54.006 43.5362Z" fill="white"/>
<path d="M74.5966 32.6634L76.56 35.6042L75.6418 36.2172L74.247 34.128L66.1164 39.5561L67.4979 41.6542L66.5797 42.2672L64.6297 39.3174L65.0954 39.0065C65.6838 38.5623 65.7869 37.7946 65.4045 36.7032C65.0163 35.6029 64.2742 34.1745 63.1785 32.4179L61.2683 29.3262L67.5492 25.1329L73.1994 33.5962L74.5966 32.6634ZM64.1189 31.9247C65.0222 33.3737 65.6931 34.6188 66.1316 35.6599C66.5731 36.6861 66.6934 37.4907 66.4927 38.0737L72.228 34.2447L67.1463 26.6331L62.6885 29.6092L64.1189 31.9247Z" fill="white"/>
<path d="M82.6647 29.697C81.676 30.2002 80.6664 30.4388 79.6358 30.4128C78.6099 30.3725 77.6728 30.0834 76.8246 29.5457C75.9859 29.0031 75.3222 28.2517 74.8335 27.2916C74.3448 26.3315 74.1279 25.3527 74.1828 24.3553C74.2472 23.3531 74.5673 22.4301 75.1433 21.5864C75.7239 20.7283 76.5085 20.0477 77.4971 19.5445C78.4858 19.0413 79.4859 18.8075 80.4975 18.8432C81.5186 18.874 82.4556 19.1631 83.3087 19.7103C84.1569 20.2481 84.8254 20.997 85.314 21.9571C85.8027 22.9173 86.0173 23.9032 85.9578 24.915C85.8934 25.9172 85.5732 26.8402 84.9973 27.6839C84.4309 28.5228 83.6533 29.1938 82.6647 29.697ZM82.1857 28.7559C82.9747 28.3543 83.5981 27.8156 84.056 27.1397C84.5091 26.4542 84.7565 25.7059 84.7984 24.8946C84.8355 24.0739 84.6556 23.2737 84.2589 22.4942C83.8621 21.7147 83.3234 21.1032 82.6429 20.6597C81.9574 20.2066 81.2068 19.9663 80.3908 19.9388C79.5701 19.9017 78.7652 20.084 77.9762 20.4856C77.1872 20.8872 76.5614 21.4331 76.0988 22.1234C75.6409 22.7993 75.3887 23.55 75.3421 24.3756C75.3003 25.1869 75.4777 25.9823 75.8745 26.7618C76.2712 27.5413 76.8123 28.1576 77.4977 28.6106C78.1878 29.0493 78.9432 29.2872 79.764 29.3242C80.5894 29.347 81.3967 29.1575 82.1857 28.7559Z" fill="white"/>
<path d="M87.4059 15.1448L91.9553 18.1587L93.3447 12.891L94.6461 12.3971L92.9784 18.7801L98.9043 22.7605L97.6028 23.2544L92.6479 19.9837L91.1106 25.7182L89.8391 26.2008L91.6342 19.3416L86.1344 15.6273L87.4059 15.1448Z" fill="white"/>
<path d="M98.2438 11.3591L99.3627 11.0238L102.578 21.7525L101.459 22.0878L98.2438 11.3591Z" fill="white"/>
<path d="M116.635 17.3719L117.377 20.8292L116.298 21.0608L115.771 18.6047L106.212 20.6559L106.724 23.1153L105.644 23.3469L104.918 19.8863L105.466 19.7688C106.176 19.5726 106.555 18.8968 106.601 17.7413C106.646 16.5754 106.482 14.9741 106.111 12.9374L105.474 9.35938L112.858 7.77487L114.993 17.7244L116.635 17.3719ZM107.167 12.8253C107.473 14.5052 107.638 15.9098 107.662 17.0392C107.694 18.156 107.51 18.9483 107.108 19.4163L113.851 17.9694L111.93 9.02114L106.69 10.1457L107.167 12.8253Z" fill="white"/>
<path d="M129.335 5.85071L130.37 17.0028L129.207 17.1107L128.729 11.9648L121.751 12.6125L122.229 17.7584L121.05 17.8678L120.015 6.71574L121.194 6.60631L121.655 11.577L128.633 10.9293L128.172 5.95865L129.335 5.85071Z" fill="white"/>
<path d="M139.56 17.1472C138.451 17.1172 137.45 16.8447 136.557 16.3297C135.675 15.8044 134.99 15.103 134.501 14.2254C134.024 13.3482 133.799 12.3711 133.828 11.2942C133.857 10.2172 134.134 9.25371 134.659 8.40357C135.194 7.55371 135.916 6.89564 136.825 6.42936C137.745 5.9527 138.759 5.72936 139.868 5.75933C140.977 5.7893 141.967 6.06148 142.839 6.57589C143.721 7.09058 144.407 7.79202 144.895 8.6802C145.383 9.55771 145.613 10.5349 145.584 11.6119C145.555 12.6888 145.273 13.6575 144.737 14.5181C144.202 15.3679 143.48 16.026 142.571 16.4923C141.673 16.9588 140.669 17.1771 139.56 17.1472ZM139.589 16.0916C140.474 16.1155 141.279 15.9398 142.004 15.5646C142.729 15.1787 143.304 14.6394 143.728 13.9466C144.153 13.2431 144.377 12.4542 144.4 11.5799C144.424 10.7055 144.243 9.91103 143.857 9.19633C143.471 8.47098 142.926 7.90139 142.222 7.48756C141.519 7.06306 140.725 6.83886 139.84 6.81494C138.955 6.79103 138.144 6.97186 137.408 7.35745C136.683 7.73267 136.103 8.27186 135.668 8.97503C135.243 9.66782 135.02 10.4514 134.996 11.3257C134.972 12.2001 135.153 12.9999 135.539 13.7253C135.936 14.4403 136.486 15.01 137.19 15.4345C137.904 15.8486 138.704 16.0676 139.589 16.0916Z" fill="white"/>
<path d="M150.459 6.59376L151.635 6.72584L150.386 17.8559L149.209 17.7239L150.459 6.59376ZM149.775 5.22894C149.584 5.20752 149.427 5.12548 149.303 4.98281C149.19 4.84133 149.145 4.66989 149.168 4.46848C149.189 4.27768 149.271 4.12582 149.412 4.0129C149.565 3.89056 149.737 3.84011 149.928 3.86153C150.108 3.88175 150.26 3.9685 150.382 4.12177C150.506 4.26444 150.557 4.43118 150.535 4.62198C150.514 4.81278 150.426 4.96935 150.273 5.09168C150.132 5.2046 149.965 5.25036 149.775 5.22894ZM152.605 5.54664C152.414 5.52522 152.257 5.44318 152.133 5.30051C152.022 5.14843 151.977 4.97699 151.998 4.78619C152.019 4.59538 152.106 4.44412 152.258 4.33239C152.411 4.21005 152.578 4.159 152.758 4.17923C152.949 4.20065 153.1 4.2874 153.212 4.43948C153.336 4.58215 153.387 4.74888 153.365 4.93968C153.343 5.14109 153.255 5.29765 153.103 5.40938C152.962 5.52231 152.796 5.56806 152.605 5.54664Z" fill="white"/>
<path d="M171.347 10.5489L168.748 21.4431L167.612 21.172L168.811 16.1451L161.994 14.5185L160.795 19.5454L159.643 19.2706L162.243 8.37642L163.394 8.65123L162.236 13.5069L169.052 15.1335L170.211 10.2778L171.347 10.5489Z" fill="white"/>
<path d="M181.12 24.6332L180.775 25.5972L173.319 22.9266L177.095 12.3825L184.325 14.9722L183.98 15.9363L177.865 13.7458L176.521 17.4965L181.974 19.4495L181.634 20.3985L176.181 18.4454L174.779 22.3618L181.12 24.6332Z" fill="white"/>
<path d="M192.803 18.8083C194.094 19.4234 194.958 20.2135 195.396 21.1786C195.834 22.1436 195.796 23.1654 195.282 24.2438C194.767 25.3222 193.998 25.995 192.972 26.2624C191.951 26.5202 190.796 26.3415 189.505 25.7265L186.79 24.4321L185.268 27.624L184.2 27.1145L189.019 17.0045L192.803 18.8083ZM189.924 24.7739C190.925 25.2513 191.794 25.3995 192.53 25.2187C193.271 25.0283 193.832 24.5334 194.213 23.7343C194.603 22.9158 194.636 22.1638 194.313 21.478C193.995 20.7826 193.335 20.1963 192.334 19.7189L189.647 18.4383L187.238 23.4933L189.924 24.7739Z" fill="white"/>
<path d="M208.061 27.404L198.826 32.8285C198.168 33.2154 197.543 33.4231 196.952 33.4517C196.376 33.4768 195.841 33.3401 195.349 33.0416C194.984 32.8206 194.644 32.4963 194.329 32.0687L195.114 31.4217C195.365 31.7484 195.627 31.9946 195.901 32.1604C196.531 32.5417 197.253 32.5118 198.069 32.0707L198.625 31.7712L199.206 22.0407L200.287 22.6956L199.697 31.205L207.048 26.7906L208.061 27.404Z" fill="white"/>
<path d="M211.445 29.8371L211.353 35.2935L216.54 33.6297L217.657 34.4609L211.379 36.4902L211.214 43.6269L210.097 42.7958L210.187 36.8594L204.526 38.6497L203.436 37.8377L210.183 35.6594L210.354 29.0251L211.445 29.8371Z" fill="white"/>
<path d="M217.331 49.2592C216.518 48.5038 215.947 47.6377 215.617 46.661C215.303 45.6837 215.252 44.7044 215.465 43.723C215.686 42.7489 216.164 41.8674 216.897 41.0784C217.631 40.2895 218.476 39.7493 219.431 39.458C220.394 39.1739 221.371 39.1572 222.361 39.408C223.367 39.6583 224.276 40.1611 225.088 40.9165C225.9 41.6719 226.464 42.5307 226.778 43.4929C227.1 44.4624 227.151 45.4417 226.93 46.4309C226.717 47.4123 226.243 48.2975 225.51 49.0864C224.776 49.8754 223.924 50.4158 222.953 50.7077C221.99 50.9918 221.013 51.0084 220.023 50.7576C219.041 50.5141 218.143 50.0146 217.331 49.2592ZM218.05 48.4859C218.698 49.0887 219.418 49.489 220.21 49.6866C221.01 49.8764 221.798 49.8516 222.574 49.612C223.357 49.3647 224.047 48.9207 224.643 48.2802C225.238 47.6396 225.627 46.9236 225.81 46.132C226 45.3326 225.967 44.5451 225.713 43.7694C225.465 42.9859 225.017 42.2927 224.369 41.6899C223.721 41.087 222.993 40.687 222.186 40.4899C221.394 40.2923 220.602 40.3136 219.811 40.5536C219.034 40.7932 218.348 41.2332 217.753 41.8738C217.157 42.5143 216.764 43.2343 216.575 44.0337C216.4 44.8325 216.436 45.6237 216.684 46.4072C216.946 47.1901 217.401 47.883 218.05 48.4859Z" fill="white"/>
<path d="M240.225 57.6881L231.619 64.8562L230.892 63.9833L237.777 58.2488L229.171 59.6911L228.812 59.2609L231.75 51.0876L224.902 56.7914L224.175 55.9186L232.781 48.7504L233.405 49.5004L230.138 58.5523L239.601 56.9381L240.225 57.6881Z" fill="white"/>
<path d="M236.71 72.7547C236.115 71.8188 235.78 70.8366 235.708 69.8083C235.65 68.7832 235.848 67.8228 236.302 66.927C236.762 66.0402 237.446 65.3076 238.355 64.7293C239.264 64.151 240.217 63.8414 241.216 63.8005C242.219 63.7687 243.169 63.9991 244.064 64.4916C244.973 64.9874 245.726 65.7033 246.321 66.6393C246.917 67.5752 247.245 68.5484 247.307 69.5587C247.374 70.5781 247.176 71.5385 246.713 72.44C246.258 73.3358 245.577 74.0729 244.668 74.6512C243.759 75.2295 242.798 75.5375 241.785 75.575C240.782 75.6069 239.832 75.3765 238.937 74.8839C238.048 74.4004 237.306 73.6906 236.71 72.7547ZM237.601 72.1878C238.076 72.9348 238.672 73.5038 239.389 73.8949C240.114 74.2803 240.883 74.455 241.695 74.419C242.515 74.3774 243.294 74.1218 244.032 73.6522C244.77 73.1827 245.327 72.588 245.704 71.8681C246.089 71.1425 246.257 70.3722 246.206 69.5574C246.164 68.7369 245.906 67.9531 245.431 67.2062C244.955 66.4592 244.352 65.8885 243.621 65.4942C242.904 65.1031 242.133 64.9238 241.306 64.9565C240.495 64.9925 239.72 65.2452 238.982 65.7147C238.244 66.1843 237.682 66.7818 237.297 67.5075C236.926 68.2364 236.762 69.0111 236.804 69.8317C236.86 70.6555 237.126 71.4409 237.601 72.1878Z" fill="white"/>
<path d="M243.554 85.2038C243.065 84.2078 242.844 83.1996 242.89 82.1791C242.94 81.1681 243.241 80.2426 243.791 79.4024C244.356 78.5672 245.122 77.9123 246.089 77.4379C247.056 76.9635 248.038 76.7612 249.035 76.8308C250.045 76.9054 250.968 77.2368 251.803 77.8252C252.638 78.4136 253.3 79.2058 253.789 80.2018C254.155 80.9488 254.369 81.6994 254.43 82.4536C254.491 83.2078 254.39 83.9226 254.127 84.5979L253.121 84.2539C253.53 83.0788 253.442 81.8926 252.855 80.6955C252.465 79.9007 251.928 79.2668 251.245 78.7941C250.562 78.3214 249.812 78.0532 248.997 77.9898C248.186 77.9358 247.389 78.1015 246.603 78.4866C245.818 78.8718 245.198 79.4013 244.745 80.0752C244.296 80.7587 244.049 81.5153 244.005 82.345C243.96 83.1748 244.133 83.987 244.523 84.7819C245.115 85.9886 246.003 86.7825 247.188 87.1637L246.844 88.17C246.149 87.9643 245.515 87.6041 244.942 87.0892C244.383 86.5793 243.92 85.9508 243.554 85.2038Z" fill="white"/>
<path d="M258.806 95.4885L257.423 91.8034L247.896 95.3783L247.485 94.2848L257.013 90.7099L255.63 87.0248L256.589 86.665L259.765 95.1288L258.806 95.4885Z" fill="white"/>
<path d="M260.689 98.4064L261.025 99.5253L250.296 102.74L249.961 101.621L260.689 98.4064Z" fill="white"/>
</svg>
