<svg width="24" height="24" viewBox="0 0 24 24" fill="none" xmlns="http://www.w3.org/2000/svg">
<path d="M23.1281 1.15314L18.2531 0.0281436C17.7235 -0.0937313 17.1797 0.182831 16.9641 0.679706L14.7141 5.9297C14.5172 6.38908 14.6484 6.92814 15.0375 7.2422L17.8781 9.5672C16.1906 13.1625 13.2422 16.1531 9.57188 17.8734L7.24688 15.0328C6.92813 14.6438 6.39375 14.5125 5.93438 14.7094L0.684376 16.9594C0.182813 17.1797 -0.0937501 17.7234 0.028125 18.2531L1.15313 23.1281C1.27031 23.6344 1.72031 24 2.25 24C14.2547 24 24 14.2735 24 2.25002C24 1.72502 23.6391 1.27033 23.1281 1.15314Z" fill="black"/>
</svg>
