<svg width="19" height="24" viewBox="0 0 19 24" fill="none" xmlns="http://www.w3.org/2000/svg">
<path d="M10.4375 0.303711C5.62813 0.303711 0.875 3.50996 0.875 8.69902C0.875 11.999 2.73125 13.874 3.85625 13.874C4.32031 13.874 4.5875 12.5803 4.5875 12.2146C4.5875 11.7787 3.47656 10.8506 3.47656 9.03652C3.47656 5.26777 6.34531 2.5959 10.0578 2.5959C13.25 2.5959 15.6125 4.40996 15.6125 7.74277C15.6125 10.2318 14.6141 14.9006 11.3797 14.9006C10.2125 14.9006 9.21406 14.0568 9.21406 12.8475C9.21406 11.0756 10.4516 9.35996 10.4516 7.53184C10.4516 4.42871 6.05 4.99121 6.05 8.74121C6.05 9.52871 6.14844 10.4006 6.5 11.1178C5.85312 13.9021 4.53125 18.0506 4.53125 20.9193C4.53125 21.8053 4.65781 22.6772 4.74219 23.5631C4.90156 23.7412 4.82188 23.7225 5.06563 23.6334C7.42813 20.399 7.34375 19.7662 8.4125 15.5334C8.98906 16.6303 10.4797 17.2209 11.6609 17.2209C16.6391 17.2209 18.875 12.3693 18.875 7.9959C18.875 3.34121 14.8531 0.303711 10.4375 0.303711Z" fill="black"/>
</svg>
