<svg width="193" height="69" viewBox="0 0 193 69" fill="none" xmlns="http://www.w3.org/2000/svg">
<g clip-path="url(#clip0_405_61)">
<path d="M52.1602 40.23V45.23H35.7002V17H41.1502V40.23H52.1602Z" fill="white"/>
<path d="M71.8399 40.23V45.23H55.3799V17H60.8299V40.23H71.8399Z" fill="white"/>
<path d="M92.91 35.89H88.7V45.24H83.25V17H93.15C99.15 17 103.15 20.82 103.15 26.59C103.15 30.64 101.21 33.59 97.94 34.98L104.54 45.24H98.74L92.91 35.89ZM88.7 31.16H92.6C95.6 31.16 97.6 29.89 97.6 26.59C97.6 23.29 95.6 22.01 92.6 22.01H88.7V31.16Z" fill="white"/>
<path d="M107.35 17H112.79V45.24H107.35V17Z" fill="white"/>
<path d="M130.88 45.6299C128.963 45.6797 127.056 45.338 125.275 44.6259C123.494 43.9138 121.877 42.8462 120.523 41.4882C119.169 40.1302 118.106 38.5104 117.399 36.7278C116.691 34.9451 116.355 33.037 116.41 31.1199C116.41 22.3299 123.09 16.6099 131.04 16.6099C133.311 16.5442 135.559 17.0746 137.561 18.1484C139.563 19.2222 141.249 20.8018 142.45 22.7299L138.52 25.4699C137.69 24.2886 136.579 23.3326 135.287 22.6884C133.995 22.0441 132.563 21.7319 131.12 21.7799C126.07 21.7799 121.98 25.3199 121.98 31.1199C121.98 36.9199 125.98 40.6199 131.12 40.6199C134.58 40.6199 137.72 38.9899 138.56 34.6199H131.8V30.0499H143.8C145.12 39.8299 138.68 45.6299 130.88 45.6299Z" fill="white"/>
<path d="M170.12 17V45.24H164.68V33.67H153.07V45.24H147.62V17H153.07V28.66H164.68V17H170.12Z" fill="white"/>
<path d="M192.78 22H186V45.24H180.56V22H173.76V17H192.76L192.78 22Z" fill="white"/>
<path d="M30.1899 58.1499H31.4399V65.9999H30.1899V58.1499Z" fill="#9B8264"/>
<path d="M38.1301 62.6101V66.0001H36.9001V62.8101C36.9001 61.8101 36.3501 61.2401 35.5001 61.2401C35.2989 61.234 35.0988 61.2717 34.9136 61.3506C34.7283 61.4295 34.5625 61.5477 34.4274 61.697C34.2924 61.8463 34.1914 62.0232 34.1314 62.2154C34.0715 62.4075 34.054 62.6105 34.0801 62.8101V66.0001H32.8701V60.2501H34.0801V61.1101C34.2652 60.788 34.5363 60.5239 34.8631 60.3473C35.1898 60.1707 35.5593 60.0885 35.9301 60.1101C36.2481 60.1002 36.5644 60.1607 36.8563 60.2872C37.1482 60.4137 37.4086 60.6032 37.6188 60.8421C37.8289 61.0809 37.9838 61.3632 38.0722 61.6689C38.1606 61.9745 38.1804 62.2959 38.1301 62.6101V62.6101Z" fill="#9B8264"/>
<path d="M39 60.25H40.2L42 64.52L43.73 60.25H44.99L42.51 66H41.37L39 60.25Z" fill="#9B8264"/>
<path d="M51 63.58H46.53C46.6083 64.0294 46.8517 64.4335 47.2124 64.7128C47.5732 64.9921 48.0253 65.1267 48.48 65.09C49.0681 65.1055 49.6388 64.8901 50.07 64.49L50.65 65.09C50.3615 65.4127 50.0066 65.6692 49.6095 65.8418C49.2125 66.0145 48.7828 66.0991 48.35 66.09C47.5544 66.1019 46.7866 65.7973 46.2155 65.2431C45.6445 64.6889 45.317 63.9306 45.305 63.135C45.2931 62.3393 45.5977 61.5715 46.1519 61.0005C46.7061 60.4294 47.4644 60.1019 48.26 60.09C48.6887 60.0859 49.1126 60.1804 49.499 60.366C49.8854 60.5517 50.224 60.8236 50.4888 61.1608C50.7535 61.498 50.9373 61.8914 51.0259 62.3109C51.1145 62.7303 51.1057 63.1645 51 63.58V63.58ZM46.48 62.68H50C49.9898 62.4706 49.9381 62.2654 49.8478 62.0762C49.7576 61.887 49.6305 61.7177 49.4742 61.5781C49.3178 61.4385 49.1353 61.3314 48.9371 61.263C48.739 61.1947 48.5292 61.1665 48.32 61.18C47.8854 61.1539 47.4572 61.2945 47.1227 61.5732C46.7883 61.852 46.5727 62.2478 46.52 62.68H46.48Z" fill="#9B8264"/>
<path d="M51.73 64.5199L52.73 64.2499C52.7813 64.4994 52.9185 64.7231 53.1176 64.882C53.3168 65.041 53.5653 65.1251 53.82 65.1199C54.27 65.1199 54.71 64.8899 54.71 64.3799C54.71 63.8699 54.47 63.7899 53.92 63.5699L53.3 63.3399C52.9294 63.2534 52.5972 63.0484 52.3536 62.7561C52.11 62.4638 51.9683 62.1 51.95 61.7199C51.9633 61.4895 52.0238 61.2642 52.1275 61.058C52.2312 60.8519 52.3761 60.6691 52.5532 60.5211C52.7303 60.373 52.9358 60.2628 53.1571 60.1973C53.3784 60.1317 53.6108 60.1122 53.84 60.1399C54.2682 60.1106 54.6932 60.2327 55.0405 60.485C55.3878 60.7372 55.6354 61.1036 55.74 61.5199L54.74 61.7699C54.6865 61.5764 54.5699 61.4063 54.4086 61.2867C54.2473 61.1671 54.0507 61.1049 53.85 61.1099C53.41 61.1099 53.1 61.3499 53.1 61.7299C53.1 62.1099 53.29 62.2799 53.81 62.4699L54.37 62.6899C55.17 62.9899 55.89 63.3999 55.89 64.3799C55.89 65.5299 54.89 66.0999 53.79 66.0999C53.3112 66.1422 52.8339 66.0034 52.4525 65.7108C52.071 65.4183 51.8132 64.9933 51.73 64.5199Z" fill="#9B8264"/>
<path d="M58.7099 61.23V64.38C58.7099 64.71 58.8899 64.96 59.3399 64.96C59.5212 64.9588 59.7007 64.9249 59.8699 64.86V65.86C59.6036 66.0255 59.2931 66.1058 58.9799 66.09C58.7801 66.117 58.5767 66.0981 58.3853 66.0349C58.1938 65.9716 58.0192 65.8657 57.8747 65.725C57.7302 65.5844 57.6196 65.4127 57.5512 65.223C57.4828 65.0333 57.4584 64.8305 57.4799 64.63V61.23H56.6899V60.23H57.4799V58.78H58.7099V60.25H59.8699V61.25L58.7099 61.23Z" fill="#9B8264"/>
<path d="M69.7601 62.63V66H68.5301V62.7C68.5301 61.77 68.0801 61.24 67.3101 61.24C66.5401 61.24 66.0001 61.77 66.0001 62.7V66H64.8101V62.7C64.8101 61.77 64.3501 61.24 63.5901 61.24C62.8301 61.24 62.3001 61.77 62.3001 62.7V66H61.0801V60.25H62.3001V61.06C62.4736 60.7671 62.7234 60.5268 63.0228 60.3648C63.3222 60.2028 63.66 60.1251 64.0001 60.14C64.3572 60.1197 64.7126 60.2033 65.0232 60.3808C65.3338 60.5583 65.5863 60.822 65.7501 61.14C65.9458 60.8116 66.229 60.5441 66.5681 60.3675C66.9072 60.1909 67.2888 60.1121 67.6701 60.14C68.8701 60.14 69.7601 60.9 69.7601 62.63Z" fill="#9B8264"/>
<path d="M76.5601 63.58H72.0501C72.1288 64.0389 72.3795 64.4505 72.7511 64.731C73.1226 65.0116 73.5872 65.1399 74.0501 65.09C74.638 65.1044 75.2083 64.8892 75.6401 64.49L76.2101 65.09C75.9246 65.4165 75.5702 65.6756 75.1725 65.8485C74.7747 66.0214 74.3436 66.1039 73.9101 66.09C73.5161 66.0959 73.1248 66.0241 72.7586 65.8788C72.3924 65.7335 72.0583 65.5175 71.7756 65.2431C71.2045 64.6889 70.877 63.9306 70.8651 63.135C70.8531 62.3393 71.1578 61.5715 71.7119 61.0005C72.2661 60.4294 73.0244 60.1019 73.8201 60.09C74.2488 60.0859 74.6726 60.1804 75.0591 60.366C75.4455 60.5517 75.7841 60.8236 76.0488 61.1608C76.3135 61.498 76.4973 61.8914 76.586 62.3109C76.6746 62.7303 76.6657 63.1645 76.5601 63.58V63.58ZM72.0001 62.68H75.4301C75.4199 62.4715 75.3685 62.2671 75.2788 62.0786C75.1892 61.8902 75.0631 61.7213 74.9078 61.5818C74.7525 61.4424 74.5711 61.335 74.3741 61.2661C74.1772 61.1971 73.9685 61.1678 73.7601 61.18C73.3328 61.1665 72.9158 61.3127 72.5904 61.5901C72.265 61.8674 72.0546 62.2559 72.0001 62.68V62.68Z" fill="#9B8264"/>
<path d="M83 62.6101V66.0001H81.78V62.8101C81.78 61.8101 81.23 61.2401 80.38 61.2401C80.1821 61.2398 79.9865 61.2818 79.8061 61.3633C79.6258 61.4447 79.4649 61.5638 79.3343 61.7124C79.2036 61.861 79.1062 62.0358 79.0486 62.2251C78.9909 62.4144 78.9744 62.6138 79 62.8101V66.0001H77.75V60.2501H79V61.1101C79.1851 60.788 79.4562 60.5239 79.783 60.3473C80.1097 60.1707 80.4792 60.0885 80.85 60.1101C81.1638 60.1076 81.4744 60.1736 81.7602 60.3033C82.0459 60.4331 82.3 60.6236 82.5046 60.8616C82.7093 61.0995 82.8596 61.3792 82.9451 61.6812C83.0307 61.9832 83.0494 62.3001 83 62.6101Z" fill="#9B8264"/>
<path d="M86 61.23V64.38C86 64.71 86.18 64.96 86.63 64.96C86.8112 64.9588 86.9908 64.9249 87.16 64.86V65.86C86.8942 66.0267 86.5833 66.1071 86.27 66.09C86.0697 66.1129 85.8668 66.0899 85.6766 66.0228C85.4865 65.9557 85.3141 65.8462 85.1725 65.7027C85.0309 65.5591 84.9238 65.3853 84.8592 65.1943C84.7947 65.0032 84.7744 64.8 84.8 64.6V61.23H84V60.23H84.8V58.78H86V60.25H87.16V61.25L86 61.23Z" fill="#9B8264"/>
<path d="M97.59 64.8599V65.8599C97.386 66.0216 97.13 66.1034 96.87 66.0899C96.7181 66.0967 96.5665 66.0704 96.4258 66.0129C96.285 65.9553 96.1584 65.8679 96.0547 65.7567C95.9511 65.6454 95.8728 65.513 95.8254 65.3685C95.778 65.224 95.7625 65.0709 95.78 64.9199V64.7699C95.5813 65.2042 95.2544 65.5673 94.8432 65.8104C94.4321 66.0536 93.9564 66.165 93.48 66.1299C93.1342 66.1508 92.7878 66.0996 92.4628 65.9795C92.1379 65.8595 91.8414 65.6732 91.5922 65.4325C91.343 65.1918 91.1466 64.9019 91.0154 64.5813C90.8842 64.2606 90.8211 63.9162 90.83 63.5699C90.7943 62.9859 90.9805 62.4101 91.3514 61.9576C91.7223 61.5051 92.2504 61.2095 92.83 61.1299L91.4 58.1299H95.64V59.1299H92.87L94.13 61.8399H93.8C93.5805 61.8158 93.3583 61.8386 93.1483 61.9068C92.9382 61.975 92.7451 62.087 92.5815 62.2354C92.418 62.3838 92.2878 62.5652 92.1996 62.7677C92.1115 62.9702 92.0673 63.1891 92.07 63.4099C92.0627 63.6241 92.1001 63.8375 92.18 64.0364C92.2599 64.2353 92.3804 64.4153 92.5338 64.565C92.6872 64.7146 92.8702 64.8306 93.071 64.9055C93.2718 64.9804 93.486 65.0125 93.7 64.9999C93.936 65.0086 94.1713 64.968 94.3907 64.8807C94.6102 64.7934 94.8091 64.6613 94.9746 64.4929C95.1402 64.3245 95.2689 64.1234 95.3525 63.9025C95.4361 63.6816 95.4727 63.4457 95.46 63.2099V61.2099H97.46V62.2099H96.63V64.3499C96.6212 64.4247 96.6288 64.5006 96.6523 64.5723C96.6758 64.6439 96.7145 64.7096 96.7659 64.7648C96.8173 64.8199 96.88 64.8633 96.9498 64.8918C97.0196 64.9203 97.0947 64.9333 97.17 64.9299C97.3134 64.937 97.4567 64.9131 97.59 64.8599Z" fill="#9B8264"/>
<path d="M101.33 58.1499H103.93C104.97 58.1499 105.967 58.5629 106.702 59.298C107.437 60.0332 107.85 61.0303 107.85 62.0699C107.85 63.1095 107.437 64.1066 106.702 64.8418C105.967 65.5769 104.97 65.9899 103.93 65.9899H101.33V58.1499ZM103.89 64.8099C104.576 64.7512 105.216 64.4371 105.681 63.9298C106.147 63.4224 106.406 62.7587 106.406 62.0699C106.406 61.3811 106.147 60.7174 105.681 60.21C105.216 59.7027 104.576 59.3886 103.89 59.3299H102.58V64.8099H103.89Z" fill="#9B8264"/>
<path d="M114.34 63.58H109.83C109.909 64.0389 110.16 64.4505 110.531 64.731C110.903 65.0116 111.367 65.1399 111.83 65.09C112.418 65.1055 112.989 64.8902 113.42 64.49L113.99 65.09C113.705 65.4165 113.35 65.6756 112.953 65.8485C112.555 66.0215 112.124 66.1039 111.69 66.09C110.895 66.1006 110.127 65.7947 109.557 65.2396C108.987 64.6845 108.661 63.9256 108.65 63.13C108.64 62.3343 108.945 61.5671 109.501 60.997C110.056 60.4269 110.815 60.1006 111.61 60.09C112.039 60.0855 112.462 60.1798 112.849 60.3655C113.235 60.5512 113.573 60.8233 113.837 61.1609C114.101 61.4984 114.284 61.8922 114.371 62.3117C114.458 62.7312 114.448 63.1652 114.34 63.58V63.58ZM109.82 62.68H113.26C113.234 62.259 113.043 61.8652 112.729 61.5843C112.414 61.3034 112.001 61.1581 111.58 61.18C111.153 61.1666 110.736 61.3128 110.41 61.5901C110.085 61.8674 109.875 62.256 109.82 62.68Z" fill="#9B8264"/>
<path d="M114.81 60.25H116.06L117.81 64.52L119.54 60.25H120.8L118.37 66H117.23L114.81 60.25Z" fill="#9B8264"/>
<path d="M126.9 63.5799H122.39C122.469 64.0388 122.72 64.4504 123.091 64.7309C123.463 65.0115 123.927 65.1398 124.39 65.0899C124.978 65.1054 125.549 64.8901 125.98 64.4899L126.56 65.0899C126.272 65.4127 125.917 65.6692 125.52 65.8418C125.123 66.0144 124.693 66.099 124.26 66.0899C123.866 66.0958 123.475 66.0241 123.109 65.8788C122.742 65.7334 122.408 65.5174 122.126 65.243C121.555 64.6889 121.227 63.9305 121.215 63.1349C121.203 62.3392 121.508 61.5714 122.062 61.0004C122.616 60.4293 123.375 60.1018 124.17 60.0899C124.598 60.0874 125.021 60.183 125.406 60.3693C125.791 60.5556 126.128 60.8277 126.392 61.1647C126.656 61.5017 126.838 61.8946 126.927 62.3133C127.015 62.7319 127.006 63.1652 126.9 63.5799V63.5799ZM122.38 62.6799H125.81C125.8 62.4705 125.748 62.2653 125.658 62.0761C125.568 61.8869 125.441 61.7176 125.284 61.578C125.128 61.4384 124.945 61.3313 124.747 61.263C124.549 61.1946 124.339 61.1664 124.13 61.1799C123.704 61.1667 123.288 61.3132 122.964 61.5907C122.641 61.8682 122.432 62.2567 122.38 62.6799V62.6799Z" fill="#9B8264"/>
<path d="M128.09 58.1499H129.3V65.9999H128.09V58.1499Z" fill="#9B8264"/>
<path d="M130.46 63.1201C130.46 62.5268 130.636 61.9468 130.966 61.4534C131.295 60.9601 131.764 60.5755 132.312 60.3485C132.86 60.1214 133.463 60.062 134.045 60.1778C134.627 60.2935 135.162 60.5792 135.581 60.9988C136.001 61.4184 136.287 61.9529 136.402 62.5348C136.518 63.1168 136.459 63.72 136.232 64.2682C136.005 64.8163 135.62 65.2849 135.127 65.6145C134.633 65.9442 134.053 66.1201 133.46 66.1201C133.063 66.1326 132.667 66.0636 132.297 65.9172C131.928 65.7709 131.592 65.5503 131.311 65.2692C131.03 64.9881 130.809 64.6524 130.663 64.2828C130.516 63.9132 130.447 63.5175 130.46 63.1201V63.1201ZM135.26 63.1201C135.244 62.7675 135.125 62.4273 134.918 62.1418C134.71 61.8563 134.423 61.6381 134.093 61.5144C133.762 61.3906 133.403 61.3668 133.059 61.4459C132.715 61.5249 132.401 61.7033 132.158 61.9589C131.915 62.2145 131.752 62.5361 131.69 62.8835C131.628 63.231 131.669 63.589 131.809 63.9131C131.949 64.2372 132.181 64.513 132.476 64.7063C132.771 64.8995 133.117 65.0017 133.47 65.0001C133.713 65.0019 133.954 64.9537 134.178 64.8587C134.402 64.7637 134.604 64.6238 134.772 64.4476C134.94 64.2714 135.069 64.0627 135.153 63.8344C135.237 63.6061 135.274 63.363 135.26 63.1201V63.1201Z" fill="#9B8264"/>
<path d="M143.54 63.12C143.569 63.5036 143.518 63.8891 143.391 64.2522C143.264 64.6154 143.063 64.9482 142.801 65.23C142.539 65.5117 142.222 65.7362 141.869 65.8894C141.516 66.0425 141.135 66.121 140.75 66.12C140.358 66.1483 139.965 66.0704 139.613 65.8944C139.261 65.7185 138.963 65.4509 138.75 65.12V65.12V68.12H137.54V60.25H138.75V61.16C138.964 60.8305 139.263 60.5641 139.614 60.3883C139.966 60.2126 140.358 60.1337 140.75 60.16C141.131 60.1592 141.508 60.2366 141.859 60.3874C142.209 60.5381 142.524 60.7589 142.785 61.0363C143.047 61.3136 143.249 61.6416 143.379 62C143.508 62.3584 143.563 62.7395 143.54 63.12ZM142.33 63.12C142.318 62.7624 142.201 62.4162 141.994 62.1247C141.786 61.8332 141.498 61.6093 141.164 61.481C140.83 61.3527 140.465 61.3257 140.116 61.4034C139.767 61.481 139.448 61.6599 139.2 61.9177C138.952 62.1754 138.785 62.5006 138.721 62.8526C138.656 63.2045 138.697 63.5676 138.838 63.8965C138.979 64.2254 139.214 64.5055 139.513 64.7017C139.812 64.898 140.162 65.0017 140.52 65C140.765 65.006 141.009 64.9609 141.236 64.8676C141.463 64.7744 141.668 64.6349 141.839 64.4581C142.009 64.2813 142.14 64.0711 142.225 63.8407C142.31 63.6103 142.345 63.3649 142.33 63.12Z" fill="#9B8264"/>
<path d="M153.37 62.6299V65.9999H152.14V62.6999C152.14 61.7699 151.69 61.2399 150.93 61.2399C150.17 61.2399 149.65 61.7699 149.65 62.6999V65.9999H148.42V62.6999C148.42 61.7699 147.97 61.2399 147.2 61.2399C146.43 61.2399 145.91 61.7699 145.91 62.6999V65.9999H144.7V60.2499H145.91V61.0599C146.084 60.767 146.333 60.5268 146.633 60.3647C146.932 60.2027 147.27 60.125 147.61 60.1399C147.967 60.1196 148.323 60.2032 148.633 60.3807C148.944 60.5582 149.196 60.8219 149.36 61.1399C149.558 60.8131 149.841 60.5469 150.18 60.3705C150.519 60.1941 150.899 60.1143 151.28 60.1399C152.48 60.1399 153.37 60.8999 153.37 62.6299Z" fill="#9B8264"/>
<path d="M160.17 63.58H155.66C155.741 64.0378 155.992 64.448 156.363 64.7281C156.734 65.0082 157.198 65.1375 157.66 65.09C158.248 65.1055 158.819 64.8902 159.25 64.49L159.82 65.09C159.537 65.4163 159.184 65.6753 158.788 65.8483C158.392 66.0213 157.962 66.1038 157.53 66.09C157.136 66.0959 156.745 66.0242 156.379 65.8789C156.012 65.7336 155.678 65.5175 155.396 65.2431C154.825 64.689 154.497 63.9306 154.485 63.135C154.473 62.3393 154.778 61.5715 155.332 61.0005C155.886 60.4294 156.645 60.1019 157.44 60.09C157.869 60.0855 158.292 60.1798 158.679 60.3655C159.065 60.5512 159.403 60.8233 159.667 61.1609C159.931 61.4984 160.114 61.8922 160.201 62.3117C160.288 62.7312 160.278 63.1652 160.17 63.58V63.58ZM155.65 62.68H159.09C159.079 62.4711 159.026 62.2665 158.935 62.0779C158.845 61.8894 158.718 61.7206 158.562 61.5813C158.405 61.4419 158.223 61.3347 158.026 61.2659C157.828 61.197 157.619 61.1678 157.41 61.18C156.983 61.1666 156.566 61.3128 156.24 61.5901C155.915 61.8674 155.705 62.256 155.65 62.68V62.68Z" fill="#9B8264"/>
<path d="M166.62 62.61V66H165.39V62.81C165.39 61.81 164.84 61.24 163.99 61.24C163.789 61.2354 163.59 61.2742 163.406 61.3538C163.222 61.4333 163.058 61.5517 162.924 61.7009C162.79 61.85 162.69 62.0263 162.631 62.2178C162.571 62.4092 162.554 62.6113 162.58 62.81V66H161.36V60.25H162.58V61.11C162.764 60.7896 163.034 60.5265 163.359 60.3499C163.683 60.1734 164.051 60.0904 164.42 60.11C164.738 60.1001 165.054 60.1606 165.346 60.2872C165.638 60.4137 165.898 60.6032 166.108 60.842C166.319 61.0809 166.474 61.3632 166.562 61.6688C166.65 61.9744 166.67 62.2958 166.62 62.61V62.61Z" fill="#9B8264"/>
<path d="M169.63 61.23V64.38C169.63 64.71 169.81 64.96 170.26 64.96C170.441 64.9597 170.621 64.9258 170.79 64.86V65.86C170.524 66.0267 170.213 66.1071 169.9 66.09C169.701 66.1153 169.499 66.0952 169.308 66.0312C169.118 65.9672 168.945 65.861 168.802 65.7206C168.658 65.5801 168.549 65.4091 168.481 65.2202C168.413 65.0313 168.389 64.8296 168.41 64.63V61.23H167.61V60.23H168.41V58.78H169.63V60.25H170.79V61.25L169.63 61.23Z" fill="#9B8264"/>
<path d="M32.0702 45.24H27.1002V31.91L21.6602 26.4599L25.1702 22.95L32.0702 29.85V45.24Z" fill="white"/>
<path d="M7.56 33.4399L0 25.88L3.51 22.36L7.36 26.2099L24.44 8.19995L28.14 11.51L7.56 33.4399Z" fill="white"/>
<path d="M7.55996 39.5099L4.99996 36.95H4.95996V45.24H9.92996V36.95H9.84996L7.55996 39.5099Z" fill="white"/>
<path d="M17.6599 32.54H14.8999V35.3H17.6599V32.54Z" fill="white"/>
<path d="M17.6599 36.95H14.8999V39.7099H17.6599V36.95Z" fill="white"/>
<path d="M22.0798 32.54H19.3198V35.3H22.0798V32.54Z" fill="white"/>
<path d="M22.0798 36.95H19.3198V39.7099H22.0798V36.95Z" fill="white"/>
<path d="M116.48 14.14L110.15 7.81L104.1 13.86L100.19 9.96L110.15 0L120.39 10.24L116.48 14.14Z" fill="#9B8264"/>
</g>
<defs>
<clipPath id="clip0_405_61">
<rect width="192.78" height="68.09" fill="white"/>
</clipPath>
</defs>
</svg>
