<svg width="21" height="22" viewBox="0 0 21 22" fill="none" xmlns="http://www.w3.org/2000/svg">
<path d="M19.3639 9.42969L20.4045 10.4703C20.8451 10.9109 20.8451 11.6234 20.4045 12.0594L11.2967 21.1719C10.8561 21.6125 10.1436 21.6125 9.70762 21.1719L0.595117 12.0594C0.154492 11.6187 0.154492 10.9062 0.595117 10.4703L1.63574 9.42969C2.08106 8.98437 2.80762 8.99375 3.24356 9.44844L8.62481 15.0969V1.625C8.62481 1.00156 9.12637 0.5 9.74981 0.5H11.2498C11.8732 0.5 12.3748 1.00156 12.3748 1.625V15.0969L17.7561 9.44844C18.192 8.98906 18.9186 8.97969 19.3639 9.42969Z" fill="black"/>
</svg>
