<svg width="24" height="25" viewBox="0 0 24 25" fill="none" xmlns="http://www.w3.org/2000/svg">
<path d="M21.058 2.33729C20.4627 1.78886 18.0533 0.0404199 12.6814 0.0169824C12.6814 0.0169824 6.34863 -0.362705 3.26426 2.46854C1.54863 4.18417 0.943944 6.70135 0.878319 9.81854C0.812694 12.9357 0.733006 18.7763 6.3627 20.3607H6.36738L6.3627 22.7795C6.3627 22.7795 6.3252 23.7592 6.97207 23.956C7.7502 24.1998 8.20957 23.4545 8.95489 22.6529C9.3627 22.2123 9.9252 21.5654 10.3518 21.0732C14.2049 21.3967 17.1627 20.656 17.5002 20.5482C18.2783 20.2951 22.6799 19.7326 23.3924 13.892C24.133 7.86385 23.0361 4.05761 21.058 2.33729V2.33729ZM21.7096 13.4514C21.1049 18.3263 17.5377 18.6357 16.8815 18.8467C16.6002 18.9357 13.9986 19.5826 10.7314 19.3717C10.7314 19.3717 8.29395 22.3107 7.53457 23.0748C7.28613 23.3232 7.01426 23.2998 7.01895 22.8076C7.01895 22.4842 7.0377 18.7904 7.0377 18.7904C7.03301 18.7904 7.03301 18.7904 7.0377 18.7904C2.26582 17.4685 2.54707 12.4951 2.59863 9.89354C2.65019 7.29198 3.14238 5.15917 4.59551 3.72479C7.20645 1.35761 12.583 1.70917 12.583 1.70917C17.1252 1.72792 19.3002 3.09667 19.8065 3.55604C21.4799 4.99042 22.333 8.42167 21.7096 13.4514V13.4514ZM15.194 9.66385C15.2127 10.067 14.608 10.0951 14.5893 9.69198C14.5377 8.66073 14.0549 8.15917 13.0611 8.10292C12.658 8.07948 12.6955 7.47479 13.094 7.49823C14.4018 7.56854 15.1283 8.31854 15.194 9.66385ZM16.1455 10.1935C16.1924 8.20604 14.9502 6.64979 12.5924 6.47635C12.1939 6.44823 12.2361 5.84354 12.6346 5.87167C15.3533 6.06854 16.8018 7.93885 16.7502 10.2076C16.7455 10.6107 16.1361 10.592 16.1455 10.1935V10.1935ZM18.3486 10.8217C18.3533 11.2248 17.744 11.2295 17.744 10.8264C17.7158 7.00604 15.1705 4.92479 12.0814 4.90135C11.683 4.89667 11.683 4.29667 12.0814 4.29667C15.5361 4.32011 18.3158 6.70604 18.3486 10.8217V10.8217ZM17.819 15.4201V15.4295C17.3127 16.3201 16.3658 17.3045 15.3908 16.9904L15.3815 16.9763C14.3924 16.6998 12.0627 15.4998 10.5908 14.3279C9.83145 13.7279 9.1377 13.0201 8.60332 12.3404C8.12051 11.7357 7.63301 11.0185 7.15957 10.156C6.16113 8.35135 5.94082 7.5451 5.94082 7.5451C5.62676 6.5701 6.60645 5.62323 7.50176 5.11698H7.51113C7.94238 4.89198 8.35488 4.96698 8.63145 5.29979C8.63145 5.29979 9.2127 5.99354 9.46114 6.33573C9.69551 6.65448 10.0096 7.16542 10.1736 7.45135C10.4596 7.96229 10.2814 8.4826 10.0002 8.69823L9.4377 9.14823C9.15176 9.37792 9.18926 9.80448 9.18926 9.80448C9.18926 9.80448 10.0236 12.9592 13.1408 13.756C13.1408 13.756 13.5674 13.7935 13.7971 13.5076L14.2471 12.9451C14.4627 12.6639 14.983 12.4857 15.494 12.7717C16.183 13.1607 17.0596 13.7654 17.6408 14.3138C17.969 14.581 18.044 14.9888 17.819 15.4201Z" fill="black"/>
</svg>
