<svg width="22" height="22" viewBox="0 0 22 22" fill="none" xmlns="http://www.w3.org/2000/svg">
<path d="M18.4797 3.55303C16.5156 1.58428 13.9 0.501465 11.1203 0.501465C5.38281 0.501465 0.714062 5.17021 0.714062 10.9077C0.714062 12.7405 1.19219 14.5312 2.10156 16.1108L0.625 21.5015L6.14219 20.053C7.66094 20.8827 9.37188 21.3187 11.1156 21.3187H11.1203C16.8531 21.3187 21.625 16.6499 21.625 10.9124C21.625 8.13272 20.4437 5.52178 18.4797 3.55303V3.55303ZM11.1203 19.5655C9.56406 19.5655 8.04062 19.1483 6.71406 18.3608L6.4 18.1733L3.12813 19.0312L4 15.839L3.79375 15.5108C2.92656 14.1327 2.47188 12.5437 2.47188 10.9077C2.47188 6.14053 6.35312 2.25928 11.125 2.25928C13.4359 2.25928 15.6062 3.15928 17.2375 4.79521C18.8687 6.43115 19.8719 8.60147 19.8672 10.9124C19.8672 15.6843 15.8875 19.5655 11.1203 19.5655V19.5655ZM15.8641 13.0874C15.6063 12.9562 14.3266 12.328 14.0875 12.2437C13.8484 12.1546 13.675 12.1124 13.5016 12.3749C13.3281 12.6374 12.8313 13.2187 12.6766 13.3968C12.5266 13.5702 12.3719 13.5937 12.1141 13.4624C10.5859 12.6983 9.58281 12.0983 8.575 10.3687C8.30781 9.90928 8.84219 9.94209 9.33906 8.94834C9.42344 8.7749 9.38125 8.6249 9.31562 8.49365C9.25 8.3624 8.72969 7.08272 8.51406 6.5624C8.30313 6.05615 8.0875 6.12646 7.92813 6.11709C7.77813 6.10771 7.60469 6.10772 7.43125 6.10772C7.25781 6.10772 6.97656 6.17334 6.7375 6.43115C6.49844 6.69365 5.82812 7.32178 5.82812 8.60146C5.82812 9.88115 6.76094 11.1187 6.8875 11.2921C7.01875 11.4655 8.72031 14.0905 11.3312 15.2202C12.9812 15.9327 13.6281 15.9937 14.4531 15.8718C14.9547 15.7968 15.9906 15.2437 16.2062 14.6343C16.4219 14.0249 16.4219 13.5046 16.3563 13.3968C16.2953 13.2796 16.1219 13.214 15.8641 13.0874Z" fill="black"/>
</svg>
