<svg width="25" height="18" viewBox="0 0 25 18" fill="none" xmlns="http://www.w3.org/2000/svg">
<path d="M24.3735 3.20433C24.0975 2.16502 23.2842 1.3465 22.2516 1.06872C20.38 0.563965 12.875 0.563965 12.875 0.563965C12.875 0.563965 5.37003 0.563965 3.49836 1.06872C2.46577 1.34654 1.65252 2.16502 1.3765 3.20433C0.875 5.08813 0.875 9.0185 0.875 9.0185C0.875 9.0185 0.875 12.9489 1.3765 14.8327C1.65252 15.872 2.46577 16.6564 3.49836 16.9342C5.37003 17.4389 12.875 17.4389 12.875 17.4389C12.875 17.4389 20.38 17.4389 22.2516 16.9342C23.2842 16.6564 24.0975 15.872 24.3735 14.8327C24.875 12.9489 24.875 9.0185 24.875 9.0185C24.875 9.0185 24.875 5.08813 24.3735 3.20433V3.20433ZM10.4204 12.587V5.45001L16.6931 9.01859L10.4204 12.587V12.587Z" fill="black"/>
</svg>
