<svg width="194" height="200" viewBox="0 0 194 200" fill="none" xmlns="http://www.w3.org/2000/svg">
<path d="M0 199.227V172.264H7.93502L7.93205 180.726L13.8205 172.264H23.0654L13.7207 184.366L25.1934 199.227H15.3698L7.93502 188.211V199.227H0Z" fill="black"/>
<path d="M34.3776 172.264V187.864L44.4317 172.264H52.2128V199.227H44.5481V183.666L34.6467 199.227H26.7129V172.264H34.3776Z" fill="black"/>
<path d="M58.4453 199.227V172.264H66.3809V199.227H58.4453Z" fill="black"/>
<path d="M85.6899 172.264C88.1304 172.264 89.9138 172.7 91.0443 173.572C92.1742 174.446 92.9186 175.409 93.2786 176.461C93.458 176.95 93.5798 177.418 93.6446 177.868C93.7087 178.317 93.7414 178.735 93.7414 179.12C93.7414 180.506 93.3238 181.688 92.4885 182.663C91.6544 183.64 90.6718 184.333 89.5413 184.744V184.821C89.8502 184.898 90.2227 185.013 90.6588 185.168C91.096 185.322 91.5445 185.54 92.0073 185.823C92.8034 186.31 93.5412 187.017 94.2214 187.941C94.9028 188.866 95.2432 190.124 95.2432 191.717C95.2432 191.87 95.2367 192.018 95.2236 192.159C95.2117 192.3 95.2052 192.448 95.2052 192.602C95.0246 194.246 94.2535 195.76 92.8937 197.148C91.5314 198.535 89.3756 199.227 86.4218 199.227H72.2461V172.264H85.6899ZM80.1811 193.835H83.2632C83.4687 193.835 83.7378 193.828 84.0723 193.815C84.405 193.803 84.74 193.757 85.0739 193.681C85.6389 193.553 86.1521 193.29 86.6143 192.891C87.0765 192.493 87.3076 191.857 87.3076 190.985C87.3076 190.136 87.0706 189.527 86.5953 189.155C86.1206 188.782 85.6127 188.532 85.0739 188.404C84.7656 188.352 84.4632 188.32 84.1685 188.307C83.8733 188.294 83.6226 188.288 83.417 188.288H80.1811V193.835ZM80.1811 182.895H82.9548C84.0592 182.895 84.8553 182.722 85.3424 182.375C85.8313 182.028 86.1521 181.637 86.306 181.2C86.3577 181.046 86.3898 180.899 86.4022 180.758C86.4153 180.616 86.4218 180.481 86.4218 180.353C86.4218 179.659 86.1711 179.036 85.6709 178.485C85.1701 177.932 84.2648 177.657 82.9548 177.657H80.1811V182.895Z" fill="black"/>
<path d="M130.251 199.227V179.664H122.754V172.264H145.683V179.664H138.186V199.227H130.251Z" fill="black"/>
<path d="M142.043 199.227L151.635 172.264H161.188L170.74 199.227H162.267L160.802 194.567H152.02L150.519 199.227H142.043ZM156.412 179.12L153.522 188.635H159.301L156.412 179.12Z" fill="black"/>
<path d="M172.129 199.227V172.264H183.878C186.753 172.264 188.904 172.879 190.329 174.112C191.754 175.345 192.712 176.706 193.198 178.195C193.378 178.735 193.506 179.268 193.583 179.794C193.661 180.32 193.701 181.453 193.701 181.915C193.701 182.377 193.661 182.871 193.583 183.398C193.506 183.924 193.369 184.454 193.198 184.996C192.728 186.483 191.787 187.854 190.347 189.099C188.91 190.344 186.753 190.967 183.878 190.967H180.064V199.227H172.129ZM180.064 178.195V185.034H181.837C182.941 185.034 183.748 184.855 184.262 184.495C184.775 184.136 185.133 183.755 185.301 183.34C185.414 183.062 185.469 182.788 185.496 182.531C185.521 182.274 185.534 182.068 185.534 181.915C185.534 181.761 185.527 180.969 185.515 180.815C185.5 180.661 185.481 180.506 185.456 180.353C185.328 179.814 185.005 179.319 184.494 178.869C183.981 178.421 183.094 178.195 181.837 178.195H180.064Z" fill="black"/>
<path d="M111.325 200L111.105 200H111.101L110.886 199.996H110.878L110.669 199.992H110.658C106.26 199.862 102.887 198.439 100.538 195.724C98.4973 193.363 97.3008 190.678 96.9498 187.666L96.948 187.654L96.9313 187.494L96.9296 187.484L96.9141 187.323L96.9123 187.313L96.8981 187.15C96.8832 186.977 96.8719 186.805 96.863 186.63L96.8624 186.624L96.8547 186.454V186.45L96.8494 186.279V186.275L96.844 186.102V186.1L96.841 185.924L96.8398 185.747L96.841 185.571V185.57L96.844 185.394V185.393L96.8494 185.219V185.216L96.8547 185.045V185.039L96.8624 184.87L96.863 184.865C96.8719 184.69 96.8832 184.516 96.8981 184.344L96.9123 184.183L96.9141 184.172L96.9296 184.011L96.9313 184L96.948 183.842L96.9498 183.83C97.3008 180.817 98.4973 178.13 100.538 175.769C102.886 173.054 106.259 171.632 110.658 171.503H110.669L110.878 171.498H110.886L111.101 171.494H111.105L111.325 171.493L111.71 171.532C112.774 171.537 113.78 171.613 114.728 171.755C117.842 172.337 120.044 173.858 121.917 176.067C122.05 176.224 122.179 176.383 122.304 176.543L116.846 180.931C116.74 180.775 116.627 180.628 116.506 180.489C115.507 179.337 114.403 178.592 113.192 178.251L113.135 178.235C112.852 178.132 112.571 178.061 112.287 178.023C112.126 178.001 111.969 177.986 111.816 177.977L111.802 177.976L111.785 177.974H111.783L111.762 177.974H111.759L111.759 177.973H111.734L111.723 177.971L111.698 177.97H111.681L111.665 177.969L111.625 177.968H111.624L111.584 177.966H111.569L111.529 177.966H111.526L111.517 177.964L111.503 177.966H111.49L111.48 177.964L111.465 177.966H111.463L111.411 177.966C111.149 177.97 110.884 177.995 110.612 178.042C110.397 178.08 110.182 178.132 109.973 178.198L109.96 178.201L109.946 178.206L109.933 178.211L109.92 178.215L109.906 178.219L109.893 178.224L109.879 178.228L109.867 178.233H109.865L109.852 178.236L109.839 178.241L109.826 178.245L109.813 178.25L109.798 178.254L109.786 178.259L109.772 178.264L109.759 178.269L109.745 178.273C108.564 178.633 107.478 179.397 106.489 180.565C105.501 181.734 105.006 183.461 105.006 185.747C105.006 188.032 105.501 189.76 106.489 190.928C107.478 192.096 108.564 192.861 109.745 193.22L109.759 193.225L109.772 193.23L109.786 193.235L109.798 193.24L109.813 193.244L109.826 193.249L109.839 193.253L109.852 193.258L109.865 193.262H109.867L109.879 193.267L109.893 193.272L109.906 193.276L109.92 193.281L109.933 193.285L109.946 193.29H109.947L109.959 193.293L109.973 193.298C110.183 193.363 110.395 193.413 110.612 193.451C110.869 193.496 111.121 193.521 111.368 193.527H111.372L111.423 193.528H111.604L111.62 193.527L111.661 193.525L111.685 193.525H111.698V193.524H111.702L111.718 193.523H111.725L111.743 193.523H111.75L111.768 193.521H111.775L111.82 193.517H111.822C111.973 193.508 112.128 193.493 112.287 193.471C112.571 193.432 112.852 193.361 113.135 193.259L113.191 193.243C114.402 192.902 115.507 192.155 116.506 191.005C116.627 190.865 116.74 190.718 116.846 190.561L122.304 194.95C122.179 195.11 122.05 195.269 121.917 195.427C120.049 197.631 117.853 199.152 114.749 199.736C113.794 199.881 112.782 199.956 111.71 199.962L111.325 200Z" fill="black"/>
<path fill-rule="evenodd" clip-rule="evenodd" d="M53.5804 154.953C57.4775 154.953 60.638 158.114 60.638 162.011C60.638 165.908 57.4775 169.068 53.5804 169.068C49.6845 169.068 46.5234 165.908 46.5234 162.011C46.5234 158.114 49.6845 154.953 53.5804 154.953ZM71.2499 154.953C75.147 154.953 78.3069 158.114 78.3069 162.011C78.3069 165.908 75.147 169.068 71.2499 169.068C67.3534 169.068 64.1935 165.908 64.1935 162.011C64.1935 158.114 67.3534 154.953 71.2499 154.953Z" fill="black"/>
<path fill-rule="evenodd" clip-rule="evenodd" d="M97.3704 0C102.733 0 107.12 4.38841 107.12 9.74931V45.9924C107.12 51.3557 102.733 55.7429 97.3704 55.7429C92.0077 55.7429 87.6211 51.3557 87.6211 45.9924V9.74931C87.6211 4.38841 92.0077 0 97.3704 0Z" fill="black"/>
<path fill-rule="evenodd" clip-rule="evenodd" d="M23.7531 53.4879C25.4099 48.3878 30.9372 45.5713 36.0373 47.2281L70.5059 58.4282C75.6066 60.085 78.4225 65.6129 76.7656 70.713C75.1088 75.8131 69.5803 78.6296 64.4808 76.9721L30.0116 65.7733C24.9121 64.1152 22.095 58.588 23.7531 53.4879Z" fill="black"/>
<path fill-rule="evenodd" clip-rule="evenodd" d="M51.8735 140.031C47.5356 136.879 46.5655 130.751 49.7171 126.414L71.0199 97.0926C74.1708 92.7535 80.2993 91.7827 84.6378 94.9355C88.9763 98.0876 89.9464 104.215 86.7949 108.553L65.4915 137.874C62.3399 142.213 56.2121 143.184 51.8735 140.031Z" fill="black"/>
<path fill-rule="evenodd" clip-rule="evenodd" d="M142.87 140.029C138.53 143.181 132.403 142.21 129.25 137.872L107.948 108.551C104.796 104.212 105.766 98.0849 110.104 94.9327C114.443 91.7812 120.571 92.7519 123.723 97.0892L145.025 126.411C148.178 130.749 147.206 136.877 142.87 140.029Z" fill="black"/>
<path fill-rule="evenodd" clip-rule="evenodd" d="M170.989 53.4859C172.646 58.586 169.83 64.1144 164.729 65.7713L130.261 76.9701C125.161 78.6276 119.633 75.8111 117.975 70.711C116.318 65.6115 119.134 60.083 124.235 58.4262L158.704 47.2261C163.803 45.5693 169.331 48.3864 170.989 53.4859Z" fill="black"/>
</svg>
