<svg width="338" height="200" viewBox="0 0 338 200" fill="none" xmlns="http://www.w3.org/2000/svg">
<path d="M103.588 199.064C102.474 198.457 101.527 197.629 100.915 196.525C100.246 195.477 99.912 194.207 99.912 192.883C99.912 191.558 100.246 190.289 100.915 189.24C101.583 188.192 102.474 187.309 103.588 186.702C104.702 186.095 105.982 185.819 107.43 185.819C108.656 185.819 109.714 186.04 110.661 186.426C111.607 186.867 112.443 187.419 113.111 188.247L111.05 190.124C110.104 189.075 108.934 188.523 107.598 188.523C106.762 188.523 105.982 188.689 105.314 189.075C104.646 189.461 104.145 189.958 103.755 190.62C103.365 191.283 103.198 192.055 103.198 192.883C103.198 193.711 103.365 194.483 103.755 195.145C104.145 195.808 104.646 196.304 105.314 196.691C105.982 197.077 106.762 197.243 107.598 197.243C108.99 197.243 110.159 196.691 111.05 195.642L113.111 197.519C112.443 198.291 111.663 198.898 110.661 199.34C109.714 199.781 108.6 199.947 107.43 199.947C105.982 200.002 104.702 199.671 103.588 199.064Z" fill="black"/>
<path d="M117.789 199.062C116.62 198.455 115.729 197.627 115.06 196.523C114.392 195.475 114.058 194.261 114.058 192.881C114.058 191.501 114.392 190.342 115.06 189.239C115.729 188.19 116.62 187.307 117.789 186.7C118.959 186.093 120.24 185.762 121.688 185.762C123.136 185.762 124.417 186.093 125.53 186.7C126.7 187.307 127.591 188.135 128.259 189.239C128.928 190.342 129.262 191.501 129.262 192.881C129.262 194.261 128.928 195.42 128.259 196.523C127.591 197.627 126.7 198.455 125.53 199.062C124.361 199.669 123.08 200 121.688 200C120.24 200 118.903 199.669 117.789 199.062ZM123.86 196.689C124.528 196.302 125.029 195.806 125.419 195.144C125.809 194.481 125.976 193.709 125.976 192.881C125.976 192.053 125.809 191.281 125.419 190.618C125.029 189.956 124.528 189.459 123.86 189.073C123.191 188.687 122.467 188.521 121.632 188.521C120.797 188.521 120.073 188.687 119.404 189.073C118.736 189.459 118.235 189.956 117.845 190.618C117.455 191.281 117.288 192.053 117.288 192.881C117.288 193.709 117.455 194.481 117.845 195.144C118.235 195.806 118.736 196.302 119.404 196.689C120.073 197.075 120.797 197.241 121.632 197.241C122.467 197.241 123.191 197.075 123.86 196.689Z" fill="black"/>
<path d="M152.038 186.038L147.527 199.724H144.074L141.011 190.453L137.892 199.724H134.495L129.928 186.038H133.27L136.389 195.64L139.619 186.038H142.57L145.745 195.751L148.975 186.038H152.038Z" fill="black"/>
<path d="M156.495 199.062C155.326 198.455 154.435 197.627 153.766 196.523C153.098 195.475 152.764 194.261 152.764 192.881C152.764 191.501 153.098 190.342 153.766 189.239C154.435 188.19 155.326 187.307 156.495 186.7C157.665 186.093 158.946 185.762 160.394 185.762C161.842 185.762 163.123 186.093 164.236 186.7C165.406 187.307 166.297 188.135 166.965 189.239C167.634 190.342 167.968 191.501 167.968 192.881C167.968 194.261 167.634 195.42 166.965 196.523C166.297 197.627 165.406 198.455 164.236 199.062C163.067 199.669 161.786 200 160.394 200C158.946 200 157.665 199.669 156.495 199.062ZM162.566 196.689C163.234 196.302 163.735 195.806 164.125 195.144C164.515 194.481 164.682 193.709 164.682 192.881C164.682 192.053 164.515 191.281 164.125 190.618C163.735 189.956 163.234 189.459 162.566 189.073C161.897 188.687 161.173 188.521 160.338 188.521C159.503 188.521 158.779 188.687 158.11 189.073C157.442 189.459 156.941 189.956 156.551 190.618C156.161 191.281 155.994 192.053 155.994 192.881C155.994 193.709 156.161 194.481 156.551 195.144C156.941 195.806 157.442 196.302 158.11 196.689C158.779 197.075 159.503 197.241 160.338 197.241C161.173 197.296 161.953 197.075 162.566 196.689Z" fill="black"/>
<path d="M179.161 199.724L176.488 195.916H173.536V199.724H170.362V186.038H176.321C177.546 186.038 178.604 186.259 179.495 186.645C180.386 187.031 181.11 187.638 181.556 188.356C182.057 189.073 182.28 189.956 182.28 191.005C182.28 192.053 182.057 192.881 181.556 193.653C181.054 194.371 180.386 194.978 179.439 195.364L182.558 199.779H179.161V199.724ZM178.325 189.239C177.824 188.852 177.1 188.632 176.154 188.632H173.536V193.433H176.154C177.1 193.433 177.824 193.212 178.325 192.826C178.827 192.384 179.05 191.832 179.05 191.06C179.105 190.232 178.827 189.68 178.325 189.239Z" fill="black"/>
<path d="M189.908 194.372L188.071 196.303V199.78H184.896V186.094H188.071V192.495L194.197 186.094H197.761L192.025 192.219L198.095 199.835H194.364L189.908 194.372Z" fill="black"/>
<path d="M199.488 186.038H202.662V199.724H199.488V186.038Z" fill="black"/>
<path d="M218.59 186.038V199.724H215.973L209.067 191.391V199.724H205.893V186.038H208.51L215.36 194.371V186.038H218.59Z" fill="black"/>
<path d="M231.232 192.661H234.128V198.235C233.406 198.787 232.515 199.228 231.511 199.504C230.508 199.78 229.507 199.946 228.503 199.946C227.056 199.946 225.774 199.67 224.661 199.062C223.492 198.455 222.601 197.628 221.988 196.524C221.32 195.475 220.985 194.206 220.985 192.882C220.985 191.557 221.32 190.288 221.988 189.239C222.656 188.191 223.547 187.308 224.717 186.701C225.886 186.094 227.167 185.818 228.616 185.818C229.84 185.818 230.899 186.039 231.9 186.425C232.904 186.811 233.739 187.418 234.407 188.191L232.346 190.067C231.345 189.019 230.175 188.522 228.782 188.522C227.891 188.522 227.113 188.687 226.444 189.074C225.774 189.46 225.218 189.957 224.828 190.619C224.438 191.281 224.271 192.054 224.271 192.882C224.271 193.709 224.438 194.482 224.828 195.144C225.218 195.807 225.72 196.303 226.444 196.689C227.113 197.076 227.891 197.241 228.782 197.241C229.729 197.241 230.508 197.021 231.288 196.634V192.661H231.232Z" fill="black"/>
<path d="M23.2792 141.227C25.5068 142.22 27.2334 143.655 28.4585 145.531C29.6839 147.408 30.2965 149.56 30.2965 152.043C30.2965 154.527 29.6839 156.734 28.4585 158.555C27.2334 160.376 25.5068 161.811 23.2792 162.805C21.0516 163.798 18.3783 164.295 15.371 164.295H9.52331V173.014H0V139.737H15.371C18.3783 139.737 20.9959 140.233 23.2792 141.227ZM19.158 155.63C20.1605 154.803 20.6617 153.589 20.6617 152.043C20.6617 150.498 20.1605 149.284 19.158 148.456C18.1556 147.628 16.7076 147.187 14.7584 147.187H9.46763V156.955H14.7584C16.7076 156.9 18.2113 156.458 19.158 155.63Z" fill="black"/>
<path d="M37.2583 139.737H46.7817V165.564H62.8209V173.014H37.2583V139.737Z" fill="black"/>
<path d="M91.7801 166.503H77.5786L74.9612 172.959H65.2706L80.0848 139.682H89.441L104.311 172.959H94.4532L91.7801 166.503ZM88.9955 159.604L84.6515 148.953L80.3075 159.604H88.9955Z" fill="black"/>
<path d="M114.893 147.187H104.59V139.737H134.664V147.187H124.416V173.014H114.893V147.187Z" fill="black"/>
<path d="M150.091 146.966V154.306H164.905V161.59H150.091V173.014H140.567V139.737H166.909V147.021H150.091V146.966Z" fill="black"/>
<path d="M180.832 171.413C177.992 169.923 175.764 167.881 174.149 165.233C172.534 162.584 171.755 159.659 171.755 156.348C171.755 153.036 172.534 150.112 174.149 147.462C175.764 144.814 177.992 142.772 180.832 141.282C183.673 139.791 186.847 139.074 190.411 139.074C193.976 139.074 197.15 139.791 199.99 141.282C202.831 142.772 205.058 144.814 206.673 147.462C208.288 150.112 209.068 153.036 209.068 156.348C209.068 159.659 208.288 162.584 206.673 165.233C205.058 167.881 202.831 169.923 199.99 171.413C197.15 172.903 193.976 173.621 190.411 173.621C186.847 173.676 183.673 172.903 180.832 171.413ZM195.034 164.681C196.426 163.908 197.484 162.749 198.32 161.314C199.099 159.88 199.545 158.224 199.545 156.348C199.545 154.471 199.155 152.816 198.32 151.381C197.54 149.946 196.426 148.842 195.034 148.014C193.641 147.242 192.138 146.8 190.411 146.8C188.741 146.8 187.181 147.187 185.789 148.014C184.397 148.787 183.338 149.946 182.503 151.381C181.723 152.816 181.278 154.471 181.278 156.348C181.278 158.224 181.668 159.88 182.503 161.314C183.283 162.749 184.397 163.853 185.789 164.681C187.181 165.453 188.685 165.895 190.411 165.895C192.082 165.84 193.641 165.453 195.034 164.681Z" fill="black"/>
<path d="M231.123 164.13H225.943V172.959H216.42V139.682H231.791C234.853 139.682 237.472 140.179 239.7 141.172C241.927 142.165 243.653 143.6 244.879 145.476C246.103 147.353 246.715 149.505 246.715 151.988C246.715 154.417 246.159 156.514 244.989 158.28C243.876 160.046 242.206 161.48 240.145 162.474L247.386 172.904H237.193L231.123 164.13ZM235.634 148.401C234.631 147.573 233.184 147.132 231.233 147.132H225.943V156.9H231.233C233.184 156.9 234.631 156.459 235.634 155.631C236.635 154.803 237.137 153.589 237.137 152.044C237.137 150.498 236.635 149.284 235.634 148.401Z" fill="black"/>
<path d="M284.641 173.014L284.528 155.354L275.897 169.703H271.665L263.088 155.851V173.014H254.289V139.737H262.085L273.893 158.942L285.419 139.737H293.217L293.328 173.014H284.641Z" fill="black"/>
<path d="M324.964 166.503H310.762L308.143 172.959H298.455L313.269 139.682H322.624L337.494 172.959H327.637L324.964 166.503ZM322.179 159.604L317.834 148.953L313.492 159.604H322.179Z" fill="black"/>
<path d="M217.645 10.4343C206.117 -0.27193 190.133 0.00400447 188.518 0.00400447H144.355C143.519 0.00400447 142.182 -0.106369 141.236 0.831801L112.944 30.0256C112.443 30.5221 112.164 31.1843 112.164 31.9018V119.483C112.164 119.483 112.109 120.531 112.944 121.359C113.78 122.187 114.726 122.187 114.893 122.187H162.009C162.733 122.187 163.401 121.911 163.902 121.414L188.128 97.1323C189.409 95.8631 189.409 94.3178 189.409 93.1037V71.1946C195.034 71.305 208.456 68.8769 217.589 60.8747C224.495 54.8043 229.451 47.5196 229.451 36.0408C229.395 25.0035 224.328 16.6703 217.645 10.4343ZM140.512 9.33051V91.448C140.289 91.6689 117.567 114.571 117.567 114.571V32.9503L140.512 9.33051ZM160.951 116.779H122.913L142.795 96.5803H180.888L160.951 116.779Z" fill="black"/>
</svg>
