<svg width="358" height="200" viewBox="0 0 358 200" fill="none" xmlns="http://www.w3.org/2000/svg">
<path d="M307.271 129.916C307.271 132.3 305.125 134.207 302.741 134.207H296.305C293.683 134.207 291.538 134.207 291.299 134.207C291.061 134.207 290.584 133.969 290.346 133.969C290.107 133.969 289.631 133.73 289.631 133.73C289.631 133.73 289.392 133.73 289.154 133.73C288.915 133.73 288.439 133.492 288.2 133.492C287.962 133.492 287.485 133.253 287.247 133.015C287.008 132.777 286.532 132.777 286.293 132.538C286.055 132.3 285.578 132.061 285.34 132.061C285.101 131.823 284.625 131.585 284.386 131.585C284.148 131.585 283.671 131.346 283.433 131.108C283.194 130.87 282.718 130.631 282.479 130.393C282.241 130.154 281.764 129.916 281.526 129.678C281.287 129.439 280.81 129.201 280.81 128.963C280.572 128.724 280.334 128.486 280.095 128.247C279.857 128.009 279.38 127.771 279.38 127.532C279.142 127.294 278.903 127.056 278.665 126.817C278.427 126.579 278.188 126.34 277.95 126.102C277.712 125.864 277.473 125.625 277.235 125.387C276.996 125.148 276.758 124.672 276.758 124.433C276.52 124.195 276.281 123.718 276.281 123.48C276.043 123.241 275.805 122.765 275.566 122.526C275.328 122.288 275.089 121.811 275.089 121.573C274.851 121.334 274.613 120.858 274.613 120.619C274.613 120.381 274.374 119.904 274.136 119.666C274.136 119.427 273.898 118.951 273.898 118.712C273.898 118.474 273.659 117.997 273.659 117.759C273.421 117.52 273.421 117.044 273.421 116.805C273.421 116.567 273.182 116.09 273.182 115.852C273.182 115.613 272.944 115.137 272.944 114.66C272.944 114.421 272.706 113.945 272.706 113.706C272.706 113.468 272.706 112.991 272.706 112.753C272.706 112.514 272.706 112.038 272.467 111.799C272.467 111.561 272.467 111.084 272.467 110.607V109.415C272.467 108.939 272.467 108.462 272.467 108.224C272.467 107.985 272.706 107.508 272.706 107.27C272.706 107.032 272.706 106.555 272.706 106.078C272.706 105.84 272.944 105.363 272.944 104.886C272.944 104.648 273.182 104.171 273.182 103.694C273.182 103.456 273.421 102.979 273.421 102.741C273.421 102.502 273.659 102.026 273.659 101.787C273.898 101.549 273.898 101.072 273.898 100.834C273.898 100.595 274.136 100.119 274.136 99.8803C274.374 99.6419 274.374 99.1652 274.613 98.9268C274.851 98.6884 275.089 98.2117 275.089 97.9733C275.328 97.7349 275.566 97.2581 275.566 97.0198C275.805 96.7814 276.043 96.3046 276.281 96.0662C276.52 95.8279 276.758 95.3511 276.758 95.1127C276.996 94.8744 277.235 94.636 277.235 94.3976C277.473 94.1592 277.712 93.9208 277.95 93.6825C278.188 93.4441 278.427 92.9673 278.665 92.7289C278.903 92.4906 279.142 92.2522 279.38 92.0138C279.619 91.7754 279.857 91.537 280.095 91.2987C280.334 91.0603 280.81 90.8219 280.81 90.5835C281.049 90.3451 281.287 90.1068 281.526 89.8684C281.764 89.63 282.241 89.3916 282.479 89.1532C282.718 88.9149 283.194 88.6765 283.433 88.4381C283.671 88.1997 284.148 87.9614 284.386 87.9614C284.625 87.9614 285.101 87.723 285.34 87.4846C285.578 87.2462 286.055 87.0078 286.293 87.0078C286.532 87.0078 287.008 86.5311 287.247 86.5311C287.485 86.5311 287.962 86.2927 288.2 86.2927C288.439 86.0543 288.915 86.0543 289.154 85.8159C289.392 85.5776 289.631 85.5776 289.631 85.5776C289.631 85.5776 290.107 85.5776 290.346 85.3392C290.584 85.3392 291.061 85.1008 291.299 85.1008C291.538 85.1008 293.921 85.1008 296.305 85.1008H302.741C305.364 85.1008 307.271 87.0078 307.271 89.3916V129.916ZM99.4041 101.787C99.4041 104.41 97.2586 106.555 94.8749 106.555H81.0489C78.4267 106.555 76.5197 108.7 76.5197 111.084V124.91C76.5197 127.532 74.3743 129.439 71.9905 129.439H48.8677C46.2455 129.439 44.3385 127.294 44.3385 124.91V111.084C44.3385 108.462 42.1931 106.555 39.5709 106.555H25.5066C22.8844 106.555 20.9774 104.41 20.9774 101.787V78.6646C20.9774 76.0424 23.1228 74.1354 25.5066 74.1354H39.5709C42.1931 74.1354 44.3385 71.99 44.3385 69.6062V55.7802C44.3385 53.158 46.4839 51.251 48.8677 51.251H71.9905C74.6126 51.251 76.5197 53.3964 76.5197 55.7802V69.1294C76.5197 71.7516 78.6651 73.6586 81.0489 73.6586H94.8749C97.497 73.6586 99.4041 75.804 99.4041 78.1878V101.787ZM335.876 52.6813H287.247C286.532 52.6813 285.101 52.6813 284.386 52.9196C283.671 52.9196 282.241 53.158 281.526 53.158C280.81 53.158 279.38 53.3964 278.665 53.6348C277.95 53.8732 276.758 54.1115 276.043 54.3499C275.328 54.5883 274.136 54.8267 273.421 55.0651C272.706 55.3034 271.514 55.5418 270.799 55.7802C270.083 56.0186 268.892 56.4953 268.176 56.7337C267.461 56.9721 266.269 57.4488 265.793 57.6872C265.077 57.9256 264.124 58.4024 263.409 58.8791C262.694 59.1175 261.502 59.8326 261.025 60.071C260.31 60.3094 259.356 61.0245 258.641 61.5013C257.926 61.978 256.973 62.6932 256.496 62.9316C256.019 63.4083 254.827 64.1235 254.35 64.6002C253.635 65.077 252.682 65.7921 252.205 66.2689C251.728 66.7456 250.775 67.4608 250.298 68.1759C249.821 68.6527 248.868 69.6062 248.391 70.0829C247.914 70.5597 247.199 71.5132 246.484 71.99C246.007 72.4667 245.292 73.4202 244.577 74.1354C244.1 74.6121 243.385 75.5656 242.908 76.2808C242.431 76.9959 241.955 77.9494 241.478 78.6646C241.24 79.3797 240.524 80.3332 240.048 81.0484C239.571 81.7635 239.094 82.717 238.856 83.4321C238.617 84.1473 238.141 85.1008 237.664 85.8159C237.426 86.5311 236.71 87.723 236.472 88.4381C236.234 89.1532 235.757 90.3452 235.518 91.0603C235.28 91.7754 235.042 92.9673 234.803 93.6825C234.565 94.3976 234.327 95.5895 234.088 96.0662C233.85 96.7814 233.135 95.1127 232.42 92.4906L222.646 58.4024C221.931 55.7802 219.785 53.6348 218.117 53.6348H194.041C192.133 53.6348 189.988 55.7802 189.273 58.4024L171.395 121.096C170.679 123.718 169.964 123.718 169.964 120.858V58.8791C169.964 56.0186 167.58 53.8732 164.958 53.8732H137.068C134.207 53.8732 132.062 55.0651 132.062 56.2569C132.062 57.6872 132.062 58.4024 131.824 58.164C131.585 57.9256 131.108 56.7337 130.87 56.0186C130.393 55.0651 129.678 53.6348 129.201 52.6813C128.725 51.7277 127.771 50.5359 127.294 49.5823C126.818 48.6288 125.864 47.4369 125.387 46.7218C124.911 46.0066 123.957 44.5764 123.48 43.8612C123.004 43.1461 121.812 41.7158 121.335 41.0007C120.62 40.2856 119.666 39.0937 118.951 38.3785C118.236 37.6634 117.282 36.4715 116.567 35.9947C115.852 35.2796 114.66 34.3261 114.184 33.6109C113.468 32.8958 112.277 31.9423 111.561 31.2271C110.846 30.7504 109.654 29.7969 108.939 29.0817C108.224 28.605 107.032 27.6515 106.317 26.9363C105.602 26.4596 104.172 25.5061 103.457 25.0293C102.503 24.5525 101.073 23.8374 100.358 23.3606C99.404 22.8839 98.2122 22.1687 97.2586 21.9304C96.3051 21.4536 95.1132 20.9769 94.1597 20.5001C93.2062 20.2617 91.7759 19.5466 90.8224 19.3082C89.8689 18.8314 88.4386 18.3547 87.4851 18.1163C86.5316 17.8779 85.1013 17.4012 84.1478 17.1628C83.1943 16.9244 81.764 16.686 80.8105 16.4476C79.857 16.2093 78.4267 15.9709 77.2348 15.7325C76.2813 15.4941 74.6126 15.4941 73.6591 15.2558C72.7056 15.2558 63.1704 15.0174 63.1704 15.0174H5.24434C2.38379 14.779 0 17.4012 0 20.2617V160.429C0 163.289 2.38379 165.435 5.00596 165.435H57.4493C60.3099 165.435 72.2288 165.435 73.1824 165.196C74.1359 165.196 75.8045 164.958 76.758 164.719C77.7116 164.481 79.3802 164.243 80.3337 164.243C81.2872 164.004 82.7175 163.766 83.671 163.528C84.6246 163.289 86.0548 162.812 87.0083 162.574C87.9619 162.336 89.3921 161.859 90.3457 161.62C91.2992 161.382 92.7294 160.667 93.683 160.429C94.6365 159.952 95.8284 159.237 96.7819 158.998C97.7354 158.76 98.9273 158.045 99.8808 157.33C100.834 156.853 102.026 155.899 102.98 155.423C103.933 154.946 105.125 153.992 105.84 153.516C106.555 153.039 107.747 152.085 108.462 151.609C109.178 151.132 110.369 150.178 111.085 149.463C111.8 148.748 112.992 147.794 113.707 147.079C114.422 146.364 115.375 145.411 116.091 144.696C116.806 143.98 117.998 142.789 118.474 142.073C119.19 141.358 120.143 140.166 120.858 139.451C121.573 138.736 122.527 137.544 123.004 136.829C123.48 136.114 124.434 134.922 124.911 133.969C125.387 133.015 126.103 131.585 126.818 130.87C127.294 129.916 128.248 128.724 128.725 127.771C129.201 126.817 129.917 125.625 130.393 124.672C130.87 123.718 131.347 122.765 131.347 122.526C131.585 122.288 131.585 124.195 131.585 127.056V160.905C131.585 163.766 133.969 165.911 136.591 165.911H163.766C166.627 165.911 189.511 165.911 189.511 165.911C192.372 165.911 194.756 163.289 195.232 160.667L204.052 111.323C204.529 108.462 205.244 108.462 205.721 111.323L214.303 160.667C214.78 163.528 217.402 165.673 220.262 165.673L247.437 165.911C250.298 165.911 251.728 163.766 251.013 160.905L248.629 152.8C247.914 150.178 247.437 148.033 247.676 148.51C247.914 148.748 248.629 149.463 249.106 149.94C249.583 150.417 250.536 151.37 251.013 151.847C251.49 152.324 252.682 153.039 253.159 153.516C253.874 153.992 254.827 154.707 255.304 154.946C255.781 155.423 256.973 156.138 257.449 156.615C258.164 157.091 259.118 157.568 259.833 158.045C260.548 158.283 261.502 158.998 262.217 159.237C262.932 159.713 264.124 160.19 264.601 160.429C265.316 160.667 266.269 161.144 266.985 161.382C267.7 161.62 268.892 162.097 269.607 162.336C270.322 162.574 271.514 163.051 272.229 163.289C272.944 163.528 274.136 163.766 274.851 164.004C275.566 164.243 276.758 164.481 277.473 164.481C278.188 164.719 279.619 164.719 280.334 164.958C281.049 164.958 282.479 165.196 283.194 165.196C283.909 165.196 285.34 165.435 286.293 165.435H334.207C337.068 165.435 339.213 163.051 339.213 160.429V57.9256C340.882 55.065 338.498 52.6813 335.876 52.6813Z" fill="black"/>
<path d="M0 174.493C0 176.162 1.43027 177.592 3.09893 177.592H338.26C339.928 177.592 341.359 176.162 341.359 174.493C341.359 172.825 339.928 171.394 338.26 171.394H3.09893C1.43027 171.394 0 172.825 0 174.493Z" fill="black"/>
<path d="M348.749 37.6639V40.0477H349.941C350.656 40.0477 351.133 40.0477 351.371 39.8093C351.61 39.5709 351.61 39.3325 351.61 38.8558C351.61 38.379 351.61 38.1406 351.371 37.9023C351.133 37.6639 350.894 37.6639 350.179 37.6639H348.749ZM347.319 45.292V36.472H350.656C350.894 36.472 351.371 36.472 351.61 36.7104C352.086 36.7104 352.325 36.9487 352.563 37.4255C352.801 37.6639 353.04 38.379 353.04 38.8558C353.04 39.3325 353.04 39.8093 352.801 40.0477C352.563 40.2861 352.325 40.7628 351.848 40.7628C351.61 41.0012 351.133 41.0012 350.894 41.0012H350.656L353.517 45.0536H351.848L349.226 41.0012H348.749V45.292H347.319ZM343.743 41.0012C343.743 42.1931 343.981 43.1466 344.697 44.1001C345.173 45.0536 346.127 45.7688 347.08 46.4839C348.034 46.9607 349.226 47.4374 350.418 47.4374C351.61 47.4374 352.563 47.199 353.517 46.4839C354.47 46.0072 355.185 45.0536 355.9 44.1001C356.377 43.1466 356.854 41.9547 356.854 40.7628C356.854 39.5709 356.616 38.6174 355.9 37.6639C355.424 36.7104 354.47 35.9952 353.517 35.2801C352.563 34.8033 351.371 34.3266 350.418 34.3266C349.226 34.3266 348.272 34.565 347.08 35.2801C346.127 35.7569 345.412 36.7104 344.697 37.6639C343.981 38.6174 343.743 39.8093 343.743 41.0012ZM342.551 41.0012C342.551 39.5709 342.79 38.379 343.505 37.1871C344.22 35.9952 345.173 35.0417 346.365 34.3266C347.557 33.6114 348.749 33.3731 350.179 33.3731C351.133 33.3731 352.086 33.6114 353.04 33.8498C353.993 34.3266 354.708 34.8033 355.424 35.5185C356.139 36.2336 356.616 36.9487 357.092 37.9023C357.569 38.8558 357.569 39.8093 357.569 40.7628C357.569 41.7163 357.331 42.6698 357.092 43.6234C356.616 44.5769 356.139 45.292 355.424 46.0072C354.708 46.7223 353.993 47.199 353.04 47.6758C352.086 48.1526 351.133 48.1526 350.179 48.1526C348.749 48.1526 347.557 47.9142 346.365 47.199C345.173 46.4839 344.22 45.5304 343.505 44.3385C343.028 43.6234 342.551 42.1931 342.551 41.0012Z" fill="black"/>
<path d="M172.349 24.3147C172.349 37.6639 161.384 48.6293 148.034 48.6293C134.685 48.6293 123.72 37.6639 123.72 24.3147C123.72 10.9654 134.447 0 147.796 0C161.384 0 172.349 10.9654 172.349 24.3147Z" fill="black"/>
<path d="M14.3023 187.604L13.1104 190.942L11.6801 194.756H8.58118L6.91253 190.703L5.72063 187.604V196.186H1.90657V181.645H6.91253L8.81956 186.889L10.0115 190.226H10.2498L11.4417 186.651L13.3488 181.645H18.1163V196.186H14.3023V187.604Z" fill="black"/>
<path d="M21.4536 196.186V181.645H31.9423V184.505H25.5061V187.366H30.9888V190.226H25.5061V193.087H32.1807V195.948C32.1807 196.186 21.4536 196.186 21.4536 196.186Z" fill="black"/>
<path d="M36.9483 196.186V200H33.8494V193.325H35.2796C35.7564 192.849 35.9948 192.372 36.2331 191.657C36.4715 190.942 36.7099 190.465 36.9483 189.75C37.1867 189.035 37.1867 188.319 37.425 187.604C37.425 186.889 37.6634 185.936 37.6634 184.982L37.9018 181.645H47.6753V193.325H49.1056V200H46.0067V196.186C46.2451 196.186 36.9483 196.186 36.9483 196.186ZM41.0007 185.459C41.0007 186.412 40.7623 187.128 40.7623 188.081C40.7623 188.796 40.524 189.511 40.524 190.226C40.524 190.942 40.2856 191.418 40.0472 191.895C39.8088 192.372 39.5705 192.849 39.3321 193.325H43.8613V184.267H41.2391L41.0007 185.459Z" fill="black"/>
<path d="M64.6003 181.406V195.948H60.7862V187.366L57.4489 193.087L55.5418 196.186H51.4894V181.645H55.5418C55.5418 183.075 55.5418 184.505 55.5418 185.936C55.5418 187.366 55.5418 188.796 55.5418 190.465C55.7802 190.226 55.7802 189.988 56.0186 189.511C56.257 189.035 56.4954 188.796 56.7337 188.319L60.5478 181.645L64.6003 181.406Z" fill="black"/>
<path d="M79.6181 196.186H67.9376V181.645H71.99V193.325H76.5192V181.645H80.5716V193.325H82.7171V200H79.8565L79.6181 196.186Z" fill="black"/>
<path d="M97.9733 181.406V195.948H94.1593V187.366L90.8219 193.087L88.9149 196.186H84.8625V181.645H88.9149C88.9149 183.075 88.9149 184.505 88.9149 185.936C88.9149 187.366 88.9149 188.796 88.9149 190.465C89.1533 190.226 89.1533 189.988 89.3917 189.511C89.63 189.035 89.8684 188.796 90.1068 188.319L93.9209 181.645L97.9733 181.406Z" fill="black"/>
<path d="M109.654 189.988H105.125C105.125 190.942 105.125 192.133 105.125 193.087C105.125 194.041 105.125 195.232 105.125 196.186H101.072V181.645H105.125C105.125 182.598 105.125 183.552 105.125 184.505C105.125 185.459 105.125 186.412 105.125 187.366H109.654V181.883H113.706V196.424H109.654V189.988Z" fill="black"/>
<path d="M123.957 181.168C124.672 181.168 125.387 181.168 125.864 181.406C126.579 181.406 127.056 181.645 127.771 181.883L127.294 184.982C126.817 184.744 126.34 184.744 125.864 184.744C125.387 184.744 124.91 184.744 124.672 184.744C124.195 184.744 123.718 184.744 123.241 184.982C122.765 185.22 122.526 185.459 122.05 185.697C121.811 185.936 121.573 186.412 121.334 187.128C121.096 187.604 121.096 188.319 121.096 189.035C121.096 189.75 121.096 190.465 121.334 191.18C121.573 191.657 121.811 192.134 122.05 192.61C122.288 192.849 122.765 193.087 123.241 193.325C123.718 193.564 124.195 193.564 124.91 193.564C125.149 193.564 125.387 193.564 125.625 193.564C125.864 193.564 126.102 193.564 126.34 193.564C126.579 193.564 127.056 193.564 127.294 193.325C127.532 193.325 127.771 193.325 128.247 193.087L128.963 195.948C128.247 196.186 127.532 196.424 126.579 196.663C125.625 196.901 124.91 196.901 124.195 196.901C122.765 196.901 121.573 196.663 120.619 196.186C119.666 195.709 118.951 195.232 118.474 194.517C117.997 193.802 117.52 193.087 117.282 192.133C117.044 191.18 117.044 190.226 117.044 189.273C117.044 188.319 117.044 187.366 117.282 186.412C117.52 185.459 117.997 184.744 118.474 184.029C118.951 183.313 119.666 182.598 120.619 182.122C121.573 181.645 122.526 181.168 123.957 181.168Z" fill="black"/>
<path d="M139.928 188.558C140.166 188.558 140.643 188.796 140.882 189.035C141.12 189.273 141.358 189.511 141.358 189.75C141.597 189.988 141.597 190.226 141.835 190.465C142.073 190.703 142.073 190.942 142.073 191.18L143.504 196.186H139.451L138.259 191.657C138.021 190.942 137.783 190.703 137.544 190.226C137.306 189.75 136.829 189.75 136.114 189.75H134.922V195.948H131.108V181.406H134.922V186.889H135.876C136.114 186.889 136.352 186.889 136.591 186.889C136.829 186.889 137.067 186.651 137.067 186.651C137.306 186.412 137.306 186.412 137.544 186.174C137.783 185.936 137.783 185.697 138.021 185.22L138.975 181.406H142.789L141.597 185.936C141.358 186.412 141.12 186.889 140.882 187.366C140.643 187.843 140.166 188.081 139.928 188.558Z" fill="black"/>
<path d="M153.992 193.087H149.225L148.271 196.186H144.457L149.225 181.645H154.231L158.76 196.186H154.946L153.992 193.087ZM151.609 184.267L150.178 190.465H153.277L152.562 187.366L151.609 184.267Z" fill="black"/>
<path d="M163.289 189.511C162.574 189.273 162.097 188.796 161.621 188.081C161.144 187.366 161.144 186.651 161.144 185.936C161.144 185.459 161.144 184.744 161.382 184.267C161.62 183.79 161.859 183.313 162.097 182.837C162.336 182.36 163.051 182.122 163.528 181.883C164.243 181.645 164.958 181.406 165.673 181.406H172.109V195.948H168.057V190.465H167.103C166.626 190.465 166.15 190.703 165.673 190.942C165.435 191.18 164.958 191.657 164.958 192.372L164.004 195.948H159.952L161.144 191.895C161.382 191.418 161.621 190.703 161.859 190.465C162.097 190.226 162.574 189.75 163.289 189.511ZM164.958 186.174C164.958 186.889 165.196 187.128 165.435 187.604C165.673 187.843 166.15 188.081 166.626 188.081H168.295V184.505H166.626C166.15 184.505 165.673 184.744 165.435 184.982C165.196 185.22 164.958 185.459 164.958 186.174Z" fill="black"/>
<path d="M190.941 196.186V184.505H188.319V185.697C188.319 187.366 188.081 188.796 188.081 189.988C187.842 191.18 187.604 192.372 187.365 193.325C186.889 194.279 186.412 194.994 185.697 195.709C184.982 196.424 183.79 196.663 182.598 197.139L181.644 194.279C182.359 194.041 182.836 193.564 183.313 193.325C183.79 193.087 184.028 192.61 184.267 191.895C184.505 191.418 184.505 190.703 184.743 189.75C184.743 188.796 184.982 187.843 184.982 186.412L185.22 181.645H195.232V196.186H190.941Z" fill="black"/>
<path d="M206.436 193.087H201.668L200.715 196.186H196.901L201.668 181.645H206.674L211.203 196.186H207.389L206.436 193.087ZM204.29 184.267L203.575 187.366L202.622 190.465H205.721L204.29 184.267Z" fill="black"/>
<path d="M213.349 181.406H223.837V184.267H217.401V186.889H220.023C220.739 186.889 221.454 186.889 221.93 187.128C222.407 187.366 223.122 187.604 223.599 187.843C224.076 188.081 224.553 188.558 224.791 189.273C225.029 189.75 225.268 190.465 225.268 191.418C225.268 192.134 225.268 192.849 225.029 193.325C224.791 193.802 224.553 194.279 224.076 194.756C223.599 195.232 223.122 195.471 222.646 195.709C222.169 195.948 221.454 195.948 220.739 195.948H213.587L213.349 181.406ZM217.401 189.75V193.325H219.308C219.785 193.325 220.023 193.087 220.5 192.849C220.739 192.61 220.977 192.134 220.977 191.418C220.977 190.703 220.739 190.465 220.5 189.988C220.262 189.511 219.785 189.511 219.308 189.511C219.308 189.75 217.401 189.75 217.401 189.75Z" fill="black"/>
<path d="M241.477 188.796C241.477 189.988 241.239 190.942 241.001 191.895C240.762 192.849 240.286 193.564 239.809 194.279C239.332 194.994 238.617 195.471 237.663 195.948C236.71 196.424 235.756 196.424 234.564 196.424C233.373 196.424 232.419 196.186 231.466 195.948C230.512 195.471 229.797 194.994 229.32 194.279C228.843 193.564 228.367 192.849 228.128 191.895C227.89 190.942 227.651 189.988 227.651 188.796C227.651 187.843 227.89 186.651 228.128 185.697C228.367 184.744 228.843 184.029 229.32 183.313C229.797 182.598 230.512 182.122 231.466 181.645C232.419 181.168 233.373 181.168 234.564 181.168C235.756 181.168 236.71 181.406 237.663 181.645C238.617 181.883 239.332 182.598 239.809 183.313C240.286 184.029 240.762 184.744 241.001 185.697C241.239 186.651 241.477 187.604 241.477 188.796ZM237.187 188.796C237.187 188.081 237.187 187.604 237.187 187.128C237.187 186.651 236.948 186.174 236.71 185.697C236.472 185.221 236.233 184.982 235.995 184.744C235.756 184.505 235.28 184.267 234.564 184.267C234.088 184.267 233.611 184.505 233.134 184.744C232.657 184.982 232.419 185.459 232.181 185.697C231.942 186.174 231.942 186.651 231.704 187.128C231.704 187.604 231.466 188.319 231.466 188.796C231.466 189.511 231.466 190.226 231.704 190.703C231.704 191.18 231.942 191.657 232.181 192.133C232.419 192.61 232.657 192.849 233.134 193.087C233.611 193.325 233.849 193.325 234.564 193.325C235.041 193.325 235.518 193.325 235.756 193.087C235.995 192.849 236.472 192.61 236.472 192.133C236.472 191.657 236.948 191.18 236.948 190.703C236.948 190.226 237.187 189.511 237.187 188.796Z" fill="black"/>
<path d="M255.303 186.174C255.303 186.651 255.303 187.366 255.065 187.843C254.827 188.319 254.588 188.796 254.112 189.273C253.635 189.75 253.158 189.988 252.681 190.226C251.966 190.465 251.251 190.703 250.536 190.703H248.39V195.948H244.338V181.406H250.059C251.013 181.406 251.728 181.406 252.443 181.645C253.158 181.883 253.635 182.122 254.112 182.598C254.588 183.075 254.827 183.552 255.065 184.029C255.303 184.505 255.303 185.459 255.303 186.174ZM248.39 184.267V188.081H249.582C250.059 188.081 250.536 187.843 250.774 187.604C251.013 187.366 251.251 186.889 251.251 186.174C251.251 185.459 251.013 184.982 250.774 184.744C250.536 184.505 250.059 184.267 249.582 184.267H248.39Z" fill="black"/>
<path d="M264.839 193.087H260.071L259.118 196.186H255.303L260.071 181.645H265.077L269.606 196.186H265.554L264.839 193.087ZM262.693 184.267L261.978 187.366L261.263 190.226H264.362L263.647 187.128L262.693 184.267Z" fill="black"/>
<path d="M274.135 196.186V184.505H269.845V181.645H282.479V184.505H278.188V196.186H274.135Z" fill="black"/>
<path d="M297.02 188.796C297.02 189.988 296.781 190.942 296.543 191.895C296.305 192.849 295.828 193.564 295.351 194.279C294.874 194.994 294.159 195.471 293.206 195.948C292.252 196.424 291.299 196.424 290.107 196.424C288.915 196.424 287.961 196.186 287.008 195.948C286.054 195.471 285.339 194.994 284.862 194.279C284.386 193.564 283.909 192.849 283.671 191.895C283.432 190.942 283.194 189.988 283.194 188.796C283.194 187.843 283.432 186.651 283.671 185.697C283.909 184.744 284.386 184.029 284.862 183.313C285.339 182.598 286.054 182.122 287.008 181.645C287.961 181.168 288.915 181.168 290.107 181.168C291.299 181.168 292.252 181.406 293.206 181.645C294.159 181.883 294.874 182.598 295.351 183.313C295.828 184.029 296.305 184.744 296.543 185.697C297.02 186.651 297.02 187.604 297.02 188.796ZM292.729 188.796C292.729 188.081 292.729 187.604 292.729 187.128C292.729 186.651 292.491 186.174 292.252 185.697C292.014 185.221 291.775 184.982 291.537 184.744C291.299 184.505 290.822 184.267 290.107 184.267C289.63 184.267 289.153 184.505 288.677 184.744C288.2 184.982 287.961 185.459 287.723 185.697C287.485 186.174 287.485 186.651 287.246 187.128C287.246 187.604 287.008 188.319 287.008 188.796C287.008 189.511 287.008 190.226 287.246 190.703C287.246 191.18 287.485 191.657 287.723 192.133C287.961 192.61 288.2 192.849 288.677 193.087C289.153 193.325 289.392 193.325 290.107 193.325C290.584 193.325 291.06 193.325 291.299 193.087C291.537 192.849 292.014 192.61 292.014 192.133C292.014 191.657 292.491 191.18 292.491 190.703C292.491 190.226 292.729 189.511 292.729 188.796Z" fill="black"/>
<path d="M310.846 186.174C310.846 186.651 310.846 187.366 310.607 187.843C310.369 188.319 310.131 188.796 309.654 189.273C309.177 189.75 308.7 189.988 308.224 190.226C307.508 190.465 306.793 190.703 306.078 190.703H303.933V195.948H299.88V181.406H305.601C306.555 181.406 307.27 181.406 307.985 181.645C308.7 181.883 309.177 182.122 309.654 182.598C310.131 183.075 310.369 183.552 310.607 184.029C310.846 184.505 310.846 185.459 310.846 186.174ZM303.933 184.267V188.081H305.125C305.601 188.081 306.078 187.843 306.317 187.604C306.555 187.366 306.793 186.889 306.793 186.174C306.793 185.459 306.555 184.982 306.317 184.744C306.078 184.505 305.601 184.267 305.125 184.267H303.933Z" fill="black"/>
<path d="M326.102 181.406V195.948H322.288V187.366L319.189 192.849L317.282 195.948H313.23V181.406H317.282C317.282 182.837 317.282 184.267 317.282 185.697C317.282 187.128 317.282 188.558 317.282 190.226C317.52 189.988 317.52 189.75 317.759 189.273C317.997 188.796 318.236 188.558 318.474 188.081L322.288 181.406H326.102Z" fill="black"/>
<path d="M331.585 189.511C330.87 189.273 330.393 188.796 329.916 188.081C329.439 187.366 329.439 186.651 329.439 185.936C329.439 185.459 329.439 184.744 329.678 184.267C329.916 183.79 330.154 183.313 330.393 182.837C330.631 182.36 331.346 182.122 331.823 181.883C332.538 181.645 333.253 181.406 333.969 181.406H340.405V195.948H336.352V190.465H335.399C334.922 190.465 334.445 190.703 333.969 190.942C333.73 191.18 333.253 191.657 333.253 192.372L332.3 195.948H328.247L329.439 191.895C329.678 191.418 329.916 190.703 330.154 190.465C330.393 190.226 331.108 189.75 331.585 189.511ZM333.492 186.174C333.492 186.889 333.73 187.128 333.969 187.604C334.207 187.843 334.684 188.081 335.16 188.081H336.829V184.505H335.16C334.684 184.505 334.207 184.744 333.969 184.982C333.492 185.22 333.492 185.459 333.492 186.174Z" fill="black"/>
</svg>
