<svg width="609" height="100" viewBox="0 0 609 100" fill="none" xmlns="http://www.w3.org/2000/svg">
<path d="M0 16.0002C0 42.1431 4.42857 47.5716 26.5714 48.2859C39.5714 48.8573 40 49.0002 40 52.1431C40 58.1431 35.1429 60.0002 19 60.0002H4.28571V77.4288L24.1429 76.8573C41.5714 76.4288 44.5714 76.0002 48.1429 73.4288C52.2857 70.4288 57.8571 60.5716 59.2857 53.8573C59.7143 51.7145 60.5714 50.0002 61.1429 50.0002C61.7143 50.0002 67.5714 56.1431 74.1429 63.5716L86.1429 77.1431H127L127.857 47.8573L138.571 47.1431C151.143 46.2859 156 43.7145 160.286 35.2859C162.429 30.8573 163 27.7145 162.571 21.8573C161.714 12.4288 158.429 7.57163 150 3.14306C144.429 0.428773 141.571 0.000201195 126.143 0.000201195H108.571V16.8573L124.429 17.4288C137.714 17.8573 140.571 18.2859 142.143 20.5716C147 27.0002 140.714 30.0002 122 30.0002H108.571V50.7145C108.571 62.1431 108 71.4288 107.429 71.4288C106.143 71.4288 78.1429 40.8573 77.4286 38.7145C77.1429 37.8573 82.7143 29.7145 89.5714 20.4288C96.5714 11.1431 102.857 2.71449 103.429 1.71449C104.143 0.428773 102 0.000201195 93.7143 0.000201195H83L72.8571 13.5716C67.2857 21.0002 62.1429 27.4288 61.4286 27.8573C60.5714 28.4288 60 23.1431 60 14.4288V0.000201195H40V30.0002H32.2857C21.1429 30.0002 20 28.4288 20 12.7145V0.000201195H0V16.0002Z" fill="black"/>
<path d="M190.429 2.71456C180.001 6.28599 173.715 11.7146 169.143 20.7146C161.572 36.4288 164.286 54.5717 176.286 66.4288C185.001 75.1431 190.858 77.1431 207.715 77.1431H220.001V60.0003H210.001C193.143 60.0003 186.572 54.0003 186.572 38.5717C186.429 23.286 193.286 17.4288 211.143 17.286L220.001 17.1431V0.000270963H209.001C202.143 0.143128 195.001 1.14313 190.429 2.71456Z" fill="black"/>
<path d="M249.286 1.85736C240.857 4.7145 235.429 7.85736 231.286 12.4288C217.143 27.5716 217.429 51.8574 232 66.0002C239.286 73.1431 246.286 76.1431 256.857 76.8574C290 79.1431 309.572 40.8574 288.715 14.4288C280.143 3.71451 261.715 -2.14264 249.286 1.85736ZM269.857 22.5716C282 31.5716 281.857 48.2859 269.572 55.7145C253 65.8574 233.286 48.7145 241.143 31.0002C246.143 19.7145 260.429 15.5717 269.857 22.5716Z" fill="black"/>
<path d="M300 30.8574C300 65.8574 300.714 68.8574 309.857 74.0003C314.857 76.8574 317.429 77.1431 338.429 77.1431H361.429V0.000270963H340V60.0003H332.429C328.286 60.0003 324.143 59.286 323.143 58.286C321.857 57.0003 321.429 48.4288 321.429 28.286V0.000270963H300V30.8574Z" fill="black"/>
<path d="M368.571 48.5714H383.714C399.428 48.5714 404.286 49.8571 404.286 54C404.286 59.1429 401.286 60 384.714 60H368.571V77.2857L389.143 76.8571C407.428 76.4286 410.286 76.1429 413.857 73.4286C427.714 63 426.286 40.4286 411.286 32.8571C407.571 30.8571 403 30 396.428 30H387L387.428 23.8571L387.857 17.8571L417.143 17V0H368.571V48.5714Z" fill="black"/>
<path d="M453.572 13.5717C456.286 21.1432 458.572 27.8575 458.572 28.5717C458.572 29.4289 453.857 30.0003 448.143 30.0003H437.714L434 40.286C431.857 46.0003 428.286 56.1432 425.857 62.8575C423.429 69.5717 421.429 75.4289 421.429 76.0003C421.429 76.7146 443.286 77.1432 470 77.1432H518.572V48.5717H537.143V77.1432H557.143V63.5717C557.143 56.1432 557.714 50.0003 558.286 50.0003C558.857 50.0003 564.857 56.1432 571.429 63.5717L583.572 77.0003L597 77.1432C612.714 77.1432 613.286 79.5717 591.143 55.5717C582.572 46.4289 575.714 38.286 575.714 37.5717C575.714 36.7146 580.572 29.7146 586.572 22.0003C592.572 14.286 598.714 6.14317 600.286 3.85746L603 0.000314556H591.143L579.286 0.143172L569.286 13.5717C563.857 21.0003 558.857 27.1432 558.286 27.1432C557.572 27.1432 557.143 21.0003 557.143 13.5717V0.000314556H537.143V30.0003H518.572V0.000314556H497.143V33.1432C497.143 51.5717 496.572 65.7146 495.857 64.8575C495.286 64.1432 489.572 49.286 483.429 31.8575L472.143 0.000314556H448.714L453.572 13.5717ZM465.572 46.1432C468 53.0003 470 59.0003 470 59.4289C470 59.7146 465.143 60.0003 459.286 60.0003C453.429 60.0003 448.572 59.8575 448.572 59.5717C448.572 59.286 450.572 53.7146 452.857 47.0003C455.286 40.4289 457.572 34.1432 458 33.0003C459.143 29.7146 460.714 32.5717 465.572 46.1432Z" fill="black"/>
<path d="M341 82.4286C340.429 82.8572 340 87.1429 340 91.7143V100H368.571V81.4286H355.286C347.857 81.4286 341.429 81.8572 341 82.4286Z" fill="black"/>
</svg>
