<svg width="281" height="200" viewBox="0 0 281 200" fill="none" xmlns="http://www.w3.org/2000/svg">
<path fill-rule="evenodd" clip-rule="evenodd" d="M140.44 0C62.88 0 0 44.76 0 100C0 155.24 62.88 200 140.44 200C218 200 280.88 155.24 280.88 100C280.88 44.76 218 0 140.44 0ZM140.44 193C71.72 193 16.04 151.36 16.04 100C16.04 48.64 71.72 7 140.44 7C209.16 7 264.84 48.64 264.84 100C264.84 151.36 209.16 193 140.44 193Z" fill="black"/>
<path fill-rule="evenodd" clip-rule="evenodd" d="M218.92 96.64C228.72 96.64 237.48 88.16 237.48 77.72C237.48 67.28 229.2 58.8 218.92 58.8C207.88 58.8 200.44 68.56 200.4 77.72C200.4 88.2 208.64 96.64 218.92 96.64ZM217.68 60.64C225.92 60 230.96 66.4 232.04 76.84C232.8 87.76 227.36 94.36 220.08 94.88C212.52 95.48 206.44 88.12 205.76 78.68C205.08 69.24 210 61.2 217.68 60.64Z" fill="black"/>
<path fill-rule="evenodd" clip-rule="evenodd" d="M94.92 103.48C83.88 103.48 76.44 113.24 76.4 122.4C76.4 132.84 84.68 141.28 94.92 141.32C104.76 141.32 113.52 132.84 113.52 122.4C113.52 111.96 105.2 103.48 94.92 103.48ZM96.12 139.52C88.56 140.12 82.48 132.8 81.8 123.32C81.12 113.84 86.04 105.88 93.72 105.28C101.96 104.64 107 111.04 108.08 121.48C108.84 132.4 103.4 139 96.12 139.52Z" fill="black"/>
<path fill-rule="evenodd" clip-rule="evenodd" d="M146.72 132.12C138.64 140.32 131 136.92 130.48 136.72C125.2 134.8 121.32 128.52 121.32 121.04C121.32 112.04 125.72 104.76 133.88 104.76C139.44 104.76 143.68 109.08 142.72 112.84L143.32 113L145.08 104.84C141.92 104.04 138.48 103.32 134.88 103.32C132.374 103.33 129.895 103.833 127.584 104.802C125.273 105.77 123.175 107.184 121.41 108.964C119.646 110.743 118.249 112.852 117.301 115.172C116.352 117.491 115.869 119.974 115.88 122.48C115.88 133.08 124.24 141.32 133.52 141.32C137.92 141.32 143.52 138.16 147.2 132.68L146.72 132.12Z" fill="black"/>
<path fill-rule="evenodd" clip-rule="evenodd" d="M99.3599 63.72C99.5999 69.8 99.5199 88.2 99.3199 91.68C99.2799 94.12 98.3199 95.16 96.3199 95.32V96.08C97.8799 95.92 102.04 96 102.52 95.96C103 95.92 108.2 96.08 108.56 96.08V95.36C104.56 95.28 104.36 91.92 104.2 88.32C104.2 86.48 104.08 78.96 104.16 77.76C105.16 77.84 107.32 77.4 109.52 79.8C112.04 82.52 117.56 90 119.4 91.92C121.04 93.64 124.08 97.88 132.28 96.08V95.48C130.72 95.32 129.56 94.96 126.32 91.92C122.88 88.68 112.88 78 112 76.6C112.16 76.72 120.52 73.64 120.64 66.28C120.76 59.08 113.4 59.48 112.56 59.48C111.72 59.48 98.3999 59.68 96.1199 59.4L96.1599 60.2C98.3999 60.2 99.2399 61.4 99.3599 63.72ZM104.2 74.92C104.2 74.92 104.36 66.64 104.56 63.52C104.8 60.68 106.2 60.2 108.84 60.44C111.24 60.64 114.84 61.56 115.68 67.6C116.36 72.6 113 75.88 109.72 76.24C108.37 76.4406 107.003 76.5076 105.64 76.44C103.88 76.28 104.2 76.48 104.2 74.92Z" fill="black"/>
<path fill-rule="evenodd" clip-rule="evenodd" d="M125.76 63.68C125.96 68.52 125.92 81.28 125.8 87.96C126.96 89.72 129.52 92.2 131.28 93.12C130.72 91.84 130.68 90.12 130.6 88.32C130.48 86.44 130.48 78.96 130.56 77.76C131.56 77.84 133.72 77.4 135.92 79.8C138.48 82.52 144 90 145.84 91.92C147.48 93.64 150.52 97.88 158.72 96.08V95.48C157.16 95.32 156 94.96 152.76 91.92C149.32 88.68 139.32 78 138.44 76.6C138.6 76.72 146.96 73.64 147.08 66.28C147.2 59.08 139.84 59.48 139 59.48C138.16 59.48 124.84 59.68 122.56 59.4V60.16C124.68 60.16 125.6 61.36 125.76 63.68ZM130.64 74.92C130.64 74.92 130.8 66.64 131 63.52C131.24 60.68 132.64 60.2 135.28 60.44C137.68 60.64 141.28 61.56 142.12 67.6C142.8 72.6 139.44 75.88 136.16 76.24C134.81 76.4406 133.443 76.5076 132.08 76.44C130.32 76.28 130.64 76.48 130.64 74.92Z" fill="black"/>
<path fill-rule="evenodd" clip-rule="evenodd" d="M175.88 63.72C176.16 69.8 176.04 88.2 175.84 91.68C175.8 94.12 174.84 95.16 172.84 95.32V96.08C174.4 95.92 178.56 96 179.04 95.96C179.52 95.92 184.72 96.08 185.08 96.08V95.36C181.08 95.28 180.88 91.92 180.72 88.32C180.72 86.48 180.6 78.96 180.68 77.76C181.68 77.84 183.84 77.4 186.04 79.8C188.6 82.52 194.12 90 195.96 91.92C197.6 93.64 200.64 97.88 208.84 96.08V95.48C207.28 95.32 206.12 94.96 202.88 91.92C199.44 88.68 189.44 78 188.56 76.6C188.72 76.72 197.08 73.64 197.2 66.28C197.32 59.08 189.96 59.48 189.12 59.48C188.28 59.48 174.96 59.68 172.68 59.4V60.2C174.92 60.2 175.72 61.4 175.88 63.72ZM180.72 74.92C180.72 74.92 180.88 66.64 181.08 63.52C181.32 60.68 182.72 60.2 185.36 60.44C187.76 60.64 191.36 61.56 192.2 67.6C192.88 72.6 189.52 75.88 186.24 76.24C184.89 76.4406 183.523 76.5076 182.16 76.44C180.4 76.28 180.72 76.48 180.72 74.92Z" fill="black"/>
<path fill-rule="evenodd" clip-rule="evenodd" d="M219.84 121.48C220 121.6 228.36 118.52 228.48 111.16C228.6 103.96 221.24 104.36 220.4 104.36C219.56 104.36 206.24 104.56 203.96 104.28L203.92 105.08C206.16 105.12 206.96 106.32 207.12 108.64C207.4 114.72 207.28 133.12 207.08 136.6C207.04 139.04 206.08 140.08 204.08 140.24V141C205.68 140.8 209.84 140.88 210.32 140.84C210.8 140.8 216 141 216.36 141V140.28C212.36 140.2 212.16 136.84 212 133.24C212 131.36 211.88 123.88 211.96 122.64C212.96 122.72 215.12 122.28 217.32 124.68C219.84 127.4 225.4 134.88 227.24 136.8C228.88 138.52 231.92 142.76 240.12 140.96V140.36C238.56 140.2 237.4 139.84 234.16 136.8C230.72 133.56 220.72 122.88 219.84 121.48ZM213.44 121.28C211.68 121.12 212 121.32 212 119.76C212 119.76 212.16 111.52 212.36 108.4C212.6 105.56 214.04 105.08 216.64 105.32C219.04 105.52 222.64 106.4 223.48 112.48C224.2 117.44 220.84 120.72 217.56 121.08C216.194 121.26 214.816 121.327 213.44 121.28Z" fill="black"/>
<path fill-rule="evenodd" clip-rule="evenodd" d="M64.5999 121.24C64.7599 121.36 73.1199 118.28 73.2399 110.92C73.3599 103.72 65.9999 104.12 65.1599 104.12C64.3199 104.12 50.9999 104.32 48.7199 104.04L48.7999 104.84C51.0399 104.84 51.8399 106.04 51.9999 108.36C52.2799 114.44 52.1599 132.84 51.9599 136.32C51.9199 138.76 50.9599 139.8 48.9599 139.96V140.72C50.5599 140.56 54.7199 140.64 55.1999 140.6C55.6799 140.56 60.8799 140.72 61.2399 140.72V140C57.1999 139.92 56.9999 136.56 56.8399 132.96C56.8399 131.12 56.7199 123.64 56.7999 122.4C57.7999 122.48 59.9599 122.04 62.1599 124.44C64.6799 127.16 70.1999 134.64 72.0399 136.56C73.6799 138.28 76.7199 142.48 84.9199 140.72V140.12C83.3599 139.96 82.1999 139.6 78.9599 136.56C75.5199 133.32 65.4799 122.64 64.5999 121.24ZM58.2399 121.08C56.4799 120.92 56.7999 121.12 56.7999 119.56C56.7999 119.56 56.9199 111.28 57.1599 108.2C57.3999 105.36 58.7999 104.92 61.4399 105.12C63.8399 105.32 67.4399 106.2 68.2799 112.28C68.9999 117.24 65.6399 120.52 62.3599 120.88C60.9199 121 59.3999 121.2 58.2399 121.08Z" fill="black"/>
<path fill-rule="evenodd" clip-rule="evenodd" d="M48.1599 95.36V96.08C52.8799 95.92 57.7199 96.04 61.0799 96.08V95.32C59.9599 95.28 57.0799 95.28 56.6399 91.64C56.4399 89.84 56.2399 80.16 56.3599 78.72C64.6799 78.84 70.5199 77 73.5199 74.72L73.3199 74.16C69.9999 76.12 59.7999 75.76 56.3199 75.8C56.3599 74.68 56.3999 65.8 56.5199 64.24C56.5599 63.08 56.6399 60.76 60.1599 61.08C66.2799 61.6 69.8799 61.76 69.8799 66.52H70.5599C70.6799 64.44 71.2399 61.36 71.5199 59.44C66.5199 60.44 55.1599 60.12 47.7199 59.84V60.6C49.9999 60.72 51.4399 61.52 51.5999 63.96C51.8799 69.64 51.8799 88.24 51.5599 91.68C51.3599 95.28 49.3999 95.16 48.1599 95.36Z" fill="black"/>
<path fill-rule="evenodd" clip-rule="evenodd" d="M75.8401 63.76C76.0001 69.56 75.8801 88.44 75.6801 91.92C75.6801 94.96 74.2801 95.2 72.2801 95.32V96.12C77.0001 96 82.0401 95.68 83.4001 95.72C84.7601 95.76 88.9201 95.92 92.2001 96.12C96.3601 96 96.3601 94.04 97.6401 89.4L96.9601 89.16C94.7201 94.2 90.2801 93.88 85.2001 93.92C80.1201 93.96 80.6001 90.32 80.4801 88.44C80.3601 86.56 80.3601 79.08 80.4401 77.84C86.9201 77.48 91.5201 75.92 94.5201 73.64L94.2001 73.12C91.8001 74.68 85.2401 75.12 80.5201 74.84C80.5601 73.72 80.6801 65.84 80.8001 64.28C80.8401 63.08 80.7601 60.52 84.3201 60.88C87.7601 61.24 92.4401 61.12 92.1201 66.16C92.1201 66.12 92.8801 66.2 92.8801 66.16C93.0401 64.2 93.5201 60.96 93.7601 59.16C88.6801 60.04 79.9601 59.96 72.9601 59.52V60.28C74.8401 60.32 75.7201 61.4 75.8401 63.76Z" fill="black"/>
<path fill-rule="evenodd" clip-rule="evenodd" d="M152.72 63.76C152.84 68.48 152.8 81.8 152.64 88.52C154.12 90.32 158.92 94.72 162.92 95.84C164.76 95.92 167.08 96 169.08 96.12C173.24 96 173.24 94.04 174.52 89.4L173.84 89.16C171.6 94.2 167.16 93.88 162.08 93.92C157 93.96 157.48 90.32 157.36 88.44C157.24 86.56 157.24 79.08 157.32 77.84C163.76 77.48 168.36 75.92 171.36 73.64L171.04 73.12C168.64 74.68 162.08 75.12 157.36 74.84C157.4 73.72 157.52 65.84 157.64 64.28C157.72 63.08 157.6 60.52 161.16 60.88C164.6 61.24 169.28 61.12 168.96 66.16C168.96 66.12 169.72 66.2 169.72 66.16C169.88 64.2 170.36 60.96 170.6 59.16C165.52 60.04 156.84 59.96 149.84 59.52V60.28C151.76 60.24 152.6 61.4 152.72 63.76Z" fill="black"/>
<path fill-rule="evenodd" clip-rule="evenodd" d="M191.64 138.76C186.56 138.8 187.04 135.16 186.92 133.28C186.8 131.4 186.8 123.92 186.88 122.68C193.32 122.32 197.92 120.76 200.92 118.48L200.6 117.96C198.2 119.52 191.64 119.96 186.92 119.68C186.96 118.56 187.08 110.68 187.2 109.12C187.24 107.92 187.16 105.36 190.72 105.72C194.16 106.08 198.84 105.96 198.52 111C198.52 110.96 199.28 111.04 199.28 111C199.44 109.04 199.92 105.8 200.16 104C195.12 104.88 186.4 104.8 179.4 104.36V105.12C181.28 105.16 182.16 106.24 182.28 108.6C182.44 114.44 182.32 133.28 182.12 136.76C182.12 139.8 180.72 140.04 178.72 140.16V140.96C183.44 140.84 188.48 140.52 189.84 140.56C191.2 140.6 195.36 140.76 198.64 140.96C202.8 140.84 202.8 138.88 204.08 134.24L203.4 134C201.16 139.04 196.72 138.72 191.64 138.76Z" fill="black"/>
<path fill-rule="evenodd" clip-rule="evenodd" d="M173.92 136.4C173.56 132.96 173.52 114.04 173.8 108.36C173.84 105.8 175.08 105 177.24 105.08V104.24C172.964 104.508 168.675 104.494 164.4 104.2V105C167.68 105.08 168.8 107.36 168.88 109.2C168.88 110.84 169.12 118.4 169.16 119.56C164.76 120.68 157.4 120.08 154.52 120.12C154.56 118.96 154.72 110.52 154.72 108.88C154.64 107.24 155.24 104.96 158.8 104.96V104.16C154.526 104.454 150.236 104.468 145.96 104.2V105.08C148.28 105.08 149.68 105.92 149.84 108.36C150.12 114 150.36 133.2 150.04 136.64C149.8 139.88 148.2 139.88 146.36 140.04V140.8C151.08 140.64 155.92 140.68 159.28 140.76V140C157.36 139.96 155.2 139.76 154.92 136.24C154.72 134.44 154.56 124.76 154.68 123.32C161.24 123.52 165.76 122.64 169.2 120.92C169.32 122.36 169.08 134.52 168.92 136.32C168.48 139.84 165.72 140.12 164.6 140V140.76C167.96 140.72 172.92 140.64 177.68 140.8V140.04C176.16 139.92 174.12 140 173.92 136.4Z" fill="black"/>
</svg>
