<svg width="455" height="100" viewBox="0 0 455 100" fill="none" xmlns="http://www.w3.org/2000/svg">
<g opacity="0.978">
<path fill-rule="evenodd" clip-rule="evenodd" d="M134.848 0C141.919 0 148.99 0 156.06 0C174.283 2.94196 186.026 13.2955 191.288 31.0606C195.016 46.1794 194.258 61.0784 189.015 75.7576C182.161 89.4727 171.176 97.5538 156.06 100C148.99 100 141.919 100 134.848 100C116.066 96.7523 104.071 85.8939 98.8635 67.4242C95.4491 51.8583 96.712 36.7068 102.651 21.9697C109.903 9.44977 120.635 2.12655 134.848 0ZM140.151 19.697C154.301 18.3102 162.761 24.6234 165.53 38.6364C167.321 48.1105 166.816 57.4539 164.015 66.6667C157.899 79.7341 148.176 83.3955 134.848 77.6515C128.754 72.6616 125.345 66.2222 124.621 58.3333C123.641 49.5767 124.398 40.9908 126.894 32.5758C129.75 26.5616 134.169 22.2686 140.151 19.697Z" fill="black"/>
<path fill-rule="evenodd" clip-rule="evenodd" d="M412.121 0C418.687 0 425.252 0 431.818 0C447.538 3.66195 452.462 13.0054 446.591 28.0303C436.814 19.8105 425.829 17.664 413.636 21.5909C407.783 28.0922 409.045 32.8902 417.424 35.9848C427.307 38.1835 436.651 41.7189 445.454 46.5909C449.951 50.4286 452.982 55.1003 454.545 60.6061C454.545 65.6566 454.545 70.707 454.545 75.7576C450.109 89.8591 440.514 97.9402 425.758 100C419.445 100 413.131 100 406.818 100C399.364 98.8129 392.924 95.5303 387.5 90.1515C383.719 83.5508 383.088 76.6068 385.606 69.3182C385.871 68.3655 386.376 68.113 387.121 68.5606C397.845 80.0811 410.472 82.9856 425 77.2727C429.245 72.382 428.739 67.9628 423.485 64.0152C416.636 60.8902 409.565 58.365 402.273 56.4394C386.027 50.0877 379.84 38.3453 383.712 21.2121C385.65 14.2254 389.817 9.04856 396.212 5.68182C401.36 3.08408 406.663 1.19014 412.121 0Z" fill="black"/>
<path fill-rule="evenodd" clip-rule="evenodd" d="M0 0.757672C16.0324 -1.25646 29.29 3.79405 39.7727 15.9092C48.5055 32.3646 56.8389 49.0313 64.7727 65.9092C64.4761 44.2036 64.3498 22.4864 64.3939 0.757672C72.4748 0.757672 80.5553 0.757672 88.6364 0.757672C88.6364 33.3334 88.6364 65.9092 88.6364 98.4849C68.7412 101.983 54.221 94.9122 45.0758 77.2728C37.7525 62.6264 30.4293 47.9799 23.1061 33.3334C23.4465 55.0284 23.5728 76.7455 23.4848 98.4849C15.6566 98.4849 7.82828 98.4849 0 98.4849C0 65.9092 0 33.3334 0 0.757672Z" fill="black"/>
<path fill-rule="evenodd" clip-rule="evenodd" d="M190.152 1.51508C199.43 1.27128 208.647 1.5238 217.803 2.27266C224.621 27.0202 231.439 51.7676 238.258 76.5151C245.076 51.7676 251.894 27.0202 258.712 2.27266C267.616 1.52406 276.58 1.27153 285.606 1.51508C275.308 33.6707 264.702 65.7414 253.788 97.7272C242.941 98.484 232.083 98.7371 221.212 98.4848C210.858 66.1615 200.505 33.8383 190.152 1.51508Z" fill="black"/>
<path fill-rule="evenodd" clip-rule="evenodd" d="M343.939 100C336.616 100 329.293 100 321.97 100C306.905 97.8242 296.93 89.4909 292.045 75C290.937 50.5363 290.558 26.0414 290.909 1.51515C299.495 1.51515 308.081 1.51515 316.667 1.51515C316.333 23.5096 316.711 45.4793 317.803 67.4242C320.983 78.5492 328.18 82.4636 339.394 79.1667C344.339 76.4841 347.242 72.317 348.106 66.6667C349.176 44.9687 349.555 23.2516 349.242 1.51515C357.828 1.51515 366.414 1.51515 375 1.51515C375.345 25.7848 374.966 50.0272 373.864 74.2424C369.114 88.9242 359.139 97.5098 343.939 100Z" fill="black"/>
</g>
</svg>
