<svg width="633" height="100" viewBox="0 0 633 100" fill="none" xmlns="http://www.w3.org/2000/svg">
<path fill-rule="evenodd" clip-rule="evenodd" d="M1.95289 96.4935V77.4601C12.7862 80.8698 22.3722 82.5746 30.7109 82.5746C42.2239 82.5746 47.9813 79.5313 47.9813 73.4493C47.9813 71.1819 47.1434 69.2764 45.4639 67.7336C43.7465 66.0971 39.3477 63.8285 32.2791 60.9219C19.596 55.7068 11.3256 51.2593 7.47871 47.5807C2.49269 42.7251 0 36.6019 0 29.2023C0 19.6732 3.63241 12.4103 10.8922 7.41921C18.0715 2.47179 27.4202 0.000617992 38.9528 0.000617992C45.307 0.000617992 54.5038 1.17008 66.5332 3.51215V21.8216C57.5825 18.2462 49.2742 16.4623 41.598 16.4623C30.7888 16.4623 25.3844 19.4302 25.3844 25.3794C25.3844 27.6031 26.4729 29.4168 28.653 30.8229C30.466 31.9607 35.4615 34.3642 43.6287 38.0409C55.3885 43.2636 63.2172 47.8035 67.1179 51.665C71.7464 56.2453 74.065 62.1724 74.065 69.4372C74.065 79.8794 69.5232 87.8447 60.446 93.3332C53.092 97.7839 43.556 100 31.8437 100C21.9526 100 11.9869 98.835 1.95289 96.4935Z" fill="black"/>
<path fill-rule="evenodd" clip-rule="evenodd" d="M89.2683 1.67568H116.189V98.0528H89.2683V1.67568Z" fill="black"/>
<path fill-rule="evenodd" clip-rule="evenodd" d="M140.877 98.0528V1.67568H209.921V19.1074H166.823V40.8696H204.338V56.7699H166.823V79.6408H211.032V98.0528H140.877Z" fill="black"/>
<path fill-rule="evenodd" clip-rule="evenodd" d="M228.606 98.0528V1.67568H263.509L287.758 63.2564L312.615 1.67568H345.768V98.0528H320.244V29.8154L291.98 99.0311H275.293L247.573 29.8154V98.0528H228.606Z" fill="black"/>
<path fill-rule="evenodd" clip-rule="evenodd" d="M370.462 98.0528V1.67568H439.505V19.1074H396.41V40.8696H433.924V56.7699H396.41V79.6408H440.622V98.0528H370.462Z" fill="black"/>
<path fill-rule="evenodd" clip-rule="evenodd" d="M458.336 98.0528V1.67568H489.537L522.638 66.1927V1.67568H541.6V98.0528H511.286L477.305 32.6676V98.0528H458.336Z" fill="black"/>
<path fill-rule="evenodd" clip-rule="evenodd" d="M560.711 96.4935V77.4601C571.453 80.8698 581.037 82.5746 589.474 82.5746C600.988 82.5746 606.739 79.5313 606.739 73.4493C606.739 71.1819 605.923 69.2764 604.3 67.7336C602.574 66.0971 598.156 63.8285 591.045 60.9219C578.4 55.7498 570.122 51.3043 566.239 47.5807C561.256 42.7681 558.768 36.6221 558.768 29.1365C558.768 19.6485 562.391 12.4097 569.658 7.41859C576.827 2.47118 586.187 0 597.72 0C604.205 0 612.608 1.0296 622.913 3.0983L625.293 3.51154V21.821C616.341 18.2456 608.009 16.4616 600.292 16.4616C589.523 16.4616 584.153 19.4296 584.153 25.3787C584.153 27.6025 585.235 29.4162 587.41 30.8223C589.137 31.9164 594.153 34.3212 602.457 38.0403C614.128 43.263 621.94 47.8028 625.875 51.6643C630.51 56.2447 632.823 62.1717 632.823 69.4365C632.823 79.8788 628.308 87.8441 619.277 93.3326C611.88 97.7832 602.32 99.9994 590.609 99.9994C580.708 100 570.737 98.835 560.711 96.4935Z" fill="black"/>
</svg>
