<svg width="527" height="291" viewBox="0 0 527 291" fill="none" xmlns="http://www.w3.org/2000/svg">
<path d="M343.263 169.868C343.263 177.803 335.034 183.093 327.099 183.093C323.573 183.093 318.577 181.33 318.577 175.158C318.577 168.105 324.16 166.342 330.92 165.166C338.267 163.991 341.5 162.815 343.263 161.64V169.868ZM360.897 180.742V144.888C360.897 128.43 343.263 125.491 333.271 125.491C319.752 125.491 305.939 128.136 303 146.063H320.634C321.515 142.831 324.16 139.304 331.214 139.304C335.916 139.304 343.263 139.598 343.263 146.945C343.263 150.178 340.324 152.235 332.683 152.823C315.344 154.292 300.355 160.464 300.355 175.746C300.355 189.559 310.935 195.143 321.222 195.143C333.565 195.143 339.443 189.559 343.557 185.444C343.851 189.265 344.145 190.147 345.32 193.38H364.717V191.028C362.954 190.147 360.897 188.677 360.897 180.742Z" fill="black"/>
<path d="M109.033 169.868C109.033 177.803 100.804 183.093 92.8689 183.093C89.3422 183.093 84.3461 181.33 84.3461 175.158C84.3461 168.105 89.93 166.342 96.6894 165.166C104.037 163.991 107.269 162.815 109.033 161.64V169.868ZM126.666 180.742V144.888C126.666 128.43 109.033 125.491 99.0406 125.491C85.5217 125.491 71.7089 128.136 68.77 146.063H86.4033C87.285 142.831 89.93 139.304 96.9833 139.304C101.686 139.304 109.033 139.598 109.033 146.945C109.033 150.178 106.094 152.235 98.4528 152.823C81.1133 154.292 66.125 160.464 66.125 175.746C66.125 189.559 76.705 195.143 86.9911 195.143C99.3344 195.143 105.212 189.559 109.327 185.444C109.621 189.265 109.914 190.147 111.09 193.38H130.487V191.028C128.429 190.147 126.666 188.677 126.666 180.742Z" fill="black"/>
<path d="M526.648 263.618L412.913 159.876L450.825 109.033H429.371L393.81 157.524V0H376.471V193.673H393.81V163.99L501.667 263.618H526.648Z" fill="black"/>
<path d="M391.458 29.9775C337.97 29.9775 292.124 62.5989 272.14 109.033H290.361C309.169 72.0033 347.375 46.4353 391.458 46.4353C454.057 46.4353 504.605 97.2781 504.605 160.17C504.605 222.768 453.763 273.905 391.458 273.905C347.375 273.905 308.875 248.337 290.361 211.307H272.14C291.83 257.741 337.97 290.363 391.458 290.363C462.873 290.363 521.063 231.879 521.063 160.17C521.063 88.1675 462.873 29.9775 391.458 29.9775Z" fill="black"/>
<path d="M18.515 193.673H0V103.155H64.0678V119.319H18.515V142.536H54.6633V158.406H18.515V193.673Z" fill="black"/>
<path d="M141.362 126.666H158.114V138.128H158.408C161.935 131.368 166.049 124.903 176.629 124.903C177.805 124.903 178.98 124.903 180.156 125.197V143.124C178.686 142.83 176.629 142.83 175.16 142.83C161.347 142.83 158.996 151.353 158.996 158.7V193.673H141.362V126.666Z" fill="black"/>
<path d="M288.011 193.673H270.378V153.116C270.378 143.124 265.969 139.891 260.679 139.891C251.863 139.891 248.63 145.769 248.63 153.704V193.967H230.996V153.41C230.996 147.826 230.996 139.891 220.416 139.891C212.188 139.891 209.543 145.769 209.543 153.116V193.967H191.909V126.666H208.955V136.365H208.661C211.012 131.956 216.008 124.903 227.764 124.903C237.462 124.903 241.87 128.43 246.573 135.483C248.924 132.25 253.92 124.903 264.5 124.903C277.725 124.903 288.011 132.544 288.011 147.238V193.673Z" fill="black"/>
</svg>
