<svg width="555" height="100" viewBox="0 0 555 100" fill="none" xmlns="http://www.w3.org/2000/svg">
<g opacity="0.826">
<path fill-rule="evenodd" clip-rule="evenodd" d="M10.9034 1.04089C22.9767 -2.20624 29.5018 2.14386 30.4789 14.0912C28.8665 23.9715 23.0665 27.9593 13.0785 26.0539C2.27155 18.6818 1.54661 10.344 10.9034 1.04089Z" fill="black"/>
<path fill-rule="evenodd" clip-rule="evenodd" d="M539.439 27.1415C553.553 26.3939 557.903 32.5565 552.489 45.6294C545.942 50.4621 540.505 49.3746 536.176 42.3668C534.365 36.5573 535.452 31.4822 539.439 27.1415ZM550.314 33.6666C553.09 35.5946 553.09 37.7696 550.314 40.1918C549.037 38.5966 549.037 36.4215 550.314 33.6666Z" fill="black"/>
<path fill-rule="evenodd" clip-rule="evenodd" d="M200.132 29.3161C229.521 24.0405 247.648 35.6407 254.508 64.1168C252.316 80.4958 243.616 91.7336 228.408 97.83C198.251 104.885 179.402 93.647 171.856 64.1168C174.993 47.2234 184.417 35.623 200.132 29.3161ZM208.832 35.8412C226.115 37.1738 235.542 46.5992 237.108 64.1168C234.574 85.9358 222.974 94.2734 202.307 89.1299C189.185 76.885 186.649 62.7472 194.694 46.7164C198.968 42.2569 203.682 38.6318 208.832 35.8412Z" fill="black"/>
<path fill-rule="evenodd" clip-rule="evenodd" d="M426.337 29.3163C439.451 29.1543 452.501 29.8792 465.488 31.4914C466.213 38.7414 466.939 45.9918 467.663 53.2418C465.488 53.2418 463.313 53.2418 461.138 53.2418C450.398 32.0119 436.984 30.562 420.9 48.8917C412.674 71.0983 419.562 85.5985 441.563 92.3927C453.321 91.0453 463.109 85.9702 470.926 77.1674C473.292 88.9389 468.579 95.8267 456.788 97.8303C431.155 104.397 412.667 96.059 401.324 72.8173C399.193 52.1484 407.53 37.648 426.337 29.3163Z" fill="black"/>
<path fill-rule="evenodd" clip-rule="evenodd" d="M0.0286477 31.4915C9.45378 31.4915 18.8791 31.4915 28.3043 31.4915C28.3043 51.7918 28.3043 72.0924 28.3043 92.3928C31.9294 92.3928 35.5544 92.3928 39.1795 92.3928C39.1795 94.5678 39.1795 96.7429 39.1795 98.9179C26.1292 98.9179 13.0789 98.9179 0.0286477 98.9179C0.0286477 96.7429 0.0286477 94.5678 0.0286477 92.3928C3.60421 92.8572 6.86678 92.1322 9.81636 90.2177C11.2665 73.5423 11.2665 56.8671 9.81636 40.1917C7.49472 38.6898 4.95709 37.6023 2.2037 36.9291C0.56719 35.4701 -0.157971 33.6576 0.0286477 31.4915Z" fill="black"/>
<path fill-rule="evenodd" clip-rule="evenodd" d="M43.5286 31.4915C53.2447 30.6924 62.6699 31.7799 71.8042 34.7541C94.0099 55.879 116.485 76.542 139.231 96.7429C130.35 99.6951 121.65 99.3328 113.13 95.6554C97.5422 81.5176 81.9545 67.3798 66.3666 53.242C65.2801 66.2722 64.9175 79.3225 65.279 92.3928C68.9042 92.3928 72.5291 92.3928 76.1543 92.3928C76.1543 94.5679 76.1543 96.7429 76.1543 98.918C65.279 98.918 54.4038 98.918 43.5286 98.918C43.5286 96.7429 43.5286 94.5679 43.5286 92.3928C47.1537 92.3928 50.7787 92.3928 54.4038 92.3928C54.7657 75.7017 54.4032 59.0263 53.3163 42.3667C48.8366 39.6236 45.574 35.9984 43.5286 31.4915Z" fill="black"/>
<path fill-rule="evenodd" clip-rule="evenodd" d="M76.1536 29.3164C83.9433 30.9692 91.9186 32.0568 100.079 32.579C117.117 48.1669 134.155 63.7546 151.193 79.3425C152.643 66.2922 152.643 53.2419 151.193 40.1917C146.46 39.1294 142.472 36.9543 139.23 33.6665C150.105 30.7665 160.98 30.7665 171.856 33.6665C169.315 37.4019 165.689 38.852 160.98 38.0166C160.619 53.9834 160.981 69.9337 162.068 85.8677C163.348 91.0079 166.612 93.183 171.856 92.3928C171.856 94.5678 171.856 96.7429 171.856 98.9179C162.857 99.6873 154.157 98.5997 145.755 95.6554C123.28 75.7174 100.804 55.7796 78.3287 35.8416C76.4022 34.0471 75.6773 31.8721 76.1536 29.3164Z" fill="black"/>
<path fill-rule="evenodd" clip-rule="evenodd" d="M247.982 31.4917C256.265 30.7591 264.238 31.8467 271.908 34.7543C279.655 46.9898 286.543 59.6775 292.571 72.8176C296.349 62.5692 300.335 52.4189 304.533 42.3669C304.037 38.2411 301.862 35.3409 298.008 33.6667C307.433 30.7667 316.859 30.7667 326.284 33.6667C322.543 36.7547 318.554 39.6546 314.321 42.3669C307.548 61.2426 299.935 79.7306 291.483 97.8306C289.014 99.4606 286.839 99.098 284.958 96.7431C276.488 77.6277 267.425 58.7772 257.77 40.1919C255.449 38.69 252.911 37.6025 250.157 36.9293C248.521 35.4703 247.795 33.6578 247.982 31.4917Z" fill="black"/>
<path fill-rule="evenodd" clip-rule="evenodd" d="M328.46 31.4917C349.536 30.77 370.56 31.4952 391.536 33.6667C393.544 40.0757 394.992 46.6009 395.886 53.2422C393.331 53.7185 391.156 52.9936 389.361 51.0671C387.619 45.3394 383.995 41.3518 378.486 39.1044C371.271 38.0205 364.022 37.6579 356.735 38.0168C356.735 45.2669 356.735 52.5172 356.735 59.7673C363.3 60.1253 369.825 59.763 376.311 58.6798C377.501 56.6687 378.949 54.8563 380.661 53.2422C383.56 60.4923 383.56 67.7426 380.661 74.9926C378.949 73.3785 377.501 71.5661 376.311 69.555C369.825 68.4718 363.3 68.1095 356.735 68.4675C356.039 75.8592 356.764 83.1093 358.91 90.218C374.275 95.7628 386.599 92.1377 395.886 79.3427C397.748 85.0825 397.387 90.8827 394.799 96.7431C372.866 98.8879 350.752 99.6129 328.46 98.9182C328.46 96.7431 328.46 94.5681 328.46 92.393C332.036 92.8574 335.298 92.1325 338.248 90.218C339.698 73.5425 339.698 56.8673 338.248 40.1919C335.298 38.2774 332.036 37.5525 328.46 38.0168C328.46 35.8418 328.46 33.6667 328.46 31.4917Z" fill="black"/>
<path fill-rule="evenodd" clip-rule="evenodd" d="M489.413 29.3164C501.376 29.8604 512.977 29.8604 524.214 29.3164C524.214 35.8416 524.214 42.3667 524.214 48.8918C522.039 48.8918 519.863 48.8918 517.688 48.8918C517.793 42.8193 514.893 38.8316 508.988 36.9291C503.914 35.479 498.837 35.479 493.763 36.9291C488.982 40.5614 488.256 44.9115 491.588 49.9794C503.348 55.3137 514.587 61.4762 525.301 68.4673C531.539 81.4301 528.277 91.2178 515.513 97.8304C503.029 98.282 490.703 98.6445 478.538 98.9179C475.638 91.6679 475.638 84.4175 478.538 77.1675C484.878 89.3941 495.029 94.1067 508.988 91.3053C516.681 87.3325 517.408 82.2575 511.163 76.0799C497.012 72.4711 485.774 64.8584 477.45 53.2419C475.658 42.3271 479.645 34.3521 489.413 29.3164Z" fill="black"/>
</g>
</svg>
